<svg width="9" height="9" viewBox="0 0 9 9" fill="none" xmlns="http://www.w3.org/2000/svg">
<path fill-rule="evenodd" clip-rule="evenodd" d="M0.251405 0.251403C0.58661 -0.0838012 1.13008 -0.0838012 1.46529 0.251403L8.7486 7.5347C9.0838 7.86991 9.0838 8.41338 8.7486 8.74859C8.41339 9.08379 7.86992 9.08379 7.53471 8.74859L0.251405 1.46529C-0.0837999 1.13008 -0.0837999 0.586608 0.251405 0.251403Z" fill="#808080"/>
<path fill-rule="evenodd" clip-rule="evenodd" d="M0.251404 8.7486C-0.0838012 8.41339 -0.0838012 7.86992 0.251404 7.53471L7.53471 0.251413C7.86992 -0.0837921 8.41339 -0.0837918 8.74859 0.251413C9.0838 0.586617 9.0838 1.13009 8.74859 1.4653L1.46529 8.7486C1.13008 9.0838 0.586609 9.0838 0.251404 8.7486Z" fill="#808080"/>
</svg>
