<svg width="147" height="71" viewBox="0 0 147 71" fill="none" xmlns="http://www.w3.org/2000/svg">
<path d="M52.7 69.53V39.99M53.34 39.99V69.53" stroke="white" stroke-width="0.5"/>
<path d="M0.920029 69.53H4.70003V70.17H0.280029M35.18 69.53H37.62V70.17H29.77V69.53H34.54M53.34 69.53H57.23V70.17H49.97V69.53H52.7M79.7 69.53H86.05V70.17H72.78V69.53H79.06M105.97 69.53H113.11V70.17H101.59V69.53H105.33M146.18 70.17H138.18V69.53H145.54M8.97003 69.53H14.22V70.17H8.97003V69.53ZM18.5 69.53H25.49V70.17H18.5V69.53ZM41.9 69.53H45.7V70.17H41.9V69.53ZM61.5 69.53H68.5V70.17H61.5V69.53ZM90.32 69.53H97.32V70.17H90.32V69.53ZM117.39 69.53H122.64V70.17H117.39V69.53ZM126.91 69.53H133.91V70.17H126.91V69.53Z" stroke="white" stroke-width="0.5"/>
<path d="M53.34 69.53H57.2299M57.2299 70.17H52.7M61.5 69.53H68.5M68.5 70.17H61.5M72.78 69.53H79.06M79.7 70.17H72.78" stroke="white" stroke-width="0.5"/>
<path d="M132.25 39.34H145.54M145.54 39.99H117.14V39.34H131.6M105.33 39.99H94.98V39.34H113.72V39.99H105.97M79.06 39.99H68.11V39.34H91.56V39.99H79.7M47.4 39.34H64.69V39.99H53.34M52.7 39.99H47.4M43.98 39.99H35.18M34.54 39.99H31.23V39.34H43.98M24.39 39.34H27.81V39.99H10.36V39.34H23.75M0.920044 39.34H6.94005V39.99H0.920044" stroke="white" stroke-width="0.5"/>
<path d="M79.0601 39.34H91.5601M91.5601 39.99H79.7001M94.9801 39.34H105.97M105.33 39.99H94.9801" stroke="white" stroke-width="0.5"/>
<path d="M34.54 39.34H43.98V39.99H35.18M52.7 39.99H47.4V39.34H53.34" stroke="white" stroke-width="0.5"/>
<path d="M79.0601 69.53V39.99M79.7001 39.99V69.53" stroke="white" stroke-width="0.5"/>
<path d="M35.18 39.99V69.53M34.54 69.53V39.99" stroke="white" stroke-width="0.5"/>
<path d="M105.97 39.99V69.53M105.33 69.53V39.99" stroke="white" stroke-width="0.5"/>
<path d="M46.94 37.63L43.98 39.34V39.99M47.4 39.34V39.99" stroke="white" stroke-width="0.5"/>
<path d="M116.68 37.63L113.72 39.34V39.99M117.14 39.34V39.99" stroke="white" stroke-width="0.5"/>
<path d="M133.91 70.17V69.53ZM133.91 69.89V69.81ZM138.18 69.53V70.17ZM138.18 69.81V69.89ZM133.91 69.53H138.18ZM138.18 70.17H133.91ZM133.91 69.81H138.18ZM138.18 69.89H133.91Z" stroke="white" stroke-width="0.5"/>
<path d="M97.3201 70.17V69.53ZM97.3201 69.89V69.81ZM101.59 69.53V70.17ZM101.59 69.81V69.89ZM97.3201 69.53H101.59ZM101.59 70.17H97.3201ZM97.3201 69.81H101.59ZM101.59 69.89H97.3201Z" stroke="white" stroke-width="0.5"/>
<path d="M25.49 70.17V69.53ZM25.49 69.89V69.81ZM29.77 69.53V70.17ZM29.77 69.81V69.89ZM25.49 69.53H29.77ZM29.77 70.17H25.49ZM25.49 69.81H29.77ZM29.77 69.89H25.49Z" stroke="white" stroke-width="0.5"/>
<path d="M122.64 70.17V69.53ZM122.64 69.89V69.81ZM126.91 69.53V70.17ZM126.91 69.81V69.89ZM122.64 69.53H126.91ZM126.91 70.17H122.64ZM122.64 69.81H126.91ZM126.91 69.89H122.64Z" stroke="white" stroke-width="0.5"/>
<path d="M14.22 70.17V69.53ZM14.22 69.89V69.81ZM18.5 69.53V70.17ZM18.5 69.81V69.89ZM14.22 69.53H18.5ZM18.5 70.17H14.22ZM14.22 69.81H18.5ZM18.5 69.89H14.22Z" stroke="white" stroke-width="0.5"/>
<path d="M4.69995 70.17V69.53ZM4.69995 69.89V69.81ZM8.96996 69.53V70.17ZM8.96996 69.81V69.89ZM4.69995 69.53H8.96996ZM8.96996 70.17H4.69995ZM4.69995 69.81H8.96996ZM8.96996 69.89H4.69995Z" stroke="white" stroke-width="0.5"/>
<path d="M67.6499 37.63L64.6899 39.34V39.99M68.1099 39.34V39.99" stroke="white" stroke-width="0.5"/>
<path d="M86.05 70.17V69.53ZM86.05 69.89V69.81ZM90.3201 69.53V70.17ZM90.3201 69.81V69.89ZM86.05 69.53H90.3201ZM90.3201 70.17H86.05ZM86.05 69.81H90.3201ZM90.3201 69.89H86.05Z" stroke="white" stroke-width="0.5"/>
<path d="M37.62 70.17V69.53ZM37.62 69.89V69.81ZM41.9 69.53V70.17ZM41.9 69.81V69.89ZM37.62 69.53H41.9ZM41.9 70.17H37.62ZM37.62 69.81H41.9ZM41.9 69.89H37.62Z" stroke="white" stroke-width="0.5"/>
<path d="M68.5 70.17V69.53ZM68.5 69.89V69.81ZM72.78 69.53V70.17ZM72.78 69.81V69.89ZM68.5 69.53H72.78ZM72.78 70.17H68.5ZM68.5 69.81H72.78ZM72.78 69.89H68.5Z" stroke="white" stroke-width="0.5"/>
<path d="M45.7 70.17V69.53ZM45.7 69.89V69.81ZM49.97 69.53V70.17ZM49.97 69.81V69.89ZM45.7 69.53H49.97ZM49.97 70.17H45.7ZM45.7 69.81H49.97ZM49.97 69.89H45.7Z" stroke="white" stroke-width="0.5"/>
<path d="M113.11 70.17V69.53ZM113.11 69.89V69.81ZM117.39 69.53V70.17ZM117.39 69.81V69.89ZM113.11 69.53H117.39ZM117.39 70.17H113.11ZM113.11 69.81H117.39ZM117.39 69.89H113.11Z" stroke="white" stroke-width="0.5"/>
<path d="M57.23 70.17V69.53ZM57.23 69.89V69.81ZM61.5 69.53V70.17ZM61.5 69.81V69.89ZM57.23 69.53H61.5ZM61.5 70.17H57.23ZM57.23 69.81H61.5ZM61.5 69.89H57.23Z" stroke="white" stroke-width="0.5"/>
<path d="M94.5201 37.63L91.5601 39.34V39.99M94.9801 39.34V39.99" stroke="white" stroke-width="0.5"/>
<path d="M9.89993 37.63L6.93994 39.34V39.99M10.3599 39.34V39.99" stroke="white" stroke-width="0.5"/>
<path d="M30.7801 37.63L27.8101 39.34V39.99M31.2301 39.34V39.99" stroke="white" stroke-width="0.5"/>
<path d="M26.1 34.84L24.39 31.88H23.75M24.39 35.3H23.75" stroke="white" stroke-width="0.5"/>
<path d="M53.27 25.98V0.970001M53.91 0.970001V18.21M53.91 18.85V25.98" stroke="white" stroke-width="0.5"/>
<path d="M145.54 39.34V26.63M145.54 25.98V0.970001M146.18 0.330002V70.17M145.54 69.53V39.99" stroke="white" stroke-width="0.5"/>
<path d="M53.91 25.98H54.75M54.75 26.63H53.27M58.17 25.98H58.96M59.6 26.63H58.17" stroke="white" stroke-width="0.5"/>
<path d="M94.8 0.970001H92.81M92.81 0.330002H95.44M88.54 0.970001H85.51M84.87 0.330002H88.54" stroke="white" stroke-width="0.5"/>
<path d="M64.93 0.970001V25.98M64.29 25.98V18.85M64.29 18.21V0.970001" stroke="white" stroke-width="0.5"/>
<path d="M145.54 39.34V26.63M146.18 25.98V39.99" stroke="white" stroke-width="0.5"/>
<path d="M53.91 18.21H59.6M58.96 18.85H53.91" stroke="white" stroke-width="0.5"/>
<path d="M85.51 26.63H70.23M70.23 25.98H84.87M66.81 26.63H64.29M64.93 25.98H66.81" stroke="white" stroke-width="0.5"/>
<path d="M124.82 25.98V23.44H125.47V25.98M125.47 0.970001V20.02H124.82V0.970001" stroke="white" stroke-width="0.5"/>
<path d="M132.25 26.63V39.34M131.6 39.34V26.63" stroke="white" stroke-width="0.5"/>
<path d="M35.03 0.970001V25.98M34.39 25.98V0.970001" stroke="white" stroke-width="0.5"/>
<path d="M0.920029 0.970001V25.98M0.920029 26.63V39.34M0.920029 39.99V69.53M0.280029 70.17V0.649994" stroke="white" stroke-width="0.5"/>
<path d="M0.920029 0.970001V25.98M0.280029 26.63V0.330002" stroke="white" stroke-width="0.5"/>
<path d="M58.96 25.98V18.85M59.6 18.85V25.98" stroke="white" stroke-width="0.5"/>
<path d="M113.84 26.63H110.31V25.98H113.2" stroke="white" stroke-width="0.5"/>
<path d="M124.82 0.970001H121.8M121.8 0.330002H125.47M117.52 0.970001H113.84M113.2 0.330002H117.52" stroke="white" stroke-width="0.5"/>
<path d="M95.44 25.98H98.3501V26.63H94.8" stroke="white" stroke-width="0.5"/>
<path d="M95.44 0.970001V25.98M94.8 25.98V0.970001" stroke="white" stroke-width="0.5"/>
<path d="M113.84 0.970001V25.98M113.2 25.98V0.970001" stroke="white" stroke-width="0.5"/>
<path d="M54.75 26.63H50.77V25.98H53.27M53.91 25.98H54.75M58.17 25.98H58.96M59.6 25.98H60.29V26.63H58.17M66.81 26.63H63.71V25.98H64.29M64.93 25.98H66.81M70.23 25.98H84.87M85.51 25.98H87.23V26.63H70.23M95.44 25.98H98.35V26.63H90.65V25.98H94.8" stroke="white" stroke-width="0.5"/>
<path d="M0.920044 25.98H27.9901V26.63H24.39M23.75 26.63H0.920044M35.03 25.98H37.28V26.63H31.41V25.98H34.39" stroke="white" stroke-width="0.5"/>
<path d="M64.29 0.970001H60.62M60.62 0.330002H64.93M56.34 0.970001H53.91M53.27 0.330002H56.34" stroke="white" stroke-width="0.5"/>
<path d="M84.87 25.98V0.970001M85.51 0.970001V25.98" stroke="white" stroke-width="0.5"/>
<path d="M145.54 0.970001H142.59V0.330002H146.18M121.8 0.330002H127.05V0.970001H125.47M124.82 0.970001H121.8M117.52 0.970001H113.84M113.2 0.970001H109.56V0.330002H117.52M94.8 0.970001H92.81V0.330002H98.88V0.970001H95.44M84.87 0.970001H81.54V0.330002H88.54V0.970001H85.51M60.62 0.330002H67.74V0.970001H64.93M64.29 0.970001H60.62M56.34 0.970001H53.91M53.27 0.970001H49.78V0.330002H56.34M34.39 0.970001H29.74V0.330002H39.09V0.970001H35.03M0.280029 0.330002H4.67003V0.970001H0.920029M138.32 0.970001H131.32V0.330002H138.32V0.970001ZM77.26 0.970001H72.02V0.330002H77.26V0.970001ZM25.46 0.970001H18.47V0.330002H25.46V0.970001ZM14.19 0.970001H8.94003V0.330002H14.19V0.970001Z" stroke="white" stroke-width="0.5"/>
<path d="M113.84 25.98H116.65V26.63H110.31V25.98H113.2M125.47 25.98H125.55V26.63H120.07V25.98H124.82M131.6 26.63H128.97V25.98H145.54M145.54 26.63H132.25" stroke="white" stroke-width="0.5"/>
<path d="M59.28 18.21H60.31V18.85H59.6M64.29 18.85H63.73V18.21H64.29" stroke="white" stroke-width="0.5"/>
<path d="M23.75 39.34V35.3H24.39V39.34M24.39 26.63V31.88H23.75V26.63" stroke="white" stroke-width="0.5"/>
<path d="M112.97 8.17999H95.4399M112.97 10.32H95.4399M112.97 12.45H95.4399M112.97 14.59H95.4399M112.97 16.73H95.4399M112.97 18.87H95.4399M112.97 21H95.4399M104.21 6.03999V21.71M104.21 21.71V21.7M104.21 21.71L104.2 21.7M112.97 6.03999V21.71H95.4399V6.03999H112.97Z" stroke="#808080" stroke-width="0.5"/>
<path d="M53.03 8.03H35.5M53.03 10.17H35.5M53.03 12.3H35.5M53.03 14.44H35.5M53.03 16.58H35.5M53.03 18.72H35.5M53.03 20.85H35.5M44.27 5.89V21.56M44.27 21.56V21.55M44.27 21.56L44.26 21.55M53.03 5.89V21.56H35.5V5.89H53.03Z" stroke="#808080" stroke-width="0.5"/>
<path d="M4.67004 0.970001V0.330002ZM4.67004 0.690002V0.610001ZM8.94005 0.330002V0.970001ZM8.94005 0.610001V0.690002ZM4.67004 0.330002H8.94005ZM8.94005 0.970001H4.67004ZM4.67004 0.610001H8.94005ZM8.94005 0.690002H4.67004Z" stroke="white" stroke-width="0.5"/>
<path d="M55.2 28.34L58.17 26.63V25.98M54.75 26.63V25.98" stroke="white" stroke-width="0.5"/>
<path d="M117.11 28.34L120.07 26.63V25.98M116.65 26.63V25.98" stroke="white" stroke-width="0.5"/>
<path d="M28.44 28.34L31.41 26.63V25.98M27.99 26.63V25.98" stroke="white" stroke-width="0.5"/>
<path d="M56.34 0.970001V0.330002ZM56.34 0.690002V0.610001ZM60.62 0.330002V0.970001ZM60.62 0.610001V0.690002ZM56.34 0.330002H60.62ZM60.62 0.970001H56.34ZM56.34 0.610001H60.62ZM60.62 0.690002H56.34Z" stroke="white" stroke-width="0.5"/>
<path d="M39.09 0.970001V0.330002ZM39.09 0.690002V0.610001ZM49.78 0.330002V0.970001ZM49.78 0.610001V0.690002ZM39.09 0.330002H49.78ZM49.78 0.970001H39.09ZM39.09 0.610001H49.78ZM49.78 0.690002H39.09Z" stroke="white" stroke-width="0.5"/>
<path d="M14.1899 0.970001V0.330002ZM14.1899 0.690002V0.610001ZM18.4699 0.330002V0.970001ZM18.4699 0.610001V0.690002ZM14.1899 0.330002H18.4699ZM18.4699 0.970001H14.1899ZM14.1899 0.610001H18.4699ZM18.4699 0.690002H14.1899Z" stroke="white" stroke-width="0.5"/>
<path d="M87.69 28.34L90.65 26.63V25.98M87.23 26.63V25.98" stroke="white" stroke-width="0.5"/>
<path d="M98.88 0.970001V0.330002ZM98.88 0.690002V0.610001ZM109.56 0.330002V0.970001ZM109.56 0.610001V0.690002ZM98.88 0.330002H109.56ZM109.56 0.970001H98.88ZM98.88 0.610001H109.56ZM109.56 0.690002H98.88Z" stroke="white" stroke-width="0.5"/>
<path d="M127.05 0.970001V0.330002ZM127.05 0.690002V0.610001ZM131.32 0.330002V0.970001ZM131.32 0.610001V0.690002ZM127.05 0.330002H131.32ZM131.32 0.970001H127.05ZM127.05 0.610001H131.32ZM131.32 0.690002H127.05Z" stroke="white" stroke-width="0.5"/>
<path d="M88.54 0.970001V0.330002ZM88.54 0.690002V0.610001ZM92.81 0.330002V0.970001ZM92.81 0.610001V0.690002ZM88.54 0.330002H92.81ZM92.81 0.970001H88.54ZM88.54 0.610001H92.81ZM92.81 0.690002H88.54Z" stroke="white" stroke-width="0.5"/>
<path d="M67.2601 28.34L70.2301 26.63V25.98M66.8101 26.63V25.98" stroke="white" stroke-width="0.5"/>
<path d="M60.7701 20.56L63.7301 18.85V18.21M60.3101 18.85V18.21" stroke="white" stroke-width="0.5"/>
<path d="M77.26 0.970001V0.330002ZM77.26 0.690002V0.610001ZM81.54 0.330002V0.970001ZM81.54 0.610001V0.690002ZM77.26 0.330002H81.54ZM81.54 0.970001H77.26ZM77.26 0.610001H81.54ZM81.54 0.690002H77.26Z" stroke="white" stroke-width="0.5"/>
<path d="M117.52 0.970001V0.330002ZM117.52 0.690002V0.610001ZM121.8 0.330002V0.970001ZM121.8 0.610001V0.690002ZM117.52 0.330002H121.8ZM121.8 0.970001H117.52ZM117.52 0.610001H121.8ZM121.8 0.690002H117.52Z" stroke="white" stroke-width="0.5"/>
<path d="M60.75 28.34L63.7101 26.63V25.98M60.29 26.63V25.98" stroke="white" stroke-width="0.5"/>
<path d="M67.74 0.970001V0.330002ZM67.74 0.690002V0.610001ZM72.02 0.330002V0.970001ZM72.02 0.610001V0.690002ZM67.74 0.330002H72.02ZM72.02 0.970001H67.74ZM67.74 0.610001H72.02ZM72.02 0.690002H67.74Z" stroke="white" stroke-width="0.5"/>
<path d="M126.01 28.34L128.97 26.63V25.98M125.55 26.63V25.98" stroke="white" stroke-width="0.5"/>
<path d="M127.18 22.98L125.47 20.02H124.82M125.47 23.44H124.82" stroke="white" stroke-width="0.5"/>
<path d="M25.46 0.970001V0.330002ZM25.46 0.690002V0.610001ZM29.74 0.330002V0.970001ZM29.74 0.610001V0.690002ZM25.46 0.330002H29.74ZM29.74 0.970001H25.46ZM25.46 0.610001H29.74ZM29.74 0.690002H25.46Z" stroke="white" stroke-width="0.5"/>
<path d="M138.32 0.970001V0.330002ZM138.32 0.690002V0.610001ZM142.59 0.330002V0.970001ZM142.59 0.610001V0.690002ZM138.32 0.330002H142.59ZM142.59 0.970001H138.32ZM138.32 0.610001H142.59ZM142.59 0.690002H138.32Z" stroke="white" stroke-width="0.5"/>
<path d="M15.957 54.1655C15.8789 54.2697 15.8415 54.4089 15.8447 54.583H15.1953C15.2018 54.4072 15.2319 54.2404 15.2856 54.0825C15.3426 53.9442 15.4321 53.8164 15.5542 53.6992C15.6453 53.6162 15.7536 53.5527 15.8789 53.5088C16.0042 53.4648 16.158 53.4429 16.3403 53.4429C16.6789 53.4429 16.9515 53.5308 17.1582 53.7065C17.3665 53.8807 17.4707 54.1151 17.4707 54.4097C17.4707 54.618 17.4089 54.7938 17.2852 54.937C17.207 55.0265 17.1257 55.0876 17.041 55.1201C17.1045 55.1201 17.1956 55.1746 17.3145 55.2837C17.4919 55.4481 17.5806 55.6727 17.5806 55.9575C17.5806 56.257 17.4764 56.5207 17.2681 56.7485C17.0614 56.9748 16.7546 57.0879 16.3477 57.0879C15.8464 57.0879 15.498 56.9243 15.3027 56.5972C15.2002 56.423 15.1432 56.1951 15.1318 55.9136H15.8154C15.8154 56.0552 15.8382 56.1724 15.8838 56.2651C15.9684 56.436 16.1222 56.5215 16.3452 56.5215C16.4819 56.5215 16.6007 56.4751 16.7017 56.3823C16.8042 56.2879 16.8555 56.1528 16.8555 55.9771C16.8555 55.7443 16.7611 55.5889 16.5723 55.5107C16.4648 55.4668 16.2956 55.4448 16.0645 55.4448V54.9468C16.2907 54.9435 16.4486 54.9215 16.5381 54.8809C16.6927 54.8125 16.77 54.6742 16.77 54.4658C16.77 54.3307 16.7301 54.2209 16.6504 54.1362C16.5723 54.0516 16.4616 54.0093 16.3184 54.0093C16.154 54.0093 16.0335 54.0614 15.957 54.1655ZM18.2202 56.7778C18.0168 56.5695 17.915 56.3164 17.915 56.0186C17.915 55.82 17.9598 55.6401 18.0493 55.479C18.1405 55.3179 18.2731 55.1966 18.4473 55.1152C18.2764 55.0013 18.1649 54.8784 18.1128 54.7466C18.0623 54.6131 18.0371 54.4886 18.0371 54.373C18.0371 54.1159 18.134 53.897 18.3276 53.7163C18.5213 53.534 18.7948 53.4429 19.1479 53.4429C19.5011 53.4429 19.7746 53.534 19.9683 53.7163C20.1619 53.897 20.2588 54.1159 20.2588 54.373C20.2588 54.4886 20.2327 54.6131 20.1807 54.7466C20.1302 54.8784 20.0195 54.9932 19.8486 55.0908C20.0228 55.1885 20.1538 55.3179 20.2417 55.479C20.3296 55.6401 20.3735 55.82 20.3735 56.0186C20.3735 56.3164 20.2629 56.5703 20.0415 56.7803C19.8218 56.9886 19.5142 57.0928 19.1187 57.0928C18.7231 57.0928 18.4237 56.9878 18.2202 56.7778ZM18.6377 55.9722C18.6377 56.1463 18.6825 56.2814 18.772 56.3774C18.8631 56.4735 18.9884 56.5215 19.1479 56.5215C19.3075 56.5215 19.432 56.4735 19.5215 56.3774C19.6126 56.2814 19.6582 56.1463 19.6582 55.9722C19.6582 55.7915 19.6118 55.6548 19.519 55.562C19.4279 55.4676 19.3042 55.4204 19.1479 55.4204C18.9917 55.4204 18.8672 55.4676 18.7744 55.562C18.6833 55.6548 18.6377 55.7915 18.6377 55.9722ZM18.8208 54.7661C18.8989 54.8475 19.008 54.8882 19.1479 54.8882C19.2896 54.8882 19.3986 54.8475 19.4751 54.7661C19.5532 54.6847 19.5923 54.5798 19.5923 54.4512C19.5923 54.3112 19.5532 54.2021 19.4751 54.124C19.3986 54.0443 19.2896 54.0044 19.1479 54.0044C19.008 54.0044 18.8981 54.0443 18.8184 54.124C18.7402 54.2021 18.7012 54.3112 18.7012 54.4512C18.7012 54.5798 18.741 54.6847 18.8208 54.7661Z" fill="white"/>
<path d="M41.957 54.1655C41.8789 54.2697 41.8415 54.4089 41.8447 54.583H41.1953C41.2018 54.4072 41.2319 54.2404 41.2856 54.0825C41.3426 53.9442 41.4321 53.8164 41.5542 53.6992C41.6453 53.6162 41.7536 53.5527 41.8789 53.5088C42.0042 53.4648 42.158 53.4429 42.3403 53.4429C42.6789 53.4429 42.9515 53.5308 43.1582 53.7065C43.3665 53.8807 43.4707 54.1151 43.4707 54.4097C43.4707 54.618 43.4089 54.7938 43.2852 54.937C43.207 55.0265 43.1257 55.0876 43.041 55.1201C43.1045 55.1201 43.1956 55.1746 43.3145 55.2837C43.4919 55.4481 43.5806 55.6727 43.5806 55.9575C43.5806 56.257 43.4764 56.5207 43.2681 56.7485C43.0614 56.9748 42.7546 57.0879 42.3477 57.0879C41.8464 57.0879 41.498 56.9243 41.3027 56.5972C41.2002 56.423 41.1432 56.1951 41.1318 55.9136H41.8154C41.8154 56.0552 41.8382 56.1724 41.8838 56.2651C41.9684 56.436 42.1222 56.5215 42.3452 56.5215C42.4819 56.5215 42.6007 56.4751 42.7017 56.3823C42.8042 56.2879 42.8555 56.1528 42.8555 55.9771C42.8555 55.7443 42.7611 55.5889 42.5723 55.5107C42.4648 55.4668 42.2956 55.4448 42.0645 55.4448V54.9468C42.2907 54.9435 42.4486 54.9215 42.5381 54.8809C42.6927 54.8125 42.77 54.6742 42.77 54.4658C42.77 54.3307 42.7301 54.2209 42.6504 54.1362C42.5723 54.0516 42.4616 54.0093 42.3184 54.0093C42.154 54.0093 42.0335 54.0614 41.957 54.1655ZM45.9854 54.5977C45.7998 54.8613 45.6444 55.1331 45.519 55.4131C45.4198 55.6328 45.3302 55.9014 45.2505 56.2188C45.1707 56.5361 45.1309 56.7965 45.1309 57H44.4082C44.4294 56.3652 44.6377 55.7052 45.0332 55.02C45.2887 54.5952 45.5028 54.299 45.6753 54.1313H43.9102L43.9199 53.5063H46.4199V54.0508C46.3158 54.1533 46.1709 54.3356 45.9854 54.5977Z" fill="white"/>
<path d="M63.957 54.1655C63.8789 54.2697 63.8415 54.4089 63.8447 54.583H63.1953C63.2018 54.4072 63.2319 54.2404 63.2856 54.0825C63.3426 53.9442 63.4321 53.8164 63.5542 53.6992C63.6453 53.6162 63.7536 53.5527 63.8789 53.5088C64.0042 53.4648 64.158 53.4429 64.3403 53.4429C64.6789 53.4429 64.9515 53.5308 65.1582 53.7065C65.3665 53.8807 65.4707 54.1151 65.4707 54.4097C65.4707 54.618 65.4089 54.7938 65.2852 54.937C65.207 55.0265 65.1257 55.0876 65.041 55.1201C65.1045 55.1201 65.1956 55.1746 65.3145 55.2837C65.4919 55.4481 65.5806 55.6727 65.5806 55.9575C65.5806 56.257 65.4764 56.5207 65.2681 56.7485C65.0614 56.9748 64.7546 57.0879 64.3477 57.0879C63.8464 57.0879 63.498 56.9243 63.3027 56.5972C63.2002 56.423 63.1432 56.1951 63.1318 55.9136H63.8154C63.8154 56.0552 63.8382 56.1724 63.8838 56.2651C63.9684 56.436 64.1222 56.5215 64.3452 56.5215C64.4819 56.5215 64.6007 56.4751 64.7017 56.3823C64.8042 56.2879 64.8555 56.1528 64.8555 55.9771C64.8555 55.7443 64.7611 55.5889 64.5723 55.5107C64.4648 55.4668 64.2956 55.4448 64.0645 55.4448V54.9468C64.2907 54.9435 64.4486 54.9215 64.5381 54.8809C64.6927 54.8125 64.77 54.6742 64.77 54.4658C64.77 54.3307 64.7301 54.2209 64.6504 54.1362C64.5723 54.0516 64.4616 54.0093 64.3184 54.0093C64.154 54.0093 64.0335 54.0614 63.957 54.1655ZM67.3115 54.7026C67.6257 54.7026 67.8828 54.8092 68.083 55.0225C68.2848 55.2357 68.3857 55.5083 68.3857 55.8403C68.3857 56.1707 68.2873 56.4621 68.0903 56.7144C67.8934 56.9666 67.5874 57.0928 67.1724 57.0928C66.7264 57.0928 66.3976 56.9064 66.186 56.5337C66.0216 56.2424 65.9395 55.8664 65.9395 55.4058C65.9395 55.1356 65.9508 54.9159 65.9736 54.7466C66.0143 54.4455 66.0933 54.1948 66.2104 53.9946C66.3114 53.8237 66.4432 53.6862 66.606 53.582C66.7703 53.4779 66.9665 53.4258 67.1943 53.4258C67.5231 53.4258 67.7852 53.5104 67.9805 53.6797C68.1758 53.8473 68.2856 54.0711 68.3101 54.3511H67.6167C67.6167 54.2941 67.5947 54.2314 67.5508 54.1631C67.4759 54.0524 67.3628 53.9971 67.2114 53.9971C66.9852 53.9971 66.8241 54.124 66.728 54.3779C66.6759 54.5179 66.6401 54.7246 66.6206 54.998C66.7069 54.8955 66.807 54.8206 66.9209 54.7734C67.0348 54.7262 67.165 54.7026 67.3115 54.7026ZM66.8428 55.3667C66.7061 55.4725 66.6377 55.6434 66.6377 55.8794C66.6377 56.0698 66.689 56.2253 66.7915 56.3457C66.894 56.4661 67.0243 56.5264 67.1821 56.5264C67.3368 56.5264 67.458 56.4686 67.5459 56.353C67.6354 56.2358 67.6802 56.0845 67.6802 55.8989C67.6802 55.6922 67.6297 55.5343 67.5288 55.4253C67.4279 55.3146 67.3042 55.2593 67.1577 55.2593C67.0389 55.2593 66.9339 55.2951 66.8428 55.3667Z" fill="white"/>
<path d="M89.957 54.1655C89.8789 54.2697 89.8415 54.4089 89.8447 54.583H89.1953C89.2018 54.4072 89.2319 54.2404 89.2856 54.0825C89.3426 53.9442 89.4321 53.8164 89.5542 53.6992C89.6453 53.6162 89.7536 53.5527 89.8789 53.5088C90.0042 53.4648 90.158 53.4429 90.3403 53.4429C90.6789 53.4429 90.9515 53.5308 91.1582 53.7065C91.3665 53.8807 91.4707 54.1151 91.4707 54.4097C91.4707 54.618 91.4089 54.7938 91.2852 54.937C91.207 55.0265 91.1257 55.0876 91.041 55.1201C91.1045 55.1201 91.1956 55.1746 91.3145 55.2837C91.4919 55.4481 91.5806 55.6727 91.5806 55.9575C91.5806 56.257 91.4764 56.5207 91.2681 56.7485C91.0614 56.9748 90.7546 57.0879 90.3477 57.0879C89.8464 57.0879 89.498 56.9243 89.3027 56.5972C89.2002 56.423 89.1432 56.1951 89.1318 55.9136H89.8154C89.8154 56.0552 89.8382 56.1724 89.8838 56.2651C89.9684 56.436 90.1222 56.5215 90.3452 56.5215C90.4819 56.5215 90.6007 56.4751 90.7017 56.3823C90.8042 56.2879 90.8555 56.1528 90.8555 55.9771C90.8555 55.7443 90.7611 55.5889 90.5723 55.5107C90.4648 55.4668 90.2956 55.4448 90.0645 55.4448V54.9468C90.2907 54.9435 90.4486 54.9215 90.5381 54.8809C90.6927 54.8125 90.77 54.6742 90.77 54.4658C90.77 54.3307 90.7301 54.2209 90.6504 54.1362C90.5723 54.0516 90.4616 54.0093 90.3184 54.0093C90.154 54.0093 90.0335 54.0614 89.957 54.1655ZM93.1162 55.2422C93.0316 55.2422 92.9583 55.2528 92.8965 55.2739C92.7874 55.313 92.7052 55.3854 92.6499 55.4912L92.0249 55.4619L92.2739 53.5063H94.2246V54.0972H92.7769L92.6499 54.8711C92.7573 54.8011 92.8411 54.7547 92.9014 54.7319C93.0023 54.6945 93.1252 54.6758 93.27 54.6758C93.563 54.6758 93.8185 54.7743 94.0366 54.9712C94.2547 55.1681 94.3638 55.4546 94.3638 55.8306C94.3638 56.1577 94.2588 56.4499 94.0488 56.707C93.8389 56.9642 93.5247 57.0928 93.1064 57.0928C92.7695 57.0928 92.4928 57.0024 92.2764 56.8218C92.0599 56.6411 91.9395 56.3848 91.915 56.0527H92.6084C92.6361 56.2041 92.689 56.3213 92.7671 56.4043C92.8452 56.4857 92.9591 56.5264 93.1089 56.5264C93.2814 56.5264 93.4124 56.4661 93.502 56.3457C93.5931 56.2236 93.6387 56.0706 93.6387 55.8867C93.6387 55.7061 93.5964 55.5539 93.5117 55.4302C93.4271 55.3049 93.2952 55.2422 93.1162 55.2422Z" fill="white"/>
<path d="M123.957 54.1655C123.879 54.2697 123.841 54.4089 123.845 54.583H123.195C123.202 54.4072 123.232 54.2404 123.286 54.0825C123.343 53.9442 123.432 53.8164 123.554 53.6992C123.645 53.6162 123.754 53.5527 123.879 53.5088C124.004 53.4648 124.158 53.4429 124.34 53.4429C124.679 53.4429 124.951 53.5308 125.158 53.7065C125.367 53.8807 125.471 54.1151 125.471 54.4097C125.471 54.618 125.409 54.7938 125.285 54.937C125.207 55.0265 125.126 55.0876 125.041 55.1201C125.104 55.1201 125.196 55.1746 125.314 55.2837C125.492 55.4481 125.581 55.6727 125.581 55.9575C125.581 56.257 125.476 56.5207 125.268 56.7485C125.061 56.9748 124.755 57.0879 124.348 57.0879C123.846 57.0879 123.498 56.9243 123.303 56.5972C123.2 56.423 123.143 56.1951 123.132 55.9136H123.815C123.815 56.0552 123.838 56.1724 123.884 56.2651C123.968 56.436 124.122 56.5215 124.345 56.5215C124.482 56.5215 124.601 56.4751 124.702 56.3823C124.804 56.2879 124.855 56.1528 124.855 55.9771C124.855 55.7443 124.761 55.5889 124.572 55.5107C124.465 55.4668 124.296 55.4448 124.064 55.4448V54.9468C124.291 54.9435 124.449 54.9215 124.538 54.8809C124.693 54.8125 124.77 54.6742 124.77 54.4658C124.77 54.3307 124.73 54.2209 124.65 54.1362C124.572 54.0516 124.462 54.0093 124.318 54.0093C124.154 54.0093 124.034 54.0614 123.957 54.1655ZM128.398 55.6938V56.2383H127.998V57H127.316V56.2383H125.915V55.6304L127.216 53.4819H127.998V55.6938H128.398ZM126.43 55.6938H127.316V54.1655L126.43 55.6938Z" fill="white"/>
<path d="M133.957 12.1655C133.879 12.2697 133.841 12.4089 133.845 12.583H133.195C133.202 12.4072 133.232 12.2404 133.286 12.0825C133.343 11.9442 133.432 11.8164 133.554 11.6992C133.645 11.6162 133.754 11.5527 133.879 11.5088C134.004 11.4648 134.158 11.4429 134.34 11.4429C134.679 11.4429 134.951 11.5308 135.158 11.7065C135.367 11.8807 135.471 12.1151 135.471 12.4097C135.471 12.618 135.409 12.7938 135.285 12.937C135.207 13.0265 135.126 13.0876 135.041 13.1201C135.104 13.1201 135.196 13.1746 135.314 13.2837C135.492 13.4481 135.581 13.6727 135.581 13.9575C135.581 14.257 135.476 14.5207 135.268 14.7485C135.061 14.9748 134.755 15.0879 134.348 15.0879C133.846 15.0879 133.498 14.9243 133.303 14.5972C133.2 14.423 133.143 14.1951 133.132 13.9136H133.815C133.815 14.0552 133.838 14.1724 133.884 14.2651C133.968 14.436 134.122 14.5215 134.345 14.5215C134.482 14.5215 134.601 14.4751 134.702 14.3823C134.804 14.2879 134.855 14.1528 134.855 13.9771C134.855 13.7443 134.761 13.5889 134.572 13.5107C134.465 13.4668 134.296 13.4448 134.064 13.4448V12.9468C134.291 12.9435 134.449 12.9215 134.538 12.8809C134.693 12.8125 134.77 12.6742 134.77 12.4658C134.77 12.3307 134.73 12.2209 134.65 12.1362C134.572 12.0516 134.462 12.0093 134.318 12.0093C134.154 12.0093 134.034 12.0614 133.957 12.1655ZM137.521 12.1802C137.438 12.0809 137.32 12.0312 137.165 12.0312C136.953 12.0312 136.809 12.1102 136.733 12.2681C136.689 12.3592 136.663 12.5041 136.655 12.7026H135.979C135.99 12.4015 136.044 12.1582 136.142 11.9727C136.328 11.6195 136.657 11.4429 137.131 11.4429C137.505 11.4429 137.803 11.547 138.024 11.7554C138.246 11.9621 138.356 12.2363 138.356 12.5781C138.356 12.8402 138.278 13.0729 138.122 13.2764C138.02 13.4115 137.851 13.562 137.617 13.728L137.338 13.9258C137.164 14.0495 137.045 14.139 136.979 14.1943C136.916 14.2497 136.862 14.314 136.818 14.3872H138.364V15H135.939C135.946 14.7461 136 14.5142 136.103 14.3042C136.202 14.0682 136.437 13.8184 136.806 13.5547C137.127 13.3252 137.334 13.1608 137.429 13.0615C137.574 12.9069 137.646 12.7376 137.646 12.5537C137.646 12.404 137.604 12.2795 137.521 12.1802Z" fill="white"/>
<path d="M117.957 12.1655C117.879 12.2697 117.841 12.4089 117.845 12.583H117.195C117.202 12.4072 117.232 12.2404 117.286 12.0825C117.343 11.9442 117.432 11.8164 117.554 11.6992C117.645 11.6162 117.754 11.5527 117.879 11.5088C118.004 11.4648 118.158 11.4429 118.34 11.4429C118.679 11.4429 118.951 11.5308 119.158 11.7065C119.367 11.8807 119.471 12.1151 119.471 12.4097C119.471 12.618 119.409 12.7938 119.285 12.937C119.207 13.0265 119.126 13.0876 119.041 13.1201C119.104 13.1201 119.196 13.1746 119.314 13.2837C119.492 13.4481 119.581 13.6727 119.581 13.9575C119.581 14.257 119.476 14.5207 119.268 14.7485C119.061 14.9748 118.755 15.0879 118.348 15.0879C117.846 15.0879 117.498 14.9243 117.303 14.5972C117.2 14.423 117.143 14.1951 117.132 13.9136H117.815C117.815 14.0552 117.838 14.1724 117.884 14.2651C117.968 14.436 118.122 14.5215 118.345 14.5215C118.482 14.5215 118.601 14.4751 118.702 14.3823C118.804 14.2879 118.855 14.1528 118.855 13.9771C118.855 13.7443 118.761 13.5889 118.572 13.5107C118.465 13.4668 118.296 13.4448 118.064 13.4448V12.9468C118.291 12.9435 118.449 12.9215 118.538 12.8809C118.693 12.8125 118.77 12.6742 118.77 12.4658C118.77 12.3307 118.73 12.2209 118.65 12.1362C118.572 12.0516 118.462 12.0093 118.318 12.0093C118.154 12.0093 118.034 12.0614 117.957 12.1655ZM121.675 15H120.962V12.5586H120.13V12.085C120.35 12.0752 120.503 12.0605 120.591 12.041C120.731 12.0101 120.845 11.9482 120.933 11.8555C120.993 11.792 121.039 11.7074 121.07 11.6016C121.088 11.5381 121.097 11.4909 121.097 11.46H121.675V15Z" fill="white"/>
<path d="M89.6147 13.6938V14.2383H89.2144V15H88.5332V14.2383H87.1318V13.6304L88.4331 11.4819H89.2144V13.6938H89.6147ZM87.647 13.6938H88.5332V12.1655L87.647 13.6938ZM90.7402 12.1655C90.6621 12.2697 90.6247 12.4089 90.6279 12.583H89.9785C89.985 12.4072 90.0151 12.2404 90.0688 12.0825C90.1258 11.9442 90.2153 11.8164 90.3374 11.6992C90.4285 11.6162 90.5368 11.5527 90.6621 11.5088C90.7874 11.4648 90.9412 11.4429 91.1235 11.4429C91.4621 11.4429 91.7347 11.5308 91.9414 11.7065C92.1497 11.8807 92.2539 12.1151 92.2539 12.4097C92.2539 12.618 92.1921 12.7938 92.0684 12.937C91.9902 13.0265 91.9089 13.0876 91.8242 13.1201C91.8877 13.1201 91.9788 13.1746 92.0977 13.2837C92.2751 13.4481 92.3638 13.6727 92.3638 13.9575C92.3638 14.257 92.2596 14.5207 92.0513 14.7485C91.8446 14.9748 91.5378 15.0879 91.1309 15.0879C90.6296 15.0879 90.2812 14.9243 90.0859 14.5972C89.9834 14.423 89.9264 14.1951 89.915 13.9136H90.5986C90.5986 14.0552 90.6214 14.1724 90.667 14.2651C90.7516 14.436 90.9054 14.5215 91.1284 14.5215C91.2651 14.5215 91.384 14.4751 91.4849 14.3823C91.5874 14.2879 91.6387 14.1528 91.6387 13.9771C91.6387 13.7443 91.5443 13.5889 91.3555 13.5107C91.248 13.4668 91.0788 13.4448 90.8477 13.4448V12.9468C91.0739 12.9435 91.2318 12.9215 91.3213 12.8809C91.4759 12.8125 91.5532 12.6742 91.5532 12.4658C91.5532 12.3307 91.5133 12.2209 91.4336 12.1362C91.3555 12.0516 91.2448 12.0093 91.1016 12.0093C90.9372 12.0093 90.8167 12.0614 90.7402 12.1655Z" fill="white"/>
<path d="M73.6147 13.6938V14.2383H73.2144V15H72.5332V14.2383H71.1318V13.6304L72.4331 11.4819H73.2144V13.6938H73.6147ZM71.647 13.6938H72.5332V12.1655L71.647 13.6938ZM75.5215 12.1802C75.4385 12.0809 75.3197 12.0312 75.165 12.0312C74.9535 12.0312 74.8094 12.1102 74.7329 12.2681C74.689 12.3592 74.6629 12.5041 74.6548 12.7026H73.9785C73.9899 12.4015 74.0444 12.1582 74.1421 11.9727C74.3276 11.6195 74.6572 11.4429 75.1309 11.4429C75.5052 11.4429 75.8031 11.547 76.0244 11.7554C76.2458 11.9621 76.3564 12.2363 76.3564 12.5781C76.3564 12.8402 76.2783 13.0729 76.1221 13.2764C76.0195 13.4115 75.8511 13.562 75.6167 13.728L75.3384 13.9258C75.1642 14.0495 75.0446 14.139 74.9795 14.1943C74.916 14.2497 74.8623 14.314 74.8184 14.3872H76.3638V15H73.9395C73.946 14.7461 74.0005 14.5142 74.103 14.3042C74.2023 14.0682 74.4367 13.8184 74.8062 13.5547C75.1268 13.3252 75.3343 13.1608 75.4287 13.0615C75.5736 12.9069 75.646 12.7376 75.646 12.5537C75.646 12.404 75.6045 12.2795 75.5215 12.1802Z" fill="white"/>
<path d="M58.6147 13.6938V14.2383H58.2144V15H57.5332V14.2383H56.1318V13.6304L57.4331 11.4819H58.2144V13.6938H58.6147ZM56.647 13.6938H57.5332V12.1655L56.647 13.6938ZM60.6753 15H59.9624V12.5586H59.1299V12.085C59.3496 12.0752 59.5034 12.0605 59.5913 12.041C59.7313 12.0101 59.8452 11.9482 59.9331 11.8555C59.9933 11.792 60.0389 11.7074 60.0698 11.6016C60.0877 11.5381 60.0967 11.4909 60.0967 11.46H60.6753V15Z" fill="white"/>
<path d="M17.6147 13.6938V14.2383H17.2144V15H16.5332V14.2383H15.1318V13.6304L16.4331 11.4819H17.2144V13.6938H17.6147ZM15.647 13.6938H16.5332V12.1655L15.647 13.6938ZM19.1602 15.0879C18.7093 15.0879 18.3927 14.93 18.2104 14.6143C18.0298 14.2985 17.9395 13.8485 17.9395 13.2642C17.9395 12.6799 18.0298 12.229 18.2104 11.9116C18.3927 11.5942 18.7093 11.4355 19.1602 11.4355C19.611 11.4355 19.9276 11.5942 20.1099 11.9116C20.2905 12.229 20.3809 12.6799 20.3809 13.2642C20.3809 13.8485 20.2897 14.2985 20.1074 14.6143C19.9268 14.93 19.611 15.0879 19.1602 15.0879ZM19.5679 14.1968C19.6313 13.9819 19.6631 13.6711 19.6631 13.2642C19.6631 12.8377 19.6305 12.522 19.5654 12.3169C19.502 12.1118 19.3669 12.0093 19.1602 12.0093C18.9535 12.0093 18.8167 12.1118 18.75 12.3169C18.6833 12.522 18.6499 12.8377 18.6499 13.2642C18.6499 13.6711 18.6833 13.9827 18.75 14.1992C18.8167 14.4141 18.9535 14.5215 19.1602 14.5215C19.3669 14.5215 19.5028 14.4132 19.5679 14.1968Z" fill="white"/>
</svg>
