<svg width="148" height="71" viewBox="0 0 148 71" fill="none" xmlns="http://www.w3.org/2000/svg">
<path d="M35.86 39.91V69.45M35.22 69.45V39.91" stroke="white" stroke-width="0.5"/>
<path d="M79.75 69.45V39.91M80.39 39.91V69.45" stroke="white" stroke-width="0.5"/>
<path d="M1.60995 69.45H5.37996M5.37996 70.09H0.959961M9.65996 69.45H14.91M14.91 70.09H9.65996M19.1799 69.45H26.1799M26.1799 70.09H19.1799M30.45 69.45H35.22M35.86 69.45H38.31M38.31 70.09H30.45M42.59 69.45H46.38M46.38 70.09H42.59M50.66 69.45H53.38M54.02 69.45H57.91M57.91 70.09H50.66M62.19 69.45H69.19M69.19 70.09H62.19M73.46 69.45H79.75M80.39 69.45H86.7299M86.7299 70.09H73.46M91.0099 69.45H98M98 70.09H91.0099M102.28 69.45H106.02M106.66 69.45H113.8M113.8 70.09H102.28M118.07 69.45H123.32M123.32 70.09H118.07M127.6 69.45H134.59M134.59 70.09H127.6M138.87 69.45H146.22M146.86 70.09H138.87" stroke="white" stroke-width="0.5"/>
<path d="M1.60995 69.45H5.37996V70.09H0.959961M35.86 69.45H38.31V70.09H30.45V69.45H35.22M57.91 70.09H50.66V69.45H53.38M54.02 69.45H57.91M62.19 69.45H69.19M69.19 70.09H62.19M73.46 69.45H79.75M80.39 69.45H86.7299V70.09H73.46M106.66 69.45H113.8V70.09H102.28V69.45H106.02M146.86 70.09H138.87V69.45H146.22M9.65996 69.45H14.91V70.09H9.65996V69.45ZM19.1799 69.45H26.1799V70.09H19.1799V69.45ZM42.59 69.45H46.38V70.09H42.59V69.45ZM91.0099 69.45H98V70.09H91.0099V69.45ZM118.07 69.45H123.32V70.09H118.07V69.45ZM127.6 69.45H134.59V70.09H127.6V69.45Z" stroke="white" stroke-width="0.5"/>
<path d="M146.22 39.91H143V39.27H146.22M132.93 39.27H139.58V39.91H117.82V39.27H132.29M106.02 39.91H95.67V39.27H114.4V39.91H106.66M79.75 39.91H68.79V39.27H92.25V39.91H80.39M53.38 39.91H48.09V39.27H65.37V39.91H54.02M35.22 39.91H31.92V39.27H44.67V39.91H35.86M25.07 39.27H28.5V39.91H11.04V39.27H24.43M1.60999 39.27H7.61998V39.91H1.60999" stroke="white" stroke-width="0.5"/>
<path d="M106.66 39.91V69.45M106.02 69.45V39.91" stroke="white" stroke-width="0.5"/>
<path d="M35.22 39.27H44.67M44.67 39.91H35.86M48.09 39.27H54.02M53.38 39.91H48.09" stroke="white" stroke-width="0.5"/>
<path d="M79.75 39.27H92.25M92.25 39.91H80.39M95.67 39.27H106.66M106.02 39.91H95.67" stroke="white" stroke-width="0.5"/>
<path d="M54.02 39.91V69.45M53.38 69.45V39.91" stroke="white" stroke-width="0.5"/>
<path d="M54.02 69.45H57.91V70.09H53.38M80.39 70.09H73.46V69.45H79.75M62.19 69.45H69.19V70.09H62.19V69.45Z" stroke="white" stroke-width="0.5"/>
<path d="M142.54 37.56L139.58 39.27V39.91M143 39.27V39.91" stroke="white" stroke-width="0.5"/>
<path d="M134.59 70.09V69.45ZM134.59 69.81V69.73ZM138.87 69.45V70.09ZM138.87 69.73V69.81ZM134.59 69.45H138.87ZM138.87 70.09H134.59ZM134.59 69.73H138.87ZM138.87 69.81H134.59Z" stroke="white" stroke-width="0.5"/>
<path d="M14.91 70.09V69.45ZM14.91 69.81V69.73ZM19.18 69.45V70.09ZM19.18 69.73V69.81ZM14.91 69.45H19.18ZM19.18 70.09H14.91ZM14.91 69.73H19.18ZM19.18 69.81H14.91Z" stroke="white" stroke-width="0.5"/>
<path d="M46.38 70.09V69.45ZM46.38 69.81V69.73ZM50.66 69.45V70.09ZM50.66 69.73V69.81ZM46.38 69.45H50.66ZM50.66 70.09H46.38ZM46.38 69.73H50.66ZM50.66 69.81H46.38Z" stroke="white" stroke-width="0.5"/>
<path d="M98 70.09V69.45ZM98 69.81V69.73ZM102.28 69.45V70.09ZM102.28 69.73V69.81ZM98 69.45H102.28ZM102.28 70.09H98ZM98 69.73H102.28ZM102.28 69.81H98Z" stroke="white" stroke-width="0.5"/>
<path d="M10.58 37.56L7.62 39.27V39.91M11.04 39.27V39.91" stroke="white" stroke-width="0.5"/>
<path d="M26.1799 70.09V69.45ZM26.1799 69.81V69.73ZM30.4499 69.45V70.09ZM30.4499 69.73V69.81ZM26.1799 69.45H30.4499ZM30.4499 70.09H26.1799ZM26.1799 69.73H30.4499ZM30.4499 69.81H26.1799Z" stroke="white" stroke-width="0.5"/>
<path d="M113.8 70.09V69.45ZM113.8 69.81V69.73ZM118.07 69.45V70.09ZM118.07 69.73V69.81ZM113.8 69.45H118.07ZM118.07 70.09H113.8ZM113.8 69.73H118.07ZM118.07 69.81H113.8Z" stroke="white" stroke-width="0.5"/>
<path d="M69.1899 70.09V69.45ZM69.1899 69.81V69.73ZM73.4599 69.45V70.09ZM73.4599 69.73V69.81ZM69.1899 69.45H73.4599ZM73.4599 70.09H69.1899ZM69.1899 69.73H73.4599ZM73.4599 69.81H69.1899Z" stroke="white" stroke-width="0.5"/>
<path d="M38.3101 70.09V69.45ZM38.3101 69.81V69.73ZM42.5901 69.45V70.09ZM42.5901 69.73V69.81ZM38.3101 69.45H42.5901ZM42.5901 70.09H38.3101ZM38.3101 69.73H42.5901ZM42.5901 69.81H38.3101Z" stroke="white" stroke-width="0.5"/>
<path d="M26.7799 34.77L25.0699 31.81H24.4299M25.0699 35.23H24.4299" stroke="white" stroke-width="0.5"/>
<path d="M123.32 70.09V69.45ZM123.32 69.81V69.73ZM127.6 69.45V70.09ZM127.6 69.73V69.81ZM123.32 69.45H127.6ZM127.6 70.09H123.32ZM123.32 69.73H127.6ZM127.6 69.81H123.32Z" stroke="white" stroke-width="0.5"/>
<path d="M95.21 37.56L92.25 39.27V39.91M95.67 39.27V39.91" stroke="white" stroke-width="0.5"/>
<path d="M86.73 70.09V69.45ZM86.73 69.81V69.73ZM91.01 69.45V70.09ZM91.01 69.73V69.81ZM86.73 69.45H91.01ZM91.01 70.09H86.73ZM86.73 69.73H91.01ZM91.01 69.81H86.73Z" stroke="white" stroke-width="0.5"/>
<path d="M68.33 37.56L65.37 39.27V39.91M68.79 39.27V39.91" stroke="white" stroke-width="0.5"/>
<path d="M57.91 70.09V69.45ZM57.91 69.81V69.73ZM62.19 69.45V70.09ZM62.19 69.73V69.81ZM57.91 69.45H62.19ZM62.19 70.09H57.91ZM57.91 69.73H62.19ZM62.19 69.81H57.91Z" stroke="white" stroke-width="0.5"/>
<path d="M5.38 70.09V69.45ZM5.38 69.81V69.73ZM9.66 69.45V70.09ZM9.66 69.73V69.81ZM5.38 69.45H9.66ZM9.66 70.09H5.38ZM5.38 69.73H9.66ZM9.66 69.81H5.38Z" stroke="white" stroke-width="0.5"/>
<path d="M117.37 37.56L114.4 39.27V39.91M117.82 39.27V39.91" stroke="white" stroke-width="0.5"/>
<path d="M47.6301 37.56L44.67 39.27V39.91M48.09 39.27V39.91" stroke="white" stroke-width="0.5"/>
<path d="M31.46 37.56L28.5 39.27V39.91M31.92 39.27V39.91" stroke="white" stroke-width="0.5"/>
<path d="M59.65 18.13H64.98M64.98 18.77H60.29" stroke="white" stroke-width="0.5"/>
<path d="M86.2 26.55H70.91M70.91 25.91H85.56M67.49 26.55H64.98M65.62 25.91H67.49" stroke="white" stroke-width="0.5"/>
<path d="M59.65 25.91H60.29" stroke="white" stroke-width="0.5"/>
<path d="M60.29 18.77H60.13" stroke="white" stroke-width="0.5"/>
<path d="M114.53 26.55H111V25.91H113.89" stroke="white" stroke-width="0.5"/>
<path d="M1.60999 25.91H28.67V26.55H25.07M24.43 26.55H1.60999M35.71 25.91H37.97V26.55H32.09V25.91H35.07" stroke="white" stroke-width="0.5"/>
<path d="M146.22 39.27V26.55M146.86 25.91V39.91" stroke="white" stroke-width="0.5"/>
<path d="M55.4299 26.55H51.45V25.91H53.96M54.6 25.91H55.4299M58.85 25.91H64.9799M65.6199 25.91H67.49M67.49 26.55H58.85M70.91 25.91H85.56M86.2 25.91H87.92V26.55H70.91M96.13 25.91H99.03V26.55H91.34V25.91H95.49" stroke="white" stroke-width="0.5"/>
<path d="M143.28 0.260002H146.86M146.22 0.900002H143.28M139 0.900002H132.01M132.01 0.260002H139M127.73 0.900002H122.48M122.48 0.260002H127.73M118.21 0.900002H114.53M113.89 0.900002H110.25M110.25 0.260002H118.21M99.56 0.900002H96.13M95.49 0.900002H93.5M93.5 0.260002H99.56M89.22 0.900002H86.2M85.56 0.900002H82.2299M82.2299 0.260002H89.22M77.95 0.900002H72.7M72.7 0.260002H77.95M68.4299 0.900002H65.6199M64.9799 0.900002H61.3M61.3 0.260002H68.4299M57.03 0.900002H54.6M53.96 0.900002H50.46M50.46 0.260002H57.03M39.78 0.900002H35.71M35.07 0.900002H30.4299M30.4299 0.260002H39.78M26.1499 0.900002H19.1499M19.1499 0.260002H26.1499M14.88 0.900002H9.62996M9.62996 0.260002H14.88M0.959961 0.260002H5.34996M5.34996 0.900002H1.60995" stroke="white" stroke-width="0.5"/>
<path d="M1.60995 0.900002V25.91M1.60995 26.55V39.27M1.60995 39.91V69.45M0.959961 70.09V0.260002" stroke="white" stroke-width="0.5"/>
<path d="M64.9799 0.900002H61.3M61.3 0.260002H65.6199M57.03 0.900002H54.6M53.96 0.260002H57.03" stroke="white" stroke-width="0.5"/>
<path d="M53.96 25.91V0.900002M54.6 0.900002V18.13M54.6 18.77V25.91" stroke="white" stroke-width="0.5"/>
<path d="M114.53 0.900002V25.91M113.89 25.91V0.900002" stroke="white" stroke-width="0.5"/>
<path d="M86.2001 0.900002V25.91M85.5601 25.91V0.900002" stroke="white" stroke-width="0.5"/>
<path d="M24.4299 39.27V35.23H25.0699V39.27M25.0699 26.55V31.81H24.4299V26.55" stroke="white" stroke-width="0.5"/>
<path d="M35.7101 0.900002V25.91M35.0701 25.91V0.900002" stroke="white" stroke-width="0.5"/>
<path d="M125.83 0.900002H122.48M122.48 0.260002H125.83M118.21 0.900002H114.53M113.89 0.260002H118.21" stroke="white" stroke-width="0.5"/>
<path d="M0.959961 26.55V0.260002M1.60995 0.900002V25.91" stroke="white" stroke-width="0.5"/>
<path d="M96.13 25.91H99.03V26.55H95.49" stroke="white" stroke-width="0.5"/>
<path d="M95.4901 0.900002H93.5001M93.5001 0.260002H96.1301M89.2201 0.900002H86.2001M85.5601 0.260002H89.2201" stroke="white" stroke-width="0.5"/>
<path d="M146.86 0.260002V70.09M146.22 69.45V39.91M146.22 39.27V26.55M146.22 25.91V0.900002" stroke="white" stroke-width="0.5"/>
<path d="M65.62 0.900002V25.91M64.98 25.91V18.77M64.98 18.13V0.900002" stroke="white" stroke-width="0.5"/>
<path d="M114.53 0.900002V25.91M113.89 25.91V0.900002" stroke="white" stroke-width="0.5"/>
<path d="M60.13 18.77H58.84V18.13H59.65M54.6 18.13H55.42V18.77H54.6" stroke="white" stroke-width="0.5"/>
<path d="M114.53 26.55H111V25.91H113.89" stroke="white" stroke-width="0.5"/>
<path d="M95.49 25.91V0.900002M96.13 0.900002V25.91" stroke="white" stroke-width="0.5"/>
<path d="M132.93 26.55V39.27M132.29 39.27V26.55" stroke="white" stroke-width="0.5"/>
<path d="M146.86 0.260002V70.09M146.22 69.45V39.91M146.22 39.27V26.55M146.22 25.91V0.900002" stroke="white" stroke-width="0.5"/>
<path d="M0.959961 70.09V0.580002M1.60995 0.900002V25.91M1.60995 26.55V39.27M1.60995 39.91V69.45" stroke="white" stroke-width="0.5"/>
<path d="M54.6 25.91H55.4299V26.55H53.96M60.2899 26.55H58.85V25.91H59.6499" stroke="white" stroke-width="0.5"/>
<path d="M114.53 25.91H117.34V26.55H111V25.91H113.89M132.29 26.55H120.76V25.91H138.75V26.55H132.93M146.22 26.55H142.17V25.91H146.22" stroke="white" stroke-width="0.5"/>
<path d="M146.22 0.900002H143.28V0.260002H146.86M122.48 0.260002H127.73V0.900002H122.48M118.21 0.900002H114.53M113.89 0.900002H110.25V0.260002H118.21M95.49 0.900002H93.5V0.260002H99.56V0.900002H96.13M85.56 0.900002H82.2299V0.260002H89.22V0.900002H86.2M61.3 0.260002H68.4299V0.900002H65.6199M64.9799 0.900002H61.3M57.03 0.900002H54.6M53.96 0.900002H50.46V0.260002H57.03M35.07 0.900002H30.4299V0.260002H39.78V0.900002H35.71M0.959961 0.260002H5.34996V0.900002H1.60995M139 0.900002H132.01V0.260002H139V0.900002ZM77.95 0.900002H72.7V0.260002H77.95V0.900002ZM26.1499 0.900002H19.1499V0.260002H26.1499V0.900002ZM14.88 0.900002H9.62996V0.260002H14.88V0.900002Z" stroke="white" stroke-width="0.5"/>
<path d="M125.83 0.900002H122.48V0.260002H125.83M113.89 0.260002H118.21V0.900002H114.53" stroke="white" stroke-width="0.5"/>
<path d="M113.66 8.1H96.13M113.66 10.24H96.13M113.66 12.38H96.13M113.66 14.51H96.13M113.66 16.65H96.13M113.66 18.79H96.13M113.66 20.93H96.13M104.89 5.96V21.63M113.66 5.96V21.63H96.13V5.96H113.66Z" stroke="#808080" stroke-width="0.5"/>
<path d="M53.7199 7.95H36.1899M53.7199 10.09H36.1899M53.7199 12.23H36.1899M53.7199 14.36H36.1899M53.7199 16.5H36.1899M53.7199 18.64H36.1899M53.7199 20.78H36.1899M44.9499 5.81V21.48M53.7199 5.81V21.48H36.1899V5.81H53.7199Z" stroke="#808080" stroke-width="0.5"/>
<path d="M67.95 28.26L70.91 26.55V25.91M67.49 26.55V25.91" stroke="white" stroke-width="0.5"/>
<path d="M88.3801 28.26L91.34 26.55V25.91M87.92 26.55V25.91" stroke="white" stroke-width="0.5"/>
<path d="M26.15 0.900002V0.260002ZM26.15 0.620003V0.540001ZM30.43 0.260002V0.900002ZM30.43 0.540001V0.620003ZM26.15 0.260002H30.43ZM30.43 0.900002H26.15ZM26.15 0.540001H30.43ZM30.43 0.620003H26.15Z" stroke="white" stroke-width="0.5"/>
<path d="M77.95 0.900002V0.260002ZM77.95 0.620003V0.540001ZM82.2299 0.260002V0.900002ZM82.2299 0.540001V0.620003ZM77.95 0.260002H82.2299ZM82.2299 0.900002H77.95ZM77.95 0.540001H82.2299ZM82.2299 0.620003H77.95Z" stroke="white" stroke-width="0.5"/>
<path d="M118.21 0.900002V0.260002ZM118.21 0.620003V0.540001ZM122.48 0.260002V0.900002ZM122.48 0.540001V0.620003ZM118.21 0.260002H122.48ZM122.48 0.900002H118.21ZM118.21 0.540001H122.48ZM122.48 0.620003H118.21Z" stroke="white" stroke-width="0.5"/>
<path d="M55.87 20.48L58.84 18.77V18.13M55.42 18.77V18.13" stroke="white" stroke-width="0.5"/>
<path d="M5.34998 0.900002V0.260002ZM5.34998 0.620003V0.540001ZM9.62997 0.260002V0.900002ZM9.62997 0.540001V0.620003ZM5.34998 0.260002H9.62997ZM9.62997 0.900002H5.34998ZM5.34998 0.540001H9.62997ZM9.62997 0.620003H5.34998Z" stroke="white" stroke-width="0.5"/>
<path d="M99.5601 0.900002V0.260002ZM99.5601 0.620003V0.540001ZM110.25 0.260002V0.900002ZM110.25 0.540001V0.620003ZM99.5601 0.260002H110.25ZM110.25 0.900002H99.5601ZM99.5601 0.540001H110.25ZM110.25 0.620003H99.5601Z" stroke="white" stroke-width="0.5"/>
<path d="M39.78 0.900002V0.260002ZM39.78 0.620003V0.540001ZM50.46 0.260002V0.900002ZM50.46 0.540001V0.620003ZM39.78 0.260002H50.46ZM50.46 0.900002H39.78ZM39.78 0.540001H50.46ZM50.46 0.620003H39.78Z" stroke="white" stroke-width="0.5"/>
<path d="M14.88 0.900002V0.260002ZM14.88 0.620003V0.540001ZM19.15 0.260002V0.900002ZM19.15 0.540001V0.620003ZM14.88 0.260002H19.15ZM19.15 0.900002H14.88ZM14.88 0.540001H19.15ZM19.15 0.620003H14.88Z" stroke="white" stroke-width="0.5"/>
<path d="M117.8 28.26L120.76 26.55V25.91M117.34 26.55V25.91" stroke="white" stroke-width="0.5"/>
<path d="M127.73 0.900002V0.260002ZM127.73 0.620003V0.540001ZM132.01 0.260002V0.900002ZM132.01 0.540001V0.620003ZM127.73 0.260002H132.01ZM132.01 0.900002H127.73ZM127.73 0.540001H132.01ZM132.01 0.620003H127.73Z" stroke="white" stroke-width="0.5"/>
<path d="M68.4299 0.900002V0.260002ZM68.4299 0.620003V0.540001ZM72.6999 0.260002V0.900002ZM72.6999 0.540001V0.620003ZM68.4299 0.260002H72.6999ZM72.6999 0.900002H68.4299ZM68.4299 0.540001H72.6999ZM72.6999 0.620003H68.4299Z" stroke="white" stroke-width="0.5"/>
<path d="M89.22 0.900002V0.260002ZM89.22 0.620003V0.540001ZM93.5 0.260002V0.900002ZM93.5 0.540001V0.620003ZM89.22 0.260002H93.5ZM93.5 0.900002H89.22ZM89.22 0.540001H93.5ZM93.5 0.620003H89.22Z" stroke="white" stroke-width="0.5"/>
<path d="M139.21 28.26L142.17 26.55V25.91M138.75 26.55V25.91" stroke="white" stroke-width="0.5"/>
<path d="M55.8899 28.26L58.8499 26.55V25.91M55.4299 26.55V25.91" stroke="white" stroke-width="0.5"/>
<path d="M29.1301 28.26L32.09 26.55V25.91M28.67 26.55V25.91" stroke="white" stroke-width="0.5"/>
<path d="M139 0.900002V0.260002ZM139 0.620003V0.540001ZM143.28 0.260002V0.900002ZM143.28 0.540001V0.620003ZM139 0.260002H143.28ZM143.28 0.900002H139ZM139 0.540001H143.28ZM143.28 0.620003H139Z" stroke="white" stroke-width="0.5"/>
<path d="M57.03 0.900002V0.260002ZM57.03 0.620003V0.540001ZM61.3 0.260002V0.900002ZM61.3 0.540001V0.620003ZM57.03 0.260002H61.3ZM61.3 0.900002H57.03ZM57.03 0.540001H61.3ZM61.3 0.620003H57.03Z" stroke="white" stroke-width="0.5"/>
<path d="M16.333 13.2422C16.2484 13.2422 16.1751 13.2528 16.1133 13.2739C16.0042 13.313 15.922 13.3854 15.8667 13.4912L15.2417 13.4619L15.4907 11.5063H17.4414V12.0972H15.9937L15.8667 12.8711C15.9741 12.8011 16.0579 12.7547 16.1182 12.7319C16.2191 12.6945 16.342 12.6758 16.4868 12.6758C16.7798 12.6758 17.0353 12.7743 17.2534 12.9712C17.4715 13.1681 17.5806 13.4546 17.5806 13.8306C17.5806 14.1577 17.4756 14.4499 17.2656 14.707C17.0557 14.9642 16.7415 15.0928 16.3232 15.0928C15.9863 15.0928 15.7096 15.0024 15.4932 14.8218C15.2767 14.6411 15.1562 14.3848 15.1318 14.0527H15.8252C15.8529 14.2041 15.9058 14.3213 15.9839 14.4043C16.062 14.4857 16.1759 14.5264 16.3257 14.5264C16.4982 14.5264 16.6292 14.4661 16.7188 14.3457C16.8099 14.2236 16.8555 14.0706 16.8555 13.8867C16.8555 13.7061 16.8132 13.5539 16.7285 13.4302C16.6439 13.3049 16.512 13.2422 16.333 13.2422ZM19.6753 15H18.9624V12.5586H18.1299V12.085C18.3496 12.0752 18.5034 12.0605 18.5913 12.041C18.7313 12.0101 18.8452 11.9482 18.9331 11.8555C18.9933 11.792 19.0389 11.7074 19.0698 11.6016C19.0877 11.5381 19.0967 11.4909 19.0967 11.46H19.6753V15Z" fill="white"/>
<path d="M17.6147 55.6938V56.2383H17.2144V57H16.5332V56.2383H15.1318V55.6304L16.4331 53.4819H17.2144V55.6938H17.6147ZM15.647 55.6938H16.5332V54.1655L15.647 55.6938ZM19.082 57.1025C18.8167 57.1025 18.5783 57.0244 18.3667 56.8682C18.1551 56.7103 18.0339 56.4808 18.0029 56.1797H18.6963C18.7126 56.2839 18.7565 56.3685 18.8281 56.4336C18.8997 56.4987 18.995 56.5312 19.1138 56.5312C19.3433 56.5312 19.5044 56.4043 19.5972 56.1504C19.6476 56.0104 19.6794 55.8062 19.6924 55.5376C19.6289 55.6174 19.5614 55.6784 19.4897 55.7207C19.3595 55.7988 19.1992 55.8379 19.0088 55.8379C18.7272 55.8379 18.4774 55.741 18.2593 55.5474C18.0412 55.3521 17.9321 55.0713 17.9321 54.7051C17.9321 54.3258 18.0412 54.019 18.2593 53.7847C18.479 53.5487 18.7638 53.4307 19.1138 53.4307C19.6525 53.4307 20.022 53.6691 20.2222 54.146C20.3361 54.4162 20.3931 54.7718 20.3931 55.2129C20.3931 55.641 20.3385 55.9982 20.2295 56.2847C20.0212 56.8299 19.6387 57.1025 19.082 57.1025ZM18.8379 54.1118C18.7044 54.216 18.6377 54.3926 18.6377 54.6416C18.6377 54.8516 18.68 55.0094 18.7646 55.1152C18.8509 55.2194 18.9827 55.2715 19.1602 55.2715C19.2562 55.2715 19.3465 55.2438 19.4312 55.1885C19.589 55.0876 19.668 54.9126 19.668 54.6636C19.668 54.4634 19.6208 54.3047 19.5264 54.1875C19.4336 54.0703 19.3058 54.0117 19.1431 54.0117C19.0243 54.0117 18.9225 54.0451 18.8379 54.1118Z" fill="white"/>
<path d="M44.6147 55.6938V56.2383H44.2144V57H43.5332V56.2383H42.1318V55.6304L43.4331 53.4819H44.2144V55.6938H44.6147ZM42.647 55.6938H43.5332V54.1655L42.647 55.6938ZM45.2202 56.7778C45.0168 56.5695 44.915 56.3164 44.915 56.0186C44.915 55.82 44.9598 55.6401 45.0493 55.479C45.1405 55.3179 45.2731 55.1966 45.4473 55.1152C45.2764 55.0013 45.1649 54.8784 45.1128 54.7466C45.0623 54.6131 45.0371 54.4886 45.0371 54.373C45.0371 54.1159 45.134 53.897 45.3276 53.7163C45.5213 53.534 45.7948 53.4429 46.1479 53.4429C46.5011 53.4429 46.7746 53.534 46.9683 53.7163C47.1619 53.897 47.2588 54.1159 47.2588 54.373C47.2588 54.4886 47.2327 54.6131 47.1807 54.7466C47.1302 54.8784 47.0195 54.9932 46.8486 55.0908C47.0228 55.1885 47.1538 55.3179 47.2417 55.479C47.3296 55.6401 47.3735 55.82 47.3735 56.0186C47.3735 56.3164 47.2629 56.5703 47.0415 56.7803C46.8218 56.9886 46.5142 57.0928 46.1187 57.0928C45.7231 57.0928 45.4237 56.9878 45.2202 56.7778ZM45.6377 55.9722C45.6377 56.1463 45.6825 56.2814 45.772 56.3774C45.8631 56.4735 45.9884 56.5215 46.1479 56.5215C46.3075 56.5215 46.432 56.4735 46.5215 56.3774C46.6126 56.2814 46.6582 56.1463 46.6582 55.9722C46.6582 55.7915 46.6118 55.6548 46.519 55.562C46.4279 55.4676 46.3042 55.4204 46.1479 55.4204C45.9917 55.4204 45.8672 55.4676 45.7744 55.562C45.6833 55.6548 45.6377 55.7915 45.6377 55.9722ZM45.8208 54.7661C45.8989 54.8475 46.008 54.8882 46.1479 54.8882C46.2896 54.8882 46.3986 54.8475 46.4751 54.7661C46.5532 54.6847 46.5923 54.5798 46.5923 54.4512C46.5923 54.3112 46.5532 54.2021 46.4751 54.124C46.3986 54.0443 46.2896 54.0044 46.1479 54.0044C46.008 54.0044 45.8981 54.0443 45.8184 54.124C45.7402 54.2021 45.7012 54.3112 45.7012 54.4512C45.7012 54.5798 45.741 54.6847 45.8208 54.7661Z" fill="white"/>
<path d="M66.6147 55.6938V56.2383H66.2144V57H65.5332V56.2383H64.1318V55.6304L65.4331 53.4819H66.2144V55.6938H66.6147ZM64.647 55.6938H65.5332V54.1655L64.647 55.6938ZM68.9854 54.5977C68.7998 54.8613 68.6444 55.1331 68.519 55.4131C68.4198 55.6328 68.3302 55.9014 68.2505 56.2188C68.1707 56.5361 68.1309 56.7965 68.1309 57H67.4082C67.4294 56.3652 67.6377 55.7052 68.0332 55.02C68.2887 54.5952 68.5028 54.299 68.6753 54.1313H66.9102L66.9199 53.5063H69.4199V54.0508C69.3158 54.1533 69.1709 54.3356 68.9854 54.5977Z" fill="white"/>
<path d="M92.6147 55.6938V56.2383H92.2144V57H91.5332V56.2383H90.1318V55.6304L91.4331 53.4819H92.2144V55.6938H92.6147ZM90.647 55.6938H91.5332V54.1655L90.647 55.6938ZM94.3115 54.7026C94.6257 54.7026 94.8828 54.8092 95.083 55.0225C95.2848 55.2357 95.3857 55.5083 95.3857 55.8403C95.3857 56.1707 95.2873 56.4621 95.0903 56.7144C94.8934 56.9666 94.5874 57.0928 94.1724 57.0928C93.7264 57.0928 93.3976 56.9064 93.186 56.5337C93.0216 56.2424 92.9395 55.8664 92.9395 55.4058C92.9395 55.1356 92.9508 54.9159 92.9736 54.7466C93.0143 54.4455 93.0933 54.1948 93.2104 53.9946C93.3114 53.8237 93.4432 53.6862 93.606 53.582C93.7703 53.4779 93.9665 53.4258 94.1943 53.4258C94.5231 53.4258 94.7852 53.5104 94.9805 53.6797C95.1758 53.8473 95.2856 54.0711 95.3101 54.3511H94.6167C94.6167 54.2941 94.5947 54.2314 94.5508 54.1631C94.4759 54.0524 94.3628 53.9971 94.2114 53.9971C93.9852 53.9971 93.8241 54.124 93.728 54.3779C93.6759 54.5179 93.6401 54.7246 93.6206 54.998C93.7069 54.8955 93.807 54.8206 93.9209 54.7734C94.0348 54.7262 94.165 54.7026 94.3115 54.7026ZM93.8428 55.3667C93.7061 55.4725 93.6377 55.6434 93.6377 55.8794C93.6377 56.0698 93.689 56.2253 93.7915 56.3457C93.894 56.4661 94.0243 56.5264 94.1821 56.5264C94.3368 56.5264 94.458 56.4686 94.5459 56.353C94.6354 56.2358 94.6802 56.0845 94.6802 55.8989C94.6802 55.6922 94.6297 55.5343 94.5288 55.4253C94.4279 55.3146 94.3042 55.2593 94.1577 55.2593C94.0389 55.2593 93.9339 55.2951 93.8428 55.3667Z" fill="white"/>
<path d="M125.615 55.6938V56.2383H125.214V57H124.533V56.2383H123.132V55.6304L124.433 53.4819H125.214V55.6938H125.615ZM123.647 55.6938H124.533V54.1655L123.647 55.6938ZM127.116 55.2422C127.032 55.2422 126.958 55.2528 126.896 55.2739C126.787 55.313 126.705 55.3854 126.65 55.4912L126.025 55.4619L126.274 53.5063H128.225V54.0972H126.777L126.65 54.8711C126.757 54.8011 126.841 54.7547 126.901 54.7319C127.002 54.6945 127.125 54.6758 127.27 54.6758C127.563 54.6758 127.819 54.7743 128.037 54.9712C128.255 55.1681 128.364 55.4546 128.364 55.8306C128.364 56.1577 128.259 56.4499 128.049 56.707C127.839 56.9642 127.525 57.0928 127.106 57.0928C126.77 57.0928 126.493 57.0024 126.276 56.8218C126.06 56.6411 125.939 56.3848 125.915 56.0527H126.608C126.636 56.2041 126.689 56.3213 126.767 56.4043C126.845 56.4857 126.959 56.5264 127.109 56.5264C127.281 56.5264 127.412 56.4661 127.502 56.3457C127.593 56.2236 127.639 56.0706 127.639 55.8867C127.639 55.7061 127.596 55.5539 127.512 55.4302C127.427 55.3049 127.295 55.2422 127.116 55.2422Z" fill="white"/>
<path d="M129.615 13.6938V14.2383H129.214V15H128.533V14.2383H127.132V13.6304L128.433 11.4819H129.214V13.6938H129.615ZM127.647 13.6938H128.533V12.1655L127.647 13.6938ZM132.398 13.6938V14.2383H131.998V15H131.316V14.2383H129.915V13.6304L131.216 11.4819H131.998V13.6938H132.398ZM130.43 13.6938H131.316V12.1655L130.43 13.6938Z" fill="white"/>
<path d="M89.333 13.2422C89.2484 13.2422 89.1751 13.2528 89.1133 13.2739C89.0042 13.313 88.922 13.3854 88.8667 13.4912L88.2417 13.4619L88.4907 11.5063H90.4414V12.0972H88.9937L88.8667 12.8711C88.9741 12.8011 89.0579 12.7547 89.1182 12.7319C89.2191 12.6945 89.342 12.6758 89.4868 12.6758C89.7798 12.6758 90.0353 12.7743 90.2534 12.9712C90.4715 13.1681 90.5806 13.4546 90.5806 13.8306C90.5806 14.1577 90.4756 14.4499 90.2656 14.707C90.0557 14.9642 89.7415 15.0928 89.3232 15.0928C88.9863 15.0928 88.7096 15.0024 88.4932 14.8218C88.2767 14.6411 88.1562 14.3848 88.1318 14.0527H88.8252C88.8529 14.2041 88.9058 14.3213 88.9839 14.4043C89.062 14.4857 89.1759 14.5264 89.3257 14.5264C89.4982 14.5264 89.6292 14.4661 89.7188 14.3457C89.8099 14.2236 89.8555 14.0706 89.8555 13.8867C89.8555 13.7061 89.8132 13.5539 89.7285 13.4302C89.6439 13.3049 89.512 13.2422 89.333 13.2422ZM93.3979 13.6938V14.2383H92.9976V15H92.3164V14.2383H90.915V13.6304L92.2163 11.4819H92.9976V13.6938H93.3979ZM91.4302 13.6938H92.3164V12.1655L91.4302 13.6938Z" fill="white"/>
<path d="M74.333 13.2422C74.2484 13.2422 74.1751 13.2528 74.1133 13.2739C74.0042 13.313 73.922 13.3854 73.8667 13.4912L73.2417 13.4619L73.4907 11.5063H75.4414V12.0972H73.9937L73.8667 12.8711C73.9741 12.8011 74.0579 12.7547 74.1182 12.7319C74.2191 12.6945 74.342 12.6758 74.4868 12.6758C74.7798 12.6758 75.0353 12.7743 75.2534 12.9712C75.4715 13.1681 75.5806 13.4546 75.5806 13.8306C75.5806 14.1577 75.4756 14.4499 75.2656 14.707C75.0557 14.9642 74.7415 15.0928 74.3232 15.0928C73.9863 15.0928 73.7096 15.0024 73.4932 14.8218C73.2767 14.6411 73.1562 14.3848 73.1318 14.0527H73.8252C73.8529 14.2041 73.9058 14.3213 73.9839 14.4043C74.062 14.4857 74.1759 14.5264 74.3257 14.5264C74.4982 14.5264 74.6292 14.4661 74.7188 14.3457C74.8099 14.2236 74.8555 14.0706 74.8555 13.8867C74.8555 13.7061 74.8132 13.5539 74.7285 13.4302C74.6439 13.3049 74.512 13.2422 74.333 13.2422ZM76.7402 12.1655C76.6621 12.2697 76.6247 12.4089 76.6279 12.583H75.9785C75.985 12.4072 76.0151 12.2404 76.0688 12.0825C76.1258 11.9442 76.2153 11.8164 76.3374 11.6992C76.4285 11.6162 76.5368 11.5527 76.6621 11.5088C76.7874 11.4648 76.9412 11.4429 77.1235 11.4429C77.4621 11.4429 77.7347 11.5308 77.9414 11.7065C78.1497 11.8807 78.2539 12.1151 78.2539 12.4097C78.2539 12.618 78.1921 12.7938 78.0684 12.937C77.9902 13.0265 77.9089 13.0876 77.8242 13.1201C77.8877 13.1201 77.9788 13.1746 78.0977 13.2837C78.2751 13.4481 78.3638 13.6727 78.3638 13.9575C78.3638 14.257 78.2596 14.5207 78.0513 14.7485C77.8446 14.9748 77.5378 15.0879 77.1309 15.0879C76.6296 15.0879 76.2812 14.9243 76.0859 14.5972C75.9834 14.423 75.9264 14.1951 75.915 13.9136H76.5986C76.5986 14.0552 76.6214 14.1724 76.667 14.2651C76.7516 14.436 76.9054 14.5215 77.1284 14.5215C77.2651 14.5215 77.384 14.4751 77.4849 14.3823C77.5874 14.2879 77.6387 14.1528 77.6387 13.9771C77.6387 13.7443 77.5443 13.5889 77.3555 13.5107C77.248 13.4668 77.0788 13.4448 76.8477 13.4448V12.9468C77.0739 12.9435 77.2318 12.9215 77.3213 12.8809C77.4759 12.8125 77.5532 12.6742 77.5532 12.4658C77.5532 12.3307 77.5133 12.2209 77.4336 12.1362C77.3555 12.0516 77.2448 12.0093 77.1016 12.0093C76.9372 12.0093 76.8167 12.0614 76.7402 12.1655Z" fill="white"/>
<path d="M58.333 13.2422C58.2484 13.2422 58.1751 13.2528 58.1133 13.2739C58.0042 13.313 57.922 13.3854 57.8667 13.4912L57.2417 13.4619L57.4907 11.5063H59.4414V12.0972H57.9937L57.8667 12.8711C57.9741 12.8011 58.0579 12.7547 58.1182 12.7319C58.2191 12.6945 58.342 12.6758 58.4868 12.6758C58.7798 12.6758 59.0353 12.7743 59.2534 12.9712C59.4715 13.1681 59.5806 13.4546 59.5806 13.8306C59.5806 14.1577 59.4756 14.4499 59.2656 14.707C59.0557 14.9642 58.7415 15.0928 58.3232 15.0928C57.9863 15.0928 57.7096 15.0024 57.4932 14.8218C57.2767 14.6411 57.1562 14.3848 57.1318 14.0527H57.8252C57.8529 14.2041 57.9058 14.3213 57.9839 14.4043C58.062 14.4857 58.1759 14.5264 58.3257 14.5264C58.4982 14.5264 58.6292 14.4661 58.7188 14.3457C58.8099 14.2236 58.8555 14.0706 58.8555 13.8867C58.8555 13.7061 58.8132 13.5539 58.7285 13.4302C58.6439 13.3049 58.512 13.2422 58.333 13.2422ZM61.5215 12.1802C61.4385 12.0809 61.3197 12.0312 61.165 12.0312C60.9535 12.0312 60.8094 12.1102 60.7329 12.2681C60.689 12.3592 60.6629 12.5041 60.6548 12.7026H59.9785C59.9899 12.4015 60.0444 12.1582 60.1421 11.9727C60.3276 11.6195 60.6572 11.4429 61.1309 11.4429C61.5052 11.4429 61.8031 11.547 62.0244 11.7554C62.2458 11.9621 62.3564 12.2363 62.3564 12.5781C62.3564 12.8402 62.2783 13.0729 62.1221 13.2764C62.0195 13.4115 61.8511 13.562 61.6167 13.728L61.3384 13.9258C61.1642 14.0495 61.0446 14.139 60.9795 14.1943C60.916 14.2497 60.8623 14.314 60.8184 14.3872H62.3638V15H59.9395C59.946 14.7461 60.0005 14.5142 60.103 14.3042C60.2023 14.0682 60.4367 13.8184 60.8062 13.5547C61.1268 13.3252 61.3343 13.1608 61.4287 13.0615C61.5736 12.9069 61.646 12.7376 61.646 12.5537C61.646 12.404 61.6045 12.2795 61.5215 12.1802Z" fill="white"/>
</svg>
