<svg width="370" height="602" viewBox="0 0 370 602" fill="none" xmlns="http://www.w3.org/2000/svg">
<path d="M325 529C323.895 529 323 528.105 323 527V130M323 130C323 128.895 323.895 128 325 128H366M366 128C367.105 128 368 128.895 368 130V527M368 527C368 528.105 367.105 529 366 529H325" stroke="white" stroke-width="4"/>
<path d="M71.3099 268.28C71.3099 269.385 70.4144 270.28 69.3099 270.28H4.87988M4.87988 270.28C3.77531 270.28 2.87988 269.385 2.87988 268.28V158.65M2.87988 158.65C2.87988 157.545 3.77531 156.65 4.87988 156.65H69.3099M69.3099 156.65C70.4144 156.65 71.3099 157.545 71.3099 158.65V268.28" stroke="white" stroke-width="4"/>
<path d="M197.88 124.81V270.28" stroke="#808080" stroke-width="2"/>
<path d="M197.88 124.81L197.68 120.9L197.09 117.03L196.11 113.25L194.75 109.58L193.03 106.06L190.96 102.74L188.56 99.65L185.87 96.82L182.9 94.27L179.69 92.03L176.27 90.13L172.67 88.59L168.94 87.42L165.11 86.63L161.22 86.24H157.3L153.41 86.63L149.58 87.42L145.85 88.59L142.25 90.13L138.83 92.03L135.62 94.27L132.65 96.82L129.96 99.65L127.56 102.74L125.49 106.06L123.77 109.58L122.41 113.25L121.43 117.03L120.84 120.9L120.64 124.81" stroke="#808080" stroke-width="2"/>
<path d="M120.64 270.28L120.84 274.19L121.43 278.06L122.41 281.85L123.77 285.51L125.49 289.03L127.56 292.35L129.96 295.44L132.65 298.28L135.62 300.82L138.83 303.06L142.25 304.96L145.85 306.5L149.58 307.67L153.41 308.46L157.3 308.86H161.22L165.11 308.46L168.94 307.67L172.67 306.5L176.27 304.96L179.69 303.06L182.9 300.82L185.87 298.28L188.56 295.44L190.96 292.35L193.03 289.03L194.75 285.51L196.11 281.85L197.09 278.06L197.68 274.19L197.88 270.28" stroke="#808080" stroke-width="2"/>
<path d="M120.64 270.28V124.81" stroke="#808080" stroke-width="2"/>
<path d="M134.85 4.70001C134.85 3.59544 135.746 2.70001 136.85 2.70001H218.53M218.53 2.70001C219.635 2.70001 220.53 3.59544 220.53 4.70001V52.48M220.53 52.48C220.53 53.5846 219.635 54.48 218.53 54.48H136.85M136.85 54.48C135.746 54.48 134.85 53.5846 134.85 52.48V4.70001" stroke="white" stroke-width="4"/>
<path d="M126.99 597.3C126.99 598.405 126.095 599.3 124.99 599.3H42.0801M42.0801 599.3C40.9755 599.3 40.0801 598.405 40.0801 597.3V544.77M40.0801 544.77C40.0801 543.665 40.9755 542.77 42.0801 542.77H124.99M124.99 542.77C126.095 542.77 126.99 543.665 126.99 544.77V597.3" stroke="white" stroke-width="4"/>
<rect x="204" y="543" width="77" height="56.53" rx="2" stroke="white" stroke-width="4"/>
<rect x="204" y="440" width="77" height="56.53" rx="2" stroke="white" stroke-width="4"/>
<rect x="204" y="335" width="77" height="56.53" rx="2" stroke="white" stroke-width="4"/>
<path d="M339.298 492H337.302V485.164H334.971V483.838C335.586 483.811 336.017 483.77 336.263 483.715C336.655 483.628 336.974 483.455 337.22 483.195C337.388 483.018 337.516 482.781 337.603 482.484C337.653 482.307 337.678 482.174 337.678 482.088H339.298V492ZM346.66 484.104C346.428 483.826 346.095 483.688 345.662 483.688C345.07 483.688 344.666 483.909 344.452 484.351C344.329 484.606 344.256 485.011 344.233 485.567H342.34C342.372 484.724 342.524 484.043 342.798 483.523C343.317 482.535 344.24 482.04 345.566 482.04C346.615 482.04 347.449 482.332 348.068 482.915C348.688 483.494 348.998 484.262 348.998 485.219C348.998 485.952 348.779 486.604 348.342 487.174C348.055 487.552 347.583 487.974 346.927 488.438L346.147 488.992C345.66 489.339 345.325 489.589 345.143 489.744C344.965 489.899 344.814 490.079 344.691 490.284H349.019V492H342.23C342.249 491.289 342.401 490.64 342.688 490.052C342.966 489.391 343.623 488.691 344.657 487.953C345.555 487.311 346.136 486.85 346.4 486.572C346.806 486.139 347.009 485.665 347.009 485.15C347.009 484.731 346.893 484.382 346.66 484.104ZM353.441 492.246C352.179 492.246 351.293 491.804 350.782 490.92C350.276 490.036 350.023 488.776 350.023 487.14C350.023 485.504 350.276 484.241 350.782 483.353C351.293 482.464 352.179 482.02 353.441 482.02C354.704 482.02 355.59 482.464 356.101 483.353C356.606 484.241 356.859 485.504 356.859 487.14C356.859 488.776 356.604 490.036 356.094 490.92C355.588 491.804 354.704 492.246 353.441 492.246ZM354.583 489.751C354.761 489.149 354.85 488.279 354.85 487.14C354.85 485.946 354.758 485.062 354.576 484.487C354.398 483.913 354.02 483.626 353.441 483.626C352.863 483.626 352.48 483.913 352.293 484.487C352.106 485.062 352.013 485.946 352.013 487.14C352.013 488.279 352.106 489.152 352.293 489.758C352.48 490.359 352.863 490.66 353.441 490.66C354.02 490.66 354.401 490.357 354.583 489.751Z" fill="white"/>
<path d="M339.298 443H337.302V436.164H334.971V434.838C335.586 434.811 336.017 434.77 336.263 434.715C336.655 434.628 336.974 434.455 337.22 434.195C337.388 434.018 337.516 433.781 337.603 433.484C337.653 433.307 337.678 433.174 337.678 433.088H339.298V443ZM346.66 435.104C346.428 434.826 346.095 434.688 345.662 434.688C345.07 434.688 344.666 434.909 344.452 435.351C344.329 435.606 344.256 436.011 344.233 436.567H342.34C342.372 435.724 342.524 435.043 342.798 434.523C343.317 433.535 344.24 433.04 345.566 433.04C346.615 433.04 347.449 433.332 348.068 433.915C348.688 434.494 348.998 435.262 348.998 436.219C348.998 436.952 348.779 437.604 348.342 438.174C348.055 438.552 347.583 438.974 346.927 439.438L346.147 439.992C345.66 440.339 345.325 440.589 345.143 440.744C344.965 440.899 344.814 441.079 344.691 441.284H349.019V443H342.23C342.249 442.289 342.401 441.64 342.688 441.052C342.966 440.391 343.623 439.691 344.657 438.953C345.555 438.311 346.136 437.85 346.4 437.572C346.806 437.139 347.009 436.665 347.009 436.15C347.009 435.731 346.893 435.382 346.66 435.104ZM354.884 443H352.888V436.164H350.557V434.838C351.172 434.811 351.603 434.77 351.849 434.715C352.241 434.628 352.56 434.455 352.806 434.195C352.974 434.018 353.102 433.781 353.188 433.484C353.239 433.307 353.264 433.174 353.264 433.088H354.884V443Z" fill="white"/>
<path d="M339.298 398H337.302V391.164H334.971V389.838C335.586 389.811 336.017 389.77 336.263 389.715C336.655 389.628 336.974 389.455 337.22 389.195C337.388 389.018 337.516 388.781 337.603 388.484C337.653 388.307 337.678 388.174 337.678 388.088H339.298V398ZM345.648 398.246C344.386 398.246 343.5 397.804 342.989 396.92C342.483 396.036 342.23 394.776 342.23 393.14C342.23 391.504 342.483 390.241 342.989 389.353C343.5 388.464 344.386 388.02 345.648 388.02C346.911 388.02 347.797 388.464 348.308 389.353C348.813 390.241 349.066 391.504 349.066 393.14C349.066 394.776 348.811 396.036 348.301 396.92C347.795 397.804 346.911 398.246 345.648 398.246ZM346.79 395.751C346.968 395.149 347.057 394.279 347.057 393.14C347.057 391.946 346.965 391.062 346.783 390.487C346.605 389.913 346.227 389.626 345.648 389.626C345.07 389.626 344.687 389.913 344.5 390.487C344.313 391.062 344.22 391.946 344.22 393.14C344.22 394.279 344.313 395.152 344.5 395.758C344.687 396.359 345.07 396.66 345.648 396.66C346.227 396.66 346.608 396.357 346.79 395.751ZM350.81 397.378C350.24 396.795 349.955 396.086 349.955 395.252C349.955 394.696 350.08 394.192 350.331 393.741C350.586 393.29 350.958 392.951 351.445 392.723C350.967 392.404 350.655 392.06 350.509 391.69C350.368 391.317 350.297 390.968 350.297 390.645C350.297 389.924 350.568 389.312 351.11 388.806C351.653 388.295 352.418 388.04 353.407 388.04C354.396 388.04 355.162 388.295 355.704 388.806C356.246 389.312 356.518 389.924 356.518 390.645C356.518 390.968 356.445 391.317 356.299 391.69C356.158 392.06 355.848 392.381 355.369 392.654C355.857 392.928 356.224 393.29 356.47 393.741C356.716 394.192 356.839 394.696 356.839 395.252C356.839 396.086 356.529 396.797 355.909 397.385C355.294 397.968 354.433 398.26 353.325 398.26C352.218 398.26 351.379 397.966 350.81 397.378ZM351.979 395.122C351.979 395.61 352.104 395.988 352.354 396.257C352.61 396.526 352.961 396.66 353.407 396.66C353.854 396.66 354.202 396.526 354.453 396.257C354.708 395.988 354.836 395.61 354.836 395.122C354.836 394.616 354.706 394.233 354.446 393.974C354.191 393.709 353.845 393.577 353.407 393.577C352.97 393.577 352.621 393.709 352.361 393.974C352.106 394.233 351.979 394.616 351.979 395.122ZM352.491 391.745C352.71 391.973 353.015 392.087 353.407 392.087C353.804 392.087 354.109 391.973 354.323 391.745C354.542 391.517 354.651 391.223 354.651 390.863C354.651 390.471 354.542 390.166 354.323 389.947C354.109 389.724 353.804 389.612 353.407 389.612C353.015 389.612 352.708 389.724 352.484 389.947C352.266 390.166 352.156 390.471 352.156 390.863C352.156 391.223 352.268 391.517 352.491 391.745Z" fill="white"/>
<path d="M165.171 23.9512H173.401V25.6807H170.332V34H168.233V25.6807H165.171V23.9512ZM179.273 34V29.5088H179.239L176.607 34H174.495V26.5488H176.43V31.1426H176.457L179.171 26.5488H181.201V34H179.273ZM185.774 26.6377C185.952 26.5329 186.148 26.4554 186.362 26.4053C186.581 26.3551 186.827 26.3301 187.101 26.3301C187.328 26.3301 187.563 26.3574 187.805 26.4121C188.046 26.4668 188.281 26.5557 188.509 26.6787C188.741 26.7972 188.96 26.9544 189.165 27.1504C189.37 27.3418 189.55 27.5788 189.705 27.8613C189.86 28.1439 189.983 28.4743 190.074 28.8525C190.165 29.2262 190.211 29.6546 190.211 30.1377C190.211 30.7393 190.145 31.2907 190.013 31.792C189.885 32.2933 189.689 32.724 189.425 33.084C189.165 33.444 188.835 33.7243 188.434 33.9248C188.037 34.1253 187.57 34.2256 187.032 34.2256C186.845 34.2256 186.656 34.2074 186.465 34.1709C186.273 34.1344 186.087 34.0729 185.904 33.9863C185.722 33.8997 185.549 33.7835 185.385 33.6377C185.225 33.4873 185.084 33.3005 184.961 33.0771H184.934V36.8848H182.999V26.5488H184.845V27.6152H184.872C185.004 27.3919 185.143 27.2005 185.289 27.041C185.435 26.877 185.597 26.7425 185.774 26.6377ZM185.467 32.1611C185.59 32.2842 185.738 32.3844 185.911 32.4619C186.084 32.5348 186.289 32.5713 186.526 32.5713C186.763 32.5713 186.968 32.5348 187.142 32.4619C187.315 32.3844 187.463 32.2842 187.586 32.1611C187.709 32.0381 187.809 31.8968 187.887 31.7373C187.969 31.5778 188.033 31.4137 188.078 31.2451C188.124 31.0719 188.153 30.9033 188.167 30.7393C188.185 30.5706 188.194 30.4157 188.194 30.2744C188.194 30.0146 188.165 29.7526 188.105 29.4883C188.046 29.224 187.951 28.987 187.818 28.7773C187.691 28.5677 187.52 28.3968 187.306 28.2646C187.091 28.1325 186.832 28.0664 186.526 28.0664C186.216 28.0664 185.954 28.1325 185.74 28.2646C185.531 28.3968 185.36 28.5677 185.228 28.7773C185.1 28.987 185.007 29.224 184.947 29.4883C184.888 29.7526 184.858 30.0146 184.858 30.2744C184.858 30.4157 184.865 30.5706 184.879 30.7393C184.897 30.9033 184.929 31.0719 184.975 31.2451C185.02 31.4137 185.082 31.5778 185.159 31.7373C185.241 31.8968 185.344 32.0381 185.467 32.1611Z" fill="white"/>
<path d="M19.8086 213.969C19.9805 214.06 20.1758 214.105 20.3945 214.105C20.6471 214.105 20.8529 214.066 21.0117 213.988C21.1706 213.91 21.2969 213.815 21.3906 213.703C21.487 213.591 21.5586 213.474 21.6055 213.352C21.6523 213.229 21.6888 213.122 21.7148 213.031H22.9062C22.8411 213.391 22.7331 213.703 22.582 213.969C22.431 214.232 22.2474 214.451 22.0312 214.625C21.8151 214.799 21.5716 214.93 21.3008 215.016C21.0326 215.102 20.7461 215.145 20.4414 215.145C20.0143 215.145 19.6354 215.074 19.3047 214.934C18.9766 214.79 18.6992 214.587 18.4727 214.324C18.2487 214.061 18.0781 213.745 17.9609 213.375C17.8438 213.003 17.7852 212.587 17.7852 212.129C17.7852 211.775 17.819 211.454 17.8867 211.168C17.9544 210.882 18.0482 210.628 18.168 210.406C18.2904 210.182 18.4336 209.99 18.5977 209.828C18.7617 209.664 18.9401 209.53 19.1328 209.426C19.3281 209.319 19.5326 209.241 19.7461 209.191C19.9596 209.139 20.1758 209.113 20.3945 209.113C20.707 209.113 20.9844 209.146 21.2266 209.211C21.4688 209.276 21.681 209.363 21.8633 209.473C22.0456 209.582 22.2005 209.707 22.3281 209.848C22.4583 209.988 22.5638 210.134 22.6445 210.285C22.7279 210.434 22.7891 210.583 22.8281 210.734C22.8698 210.883 22.8958 211.02 22.9062 211.145H21.707C21.6914 211.09 21.6719 211.027 21.6484 210.957C21.625 210.884 21.5924 210.811 21.5508 210.738C21.5117 210.665 21.4609 210.594 21.3984 210.523C21.3385 210.453 21.263 210.391 21.1719 210.336C21.0807 210.281 20.9714 210.237 20.8438 210.203C20.7161 210.169 20.5664 210.152 20.3945 210.152C20.3216 210.152 20.2357 210.161 20.1367 210.18C20.0378 210.198 19.9362 210.233 19.832 210.285C19.7279 210.335 19.625 210.405 19.5234 210.496C19.4219 210.587 19.3307 210.707 19.25 210.855C19.1719 211.001 19.1081 211.178 19.0586 211.387C19.0091 211.595 18.9844 211.842 18.9844 212.129C18.9844 212.439 19.0169 212.716 19.082 212.961C19.1471 213.206 19.2409 213.413 19.3633 213.582C19.4857 213.751 19.6341 213.88 19.8086 213.969ZM23.7422 210.742H27.5742V215H26.4727V211.641H24.8477V215H23.7422V210.742ZM29.6484 214.961C29.3802 214.849 29.151 214.693 28.9609 214.492C28.7734 214.292 28.6289 214.053 28.5273 213.777C28.4284 213.501 28.3789 213.199 28.3789 212.871C28.3789 212.543 28.4284 212.241 28.5273 211.965C28.6289 211.689 28.7734 211.452 28.9609 211.254C29.151 211.053 29.3802 210.897 29.6484 210.785C29.9167 210.673 30.2188 210.617 30.5547 210.617C30.8958 210.617 31.2005 210.673 31.4688 210.785C31.7396 210.897 31.9674 211.053 32.1523 211.254C32.3398 211.452 32.4831 211.689 32.582 211.965C32.681 212.241 32.7305 212.543 32.7305 212.871C32.7305 213.199 32.681 213.501 32.582 213.777C32.4831 214.053 32.3398 214.292 32.1523 214.492C31.9674 214.693 31.7396 214.849 31.4688 214.961C31.2005 215.073 30.8958 215.129 30.5547 215.129C30.2188 215.129 29.9167 215.073 29.6484 214.961ZM29.5859 213.348C29.6198 213.507 29.6771 213.648 29.7578 213.773C29.8385 213.896 29.944 213.995 30.0742 214.07C30.2044 214.146 30.3646 214.184 30.5547 214.184C30.7526 214.184 30.9167 214.147 31.0469 214.074C31.1797 213.999 31.2852 213.901 31.3633 213.781C31.4414 213.659 31.4961 213.52 31.5273 213.363C31.5612 213.204 31.5781 213.04 31.5781 212.871C31.5781 212.704 31.5612 212.542 31.5273 212.383C31.4961 212.224 31.4414 212.085 31.3633 211.965C31.2852 211.842 31.1797 211.745 31.0469 211.672C30.9167 211.596 30.7526 211.559 30.5547 211.559C30.3646 211.559 30.2044 211.596 30.0742 211.672C29.944 211.747 29.8385 211.848 29.7578 211.973C29.6771 212.095 29.6185 212.236 29.582 212.395C29.5482 212.551 29.5312 212.71 29.5312 212.871C29.5312 213.033 29.5495 213.191 29.5859 213.348ZM35.0859 210.793C35.1875 210.733 35.2995 210.689 35.4219 210.66C35.5469 210.632 35.6875 210.617 35.8438 210.617C35.974 210.617 36.1081 210.633 36.2461 210.664C36.3841 210.695 36.5182 210.746 36.6484 210.816C36.7812 210.884 36.9062 210.974 37.0234 211.086C37.1406 211.195 37.2435 211.331 37.332 211.492C37.4206 211.654 37.4909 211.842 37.543 212.059C37.5951 212.272 37.6211 212.517 37.6211 212.793C37.6211 213.137 37.5833 213.452 37.5078 213.738C37.4349 214.025 37.3229 214.271 37.1719 214.477C37.0234 214.682 36.8346 214.842 36.6055 214.957C36.3789 215.072 36.112 215.129 35.8047 215.129C35.6979 215.129 35.5898 215.118 35.4805 215.098C35.3711 215.077 35.2643 215.042 35.1602 214.992C35.056 214.943 34.957 214.876 34.8633 214.793C34.7721 214.707 34.6914 214.6 34.6211 214.473H34.6055V216.648H33.5V210.742H34.5547V211.352H34.5703C34.6458 211.224 34.7253 211.115 34.8086 211.023C34.8919 210.93 34.9844 210.853 35.0859 210.793ZM34.9102 213.949C34.9805 214.02 35.0651 214.077 35.1641 214.121C35.263 214.163 35.3802 214.184 35.5156 214.184C35.651 214.184 35.7682 214.163 35.8672 214.121C35.9661 214.077 36.0508 214.02 36.1211 213.949C36.1914 213.879 36.2487 213.798 36.293 213.707C36.3398 213.616 36.3763 213.522 36.4023 213.426C36.4284 213.327 36.4453 213.23 36.4531 213.137C36.4635 213.04 36.4688 212.952 36.4688 212.871C36.4688 212.723 36.4518 212.573 36.418 212.422C36.3841 212.271 36.3294 212.135 36.2539 212.016C36.181 211.896 36.0833 211.798 35.9609 211.723C35.8385 211.647 35.6901 211.609 35.5156 211.609C35.3385 211.609 35.1888 211.647 35.0664 211.723C34.9466 211.798 34.849 211.896 34.7734 212.016C34.7005 212.135 34.6471 212.271 34.6133 212.422C34.5794 212.573 34.5625 212.723 34.5625 212.871C34.5625 212.952 34.5664 213.04 34.5742 213.137C34.5846 213.23 34.6029 213.327 34.6289 213.426C34.6549 213.522 34.6901 213.616 34.7344 213.707C34.7812 213.798 34.8398 213.879 34.9102 213.949ZM41.7344 210.742V211.641H40.4453V215H39.3438V211.641H38.0547V210.742H41.7344ZM43.3633 212.414H43.7891C44.0365 212.414 44.2109 212.371 44.3125 212.285C44.4167 212.199 44.4688 212.074 44.4688 211.91C44.4688 211.814 44.4531 211.733 44.4219 211.668C44.3932 211.603 44.3516 211.551 44.2969 211.512C44.2448 211.47 44.1823 211.441 44.1094 211.426C44.0365 211.408 43.957 211.398 43.8711 211.398C43.6758 211.398 43.5169 211.444 43.3945 211.535C43.2747 211.624 43.2148 211.753 43.2148 211.922H42.1758C42.1784 211.688 42.2253 211.488 42.3164 211.324C42.4102 211.158 42.5365 211.022 42.6953 210.918C42.8542 210.814 43.0417 210.738 43.2578 210.691C43.474 210.642 43.707 210.617 43.957 210.617C44.2383 210.617 44.4805 210.651 44.6836 210.719C44.8867 210.786 45.0547 210.876 45.1875 210.988C45.3203 211.1 45.418 211.229 45.4805 211.375C45.543 211.518 45.5742 211.665 45.5742 211.816C45.5742 211.941 45.556 212.053 45.5195 212.152C45.4831 212.249 45.4336 212.333 45.3711 212.406C45.3086 212.477 45.2357 212.535 45.1523 212.582C45.0716 212.629 44.987 212.664 44.8984 212.688V212.703C45.0469 212.727 45.1732 212.771 45.2773 212.836C45.3815 212.898 45.4661 212.974 45.5312 213.062C45.5964 213.151 45.6432 213.249 45.6719 213.355C45.7031 213.46 45.7188 213.562 45.7188 213.664C45.7188 213.93 45.6667 214.155 45.5625 214.34C45.4583 214.525 45.3216 214.676 45.1523 214.793C44.9857 214.91 44.7969 214.995 44.5859 215.047C44.3776 215.102 44.168 215.129 43.957 215.129C43.681 215.129 43.4271 215.103 43.1953 215.051C42.9661 215.001 42.7682 214.919 42.6016 214.805C42.4375 214.688 42.3086 214.536 42.2148 214.352C42.1211 214.164 42.0729 213.935 42.0703 213.664H43.125C43.125 213.763 43.1432 213.854 43.1797 213.938C43.2161 214.021 43.2669 214.092 43.332 214.152C43.3971 214.212 43.4753 214.259 43.5664 214.293C43.6576 214.327 43.7591 214.344 43.8711 214.344C44.0065 214.344 44.1185 214.323 44.207 214.281C44.2982 214.237 44.3698 214.182 44.4219 214.117C44.474 214.052 44.5104 213.983 44.5312 213.91C44.5547 213.835 44.5664 213.766 44.5664 213.703C44.5664 213.5 44.5104 213.358 44.3984 213.277C44.2891 213.194 44.1133 213.152 43.8711 213.152H43.3633V212.414ZM48.3672 212.344C48.4062 212.339 48.4479 212.331 48.4922 212.32C48.5391 212.31 48.582 212.293 48.6211 212.27C48.6602 212.243 48.6927 212.21 48.7188 212.168C48.7448 212.124 48.7578 212.065 48.7578 211.992C48.7578 211.922 48.7461 211.858 48.7227 211.801C48.7018 211.741 48.6654 211.69 48.6133 211.648C48.5612 211.604 48.4909 211.57 48.4023 211.547C48.3164 211.523 48.2083 211.512 48.0781 211.512C47.9297 211.512 47.8099 211.527 47.7188 211.559C47.6302 211.587 47.5599 211.629 47.5078 211.684C47.4557 211.736 47.418 211.798 47.3945 211.871C47.3711 211.941 47.3542 212.017 47.3438 212.098H46.2383C46.2383 212.046 46.2461 211.974 46.2617 211.883C46.2799 211.789 46.3112 211.688 46.3555 211.578C46.4023 211.469 46.4661 211.358 46.5469 211.246C46.6302 211.134 46.7383 211.033 46.8711 210.941C47.0065 210.848 47.1706 210.771 47.3633 210.711C47.556 210.651 47.7865 210.62 48.0547 210.617C48.4349 210.617 48.7422 210.656 48.9766 210.734C49.2135 210.81 49.3971 210.91 49.5273 211.035C49.6602 211.158 49.7487 211.296 49.793 211.449C49.8398 211.6 49.8633 211.751 49.8633 211.902V214.16C49.8633 214.288 49.8698 214.393 49.8828 214.477C49.8984 214.557 49.918 214.622 49.9414 214.672C49.9648 214.719 49.9909 214.754 50.0195 214.777C50.0508 214.798 50.0833 214.814 50.1172 214.824V215H48.8945C48.8737 214.951 48.8503 214.885 48.8242 214.805C48.8008 214.721 48.7891 214.621 48.7891 214.504C48.7031 214.592 48.6185 214.674 48.5352 214.75C48.4544 214.826 48.3633 214.892 48.2617 214.949C48.1602 215.004 48.043 215.047 47.9102 215.078C47.7773 215.112 47.6172 215.129 47.4297 215.129C47.2396 215.129 47.0638 215.1 46.9023 215.043C46.7435 214.988 46.6055 214.906 46.4883 214.797C46.3711 214.688 46.2799 214.551 46.2148 214.387C46.1497 214.223 46.1172 214.033 46.1172 213.816C46.1172 213.642 46.1445 213.48 46.1992 213.332C46.2539 213.181 46.3307 213.049 46.4297 212.938C46.5312 212.823 46.6536 212.729 46.7969 212.656C46.9427 212.581 47.1055 212.53 47.2852 212.504L48.3672 212.344ZM47.5625 214.312C47.6302 214.333 47.7031 214.344 47.7812 214.344C47.8229 214.344 47.8763 214.34 47.9414 214.332C48.0065 214.322 48.0755 214.303 48.1484 214.277C48.2214 214.251 48.2943 214.216 48.3672 214.172C48.4401 214.125 48.5052 214.065 48.5625 213.992C48.6198 213.919 48.6667 213.831 48.7031 213.727C48.7396 213.62 48.7578 213.495 48.7578 213.352V212.922C48.6901 212.958 48.6224 212.992 48.5547 213.023C48.487 213.052 48.3971 213.077 48.2852 213.098L47.9922 213.152C47.8646 213.176 47.7526 213.203 47.6562 213.234C47.5599 213.266 47.4792 213.307 47.4141 213.359C47.3516 213.409 47.3034 213.47 47.2695 213.543C47.2383 213.616 47.2227 213.707 47.2227 213.816C47.2227 213.908 47.237 213.987 47.2656 214.055C47.2943 214.12 47.3333 214.174 47.3828 214.219C47.4349 214.26 47.4948 214.292 47.5625 214.312ZM52.5273 211.641L52.5039 212.434C52.4909 212.879 52.4622 213.27 52.418 213.605C52.3737 213.941 52.3008 214.223 52.1992 214.449C52.1003 214.673 51.9648 214.842 51.793 214.957C51.6237 215.072 51.4062 215.129 51.1406 215.129C51.0156 215.129 50.9062 215.121 50.8125 215.105C50.7188 215.092 50.6419 215.073 50.582 215.047V214.121C50.6185 214.137 50.6641 214.151 50.7188 214.164C50.776 214.177 50.8451 214.184 50.9258 214.184C51.0091 214.184 51.0833 214.159 51.1484 214.109C51.2135 214.057 51.2695 213.965 51.3164 213.832C51.3633 213.697 51.3997 213.51 51.4258 213.273C51.4518 213.036 51.4688 212.73 51.4766 212.355L51.5078 210.742H54.9336V215H53.832V211.641H52.5273Z" fill="white"/>
<path d="M221.332 366.914C220.986 366.76 220.698 366.549 220.469 366.281C220.24 366.01 220.068 365.691 219.953 365.324C219.839 364.954 219.781 364.556 219.781 364.129C219.781 363.699 219.839 363.301 219.953 362.934C220.068 362.566 220.24 362.249 220.469 361.98C220.698 361.71 220.986 361.497 221.332 361.344C221.678 361.19 222.082 361.113 222.543 361.113C222.967 361.113 223.35 361.19 223.691 361.344C224.033 361.497 224.322 361.71 224.559 361.98C224.798 362.249 224.982 362.566 225.109 362.934C225.237 363.301 225.301 363.699 225.301 364.129C225.301 364.556 225.237 364.954 225.109 365.324C224.982 365.691 224.798 366.01 224.559 366.281C224.322 366.549 224.033 366.76 223.691 366.914C223.35 367.068 222.967 367.145 222.543 367.145C222.082 367.145 221.678 367.068 221.332 366.914ZM220.98 364.129C220.98 364.415 221.017 364.678 221.09 364.918C221.16 365.16 221.262 365.37 221.395 365.547C221.53 365.721 221.694 365.858 221.887 365.957C222.079 366.056 222.298 366.105 222.543 366.105C222.788 366.105 223.007 366.056 223.199 365.957C223.392 365.858 223.555 365.721 223.688 365.547C223.823 365.37 223.926 365.161 223.996 364.922C224.066 364.68 224.102 364.415 224.102 364.129C224.102 363.842 224.066 363.579 223.996 363.34C223.926 363.098 223.823 362.889 223.688 362.715C223.555 362.538 223.392 362.4 223.199 362.301C223.007 362.202 222.788 362.152 222.543 362.152C222.298 362.152 222.079 362.202 221.887 362.301C221.694 362.4 221.53 362.538 221.395 362.715C221.262 362.889 221.159 363.098 221.086 363.34C221.016 363.579 220.98 363.842 220.98 364.129ZM228.789 361.297C228.849 361.263 228.887 361.228 228.902 361.191H229.902C229.905 361.41 229.867 361.59 229.789 361.73C229.711 361.868 229.607 361.98 229.477 362.066C229.349 362.15 229.201 362.211 229.031 362.25C228.865 362.286 228.693 362.311 228.516 362.324C228.393 362.335 228.267 362.352 228.137 362.375C228.007 362.396 227.879 362.43 227.754 362.477C227.629 362.521 227.51 362.581 227.398 362.656C227.286 362.729 227.186 362.82 227.098 362.93C227.009 363.039 226.936 363.169 226.879 363.32C226.822 363.471 226.786 363.648 226.773 363.852C226.815 363.716 226.882 363.589 226.973 363.469C227.064 363.346 227.177 363.241 227.312 363.152C227.451 363.061 227.609 362.99 227.789 362.938C227.969 362.883 228.168 362.855 228.387 362.855C228.678 362.855 228.941 362.905 229.176 363.004C229.41 363.1 229.609 363.237 229.773 363.414C229.938 363.591 230.062 363.805 230.148 364.055C230.237 364.305 230.281 364.582 230.281 364.887C230.281 365.225 230.23 365.533 230.129 365.809C230.03 366.085 229.887 366.322 229.699 366.52C229.514 366.715 229.288 366.867 229.02 366.977C228.751 367.083 228.449 367.137 228.113 367.137C227.624 367.137 227.219 367.036 226.898 366.836C226.578 366.635 226.332 366.309 226.16 365.855C226.103 365.702 226.059 365.539 226.027 365.367C225.996 365.195 225.973 365.034 225.957 364.883C225.944 364.732 225.936 364.6 225.934 364.488C225.931 364.376 225.93 364.302 225.93 364.266C225.93 363.859 225.977 363.488 226.07 363.152C226.164 362.814 226.312 362.52 226.516 362.27C226.721 362.02 226.984 361.818 227.305 361.664C227.628 361.51 228.018 361.413 228.477 361.371C228.622 361.358 228.727 361.333 228.789 361.297ZM228.152 363.676C227.962 363.676 227.799 363.708 227.664 363.773C227.531 363.836 227.422 363.922 227.336 364.031C227.25 364.141 227.188 364.268 227.148 364.414C227.109 364.557 227.09 364.71 227.09 364.871C227.09 365.033 227.107 365.193 227.141 365.352C227.177 365.508 227.236 365.648 227.316 365.773C227.397 365.896 227.503 365.995 227.633 366.07C227.763 366.146 227.923 366.184 228.113 366.184C228.314 366.184 228.479 366.147 228.609 366.074C228.742 365.999 228.848 365.901 228.926 365.781C229.004 365.659 229.059 365.52 229.09 365.363C229.121 365.204 229.137 365.04 229.137 364.871C229.137 364.704 229.118 364.548 229.082 364.402C229.046 364.257 228.988 364.13 228.91 364.023C228.832 363.914 228.73 363.829 228.605 363.77C228.48 363.707 228.329 363.676 228.152 363.676ZM235.586 362.742H236.691V366.105H237.199V368.023H236.191V367H231.074V362.742H232.18V366.105H233.332V362.742H234.434V366.105H235.586V362.742ZM238.672 367.004C238.422 366.918 238.203 366.784 238.016 366.602C237.831 366.417 237.685 366.178 237.578 365.887C237.471 365.595 237.418 365.241 237.418 364.824C237.418 364.535 237.456 364.258 237.531 363.992C237.609 363.724 237.729 363.488 237.891 363.285C238.055 363.082 238.263 362.921 238.516 362.801C238.771 362.678 239.077 362.617 239.434 362.617C239.811 362.617 240.129 362.68 240.387 362.805C240.645 362.927 240.852 363.102 241.008 363.328C241.167 363.555 241.28 363.828 241.348 364.148C241.415 364.469 241.449 364.824 241.449 365.215H238.531C238.531 365.254 238.535 365.306 238.543 365.371C238.551 365.436 238.566 365.507 238.59 365.582C238.613 365.658 238.647 365.734 238.691 365.812C238.736 365.888 238.794 365.957 238.867 366.02C238.943 366.082 239.034 366.133 239.141 366.172C239.25 366.211 239.38 366.23 239.531 366.23C239.609 366.23 239.686 366.22 239.762 366.199C239.84 366.176 239.911 366.143 239.977 366.102C240.042 366.057 240.098 366.005 240.145 365.945C240.194 365.883 240.229 365.812 240.25 365.734H241.395C241.395 365.812 241.378 365.902 241.344 366.004C241.31 366.103 241.258 366.204 241.188 366.309C241.12 366.41 241.034 366.51 240.93 366.609C240.826 366.708 240.702 366.797 240.559 366.875C240.415 366.951 240.253 367.012 240.07 367.059C239.891 367.105 239.69 367.129 239.469 367.129C239.185 367.129 238.919 367.087 238.672 367.004ZM238.867 363.711C238.781 363.786 238.71 363.887 238.652 364.012C238.598 364.137 238.57 364.293 238.57 364.48H240.301C240.301 364.293 240.272 364.137 240.215 364.012C240.16 363.887 240.09 363.788 240.004 363.715C239.921 363.639 239.828 363.587 239.727 363.559C239.625 363.527 239.527 363.512 239.434 363.512C239.342 363.512 239.246 363.527 239.145 363.559C239.043 363.587 238.951 363.638 238.867 363.711ZM246.938 362.742H248.199L246.77 364.711L248.273 367H246.938L245.77 365.191H245.559V367H244.457V365.191H244.215L243.016 367H241.727L243.238 364.711L241.824 362.742H243.09L244.25 364.434H244.457V362.742H245.559V364.434H245.77L246.938 362.742ZM251.594 367V364.434H251.574L250.07 367H248.863V362.742H249.969V365.367H249.984L251.535 362.742H252.695V367H251.594ZM257.066 362.742V363.641H255.777V367H254.676V363.641H253.387V362.742H257.066ZM260.484 367V364.434H260.465L258.961 367H257.754V362.742H258.859V365.367H258.875L260.426 362.742H261.586V367H260.484ZM263.578 367.004C263.328 366.918 263.109 366.784 262.922 366.602C262.737 366.417 262.591 366.178 262.484 365.887C262.378 365.595 262.324 365.241 262.324 364.824C262.324 364.535 262.362 364.258 262.438 363.992C262.516 363.724 262.635 363.488 262.797 363.285C262.961 363.082 263.169 362.921 263.422 362.801C263.677 362.678 263.983 362.617 264.34 362.617C264.717 362.617 265.035 362.68 265.293 362.805C265.551 362.927 265.758 363.102 265.914 363.328C266.073 363.555 266.186 363.828 266.254 364.148C266.322 364.469 266.355 364.824 266.355 365.215H263.438C263.438 365.254 263.441 365.306 263.449 365.371C263.457 365.436 263.473 365.507 263.496 365.582C263.52 365.658 263.553 365.734 263.598 365.812C263.642 365.888 263.701 365.957 263.773 366.02C263.849 366.082 263.94 366.133 264.047 366.172C264.156 366.211 264.286 366.23 264.438 366.23C264.516 366.23 264.592 366.22 264.668 366.199C264.746 366.176 264.818 366.143 264.883 366.102C264.948 366.057 265.004 366.005 265.051 365.945C265.1 365.883 265.135 365.812 265.156 365.734H266.301C266.301 365.812 266.284 365.902 266.25 366.004C266.216 366.103 266.164 366.204 266.094 366.309C266.026 366.41 265.94 366.51 265.836 366.609C265.732 366.708 265.608 366.797 265.465 366.875C265.322 366.951 265.159 367.012 264.977 367.059C264.797 367.105 264.596 367.129 264.375 367.129C264.091 367.129 263.826 367.087 263.578 367.004ZM263.773 363.711C263.688 363.786 263.616 363.887 263.559 364.012C263.504 364.137 263.477 364.293 263.477 364.48H265.207C265.207 364.293 265.178 364.137 265.121 364.012C265.066 363.887 264.996 363.788 264.91 363.715C264.827 363.639 264.734 363.587 264.633 363.559C264.531 363.527 264.434 363.512 264.34 363.512C264.249 363.512 264.152 363.527 264.051 363.559C263.949 363.587 263.857 363.638 263.773 363.711Z" fill="white"/>
<path d="M50.7471 558.311C50.7731 558.796 50.9603 559.131 51.3086 559.316C51.4876 559.414 51.6895 559.463 51.9141 559.463C52.334 559.463 52.6921 559.289 52.9883 558.94C53.2845 558.589 53.4945 557.878 53.6182 556.807C53.4229 557.116 53.1803 557.334 52.8906 557.461C52.6042 557.585 52.2949 557.646 51.9629 557.646C51.2891 557.646 50.7552 557.437 50.3613 557.017C49.9707 556.597 49.7754 556.056 49.7754 555.396C49.7754 554.761 49.9691 554.202 50.3564 553.721C50.7438 553.239 51.3151 552.998 52.0703 552.998C53.0892 552.998 53.7923 553.457 54.1797 554.375C54.3945 554.88 54.502 555.511 54.502 556.27C54.502 557.126 54.3734 557.884 54.1162 558.545C53.6898 559.645 52.9671 560.195 51.9482 560.195C51.2646 560.195 50.7454 560.016 50.3906 559.658C50.0358 559.3 49.8584 558.851 49.8584 558.311H50.7471ZM52.0801 556.875C52.4284 556.875 52.7458 556.761 53.0322 556.533C53.3219 556.302 53.4668 555.9 53.4668 555.327C53.4668 554.813 53.3366 554.43 53.0762 554.18C52.819 553.926 52.4902 553.799 52.0898 553.799C51.6602 553.799 51.3184 553.944 51.0645 554.233C50.8138 554.52 50.6885 554.904 50.6885 555.386C50.6885 555.841 50.7992 556.204 51.0205 556.475C51.2419 556.742 51.5951 556.875 52.0801 556.875ZM55.9424 555.049V554.375C56.5771 554.313 57.0199 554.211 57.2705 554.067C57.5212 553.921 57.7083 553.577 57.832 553.037H58.5254V560H57.5879V555.049H55.9424ZM60.9668 556.763H63.418V557.666H60.9668V556.763ZM64.8389 555.049V554.375C65.4736 554.313 65.9163 554.211 66.167 554.067C66.4176 553.921 66.6048 553.577 66.7285 553.037H67.4219V560H66.4844V555.049H64.8389ZM72.1533 553.008C73.0583 553.008 73.7126 553.381 74.1162 554.126C74.4287 554.702 74.585 555.492 74.585 556.494C74.585 557.445 74.4434 558.231 74.1602 558.853C73.75 559.744 73.0794 560.19 72.1484 560.19C71.3086 560.19 70.6836 559.826 70.2734 559.097C69.9316 558.488 69.7607 557.671 69.7607 556.646C69.7607 555.851 69.8633 555.169 70.0684 554.6C70.4525 553.538 71.1475 553.008 72.1533 553.008ZM72.1436 559.39C72.5993 559.39 72.9622 559.188 73.2324 558.784C73.5026 558.381 73.6377 557.629 73.6377 556.528C73.6377 555.734 73.54 555.081 73.3447 554.57C73.1494 554.056 72.7702 553.799 72.207 553.799C71.6895 553.799 71.3102 554.043 71.0693 554.531C70.8317 555.016 70.7129 555.732 70.7129 556.68C70.7129 557.393 70.7894 557.965 70.9424 558.398C71.1768 559.059 71.5771 559.39 72.1436 559.39ZM75.3271 560C75.3597 559.398 75.4834 558.874 75.6982 558.428C75.9163 557.982 76.3395 557.576 76.9678 557.212L77.9053 556.67C78.3252 556.426 78.6198 556.217 78.7891 556.045C79.056 555.775 79.1895 555.465 79.1895 555.117C79.1895 554.71 79.0674 554.388 78.8232 554.15C78.5791 553.91 78.2536 553.789 77.8467 553.789C77.2445 553.789 76.8278 554.017 76.5967 554.473C76.473 554.717 76.4046 555.055 76.3916 555.488H75.498C75.5078 554.88 75.6201 554.383 75.835 553.999C76.2158 553.322 76.888 552.983 77.8516 552.983C78.6523 552.983 79.2367 553.2 79.6045 553.633C79.9756 554.066 80.1611 554.548 80.1611 555.078C80.1611 555.638 79.9642 556.117 79.5703 556.514C79.3424 556.745 78.9339 557.025 78.3447 557.354L77.6758 557.725C77.3568 557.9 77.1061 558.068 76.9238 558.228C76.5983 558.511 76.3932 558.825 76.3086 559.17H80.127V560H75.3271Z" fill="white"/>
<path d="M212.438 486.218C212.496 486.719 212.729 487.066 213.136 487.258C213.344 487.355 213.585 487.404 213.858 487.404C214.379 487.404 214.765 487.238 215.016 486.906C215.266 486.574 215.392 486.206 215.392 485.803C215.392 485.314 215.242 484.937 214.942 484.67C214.646 484.403 214.29 484.27 213.873 484.27C213.57 484.27 213.31 484.328 213.092 484.445C212.877 484.562 212.693 484.725 212.54 484.934L211.778 484.89L212.311 481.125H215.943V481.975H212.97L212.672 483.918C212.835 483.794 212.989 483.701 213.136 483.64C213.396 483.532 213.697 483.479 214.039 483.479C214.68 483.479 215.224 483.685 215.67 484.099C216.116 484.512 216.339 485.036 216.339 485.671C216.339 486.332 216.134 486.914 215.724 487.419C215.317 487.924 214.666 488.176 213.771 488.176C213.201 488.176 212.696 488.016 212.257 487.697C211.821 487.375 211.576 486.882 211.524 486.218H212.438ZM218.004 486.218C218.062 486.719 218.295 487.066 218.702 487.258C218.91 487.355 219.151 487.404 219.425 487.404C219.946 487.404 220.331 487.238 220.582 486.906C220.833 486.574 220.958 486.206 220.958 485.803C220.958 485.314 220.808 484.937 220.509 484.67C220.213 484.403 219.856 484.27 219.439 484.27C219.137 484.27 218.876 484.328 218.658 484.445C218.443 484.562 218.259 484.725 218.106 484.934L217.345 484.89L217.877 481.125H221.51V481.975H218.536L218.238 483.918C218.401 483.794 218.556 483.701 218.702 483.64C218.963 483.532 219.264 483.479 219.605 483.479C220.247 483.479 220.79 483.685 221.236 484.099C221.682 484.512 221.905 485.036 221.905 485.671C221.905 486.332 221.7 486.914 221.29 487.419C220.883 487.924 220.232 488.176 219.337 488.176C218.767 488.176 218.263 488.016 217.823 487.697C217.387 487.375 217.143 486.882 217.091 486.218H218.004ZM222.75 484.763H225.201V485.666H222.75V484.763ZM228.385 483.938C228.772 483.938 229.075 483.83 229.293 483.615C229.511 483.397 229.62 483.138 229.62 482.839C229.62 482.578 229.516 482.339 229.308 482.121C229.099 481.903 228.782 481.794 228.355 481.794C227.932 481.794 227.626 481.903 227.438 482.121C227.249 482.339 227.154 482.595 227.154 482.888C227.154 483.216 227.276 483.474 227.521 483.659C227.765 483.845 228.053 483.938 228.385 483.938ZM228.438 487.399C228.845 487.399 229.182 487.29 229.449 487.072C229.719 486.851 229.854 486.522 229.854 486.086C229.854 485.633 229.716 485.29 229.439 485.056C229.163 484.821 228.808 484.704 228.375 484.704C227.955 484.704 227.612 484.825 227.345 485.065C227.081 485.303 226.949 485.633 226.949 486.057C226.949 486.421 227.07 486.737 227.311 487.004C227.555 487.268 227.931 487.399 228.438 487.399ZM227.188 484.274C226.944 484.17 226.754 484.048 226.617 483.908C226.36 483.648 226.231 483.309 226.231 482.893C226.231 482.372 226.42 481.924 226.798 481.55C227.175 481.175 227.711 480.988 228.404 480.988C229.075 480.988 229.601 481.166 229.981 481.521C230.362 481.872 230.553 482.284 230.553 482.756C230.553 483.192 230.442 483.545 230.221 483.815C230.097 483.968 229.905 484.118 229.645 484.265C229.934 484.398 230.162 484.551 230.328 484.724C230.637 485.049 230.792 485.472 230.792 485.993C230.792 486.608 230.585 487.131 230.172 487.561C229.758 487.987 229.174 488.2 228.419 488.2C227.739 488.2 227.162 488.016 226.69 487.648C226.222 487.277 225.987 486.74 225.987 486.037C225.987 485.624 226.088 485.267 226.29 484.968C226.492 484.665 226.791 484.434 227.188 484.274ZM232.467 486.218C232.525 486.719 232.758 487.066 233.165 487.258C233.373 487.355 233.614 487.404 233.888 487.404C234.409 487.404 234.794 487.238 235.045 486.906C235.296 486.574 235.421 486.206 235.421 485.803C235.421 485.314 235.271 484.937 234.972 484.67C234.675 484.403 234.319 484.27 233.902 484.27C233.6 484.27 233.339 484.328 233.121 484.445C232.906 484.562 232.722 484.725 232.569 484.934L231.808 484.89L232.34 481.125H235.973V481.975H232.999L232.701 483.918C232.864 483.794 233.019 483.701 233.165 483.64C233.425 483.532 233.727 483.479 234.068 483.479C234.71 483.479 235.253 483.685 235.699 484.099C236.145 484.512 236.368 485.036 236.368 485.671C236.368 486.332 236.163 486.914 235.753 487.419C235.346 487.924 234.695 488.176 233.8 488.176C233.23 488.176 232.726 488.016 232.286 487.697C231.85 487.375 231.606 486.882 231.554 486.218H232.467Z" fill="white"/>
<path d="M212.159 555.049V554.375C212.794 554.313 213.237 554.211 213.487 554.067C213.738 553.921 213.925 553.577 214.049 553.037H214.742V560H213.805V555.049H212.159ZM220.074 557.524V554.355L217.833 557.524H220.074ZM220.089 560V558.291H217.022V557.432L220.226 552.988H220.968V557.524H221.998V558.291H220.968V560H220.089ZM222.75 556.763H225.201V557.666H222.75V556.763ZM226.9 558.218C226.959 558.719 227.192 559.066 227.599 559.258C227.807 559.355 228.048 559.404 228.321 559.404C228.842 559.404 229.228 559.238 229.479 558.906C229.729 558.574 229.854 558.206 229.854 557.803C229.854 557.314 229.705 556.937 229.405 556.67C229.109 556.403 228.753 556.27 228.336 556.27C228.033 556.27 227.773 556.328 227.555 556.445C227.34 556.562 227.156 556.725 227.003 556.934L226.241 556.89L226.773 553.125H230.406V553.975H227.433L227.135 555.918C227.298 555.794 227.452 555.701 227.599 555.64C227.859 555.532 228.16 555.479 228.502 555.479C229.143 555.479 229.687 555.685 230.133 556.099C230.579 556.512 230.802 557.036 230.802 557.671C230.802 558.332 230.597 558.914 230.187 559.419C229.78 559.924 229.129 560.176 228.233 560.176C227.664 560.176 227.159 560.016 226.72 559.697C226.284 559.375 226.039 558.882 225.987 558.218H226.9ZM234.537 557.524V554.355L232.296 557.524H234.537ZM234.552 560V558.291H231.485V557.432L234.688 552.988H235.431V557.524H236.461V558.291H235.431V560H234.552Z" fill="white"/>
<path d="M269.461 577.406C269.591 577.152 269.669 576.964 269.695 576.84H272.01L269.002 591H266.15L268.221 581.234H264.891L265.291 579.34C266.183 579.301 266.811 579.242 267.176 579.164C267.762 579.04 268.27 578.793 268.699 578.422C268.999 578.168 269.253 577.829 269.461 577.406Z" fill="white"/>
<path d="M267.01 457.779L267.43 455.787C268.341 455.774 268.992 455.686 269.383 455.523C270.06 455.25 270.486 454.697 270.662 453.863C270.779 453.323 270.714 452.883 270.467 452.545C270.226 452.206 269.819 452.037 269.246 452.037C268.589 452.037 268.061 452.245 267.664 452.662C267.267 453.079 267 453.635 266.863 454.332H264.266C264.441 453.629 264.705 452.962 265.057 452.33C265.402 451.777 265.867 451.266 266.453 450.797C266.889 450.465 267.374 450.211 267.908 450.035C268.449 449.859 269.083 449.771 269.812 449.771C271.167 449.771 272.182 450.123 272.859 450.826C273.543 451.523 273.761 452.46 273.514 453.639C273.338 454.472 272.941 455.175 272.322 455.748C271.932 456.106 271.554 456.35 271.189 456.48C271.443 456.48 271.762 456.699 272.146 457.135C272.713 457.792 272.876 458.691 272.635 459.83C272.381 461.028 271.743 462.083 270.721 462.994C269.699 463.899 268.374 464.352 266.746 464.352C264.741 464.352 263.488 463.697 262.986 462.389C262.719 461.692 262.684 460.781 262.879 459.654H265.613C265.496 460.221 265.486 460.689 265.584 461.061C265.779 461.744 266.323 462.086 267.215 462.086C267.762 462.086 268.279 461.9 268.768 461.529C269.256 461.152 269.575 460.611 269.725 459.908C269.92 458.977 269.673 458.355 268.982 458.043C268.592 457.867 267.934 457.779 267.01 457.779Z" fill="white"/>
<path d="M55.5469 580.072C55.293 580.437 55.0684 581.016 54.873 581.811H52.168C52.4674 580.606 52.8906 579.633 53.4375 578.891C54.4792 577.478 55.9473 576.771 57.8418 576.771C59.3392 576.771 60.4427 577.188 61.1523 578.021C61.862 578.848 62.0703 579.945 61.7773 581.312C61.556 582.361 61.0482 583.292 60.2539 584.105C59.7266 584.646 58.9225 585.248 57.8418 585.912L56.5625 586.703C55.7617 587.198 55.2083 587.556 54.9023 587.777C54.5964 587.999 54.3262 588.256 54.0918 588.549H60.2734L59.7559 591H50.0586C50.2995 589.984 50.7129 589.057 51.2988 588.217C51.8978 587.273 53.0469 586.273 54.7461 585.219C56.224 584.301 57.194 583.643 57.6562 583.246C58.3659 582.628 58.7988 581.951 58.9551 581.215C59.0853 580.616 59.0267 580.118 58.7793 579.721C58.5319 579.324 58.099 579.125 57.4805 579.125C56.6341 579.125 55.9896 579.441 55.5469 580.072Z" fill="white"/>
<path d="M82.0928 586.049V585.375C82.7275 585.313 83.1702 585.211 83.4209 585.067C83.6715 584.921 83.8587 584.577 83.9824 584.037H84.6758V591H83.7383V586.049H82.0928ZM89.4072 584.008C90.3122 584.008 90.9665 584.381 91.3701 585.126C91.6826 585.702 91.8389 586.492 91.8389 587.494C91.8389 588.445 91.6973 589.231 91.4141 589.853C91.0039 590.744 90.3333 591.19 89.4023 591.19C88.5625 591.19 87.9375 590.826 87.5273 590.097C87.1855 589.488 87.0146 588.671 87.0146 587.646C87.0146 586.851 87.1172 586.169 87.3223 585.6C87.7064 584.538 88.4014 584.008 89.4072 584.008ZM89.3975 590.39C89.8532 590.39 90.2161 590.188 90.4863 589.784C90.7565 589.381 90.8916 588.629 90.8916 587.528C90.8916 586.734 90.7939 586.081 90.5986 585.57C90.4033 585.056 90.0241 584.799 89.4609 584.799C88.9434 584.799 88.5641 585.043 88.3232 585.531C88.0856 586.016 87.9668 586.732 87.9668 587.68C87.9668 588.393 88.0433 588.965 88.1963 589.398C88.4307 590.059 88.8311 590.39 89.3975 590.39ZM95.5742 588.524V585.355L93.333 588.524H95.5742ZM95.5889 591V589.291H92.5225V588.432L95.7256 583.988H96.4678V588.524H97.498V589.291H96.4678V591H95.5889ZM98.25 587.763H100.701V588.666H98.25V587.763ZM102.122 586.049V585.375C102.757 585.313 103.2 585.211 103.45 585.067C103.701 584.921 103.888 584.577 104.012 584.037H104.705V591H103.768V586.049H102.122ZM109.437 584.008C110.341 584.008 110.996 584.381 111.399 585.126C111.712 585.702 111.868 586.492 111.868 587.494C111.868 588.445 111.727 589.231 111.443 589.853C111.033 590.744 110.363 591.19 109.432 591.19C108.592 591.19 107.967 590.826 107.557 590.097C107.215 589.488 107.044 588.671 107.044 587.646C107.044 586.851 107.146 586.169 107.352 585.6C107.736 584.538 108.431 584.008 109.437 584.008ZM109.427 590.39C109.882 590.39 110.245 590.188 110.516 589.784C110.786 589.381 110.921 588.629 110.921 587.528C110.921 586.734 110.823 586.081 110.628 585.57C110.433 585.056 110.053 584.799 109.49 584.799C108.973 584.799 108.593 585.043 108.353 585.531C108.115 586.016 107.996 586.732 107.996 587.68C107.996 588.393 108.073 588.965 108.226 589.398C108.46 590.059 108.86 590.39 109.427 590.39ZM115.223 583.979C116.004 583.979 116.548 584.182 116.854 584.589C117.163 584.993 117.317 585.409 117.317 585.839H116.448C116.396 585.562 116.313 585.346 116.199 585.189C115.988 584.896 115.667 584.75 115.237 584.75C114.746 584.75 114.355 584.978 114.065 585.434C113.776 585.886 113.615 586.535 113.582 587.382C113.784 587.086 114.038 586.864 114.344 586.718C114.624 586.588 114.936 586.522 115.281 586.522C115.867 586.522 116.378 586.71 116.814 587.084C117.251 587.458 117.469 588.017 117.469 588.759C117.469 589.394 117.262 589.957 116.849 590.448C116.435 590.937 115.846 591.181 115.081 591.181C114.427 591.181 113.862 590.933 113.387 590.438C112.911 589.94 112.674 589.104 112.674 587.929C112.674 587.06 112.78 586.322 112.991 585.717C113.398 584.558 114.142 583.979 115.223 583.979ZM115.159 590.399C115.621 590.399 115.966 590.245 116.194 589.936C116.425 589.623 116.541 589.255 116.541 588.832C116.541 588.474 116.438 588.134 116.233 587.812C116.028 587.486 115.656 587.323 115.115 587.323C114.738 587.323 114.406 587.449 114.119 587.699C113.836 587.95 113.694 588.327 113.694 588.832C113.694 589.275 113.823 589.647 114.08 589.95C114.34 590.25 114.7 590.399 115.159 590.399Z" fill="white"/>
<path d="M339.298 344H337.302V337.164H334.971V335.838C335.586 335.811 336.017 335.77 336.263 335.715C336.655 335.628 336.974 335.455 337.22 335.195C337.388 335.018 337.516 334.781 337.603 334.484C337.653 334.307 337.678 334.174 337.678 334.088H339.298V344ZM346.325 344H344.329V337.164H341.998V335.838C342.613 335.811 343.044 335.77 343.29 335.715C343.682 335.628 344.001 335.455 344.247 335.195C344.416 335.018 344.543 334.781 344.63 334.484C344.68 334.307 344.705 334.174 344.705 334.088H346.325V344ZM352.676 344.246C351.413 344.246 350.527 343.804 350.017 342.92C349.511 342.036 349.258 340.776 349.258 339.14C349.258 337.504 349.511 336.241 350.017 335.353C350.527 334.464 351.413 334.02 352.676 334.02C353.938 334.02 354.825 334.464 355.335 335.353C355.841 336.241 356.094 337.504 356.094 339.14C356.094 340.776 355.839 342.036 355.328 342.92C354.822 343.804 353.938 344.246 352.676 344.246ZM353.817 341.751C353.995 341.149 354.084 340.279 354.084 339.14C354.084 337.946 353.993 337.062 353.811 336.487C353.633 335.913 353.255 335.626 352.676 335.626C352.097 335.626 351.714 335.913 351.527 336.487C351.34 337.062 351.247 337.946 351.247 339.14C351.247 340.279 351.34 341.152 351.527 341.758C351.714 342.359 352.097 342.66 352.676 342.66C353.255 342.66 353.635 342.357 353.817 341.751Z" fill="white"/>
<path d="M339.298 378H337.302V371.164H334.971V369.838C335.586 369.811 336.017 369.77 336.263 369.715C336.655 369.628 336.974 369.455 337.22 369.195C337.388 369.018 337.516 368.781 337.603 368.484C337.653 368.307 337.678 368.174 337.678 368.088H339.298V378ZM345.648 378.246C344.386 378.246 343.5 377.804 342.989 376.92C342.483 376.036 342.23 374.776 342.23 373.14C342.23 371.504 342.483 370.241 342.989 369.353C343.5 368.464 344.386 368.02 345.648 368.02C346.911 368.02 347.797 368.464 348.308 369.353C348.813 370.241 349.066 371.504 349.066 373.14C349.066 374.776 348.811 376.036 348.301 376.92C347.795 377.804 346.911 378.246 345.648 378.246ZM346.79 375.751C346.968 375.149 347.057 374.279 347.057 373.14C347.057 371.946 346.965 371.062 346.783 370.487C346.605 369.913 346.227 369.626 345.648 369.626C345.07 369.626 344.687 369.913 344.5 370.487C344.313 371.062 344.22 371.946 344.22 373.14C344.22 374.279 344.313 375.152 344.5 375.758C344.687 376.359 345.07 376.66 345.648 376.66C346.227 376.66 346.608 376.357 346.79 375.751ZM353.223 378.287C352.48 378.287 351.812 378.068 351.22 377.631C350.627 377.189 350.288 376.546 350.201 375.703H352.143C352.188 375.995 352.311 376.232 352.512 376.414C352.712 376.596 352.979 376.688 353.312 376.688C353.954 376.688 354.405 376.332 354.665 375.621C354.806 375.229 354.895 374.657 354.932 373.905C354.754 374.129 354.565 374.299 354.364 374.418C354 374.637 353.551 374.746 353.018 374.746C352.229 374.746 351.53 374.475 350.919 373.933C350.308 373.386 350.003 372.6 350.003 371.574C350.003 370.512 350.308 369.653 350.919 368.997C351.534 368.336 352.332 368.006 353.312 368.006C354.82 368.006 355.854 368.674 356.415 370.009C356.734 370.765 356.894 371.761 356.894 372.996C356.894 374.195 356.741 375.195 356.436 375.997C355.852 377.524 354.781 378.287 353.223 378.287ZM352.539 369.913C352.165 370.205 351.979 370.699 351.979 371.396C351.979 371.984 352.097 372.426 352.334 372.723C352.576 373.014 352.945 373.16 353.441 373.16C353.71 373.16 353.963 373.083 354.2 372.928C354.642 372.645 354.863 372.155 354.863 371.458C354.863 370.897 354.731 370.453 354.467 370.125C354.207 369.797 353.849 369.633 353.394 369.633C353.061 369.633 352.776 369.726 352.539 369.913Z" fill="white"/>
<path d="M340.298 324H338.302V317.164H335.971V315.838C336.586 315.811 337.017 315.77 337.263 315.715C337.655 315.628 337.974 315.455 338.22 315.195C338.388 315.018 338.516 314.781 338.603 314.484C338.653 314.307 338.678 314.174 338.678 314.088H340.298V324ZM347.325 324H345.329V317.164H342.998V315.838C343.613 315.811 344.044 315.77 344.29 315.715C344.682 315.628 345.001 315.455 345.247 315.195C345.416 315.018 345.543 314.781 345.63 314.484C345.68 314.307 345.705 314.174 345.705 314.088H347.325V324ZM354.353 324H352.356V317.164H350.025V315.838C350.641 315.811 351.071 315.77 351.317 315.715C351.709 315.628 352.028 315.455 352.274 315.195C352.443 315.018 352.571 314.781 352.657 314.484C352.707 314.307 352.732 314.174 352.732 314.088H354.353V324Z" fill="white"/>
<path d="M339.298 283H337.302V276.164H334.971V274.838C335.586 274.811 336.017 274.77 336.263 274.715C336.655 274.628 336.974 274.455 337.22 274.195C337.388 274.018 337.516 273.781 337.603 273.484C337.653 273.307 337.678 273.174 337.678 273.088H339.298V283ZM346.325 283H344.329V276.164H341.998V274.838C342.613 274.811 343.044 274.77 343.29 274.715C343.682 274.628 344.001 274.455 344.247 274.195C344.416 274.018 344.543 273.781 344.63 273.484C344.68 273.307 344.705 273.174 344.705 273.088H346.325V283ZM353.688 275.104C353.455 274.826 353.122 274.688 352.689 274.688C352.097 274.688 351.694 274.909 351.479 275.351C351.356 275.606 351.284 276.011 351.261 276.567H349.367C349.399 275.724 349.552 275.043 349.825 274.523C350.345 273.535 351.268 273.04 352.594 273.04C353.642 273.04 354.476 273.332 355.096 273.915C355.715 274.494 356.025 275.262 356.025 276.219C356.025 276.952 355.807 277.604 355.369 278.174C355.082 278.552 354.61 278.974 353.954 279.438L353.175 279.992C352.687 280.339 352.352 280.589 352.17 280.744C351.992 280.899 351.842 281.079 351.719 281.284H356.046V283H349.258C349.276 282.289 349.429 281.64 349.716 281.052C349.994 280.391 350.65 279.691 351.685 278.953C352.582 278.311 353.163 277.85 353.428 277.572C353.833 277.139 354.036 276.665 354.036 276.15C354.036 275.731 353.92 275.382 353.688 275.104Z" fill="white"/>
<path d="M339.298 251H337.302V244.164H334.971V242.838C335.586 242.811 336.017 242.77 336.263 242.715C336.655 242.628 336.974 242.455 337.22 242.195C337.388 242.018 337.516 241.781 337.603 241.484C337.653 241.307 337.678 241.174 337.678 241.088H339.298V251ZM346.325 251H344.329V244.164H341.998V242.838C342.613 242.811 343.044 242.77 343.29 242.715C343.682 242.628 344.001 242.455 344.247 242.195C344.416 242.018 344.543 241.781 344.63 241.484C344.68 241.307 344.705 241.174 344.705 241.088H346.325V251ZM351.5 243.063C351.281 243.355 351.176 243.745 351.186 244.232H349.367C349.385 243.74 349.47 243.273 349.62 242.831C349.78 242.444 350.03 242.086 350.372 241.758C350.627 241.525 350.93 241.348 351.281 241.225C351.632 241.102 352.063 241.04 352.573 241.04C353.521 241.04 354.285 241.286 354.863 241.778C355.447 242.266 355.738 242.922 355.738 243.747C355.738 244.33 355.565 244.823 355.219 245.224C355 245.474 354.772 245.645 354.535 245.736C354.713 245.736 354.968 245.889 355.301 246.194C355.798 246.655 356.046 247.284 356.046 248.081C356.046 248.92 355.754 249.658 355.171 250.296C354.592 250.929 353.733 251.246 352.594 251.246C351.19 251.246 350.215 250.788 349.668 249.872C349.381 249.384 349.221 248.746 349.189 247.958H351.104C351.104 248.354 351.167 248.683 351.295 248.942C351.532 249.421 351.963 249.66 352.587 249.66C352.97 249.66 353.302 249.53 353.585 249.271C353.872 249.006 354.016 248.628 354.016 248.136C354.016 247.484 353.751 247.049 353.223 246.83C352.922 246.707 352.448 246.646 351.801 246.646V245.251C352.434 245.242 352.876 245.18 353.127 245.066C353.56 244.875 353.776 244.488 353.776 243.904C353.776 243.526 353.665 243.218 353.441 242.981C353.223 242.744 352.913 242.626 352.512 242.626C352.051 242.626 351.714 242.772 351.5 243.063Z" fill="white"/>
<path d="M339.298 219H337.302V212.164H334.971V210.838C335.586 210.811 336.017 210.77 336.263 210.715C336.655 210.628 336.974 210.455 337.22 210.195C337.388 210.018 337.516 209.781 337.603 209.484C337.653 209.307 337.678 209.174 337.678 209.088H339.298V219ZM346.325 219H344.329V212.164H341.998V210.838C342.613 210.811 343.044 210.77 343.29 210.715C343.682 210.628 344.001 210.455 344.247 210.195C344.416 210.018 344.543 209.781 344.63 209.484C344.68 209.307 344.705 209.174 344.705 209.088H346.325V219ZM356.142 215.343V216.867H355.021V219H353.113V216.867H349.189V215.165L352.833 209.149H355.021V215.343H356.142ZM350.632 215.343H353.113V211.063L350.632 215.343Z" fill="white"/>
<path d="M339.298 187H337.302V180.164H334.971V178.838C335.586 178.811 336.017 178.77 336.263 178.715C336.655 178.628 336.974 178.455 337.22 178.195C337.388 178.018 337.516 177.781 337.603 177.484C337.653 177.307 337.678 177.174 337.678 177.088H339.298V187ZM346.325 187H344.329V180.164H341.998V178.838C342.613 178.811 343.044 178.77 343.29 178.715C343.682 178.628 344.001 178.455 344.247 178.195C344.416 178.018 344.543 177.781 344.63 177.484C344.68 177.307 344.705 177.174 344.705 177.088H346.325V187ZM352.553 182.078C352.316 182.078 352.111 182.108 351.938 182.167C351.632 182.276 351.402 182.479 351.247 182.775L349.497 182.693L350.194 177.218H355.656V178.872H351.603L351.247 181.039C351.548 180.843 351.783 180.713 351.951 180.649C352.234 180.545 352.578 180.492 352.983 180.492C353.804 180.492 354.519 180.768 355.13 181.319C355.741 181.871 356.046 182.673 356.046 183.726C356.046 184.642 355.752 185.46 355.164 186.18C354.576 186.9 353.697 187.26 352.525 187.26C351.582 187.26 350.807 187.007 350.201 186.501C349.595 185.995 349.258 185.277 349.189 184.348H351.131C351.208 184.771 351.356 185.1 351.575 185.332C351.794 185.56 352.113 185.674 352.532 185.674C353.015 185.674 353.382 185.505 353.633 185.168C353.888 184.826 354.016 184.398 354.016 183.883C354.016 183.377 353.897 182.951 353.66 182.604C353.423 182.254 353.054 182.078 352.553 182.078Z" fill="white"/>
<path d="M339.298 155H337.302V148.164H334.971V146.838C335.586 146.811 336.017 146.77 336.263 146.715C336.655 146.628 336.974 146.455 337.22 146.195C337.388 146.018 337.516 145.781 337.603 145.484C337.653 145.307 337.678 145.174 337.678 145.088H339.298V155ZM346.325 155H344.329V148.164H341.998V146.838C342.613 146.811 343.044 146.77 343.29 146.715C343.682 146.628 344.001 146.455 344.247 146.195C344.416 146.018 344.543 145.781 344.63 145.484C344.68 145.307 344.705 145.174 344.705 145.088H346.325V155ZM353.1 148.567C353.979 148.567 354.699 148.866 355.26 149.463C355.825 150.06 356.107 150.823 356.107 151.753C356.107 152.678 355.832 153.494 355.28 154.2C354.729 154.907 353.872 155.26 352.71 155.26C351.461 155.26 350.541 154.738 349.948 153.694C349.488 152.879 349.258 151.826 349.258 150.536C349.258 149.78 349.29 149.164 349.354 148.69C349.467 147.847 349.688 147.146 350.017 146.585C350.299 146.106 350.668 145.721 351.124 145.43C351.584 145.138 352.133 144.992 352.771 144.992C353.692 144.992 354.426 145.229 354.973 145.703C355.52 146.173 355.827 146.799 355.896 147.583H353.954C353.954 147.424 353.893 147.248 353.77 147.057C353.56 146.747 353.243 146.592 352.819 146.592C352.186 146.592 351.735 146.947 351.466 147.658C351.32 148.05 351.22 148.629 351.165 149.395C351.407 149.107 351.687 148.898 352.006 148.766C352.325 148.633 352.689 148.567 353.1 148.567ZM351.787 150.427C351.404 150.723 351.213 151.201 351.213 151.862C351.213 152.396 351.356 152.831 351.644 153.168C351.931 153.505 352.295 153.674 352.737 153.674C353.17 153.674 353.51 153.512 353.756 153.188C354.007 152.86 354.132 152.437 354.132 151.917C354.132 151.338 353.991 150.896 353.708 150.591C353.425 150.281 353.079 150.126 352.669 150.126C352.336 150.126 352.042 150.226 351.787 150.427Z" fill="white"/>
</svg>
