<svg width="148" height="72" viewBox="0 0 148 72" fill="none" xmlns="http://www.w3.org/2000/svg">
<path d="M53.75 8.69998H36.23M53.75 10.83H36.23M53.75 12.97H36.23M53.75 15.11H36.23M53.75 17.25H36.23M53.75 19.38H36.23M53.75 21.52H36.23M44.99 6.56V22.23V22.22M53.75 6.56V22.23H36.23V6.56H53.75Z" stroke="#808080" stroke-width="0.5"/>
<path d="M113.69 8.85001H96.16M113.69 10.98H96.16M113.69 13.12H96.16M113.69 15.26H96.16M113.69 17.4H96.16M113.69 19.53H96.16M113.69 21.67H96.16M104.93 6.70999V22.38V22.37M113.69 6.70999V22.38H96.16V6.70999H113.69Z" stroke="#808080" stroke-width="0.5"/>
<path d="M62.1 70.19V40.65M62.74 40.65V70.19" stroke="white" stroke-width="0.5"/>
<path d="M1.63998 70.19H5.41998V70.83H1M35.9 70.19H42.26V70.83H30.49V70.19H35.26M49.32 70.19H53.45V70.83H46.53V70.19H48.68M62.74 70.19H66.55V70.83H57.73V70.19H62.1M85.69 70.19H90.82V70.83H81.08V70.19H85.05M100.64 70.83H95.1V70.19H100.64M101.28 70.19H105.93V70.83H101.28M114.53 70.19H123.36V70.83H110.2V70.19H113.89M146.9 70.83H138.91V70.19H146.26M9.69998 70.19H16.15V70.83H9.69998V70.19ZM20.42 70.19H26.22V70.83H20.42V70.19ZM70.83 70.19H76.8V70.83H70.83V70.19ZM127.63 70.19H134.63V70.83H127.63V70.19Z" stroke="white" stroke-width="0.5"/>
<path d="M57.73 70.19H62.1M62.74 70.19H66.55M66.55 70.83H57.73M70.83 70.19H76.8M76.8 70.83H70.83" stroke="white" stroke-width="0.5"/>
<path d="M80.62 40.01H88.38M88.38 40.65H85.69M85.05 40.65H80.62M91.8 40.01H106.05M106.05 40.65H91.8" stroke="white" stroke-width="0.5"/>
<path d="M35.26 40.01H40.44M40.44 40.65H35.9M43.86 40.01H53.74M53.74 40.65H49.32M48.68 40.65H43.86" stroke="white" stroke-width="0.5"/>
<path d="M85.0499 70.19V40.65M85.6899 40.65V70.19" stroke="white" stroke-width="0.5"/>
<path d="M35.9 40.65V70.19M35.26 70.19V40.65" stroke="white" stroke-width="0.5"/>
<path d="M100.64 70.19V40.67H101.28V70.19M101.28 70.83V70.85H100.64V70.83" stroke="white" stroke-width="0.5"/>
<path d="M114.53 40.01V70.19M113.89 70.19V40.65" stroke="white" stroke-width="0.5"/>
<path d="M54 26.65V1.63998M54.64 1.63998V26.65" stroke="white" stroke-width="0.5"/>
<path d="M146.9 1V70.83M146.26 70.19V1.63998" stroke="white" stroke-width="0.5"/>
<path d="M54.64 26.65H55.47V27.29H54M60.01 27.29H58.89V26.65H60.01" stroke="white" stroke-width="0.5"/>
<path d="M95.52 1.63998H93.54V1H96.16M85.6 1H89.26V1.63998H86.24" stroke="white" stroke-width="0.5"/>
<path d="M65.66 1.63998V26.65M65.01 26.65V1.63998" stroke="white" stroke-width="0.5"/>
<path d="M146.9 26.97V40.33M146.26 40.33V26.97" stroke="white" stroke-width="0.5"/>
<path d="M86.24 27.29H70.95V26.65H75.04M75.68 26.65H85.6M65.66 26.65H67.53V27.29H65.01" stroke="white" stroke-width="0.5"/>
<path d="M126.19 1.63998V27.29M125.55 26.65V1.63998" stroke="white" stroke-width="0.5"/>
<path d="M35.75 1.63998V26.65M35.11 26.65V1.63998" stroke="white" stroke-width="0.5"/>
<path d="M1.63998 1.63998V26.65M1.63998 27.29V40.01M1.63998 40.65V70.19M1 70.83V1" stroke="white" stroke-width="0.5"/>
<path d="M1.63998 1.63998V26.65M1 27.29V1.31998" stroke="white" stroke-width="0.5"/>
<path d="M114.57 27.29H114.53M113.89 27.29H111.03V26.65H113.93" stroke="white" stroke-width="0.5"/>
<path d="M125.55 1.63998H122.52M122.52 1H126.19M118.25 1.63998H114.57M113.93 1H118.25" stroke="white" stroke-width="0.5"/>
<path d="M96.1599 26.65H99.0699V27.29H95.5199" stroke="white" stroke-width="0.5"/>
<path d="M96.1599 1.63998V26.65M95.5199 26.65V1.63998" stroke="white" stroke-width="0.5"/>
<path d="M113.93 26.65V1.63998M114.57 1.63998V26.65" stroke="white" stroke-width="0.5"/>
<path d="M55.47 27.29H51.49V26.65H54M54.64 26.65H55.47M58.89 26.65H65.01M65.66 26.65H67.53M67.53 27.29H58.89M70.95 26.65H75.04M75.68 26.65H85.6M86.24 26.65H87.96V27.29H70.95M96.16 26.65H99.07V27.29H91.38V26.65H95.52" stroke="white" stroke-width="0.5"/>
<path d="M1.64001 26.65H28.71V27.29H25.11M24.47 27.29H1.64001M35.75 26.65H38.01V27.29H32.13V26.65H35.11" stroke="white" stroke-width="0.5"/>
<path d="M65.01 1.63998H61.34M61.34 1H65.66M57.07 1.63998H54.64M54 1H57.07" stroke="white" stroke-width="0.5"/>
<path d="M85.6 26.65V1.63998M86.24 1.63998V26.65" stroke="white" stroke-width="0.5"/>
<path d="M146.26 1.63998H143.32V1H146.9M125.55 1.63998H122.52V1H127.77V1.63998H126.19M113.93 1.63998H110.29V1H118.25V1.63998H114.57M93.54 1H99.6V1.63998H96.16M95.52 1.63998H93.54M89.26 1.63998H86.24M85.6 1.63998H82.26V1H89.26M75.04 1.63998H72.74V1H77.99V1.63998H75.68M65.01 1.63998H61.34V1H68.46V1.63998H65.66M54 1.63998H50.5V1H57.07V1.63998H54.64M35.11 1.63998H30.46V1H39.81V1.63998H35.75M1 1H5.38998V1.63998H1.63998M139.04 1.63998H132.04V1H139.04V1.63998ZM26.19 1.63998H19.77V1H26.19V1.63998ZM15.49 1.63998H9.66998V1H15.49V1.63998Z" stroke="white" stroke-width="0.5"/>
<path d="M113.89 27.29H111.03V26.65H113.93M114.57 26.65H117.38V27.29H114.53M126.19 27.29H120.8V26.65H125.55" stroke="white" stroke-width="0.5"/>
<path d="M24.47 40.01V35.97H25.11V40.01M25.11 27.29V32.55H24.47V27.29" stroke="white" stroke-width="0.5"/>
<path d="M114.53 27.29V40.65M113.89 40.01V27.29" stroke="white" stroke-width="0.5"/>
<path d="M75.0399 26.65V1.63998M75.6799 1.63998V26.65" stroke="white" stroke-width="0.5"/>
<path d="M113.89 40.65H109.47V40.01H113.89M85.05 40.65H80.62V40.01H88.38V40.65H85.69M62.1 40.65H57.16V40.01H77.2V40.65H62.74M48.68 40.65H43.86V40.01H53.74V40.65H49.32M35.26 40.65H31.96V40.01H40.44V40.65H35.9M25.11 40.01H28.54V40.65H11.08V40.01H24.47M1.64001 40.01H7.66003V40.65H1.64001M106.05 40.65H91.8V40.01H106.05V40.65Z" stroke="white" stroke-width="0.5"/>
<path d="M48.6799 70.19V40.65M49.3199 40.65V70.19M49.3199 70.83H48.6799" stroke="white" stroke-width="0.5"/>
<path d="M43.3999 38.3L40.4399 40.01V40.65M43.8599 40.01V40.65" stroke="white" stroke-width="0.5"/>
<path d="M134.63 70.83V70.19ZM134.63 70.55V70.47ZM138.91 70.19V70.83ZM138.91 70.47V70.55ZM134.63 70.19H138.91ZM138.91 70.83H134.63ZM134.63 70.47H138.91ZM138.91 70.55H134.63Z" stroke="white" stroke-width="0.5"/>
<path d="M105.93 70.83V70.19ZM105.93 70.55V70.47ZM110.2 70.19V70.83ZM110.2 70.47V70.55ZM105.93 70.19H110.2ZM110.2 70.83H105.93ZM105.93 70.47H110.2ZM110.2 70.55H105.93Z" stroke="white" stroke-width="0.5"/>
<path d="M26.22 70.83V70.19ZM26.22 70.55V70.47ZM30.49 70.19V70.83ZM30.49 70.47V70.55ZM26.22 70.19H30.49ZM30.49 70.83H26.22ZM26.22 70.47H30.49ZM30.49 70.55H26.22Z" stroke="white" stroke-width="0.5"/>
<path d="M123.36 70.83V70.19ZM123.36 70.55V70.47ZM127.63 70.19V70.83ZM127.63 70.47V70.55ZM123.36 70.19H127.63ZM127.63 70.83H123.36ZM123.36 70.47H127.63ZM127.63 70.55H123.36Z" stroke="white" stroke-width="0.5"/>
<path d="M16.15 70.83V70.19ZM16.15 70.55V70.47ZM20.42 70.19V70.83ZM20.42 70.47V70.55ZM16.15 70.19H20.42ZM20.42 70.83H16.15ZM16.15 70.47H20.42ZM20.42 70.55H16.15Z" stroke="white" stroke-width="0.5"/>
<path d="M5.41992 70.83V70.19ZM5.41992 70.55V70.47ZM9.69992 70.19V70.83ZM9.69992 70.47V70.55ZM5.41992 70.19H9.69992ZM9.69992 70.83H5.41992ZM5.41992 70.47H9.69992ZM9.69992 70.55H5.41992Z" stroke="white" stroke-width="0.5"/>
<path d="M80.17 38.3L77.2 40.01V40.65M80.62 40.01V40.65" stroke="white" stroke-width="0.5"/>
<path d="M90.8199 70.83V70.19ZM90.8199 70.55V70.47ZM95.0999 70.19V70.83ZM95.0999 70.47V70.55ZM90.8199 70.19H95.0999ZM95.0999 70.83H90.8199ZM90.8199 70.47H95.0999ZM95.0999 70.55H90.8199Z" stroke="white" stroke-width="0.5"/>
<path d="M42.26 70.83V70.19ZM42.26 70.55V70.47ZM46.53 70.19V70.83ZM46.53 70.47V70.55ZM42.26 70.19H46.53ZM46.53 70.83H42.26ZM42.26 70.47H46.53ZM46.53 70.55H42.26Z" stroke="white" stroke-width="0.5"/>
<path d="M66.5499 70.83V70.19ZM66.5499 70.55V70.47ZM70.8299 70.19V70.83ZM70.8299 70.47V70.55ZM66.5499 70.19H70.8299ZM70.8299 70.83H66.5499ZM66.5499 70.47H70.8299ZM70.8299 70.55H66.5499Z" stroke="white" stroke-width="0.5"/>
<path d="M53.45 70.83V70.19ZM53.45 70.55V70.47ZM57.73 70.19V70.83ZM57.73 70.47V70.55ZM53.45 70.19H57.73ZM57.73 70.83H53.45ZM53.45 70.47H57.73ZM57.73 70.55H53.45Z" stroke="white" stroke-width="0.5"/>
<path d="M91.34 38.3L88.38 40.01V40.65M91.8 40.01V40.65" stroke="white" stroke-width="0.5"/>
<path d="M10.62 38.3L7.66003 40.01V40.65M11.08 40.01V40.65" stroke="white" stroke-width="0.5"/>
<path d="M31.4999 38.3L28.5399 40.01V40.65M31.9599 40.01V40.65" stroke="white" stroke-width="0.5"/>
<path d="M26.82 35.51L25.11 32.55H24.47M25.11 35.97H24.47" stroke="white" stroke-width="0.5"/>
<path d="M109.01 38.3L106.05 40.01V40.65M109.47 40.01V40.65" stroke="white" stroke-width="0.5"/>
<path d="M5.39001 1.63998V1ZM5.39001 1.35999V1.28ZM9.67001 1V1.63998ZM9.67001 1.28V1.35999ZM5.39001 1H9.67001ZM9.67001 1.63998H5.39001ZM5.39001 1.28H9.67001ZM9.67001 1.35999H5.39001Z" stroke="white" stroke-width="0.5"/>
<path d="M55.93 29L58.89 27.29V26.65M55.47 27.29V26.65" stroke="white" stroke-width="0.5"/>
<path d="M117.84 29L120.8 27.29V26.65M117.38 27.29V26.65" stroke="white" stroke-width="0.5"/>
<path d="M29.17 29L32.13 27.29V26.65M28.71 27.29V26.65" stroke="white" stroke-width="0.5"/>
<path d="M57.0699 1.63998V1ZM57.0699 1.35999V1.28ZM61.3399 1V1.63998ZM61.3399 1.28V1.35999ZM57.0699 1H61.3399ZM61.3399 1.63998H57.0699ZM57.0699 1.28H61.3399ZM61.3399 1.35999H57.0699Z" stroke="white" stroke-width="0.5"/>
<path d="M39.8099 1.63998V1ZM39.8099 1.35999V1.28ZM50.4999 1V1.63998ZM50.4999 1.28V1.35999ZM39.8099 1H50.4999ZM50.4999 1.63998H39.8099ZM39.8099 1.28H50.4999ZM50.4999 1.35999H39.8099Z" stroke="white" stroke-width="0.5"/>
<path d="M15.49 1.63998V1ZM15.49 1.35999V1.28ZM19.77 1V1.63998ZM19.77 1.28V1.35999ZM15.49 1H19.77ZM19.77 1.63998H15.49ZM15.49 1.28H19.77ZM19.77 1.35999H15.49Z" stroke="white" stroke-width="0.5"/>
<path d="M88.42 29L91.38 27.29V26.65M87.96 27.29V26.65" stroke="white" stroke-width="0.5"/>
<path d="M99.6 1.63998V1ZM99.6 1.35999V1.28ZM110.29 1V1.63998ZM110.29 1.28V1.35999ZM99.6 1H110.29ZM110.29 1.63998H99.6ZM99.6 1.28H110.29ZM110.29 1.35999H99.6Z" stroke="white" stroke-width="0.5"/>
<path d="M127.77 1.63998V1ZM127.77 1.35999V1.28ZM132.04 1V1.63998ZM132.04 1.28V1.35999ZM127.77 1H132.04ZM132.04 1.63998H127.77ZM127.77 1.28H132.04ZM132.04 1.35999H127.77Z" stroke="white" stroke-width="0.5"/>
<path d="M89.26 1.63998V1ZM89.26 1.35999V1.28ZM93.54 1V1.63998ZM93.54 1.28V1.35999ZM89.26 1H93.54ZM93.54 1.63998H89.26ZM89.26 1.28H93.54ZM93.54 1.35999H89.26Z" stroke="white" stroke-width="0.5"/>
<path d="M67.9899 29L70.9499 27.29V26.65M67.5299 27.29V26.65" stroke="white" stroke-width="0.5"/>
<path d="M77.99 1.63998V1ZM77.99 1.35999V1.28ZM82.26 1V1.63998ZM82.26 1.28V1.35999ZM77.99 1H82.26ZM82.26 1.63998H77.99ZM77.99 1.28H82.26ZM82.26 1.35999H77.99Z" stroke="white" stroke-width="0.5"/>
<path d="M118.25 1.63998V1ZM118.25 1.35999V1.28ZM122.52 1V1.63998ZM122.52 1.28V1.35999ZM118.25 1H122.52ZM122.52 1.63998H118.25ZM118.25 1.28H122.52ZM122.52 1.35999H118.25Z" stroke="white" stroke-width="0.5"/>
<path d="M68.46 1.63998V1ZM68.46 1.35999V1.28ZM72.74 1V1.63998ZM72.74 1.28V1.35999ZM68.46 1H72.74ZM72.74 1.63998H68.46ZM68.46 1.28H72.74ZM72.74 1.35999H68.46Z" stroke="white" stroke-width="0.5"/>
<path d="M26.1899 1.63998V1ZM26.1899 1.35999V1.28ZM30.4599 1V1.63998ZM30.4599 1.28V1.35999ZM26.1899 1H30.4599ZM30.4599 1.63998H26.1899ZM26.1899 1.28H30.4599ZM30.4599 1.35999H26.1899Z" stroke="white" stroke-width="0.5"/>
<path d="M139.04 1.63998V1ZM139.04 1.35999V1.28ZM143.32 1V1.63998ZM143.32 1.28V1.35999ZM139.04 1H143.32ZM143.32 1.63998H139.04ZM139.04 1.28H143.32ZM143.32 1.35999H139.04Z" stroke="white" stroke-width="0.5"/>
<path d="M56.7 38.3L53.74 40.01V40.65M57.16 40.01V40.65" stroke="white" stroke-width="0.5"/>
<path d="M76.7999 70.83V70.19ZM76.7999 70.55V70.47ZM81.0799 70.19V70.83ZM81.0799 70.47V70.55ZM76.7999 70.19H81.0799ZM81.0799 70.83H76.7999ZM76.7999 70.47H81.0799ZM81.0799 70.55H76.7999Z" stroke="white" stroke-width="0.5"/>
<path d="M16.7383 13.1802C16.6553 13.0809 16.5365 13.0312 16.3818 13.0312C16.1702 13.0312 16.0262 13.1102 15.9497 13.2681C15.9058 13.3592 15.8797 13.5041 15.8716 13.7026H15.1953C15.2067 13.4015 15.2612 13.1582 15.3589 12.9727C15.5444 12.6195 15.874 12.4429 16.3477 12.4429C16.722 12.4429 17.0199 12.547 17.2412 12.7554C17.4626 12.9621 17.5732 13.2363 17.5732 13.5781C17.5732 13.8402 17.4951 14.0729 17.3389 14.2764C17.2363 14.4115 17.0679 14.562 16.8335 14.728L16.5552 14.9258C16.381 15.0495 16.2614 15.139 16.1963 15.1943C16.1328 15.2497 16.0791 15.314 16.0352 15.3872H17.5806V16H15.1562C15.1628 15.7461 15.2173 15.5142 15.3198 15.3042C15.4191 15.0682 15.6535 14.8184 16.0229 14.5547C16.3436 14.3252 16.5511 14.1608 16.6455 14.0615C16.7904 13.9069 16.8628 13.7376 16.8628 13.5537C16.8628 13.404 16.8213 13.2795 16.7383 13.1802ZM19.9854 13.5977C19.7998 13.8613 19.6444 14.1331 19.519 14.4131C19.4198 14.6328 19.3302 14.9014 19.2505 15.2188C19.1707 15.5361 19.1309 15.7965 19.1309 16H18.4082C18.4294 15.3652 18.6377 14.7052 19.0332 14.02C19.2887 13.5952 19.5028 13.299 19.6753 13.1313H17.9102L17.9199 12.5063H20.4199V13.0508C20.3158 13.1533 20.1709 13.3356 19.9854 13.5977Z" fill="white"/>
<path d="M16.7383 54.1802C16.6553 54.0809 16.5365 54.0312 16.3818 54.0312C16.1702 54.0312 16.0262 54.1102 15.9497 54.2681C15.9058 54.3592 15.8797 54.5041 15.8716 54.7026H15.1953C15.2067 54.4015 15.2612 54.1582 15.3589 53.9727C15.5444 53.6195 15.874 53.4429 16.3477 53.4429C16.722 53.4429 17.0199 53.547 17.2412 53.7554C17.4626 53.9621 17.5732 54.2363 17.5732 54.5781C17.5732 54.8402 17.4951 55.0729 17.3389 55.2764C17.2363 55.4115 17.0679 55.562 16.8335 55.728L16.5552 55.9258C16.381 56.0495 16.2614 56.139 16.1963 56.1943C16.1328 56.2497 16.0791 56.314 16.0352 56.3872H17.5806V57H15.1562C15.1628 56.7461 15.2173 56.5142 15.3198 56.3042C15.4191 56.0682 15.6535 55.8184 16.0229 55.5547C16.3436 55.3252 16.5511 55.1608 16.6455 55.0615C16.7904 54.9069 16.8628 54.7376 16.8628 54.5537C16.8628 54.404 16.8213 54.2795 16.7383 54.1802ZM19.1162 55.2422C19.0316 55.2422 18.9583 55.2528 18.8965 55.2739C18.7874 55.313 18.7052 55.3854 18.6499 55.4912L18.0249 55.4619L18.2739 53.5063H20.2246V54.0972H18.7769L18.6499 54.8711C18.7573 54.8011 18.8411 54.7547 18.9014 54.7319C19.0023 54.6945 19.1252 54.6758 19.27 54.6758C19.563 54.6758 19.8185 54.7743 20.0366 54.9712C20.2547 55.1681 20.3638 55.4546 20.3638 55.8306C20.3638 56.1577 20.2588 56.4499 20.0488 56.707C19.8389 56.9642 19.5247 57.0928 19.1064 57.0928C18.7695 57.0928 18.4928 57.0024 18.2764 56.8218C18.0599 56.6411 17.9395 56.3848 17.915 56.0527H18.6084C18.6361 56.2041 18.689 56.3213 18.7671 56.4043C18.8452 56.4857 18.9591 56.5264 19.1089 56.5264C19.2814 56.5264 19.4124 56.4661 19.502 56.3457C19.5931 56.2236 19.6387 56.0706 19.6387 55.8867C19.6387 55.7061 19.5964 55.5539 19.5117 55.4302C19.4271 55.3049 19.2952 55.2422 19.1162 55.2422Z" fill="white"/>
<path d="M40.7383 54.1802C40.6553 54.0809 40.5365 54.0312 40.3818 54.0312C40.1702 54.0312 40.0262 54.1102 39.9497 54.2681C39.9058 54.3592 39.8797 54.5041 39.8716 54.7026H39.1953C39.2067 54.4015 39.2612 54.1582 39.3589 53.9727C39.5444 53.6195 39.874 53.4429 40.3477 53.4429C40.722 53.4429 41.0199 53.547 41.2412 53.7554C41.4626 53.9621 41.5732 54.2363 41.5732 54.5781C41.5732 54.8402 41.4951 55.0729 41.3389 55.2764C41.2363 55.4115 41.0679 55.562 40.8335 55.728L40.5552 55.9258C40.381 56.0495 40.2614 56.139 40.1963 56.1943C40.1328 56.2497 40.0791 56.314 40.0352 56.3872H41.5806V57H39.1562C39.1628 56.7461 39.2173 56.5142 39.3198 56.3042C39.4191 56.0682 39.6535 55.8184 40.0229 55.5547C40.3436 55.3252 40.5511 55.1608 40.6455 55.0615C40.7904 54.9069 40.8628 54.7376 40.8628 54.5537C40.8628 54.404 40.8213 54.2795 40.7383 54.1802ZM44.3979 55.6938V56.2383H43.9976V57H43.3164V56.2383H41.915V55.6304L43.2163 53.4819H43.9976V55.6938H44.3979ZM42.4302 55.6938H43.3164V54.1655L42.4302 55.6938Z" fill="white"/>
<path d="M54.7383 54.1802C54.6553 54.0809 54.5365 54.0312 54.3818 54.0312C54.1702 54.0312 54.0262 54.1102 53.9497 54.2681C53.9058 54.3592 53.8797 54.5041 53.8716 54.7026H53.1953C53.2067 54.4015 53.2612 54.1582 53.3589 53.9727C53.5444 53.6195 53.874 53.4429 54.3477 53.4429C54.722 53.4429 55.0199 53.547 55.2412 53.7554C55.4626 53.9621 55.5732 54.2363 55.5732 54.5781C55.5732 54.8402 55.4951 55.0729 55.3389 55.2764C55.2363 55.4115 55.0679 55.562 54.8335 55.728L54.5552 55.9258C54.381 56.0495 54.2614 56.139 54.1963 56.1943C54.1328 56.2497 54.0791 56.314 54.0352 56.3872H55.5806V57H53.1562C53.1628 56.7461 53.2173 56.5142 53.3198 56.3042C53.4191 56.0682 53.6535 55.8184 54.0229 55.5547C54.3436 55.3252 54.5511 55.1608 54.6455 55.0615C54.7904 54.9069 54.8628 54.7376 54.8628 54.5537C54.8628 54.404 54.8213 54.2795 54.7383 54.1802ZM56.7402 54.1655C56.6621 54.2697 56.6247 54.4089 56.6279 54.583H55.9785C55.985 54.4072 56.0151 54.2404 56.0688 54.0825C56.1258 53.9442 56.2153 53.8164 56.3374 53.6992C56.4285 53.6162 56.5368 53.5527 56.6621 53.5088C56.7874 53.4648 56.9412 53.4429 57.1235 53.4429C57.4621 53.4429 57.7347 53.5308 57.9414 53.7065C58.1497 53.8807 58.2539 54.1151 58.2539 54.4097C58.2539 54.618 58.1921 54.7938 58.0684 54.937C57.9902 55.0265 57.9089 55.0876 57.8242 55.1201C57.8877 55.1201 57.9788 55.1746 58.0977 55.2837C58.2751 55.4481 58.3638 55.6727 58.3638 55.9575C58.3638 56.257 58.2596 56.5207 58.0513 56.7485C57.8446 56.9748 57.5378 57.0879 57.1309 57.0879C56.6296 57.0879 56.2812 56.9243 56.0859 56.5972C55.9834 56.423 55.9264 56.1951 55.915 55.9136H56.5986C56.5986 56.0552 56.6214 56.1724 56.667 56.2651C56.7516 56.436 56.9054 56.5215 57.1284 56.5215C57.2651 56.5215 57.384 56.4751 57.4849 56.3823C57.5874 56.2879 57.6387 56.1528 57.6387 55.9771C57.6387 55.7443 57.5443 55.5889 57.3555 55.5107C57.248 55.4668 57.0788 55.4448 56.8477 55.4448V54.9468C57.0739 54.9435 57.2318 54.9215 57.3213 54.8809C57.4759 54.8125 57.5532 54.6742 57.5532 54.4658C57.5532 54.3307 57.5133 54.2209 57.4336 54.1362C57.3555 54.0516 57.2448 54.0093 57.1016 54.0093C56.9372 54.0093 56.8167 54.0614 56.7402 54.1655Z" fill="white"/>
<path d="M72.7383 54.1802C72.6553 54.0809 72.5365 54.0312 72.3818 54.0312C72.1702 54.0312 72.0262 54.1102 71.9497 54.2681C71.9058 54.3592 71.8797 54.5041 71.8716 54.7026H71.1953C71.2067 54.4015 71.2612 54.1582 71.3589 53.9727C71.5444 53.6195 71.874 53.4429 72.3477 53.4429C72.722 53.4429 73.0199 53.547 73.2412 53.7554C73.4626 53.9621 73.5732 54.2363 73.5732 54.5781C73.5732 54.8402 73.4951 55.0729 73.3389 55.2764C73.2363 55.4115 73.0679 55.562 72.8335 55.728L72.5552 55.9258C72.381 56.0495 72.2614 56.139 72.1963 56.1943C72.1328 56.2497 72.0791 56.314 72.0352 56.3872H73.5806V57H71.1562C71.1628 56.7461 71.2173 56.5142 71.3198 56.3042C71.4191 56.0682 71.6535 55.8184 72.0229 55.5547C72.3436 55.3252 72.5511 55.1608 72.6455 55.0615C72.7904 54.9069 72.8628 54.7376 72.8628 54.5537C72.8628 54.404 72.8213 54.2795 72.7383 54.1802ZM75.5215 54.1802C75.4385 54.0809 75.3197 54.0312 75.165 54.0312C74.9535 54.0312 74.8094 54.1102 74.7329 54.2681C74.689 54.3592 74.6629 54.5041 74.6548 54.7026H73.9785C73.9899 54.4015 74.0444 54.1582 74.1421 53.9727C74.3276 53.6195 74.6572 53.4429 75.1309 53.4429C75.5052 53.4429 75.8031 53.547 76.0244 53.7554C76.2458 53.9621 76.3564 54.2363 76.3564 54.5781C76.3564 54.8402 76.2783 55.0729 76.1221 55.2764C76.0195 55.4115 75.8511 55.562 75.6167 55.728L75.3384 55.9258C75.1642 56.0495 75.0446 56.139 74.9795 56.1943C74.916 56.2497 74.8623 56.314 74.8184 56.3872H76.3638V57H73.9395C73.946 56.7461 74.0005 56.5142 74.103 56.3042C74.2023 56.0682 74.4367 55.8184 74.8062 55.5547C75.1268 55.3252 75.3343 55.1608 75.4287 55.0615C75.5736 54.9069 75.646 54.7376 75.646 54.5537C75.646 54.404 75.6045 54.2795 75.5215 54.1802Z" fill="white"/>
<path d="M91.7383 54.1802C91.6553 54.0809 91.5365 54.0312 91.3818 54.0312C91.1702 54.0312 91.0262 54.1102 90.9497 54.2681C90.9058 54.3592 90.8797 54.5041 90.8716 54.7026H90.1953C90.2067 54.4015 90.2612 54.1582 90.3589 53.9727C90.5444 53.6195 90.874 53.4429 91.3477 53.4429C91.722 53.4429 92.0199 53.547 92.2412 53.7554C92.4626 53.9621 92.5732 54.2363 92.5732 54.5781C92.5732 54.8402 92.4951 55.0729 92.3389 55.2764C92.2363 55.4115 92.0679 55.562 91.8335 55.728L91.5552 55.9258C91.381 56.0495 91.2614 56.139 91.1963 56.1943C91.1328 56.2497 91.0791 56.314 91.0352 56.3872H92.5806V57H90.1562C90.1628 56.7461 90.2173 56.5142 90.3198 56.3042C90.4191 56.0682 90.6535 55.8184 91.0229 55.5547C91.3436 55.3252 91.5511 55.1608 91.6455 55.0615C91.7904 54.9069 91.8628 54.7376 91.8628 54.5537C91.8628 54.404 91.8213 54.2795 91.7383 54.1802ZM94.6753 57H93.9624V54.5586H93.1299V54.085C93.3496 54.0752 93.5034 54.0605 93.5913 54.041C93.7313 54.0101 93.8452 53.9482 93.9331 53.8555C93.9933 53.792 94.0389 53.7074 94.0698 53.6016C94.0877 53.5381 94.0967 53.4909 94.0967 53.46H94.6753V57Z" fill="white"/>
<path d="M104.738 54.1802C104.655 54.0809 104.536 54.0312 104.382 54.0312C104.17 54.0312 104.026 54.1102 103.95 54.2681C103.906 54.3592 103.88 54.5041 103.872 54.7026H103.195C103.207 54.4015 103.261 54.1582 103.359 53.9727C103.544 53.6195 103.874 53.4429 104.348 53.4429C104.722 53.4429 105.02 53.547 105.241 53.7554C105.463 53.9621 105.573 54.2363 105.573 54.5781C105.573 54.8402 105.495 55.0729 105.339 55.2764C105.236 55.4115 105.068 55.562 104.833 55.728L104.555 55.9258C104.381 56.0495 104.261 56.139 104.196 56.1943C104.133 56.2497 104.079 56.314 104.035 56.3872H105.581V57H103.156C103.163 56.7461 103.217 56.5142 103.32 56.3042C103.419 56.0682 103.653 55.8184 104.023 55.5547C104.344 55.3252 104.551 55.1608 104.646 55.0615C104.79 54.9069 104.863 54.7376 104.863 54.5537C104.863 54.404 104.821 54.2795 104.738 54.1802ZM107.16 57.0879C106.709 57.0879 106.393 56.93 106.21 56.6143C106.03 56.2985 105.939 55.8485 105.939 55.2642C105.939 54.6799 106.03 54.229 106.21 53.9116C106.393 53.5942 106.709 53.4355 107.16 53.4355C107.611 53.4355 107.928 53.5942 108.11 53.9116C108.291 54.229 108.381 54.6799 108.381 55.2642C108.381 55.8485 108.29 56.2985 108.107 56.6143C107.927 56.93 107.611 57.0879 107.16 57.0879ZM107.568 56.1968C107.631 55.9819 107.663 55.6711 107.663 55.2642C107.663 54.8377 107.631 54.522 107.565 54.3169C107.502 54.1118 107.367 54.0093 107.16 54.0093C106.953 54.0093 106.817 54.1118 106.75 54.3169C106.683 54.522 106.65 54.8377 106.65 55.2642C106.65 55.6711 106.683 55.9827 106.75 56.1992C106.817 56.4141 106.953 56.5215 107.16 56.5215C107.367 56.5215 107.503 56.4132 107.568 56.1968ZM110.112 55.3398C110.136 55.3366 110.162 55.3317 110.19 55.3252C110.219 55.3187 110.246 55.3081 110.271 55.2935C110.295 55.2772 110.315 55.256 110.332 55.23C110.348 55.2023 110.356 55.1657 110.356 55.1201C110.356 55.0762 110.349 55.0363 110.334 55.0005C110.321 54.9631 110.298 54.9313 110.266 54.9053C110.233 54.8776 110.189 54.8564 110.134 54.8418C110.08 54.8271 110.013 54.8198 109.931 54.8198C109.838 54.8198 109.764 54.8296 109.707 54.8491C109.651 54.867 109.607 54.8931 109.575 54.9272C109.542 54.9598 109.519 54.9989 109.504 55.0444C109.489 55.0884 109.479 55.1356 109.472 55.186H108.781C108.781 55.1535 108.786 55.1087 108.796 55.0518C108.807 54.9932 108.827 54.9297 108.854 54.8613C108.884 54.793 108.924 54.7238 108.974 54.6538C109.026 54.5838 109.094 54.5203 109.177 54.4634C109.261 54.4048 109.364 54.3568 109.484 54.3193C109.605 54.2819 109.749 54.2624 109.917 54.2607C110.154 54.2607 110.346 54.2852 110.493 54.334C110.641 54.3812 110.756 54.4438 110.837 54.522C110.92 54.5985 110.975 54.6847 111.003 54.7808C111.032 54.8752 111.047 54.9696 111.047 55.064V56.4751C111.047 56.5549 111.051 56.6208 111.059 56.6729C111.069 56.7233 111.081 56.764 111.096 56.7949C111.11 56.8242 111.127 56.8462 111.145 56.8608C111.164 56.8739 111.184 56.8836 111.206 56.8901V57H110.441C110.428 56.9691 110.414 56.9284 110.397 56.8779C110.383 56.8258 110.375 56.7632 110.375 56.6899C110.322 56.7453 110.269 56.7965 110.217 56.8438C110.166 56.891 110.109 56.9325 110.046 56.9683C109.982 57.0024 109.909 57.0293 109.826 57.0488C109.743 57.07 109.643 57.0806 109.526 57.0806C109.407 57.0806 109.297 57.0627 109.196 57.0269C109.097 56.9927 109.011 56.9414 108.938 56.873C108.864 56.8047 108.807 56.7192 108.767 56.6167C108.726 56.5142 108.706 56.3953 108.706 56.2603C108.706 56.1512 108.723 56.0503 108.757 55.9575C108.791 55.8631 108.839 55.7809 108.901 55.7109C108.964 55.6393 109.041 55.5807 109.13 55.5352C109.222 55.488 109.323 55.4562 109.436 55.4399L110.112 55.3398ZM109.609 56.5703C109.651 56.5833 109.697 56.5898 109.746 56.5898C109.772 56.5898 109.805 56.5874 109.846 56.5825C109.886 56.576 109.93 56.5646 109.975 56.5483C110.021 56.5321 110.066 56.5101 110.112 56.4824C110.157 56.4531 110.198 56.4157 110.234 56.3701C110.27 56.3245 110.299 56.2692 110.322 56.2041C110.345 56.1374 110.356 56.0592 110.356 55.9697V55.7012C110.314 55.724 110.271 55.7451 110.229 55.7646C110.187 55.7826 110.131 55.798 110.061 55.811L109.877 55.8452C109.798 55.8599 109.728 55.877 109.667 55.8965C109.607 55.916 109.557 55.9421 109.516 55.9746C109.477 56.0055 109.447 56.0438 109.426 56.0894C109.406 56.1349 109.396 56.1919 109.396 56.2603C109.396 56.3172 109.405 56.3669 109.423 56.4092C109.441 56.4499 109.466 56.484 109.497 56.5117C109.529 56.5378 109.567 56.5573 109.609 56.5703Z" fill="white"/>
<path d="M61.0845 12.4111H61.939L60.645 14.0493L61.939 16H61.0454L60.0151 14.4497H59.8711V16H59.146V14.4497H58.9946L57.9546 16H57.061L58.3745 14.0493L57.0903 12.4111H57.9253L58.9946 13.8491H59.146V12.4111H59.8711V13.8491H60.0151L61.0845 12.4111Z" fill="white"/>
<path d="M69.7383 13.1802C69.6553 13.0809 69.5365 13.0312 69.3818 13.0312C69.1702 13.0312 69.0262 13.1102 68.9497 13.2681C68.9058 13.3592 68.8797 13.5041 68.8716 13.7026H68.1953C68.2067 13.4015 68.2612 13.1582 68.3589 12.9727C68.5444 12.6195 68.874 12.4429 69.3477 12.4429C69.722 12.4429 70.0199 12.547 70.2412 12.7554C70.4626 12.9621 70.5732 13.2363 70.5732 13.5781C70.5732 13.8402 70.4951 14.0729 70.3389 14.2764C70.2363 14.4115 70.0679 14.562 69.8335 14.728L69.5552 14.9258C69.381 15.0495 69.2614 15.139 69.1963 15.1943C69.1328 15.2497 69.0791 15.314 69.0352 15.3872H70.5806V16H68.1562C68.1628 15.7461 68.2173 15.5142 68.3198 15.3042C68.4191 15.0682 68.6535 14.8184 69.0229 14.5547C69.3436 14.3252 69.5511 14.1608 69.6455 14.0615C69.7904 13.9069 69.8628 13.7376 69.8628 13.5537C69.8628 13.404 69.8213 13.2795 69.7383 13.1802ZM71.2202 15.7778C71.0168 15.5695 70.915 15.3164 70.915 15.0186C70.915 14.82 70.9598 14.6401 71.0493 14.479C71.1405 14.3179 71.2731 14.1966 71.4473 14.1152C71.2764 14.0013 71.1649 13.8784 71.1128 13.7466C71.0623 13.6131 71.0371 13.4886 71.0371 13.373C71.0371 13.1159 71.134 12.897 71.3276 12.7163C71.5213 12.534 71.7948 12.4429 72.1479 12.4429C72.5011 12.4429 72.7746 12.534 72.9683 12.7163C73.1619 12.897 73.2588 13.1159 73.2588 13.373C73.2588 13.4886 73.2327 13.6131 73.1807 13.7466C73.1302 13.8784 73.0195 13.9932 72.8486 14.0908C73.0228 14.1885 73.1538 14.3179 73.2417 14.479C73.3296 14.6401 73.3735 14.82 73.3735 15.0186C73.3735 15.3164 73.2629 15.5703 73.0415 15.7803C72.8218 15.9886 72.5142 16.0928 72.1187 16.0928C71.7231 16.0928 71.4237 15.9878 71.2202 15.7778ZM71.6377 14.9722C71.6377 15.1463 71.6825 15.2814 71.772 15.3774C71.8631 15.4735 71.9884 15.5215 72.1479 15.5215C72.3075 15.5215 72.432 15.4735 72.5215 15.3774C72.6126 15.2814 72.6582 15.1463 72.6582 14.9722C72.6582 14.7915 72.6118 14.6548 72.519 14.562C72.4279 14.4676 72.3042 14.4204 72.1479 14.4204C71.9917 14.4204 71.8672 14.4676 71.7744 14.562C71.6833 14.6548 71.6377 14.7915 71.6377 14.9722ZM71.8208 13.7661C71.8989 13.8475 72.008 13.8882 72.1479 13.8882C72.2896 13.8882 72.3986 13.8475 72.4751 13.7661C72.5532 13.6847 72.5923 13.5798 72.5923 13.4512C72.5923 13.3112 72.5532 13.2021 72.4751 13.124C72.3986 13.0443 72.2896 13.0044 72.1479 13.0044C72.008 13.0044 71.8981 13.0443 71.8184 13.124C71.7402 13.2021 71.7012 13.3112 71.7012 13.4512C71.7012 13.5798 71.741 13.6847 71.8208 13.7661Z" fill="white"/>
<path d="M79.7383 13.1802C79.6553 13.0809 79.5365 13.0312 79.3818 13.0312C79.1702 13.0312 79.0262 13.1102 78.9497 13.2681C78.9058 13.3592 78.8797 13.5041 78.8716 13.7026H78.1953C78.2067 13.4015 78.2612 13.1582 78.3589 12.9727C78.5444 12.6195 78.874 12.4429 79.3477 12.4429C79.722 12.4429 80.0199 12.547 80.2412 12.7554C80.4626 12.9621 80.5732 13.2363 80.5732 13.5781C80.5732 13.8402 80.4951 14.0729 80.3389 14.2764C80.2363 14.4115 80.0679 14.562 79.8335 14.728L79.5552 14.9258C79.381 15.0495 79.2614 15.139 79.1963 15.1943C79.1328 15.2497 79.0791 15.314 79.0352 15.3872H80.5806V16H78.1562C78.1628 15.7461 78.2173 15.5142 78.3198 15.3042C78.4191 15.0682 78.6535 14.8184 79.0229 14.5547C79.3436 14.3252 79.5511 14.1608 79.6455 14.0615C79.7904 13.9069 79.8628 13.7376 79.8628 13.5537C79.8628 13.404 79.8213 13.2795 79.7383 13.1802ZM82.082 16.1025C81.8167 16.1025 81.5783 16.0244 81.3667 15.8682C81.1551 15.7103 81.0339 15.4808 81.0029 15.1797H81.6963C81.7126 15.2839 81.7565 15.3685 81.8281 15.4336C81.8997 15.4987 81.995 15.5312 82.1138 15.5312C82.3433 15.5312 82.5044 15.4043 82.5972 15.1504C82.6476 15.0104 82.6794 14.8062 82.6924 14.5376C82.6289 14.6174 82.5614 14.6784 82.4897 14.7207C82.3595 14.7988 82.1992 14.8379 82.0088 14.8379C81.7272 14.8379 81.4774 14.741 81.2593 14.5474C81.0412 14.3521 80.9321 14.0713 80.9321 13.7051C80.9321 13.3258 81.0412 13.019 81.2593 12.7847C81.479 12.5487 81.7638 12.4307 82.1138 12.4307C82.6525 12.4307 83.022 12.6691 83.2222 13.146C83.3361 13.4162 83.3931 13.7718 83.3931 14.2129C83.3931 14.641 83.3385 14.9982 83.2295 15.2847C83.0212 15.8299 82.6387 16.1025 82.082 16.1025ZM81.8379 13.1118C81.7044 13.216 81.6377 13.3926 81.6377 13.6416C81.6377 13.8516 81.68 14.0094 81.7646 14.1152C81.8509 14.2194 81.9827 14.2715 82.1602 14.2715C82.2562 14.2715 82.3465 14.2438 82.4312 14.1885C82.589 14.0876 82.668 13.9126 82.668 13.6636C82.668 13.4634 82.6208 13.3047 82.5264 13.1875C82.4336 13.0703 82.3058 13.0117 82.1431 13.0117C82.0243 13.0117 81.9225 13.0451 81.8379 13.1118Z" fill="white"/>
<path d="M88.957 13.1655C88.8789 13.2697 88.8415 13.4089 88.8447 13.583H88.1953C88.2018 13.4072 88.2319 13.2404 88.2856 13.0825C88.3426 12.9442 88.4321 12.8164 88.5542 12.6992C88.6453 12.6162 88.7536 12.5527 88.8789 12.5088C89.0042 12.4648 89.158 12.4429 89.3403 12.4429C89.6789 12.4429 89.9515 12.5308 90.1582 12.7065C90.3665 12.8807 90.4707 13.1151 90.4707 13.4097C90.4707 13.618 90.4089 13.7938 90.2852 13.937C90.207 14.0265 90.1257 14.0876 90.041 14.1201C90.1045 14.1201 90.1956 14.1746 90.3145 14.2837C90.4919 14.4481 90.5806 14.6727 90.5806 14.9575C90.5806 15.257 90.4764 15.5207 90.2681 15.7485C90.0614 15.9748 89.7546 16.0879 89.3477 16.0879C88.8464 16.0879 88.498 15.9243 88.3027 15.5972C88.2002 15.423 88.1432 15.1951 88.1318 14.9136H88.8154C88.8154 15.0552 88.8382 15.1724 88.8838 15.2651C88.9684 15.436 89.1222 15.5215 89.3452 15.5215C89.4819 15.5215 89.6007 15.4751 89.7017 15.3823C89.8042 15.2879 89.8555 15.1528 89.8555 14.9771C89.8555 14.7443 89.7611 14.5889 89.5723 14.5107C89.4648 14.4668 89.2956 14.4448 89.0645 14.4448V13.9468C89.2907 13.9435 89.4486 13.9215 89.5381 13.8809C89.6927 13.8125 89.77 13.6742 89.77 13.4658C89.77 13.3307 89.7301 13.2209 89.6504 13.1362C89.5723 13.0516 89.4616 13.0093 89.3184 13.0093C89.154 13.0093 89.0335 13.0614 88.957 13.1655ZM92.1602 16.0879C91.7093 16.0879 91.3927 15.93 91.2104 15.6143C91.0298 15.2985 90.9395 14.8485 90.9395 14.2642C90.9395 13.6799 91.0298 13.229 91.2104 12.9116C91.3927 12.5942 91.7093 12.4355 92.1602 12.4355C92.611 12.4355 92.9276 12.5942 93.1099 12.9116C93.2905 13.229 93.3809 13.6799 93.3809 14.2642C93.3809 14.8485 93.2897 15.2985 93.1074 15.6143C92.9268 15.93 92.611 16.0879 92.1602 16.0879ZM92.5679 15.1968C92.6313 14.9819 92.6631 14.6711 92.6631 14.2642C92.6631 13.8377 92.6305 13.522 92.5654 13.3169C92.502 13.1118 92.3669 13.0093 92.1602 13.0093C91.9535 13.0093 91.8167 13.1118 91.75 13.3169C91.6833 13.522 91.6499 13.8377 91.6499 14.2642C91.6499 14.6711 91.6833 14.9827 91.75 15.1992C91.8167 15.4141 91.9535 15.5215 92.1602 15.5215C92.3669 15.5215 92.5028 15.4132 92.5679 15.1968Z" fill="white"/>
<path d="M118.15 50.9395C118.106 50.9421 118.075 50.9434 118.057 50.9434C117.915 50.9434 117.794 50.9316 117.695 50.9082C117.596 50.8848 117.514 50.8535 117.449 50.8145C117.384 50.7754 117.333 50.7298 117.297 50.6777C117.26 50.6257 117.233 50.5716 117.215 50.5156C117.197 50.4596 117.186 50.403 117.182 50.3457C117.178 50.2884 117.176 50.2344 117.176 50.1836V49.1289H117.752V50.0391C117.752 50.1328 117.761 50.2096 117.779 50.2695C117.798 50.3281 117.827 50.3743 117.867 50.4082C117.908 50.4421 117.96 50.4655 118.023 50.4785C118.089 50.4902 118.167 50.4961 118.26 50.4961C118.298 50.4961 118.34 50.4948 118.389 50.4922C118.438 50.4883 118.488 50.4831 118.537 50.4766C118.588 50.4701 118.637 50.4622 118.684 50.4531C118.732 50.4427 118.775 50.4316 118.812 50.4199V49.1289H119.412V52H118.812V50.8516C118.712 50.8724 118.62 50.8893 118.535 50.9023C118.451 50.9141 118.376 50.9232 118.311 50.9297C118.247 50.9349 118.193 50.9382 118.15 50.9395ZM121.297 52V50.7168H121.287L120.535 52H119.932V49.8711H120.484V51.1836H120.492L121.268 49.8711H121.848V52H121.297ZM124.033 49.8711V50.3203H123.389V52H122.838V50.3203H122.193V49.8711H124.033ZM125.35 50.6719C125.369 50.6693 125.39 50.6654 125.412 50.6602C125.436 50.6549 125.457 50.6465 125.477 50.6348C125.496 50.6217 125.512 50.6048 125.525 50.584C125.538 50.5618 125.545 50.5326 125.545 50.4961C125.545 50.4609 125.539 50.429 125.527 50.4004C125.517 50.3704 125.499 50.3451 125.473 50.3242C125.447 50.3021 125.411 50.2852 125.367 50.2734C125.324 50.2617 125.27 50.2559 125.205 50.2559C125.131 50.2559 125.071 50.2637 125.025 50.2793C124.981 50.2936 124.946 50.3145 124.92 50.3418C124.894 50.3678 124.875 50.3991 124.863 50.4355C124.852 50.4707 124.843 50.5085 124.838 50.5488H124.285C124.285 50.5228 124.289 50.487 124.297 50.4414C124.306 50.3945 124.322 50.3438 124.344 50.2891C124.367 50.2344 124.399 50.179 124.439 50.123C124.481 50.0671 124.535 50.0163 124.602 49.9707C124.669 49.9238 124.751 49.8854 124.848 49.8555C124.944 49.8255 125.059 49.8099 125.193 49.8086C125.383 49.8086 125.537 49.8281 125.654 49.8672C125.773 49.9049 125.865 49.9551 125.93 50.0176C125.996 50.0788 126.04 50.1478 126.062 50.2246C126.086 50.3001 126.098 50.3757 126.098 50.4512V51.5801C126.098 51.6439 126.101 51.6966 126.107 51.7383C126.115 51.7786 126.125 51.8112 126.137 51.8359C126.148 51.8594 126.161 51.877 126.176 51.8887C126.191 51.8991 126.208 51.9069 126.225 51.9121V52H125.613C125.603 51.9753 125.591 51.9427 125.578 51.9023C125.566 51.8607 125.561 51.8105 125.561 51.752C125.518 51.7962 125.475 51.8372 125.434 51.875C125.393 51.9128 125.348 51.946 125.297 51.9746C125.246 52.002 125.188 52.0234 125.121 52.0391C125.055 52.056 124.975 52.0645 124.881 52.0645C124.786 52.0645 124.698 52.0501 124.617 52.0215C124.538 51.9941 124.469 51.9531 124.41 51.8984C124.352 51.8438 124.306 51.7754 124.273 51.6934C124.241 51.6113 124.225 51.5163 124.225 51.4082C124.225 51.321 124.238 51.2402 124.266 51.166C124.293 51.0905 124.331 51.0247 124.381 50.9688C124.432 50.9115 124.493 50.8646 124.564 50.8281C124.637 50.7904 124.719 50.765 124.809 50.752L125.35 50.6719ZM124.947 51.6562C124.981 51.6667 125.018 51.6719 125.057 51.6719C125.077 51.6719 125.104 51.6699 125.137 51.666C125.169 51.6608 125.204 51.6517 125.24 51.6387C125.277 51.6257 125.313 51.6081 125.35 51.5859C125.386 51.5625 125.419 51.5326 125.447 51.4961C125.476 51.4596 125.499 51.4154 125.518 51.3633C125.536 51.3099 125.545 51.2474 125.545 51.1758V50.9609C125.511 50.9792 125.477 50.9961 125.443 51.0117C125.41 51.026 125.365 51.0384 125.309 51.0488L125.162 51.0762C125.098 51.0879 125.042 51.1016 124.994 51.1172C124.946 51.1328 124.906 51.1536 124.873 51.1797C124.842 51.2044 124.818 51.235 124.801 51.2715C124.785 51.3079 124.777 51.3535 124.777 51.4082C124.777 51.4538 124.785 51.4935 124.799 51.5273C124.813 51.5599 124.833 51.5872 124.857 51.6094C124.883 51.6302 124.913 51.6458 124.947 51.6562ZM127.43 50.3203L127.418 50.7168C127.411 50.9395 127.397 51.1348 127.375 51.3027C127.353 51.4707 127.316 51.6113 127.266 51.7246C127.216 51.8366 127.148 51.9212 127.062 51.9785C126.978 52.0358 126.869 52.0645 126.736 52.0645C126.674 52.0645 126.619 52.0605 126.572 52.0527C126.525 52.0462 126.487 52.0365 126.457 52.0234V51.5605C126.475 51.5684 126.498 51.5755 126.525 51.582C126.554 51.5885 126.589 51.5918 126.629 51.5918C126.671 51.5918 126.708 51.5794 126.74 51.5547C126.773 51.5286 126.801 51.4824 126.824 51.416C126.848 51.3483 126.866 51.2552 126.879 51.1367C126.892 51.0182 126.9 50.8652 126.904 50.6777L126.92 49.8711H128.633V52H128.082V50.3203H127.43ZM130.498 51.9941C130.449 51.998 130.411 52 130.385 52H129.209V49.8711H129.762V50.6113H130.326C130.458 50.6113 130.575 50.625 130.678 50.6523C130.782 50.6797 130.87 50.722 130.941 50.7793C131.013 50.8366 131.068 50.9095 131.105 50.998C131.143 51.0853 131.162 51.1888 131.162 51.3086C131.162 51.4167 131.146 51.5091 131.115 51.5859C131.084 51.6628 131.044 51.7272 130.994 51.7793C130.946 51.8301 130.892 51.8704 130.832 51.9004C130.772 51.929 130.714 51.9512 130.656 51.9668C130.599 51.9811 130.546 51.9902 130.498 51.9941ZM130.467 51.084C130.429 51.0632 130.385 51.0488 130.336 51.041C130.288 51.0319 130.236 51.0273 130.182 51.0273H129.762V51.584H130.229C130.271 51.584 130.314 51.5807 130.355 51.5742C130.398 51.5664 130.437 51.5527 130.471 51.5332C130.506 51.5124 130.534 51.4844 130.555 51.4492C130.576 51.4128 130.586 51.3659 130.586 51.3086C130.586 51.2526 130.575 51.2064 130.553 51.1699C130.532 51.1335 130.503 51.1048 130.467 51.084ZM132.891 51.0879H132.078V52H131.525V49.8711H132.078V50.6406H132.891V49.8711H133.441V52H132.891V51.0879ZM135.379 50.6523C135.482 50.6797 135.569 50.722 135.641 50.7793C135.712 50.8366 135.767 50.9095 135.805 50.998C135.842 51.0853 135.861 51.1888 135.861 51.3086C135.861 51.4167 135.846 51.5091 135.814 51.5859C135.783 51.6628 135.743 51.7272 135.693 51.7793C135.645 51.8301 135.591 51.8704 135.531 51.9004C135.471 51.929 135.413 51.9512 135.355 51.9668C135.298 51.9811 135.245 51.9902 135.195 51.9941C135.147 51.998 135.11 52 135.084 52H133.971V49.8711H134.523V50.6113H135.025C135.157 50.6113 135.275 50.625 135.379 50.6523ZM136.658 49.8711V52H136.105V49.8711H136.658ZM134.881 51.0273H134.523V51.584H134.928C134.971 51.584 135.013 51.5807 135.055 51.5742C135.098 51.5664 135.136 51.5527 135.17 51.5332C135.205 51.5124 135.233 51.4844 135.254 51.4492C135.275 51.4128 135.285 51.3659 135.285 51.3086C135.285 51.2526 135.274 51.2064 135.252 51.1699C135.231 51.1335 135.202 51.1048 135.164 51.084C135.128 51.0632 135.085 51.0488 135.035 51.041C134.987 51.0319 134.936 51.0273 134.881 51.0273ZM137.738 51.1836H137.746L138.521 49.8711H139.102V52H138.551V50.7168H138.541L137.789 52H137.186V49.8711H137.738V51.1836ZM137.885 49.082C137.893 49.1146 137.906 49.1432 137.926 49.168C137.947 49.1914 137.974 49.2103 138.008 49.2246C138.043 49.2376 138.088 49.2441 138.143 49.2441C138.196 49.2441 138.24 49.2389 138.275 49.2285C138.312 49.2168 138.34 49.1999 138.361 49.1777C138.382 49.1556 138.396 49.1283 138.404 49.0957C138.412 49.0632 138.415 49.0247 138.414 48.9805H138.812C138.812 49.0833 138.796 49.1712 138.762 49.2441C138.728 49.3171 138.681 49.377 138.621 49.4238C138.562 49.4694 138.492 49.5033 138.41 49.5254C138.328 49.5462 138.239 49.5566 138.143 49.5566C138.045 49.5566 137.955 49.5462 137.873 49.5254C137.791 49.5033 137.72 49.4694 137.66 49.4238C137.6 49.377 137.553 49.3171 137.52 49.2441C137.487 49.1712 137.471 49.0833 137.471 48.9805H137.871C137.872 49.0169 137.877 49.0508 137.885 49.082ZM117.734 55.707H117.947C118.071 55.707 118.158 55.6855 118.209 55.6426C118.261 55.5996 118.287 55.5371 118.287 55.4551C118.287 55.4069 118.279 55.3665 118.264 55.334C118.249 55.3014 118.229 55.2754 118.201 55.2559C118.175 55.235 118.144 55.2207 118.107 55.2129C118.071 55.2038 118.031 55.1992 117.988 55.1992C117.891 55.1992 117.811 55.222 117.75 55.2676C117.69 55.3118 117.66 55.3763 117.66 55.4609H117.141C117.142 55.3438 117.165 55.2441 117.211 55.1621C117.258 55.0788 117.321 55.0111 117.4 54.959C117.48 54.9069 117.574 54.8691 117.682 54.8457C117.79 54.821 117.906 54.8086 118.031 54.8086C118.172 54.8086 118.293 54.8255 118.395 54.8594C118.496 54.8932 118.58 54.9382 118.646 54.9941C118.713 55.0501 118.762 55.1146 118.793 55.1875C118.824 55.2591 118.84 55.3327 118.84 55.4082C118.84 55.4707 118.831 55.5267 118.812 55.5762C118.794 55.6243 118.77 55.6667 118.738 55.7031C118.707 55.7383 118.671 55.7676 118.629 55.791C118.589 55.8145 118.546 55.832 118.502 55.8438V55.8516C118.576 55.8633 118.639 55.8854 118.691 55.918C118.743 55.9492 118.786 55.987 118.818 56.0312C118.851 56.0755 118.874 56.1243 118.889 56.1777C118.904 56.2298 118.912 56.2812 118.912 56.332C118.912 56.4648 118.886 56.5775 118.834 56.6699C118.782 56.7624 118.714 56.8379 118.629 56.8965C118.546 56.9551 118.451 56.9974 118.346 57.0234C118.242 57.0508 118.137 57.0645 118.031 57.0645C117.893 57.0645 117.766 57.0514 117.65 57.0254C117.536 57.0007 117.437 56.9596 117.354 56.9023C117.271 56.8438 117.207 56.7682 117.16 56.6758C117.113 56.582 117.089 56.4674 117.088 56.332H117.615C117.615 56.3815 117.624 56.4271 117.643 56.4688C117.661 56.5104 117.686 56.5462 117.719 56.5762C117.751 56.6061 117.79 56.6296 117.836 56.6465C117.882 56.6634 117.932 56.6719 117.988 56.6719C118.056 56.6719 118.112 56.6615 118.156 56.6406C118.202 56.6185 118.238 56.5911 118.264 56.5586C118.29 56.526 118.308 56.4915 118.318 56.4551C118.33 56.4173 118.336 56.3828 118.336 56.3516C118.336 56.25 118.308 56.179 118.252 56.1387C118.197 56.097 118.109 56.0762 117.988 56.0762H117.734V55.707ZM120.236 55.6719C120.256 55.6693 120.277 55.6654 120.299 55.6602C120.322 55.6549 120.344 55.6465 120.363 55.6348C120.383 55.6217 120.399 55.6048 120.412 55.584C120.425 55.5618 120.432 55.5326 120.432 55.4961C120.432 55.4609 120.426 55.429 120.414 55.4004C120.404 55.3704 120.385 55.3451 120.359 55.3242C120.333 55.3021 120.298 55.2852 120.254 55.2734C120.211 55.2617 120.157 55.2559 120.092 55.2559C120.018 55.2559 119.958 55.2637 119.912 55.2793C119.868 55.2936 119.833 55.3145 119.807 55.3418C119.781 55.3678 119.762 55.3991 119.75 55.4355C119.738 55.4707 119.73 55.5085 119.725 55.5488H119.172C119.172 55.5228 119.176 55.487 119.184 55.4414C119.193 55.3945 119.208 55.3438 119.23 55.2891C119.254 55.2344 119.286 55.179 119.326 55.123C119.368 55.0671 119.422 55.0163 119.488 54.9707C119.556 54.9238 119.638 54.8854 119.734 54.8555C119.831 54.8255 119.946 54.8099 120.08 54.8086C120.27 54.8086 120.424 54.8281 120.541 54.8672C120.66 54.9049 120.751 54.9551 120.816 55.0176C120.883 55.0788 120.927 55.1478 120.949 55.2246C120.973 55.3001 120.984 55.3757 120.984 55.4512V56.5801C120.984 56.6439 120.988 56.6966 120.994 56.7383C121.002 56.7786 121.012 56.8112 121.023 56.8359C121.035 56.8594 121.048 56.877 121.062 56.8887C121.078 56.8991 121.094 56.9069 121.111 56.9121V57H120.5C120.49 56.9753 120.478 56.9427 120.465 56.9023C120.453 56.8607 120.447 56.8105 120.447 56.752C120.404 56.7962 120.362 56.8372 120.32 56.875C120.28 56.9128 120.234 56.946 120.184 56.9746C120.133 57.002 120.074 57.0234 120.008 57.0391C119.941 57.056 119.861 57.0645 119.768 57.0645C119.673 57.0645 119.585 57.0501 119.504 57.0215C119.424 56.9941 119.355 56.9531 119.297 56.8984C119.238 56.8438 119.193 56.7754 119.16 56.6934C119.128 56.6113 119.111 56.5163 119.111 56.4082C119.111 56.321 119.125 56.2402 119.152 56.166C119.18 56.0905 119.218 56.0247 119.268 55.9688C119.318 55.9115 119.38 55.8646 119.451 55.8281C119.524 55.7904 119.605 55.765 119.695 55.752L120.236 55.6719ZM119.834 56.6562C119.868 56.6667 119.904 56.6719 119.943 56.6719C119.964 56.6719 119.991 56.6699 120.023 56.666C120.056 56.6608 120.09 56.6517 120.127 56.6387C120.163 56.6257 120.2 56.6081 120.236 56.5859C120.273 56.5625 120.305 56.5326 120.334 56.4961C120.363 56.4596 120.386 56.4154 120.404 56.3633C120.423 56.3099 120.432 56.2474 120.432 56.1758V55.9609C120.398 55.9792 120.364 55.9961 120.33 56.0117C120.296 56.026 120.251 56.0384 120.195 56.0488L120.049 56.0762C119.985 56.0879 119.929 56.1016 119.881 56.1172C119.833 56.1328 119.792 56.1536 119.76 56.1797C119.729 56.2044 119.704 56.235 119.688 56.2715C119.672 56.3079 119.664 56.3535 119.664 56.4082C119.664 56.4538 119.671 56.4935 119.686 56.5273C119.7 56.5599 119.719 56.5872 119.744 56.6094C119.77 56.6302 119.8 56.6458 119.834 56.6562ZM122.316 55.3203L122.305 55.7168C122.298 55.9395 122.284 56.1348 122.262 56.3027C122.24 56.4707 122.203 56.6113 122.152 56.7246C122.103 56.8366 122.035 56.9212 121.949 56.9785C121.865 57.0358 121.756 57.0645 121.623 57.0645C121.561 57.0645 121.506 57.0605 121.459 57.0527C121.412 57.0462 121.374 57.0365 121.344 57.0234V56.5605C121.362 56.5684 121.385 56.5755 121.412 56.582C121.441 56.5885 121.475 56.5918 121.516 56.5918C121.557 56.5918 121.594 56.5794 121.627 56.5547C121.66 56.5286 121.688 56.4824 121.711 56.416C121.734 56.3483 121.753 56.2552 121.766 56.1367C121.779 56.0182 121.787 55.8652 121.791 55.6777L121.807 54.8711H123.52V57H122.969V55.3203H122.316Z" fill="white"/>
</svg>
