<svg width="146" height="149" viewBox="0 0 146 149" fill="none" xmlns="http://www.w3.org/2000/svg">
<path d="M3.20519 2.68185V34.6996M3.20519 35.2113V45.7504H1.02966V0.508759M3.20519 52.0398V56.0077H1.02966V49.6738H3.20519V51.528M3.20519 93.002V99.4842H1.02966V92.0453H3.20519V92.4903M1.02966 147.848V103.408H3.20519V145.675M3.20519 59.9385V66.3391H1.02966V59.9385H3.20519ZM3.20519 70.2625V77.2564H1.02966V70.2625H3.20519ZM3.20519 81.1798V88.1218H1.02966V81.1798H3.20519Z" stroke="white" stroke-width="0.5"/>
<path d="M25.7623 52.0397V60.5467H25.25V52.0397M25.25 92.4902V64.4775H25.7623V92.4902" stroke="white" stroke-width="0.5"/>
<path d="M40.3079 51.528V54.5985H39.7955V52.0398M40.3079 58.5219V72.8509H39.7955V58.5219H40.3079Z" stroke="white" stroke-width="0.5"/>
<path d="M1.02966 0.508759H5.04658V2.68185H3.20519M38.1621 2.68185H34.9396V0.508759H40.9316V2.68185H40.3376M73.8912 2.68185H69.5476V0.508759H143.798M142.713 2.68185H108.729M108.217 2.68185H74.4035M49.4778 0.508759H58.9966V2.68185H49.4778V0.508759ZM62.9245 0.508759H65.6197V2.68185H62.9245V0.508759Z" stroke="white" stroke-width="0.5"/>
<path d="M73.8912 38.1187H47.0498V37.6069H73.8912M40.256 37.6069H43.122V38.1187H40.2485" stroke="white" stroke-width="0.5"/>
<path d="M3.20519 145.675H5.34359V147.848H1.02966M40.501 145.675H143.018M145.201 147.848H38.4442V145.675H39.9812" stroke="white" stroke-width="0.5"/>
<path d="M3.2052 92.4902H25.25M25.7623 92.4902H28.5839V93.002H3.2052M35.6673 92.4902H39.9812M39.9812 93.002H32.5117V92.4902H35.155" stroke="white" stroke-width="0.5"/>
<path d="M3.2052 51.528H19.7778M20.2901 51.528H28.5022V52.0398H25.7623M25.25 52.0398H3.2052M35.1253 52.0398H32.43V51.528H40.3079M39.7956 52.0398H35.6376" stroke="white" stroke-width="0.5"/>
<path d="M3.2052 34.6996H19.8298M22.0127 34.6996H38.0804M38.0804 35.2113H20.2901M19.7778 35.2113H3.2052" stroke="white" stroke-width="0.5"/>
<path d="M143.798 0.508755L144.889 0.501343L145.045 72.8509M145.045 73.9412L145.201 147.848M143.018 145.675L142.869 75.0314M142.862 72.8509L142.714 2.68184" stroke="white" stroke-width="0.5"/>
<path d="M108.729 2.68184V72.8509H108.217V62.6604M108.217 62.1487V2.68184" stroke="white" stroke-width="0.5"/>
<path d="M35.6376 75.0314L35.6524 84.2874H35.1401L35.1252 75.0314M35.1549 92.4903L35.1475 88.2108H35.6598L35.6673 92.4903" stroke="white" stroke-width="0.5"/>
<path d="M19.8297 34.6996V16.4027H22.0127V34.6996" stroke="white" stroke-width="0.5"/>
<path d="M35.1252 75.0314V72.8509H142.862M145.045 72.8509V73.9412M142.869 75.0314H40.5009M39.9812 75.0314H35.6376" stroke="white" stroke-width="0.5"/>
<path d="M35.6376 52.0397V72.8509H35.1252V52.0397" stroke="white" stroke-width="0.5"/>
<path d="M74.4034 2.68184V62.1487M74.4034 62.6604V72.8509H73.8911V38.1187M73.8911 37.6069V2.68184" stroke="white" stroke-width="0.5"/>
<path d="M74.4034 62.1487H108.217M108.217 62.6604H74.4034" stroke="white" stroke-width="0.5"/>
<path d="M19.7777 51.528V50.3117H20.29V51.528M20.29 35.2113V46.3883H19.7777V35.2113" stroke="white" stroke-width="0.5"/>
<path d="M38.0803 34.6996L38.162 2.68184M40.3375 2.68184L40.2559 37.6069M40.2484 38.1187L40.241 42.7615L38.0581 42.7541L38.0803 35.2113M40.2336 46.6849L40.2187 51.4835L38.0432 51.4761L38.0506 46.6849H40.2336Z" stroke="white" stroke-width="0.5"/>
<path d="M39.9812 92.4903V75.0314M40.501 75.0314V145.675M39.9812 145.675V93.002" stroke="white" stroke-width="0.5"/>
<path d="M38.021 18.9911H22.0052M38.021 21.5498H22.0052M38.021 24.1086H22.0052M38.021 26.6673H22.0052M38.021 29.2261H22.0052M38.021 31.7848H22.0052M38.021 34.3436H22.0052M30.0168 16.4249V34.707M30.0168 34.707V34.6922M30.0168 34.707L30.0094 34.6922M38.021 16.4249V34.707H22.0052V16.4249H38.021Z" stroke="white" stroke-width="0.5"/>
<path d="M19.852 18.9985H3.19775M19.852 21.5572H3.19775M19.852 24.1234H3.19775M19.852 26.6822H3.19775M19.852 29.2409H3.19775M19.852 31.7997H3.19775M19.852 34.3584H3.19775M11.5212 16.4397V34.7144M11.5212 34.7144L11.5286 34.6996M11.5212 34.7144V34.6996M19.852 16.4397V34.7144H3.19775V16.4397H19.852Z" stroke="white" stroke-width="0.5"/>
<path d="M3.20519 88.1218V92.0452M2.21766 88.5223V91.6373M2.21766 88.5223V88.3221M2.21766 88.5223H2.01718M2.21766 91.6373V91.845M2.21766 91.6373H2.01718M1.02966 92.0452V88.1218M2.11371 88.5223V91.6373M2.01718 91.6373V88.5223M2.01718 91.6373V91.845M2.01718 88.5223V88.3221M2.35131 88.3221V88.1218H1.88353V88.3221H2.35131ZM2.35131 91.845V92.0452H1.88353V91.845H2.35131Z" stroke="white" stroke-width="0.5"/>
<path d="M69.5476 2.68185H65.6198M69.1392 1.69543H66.0207M69.1392 1.69543H69.3471M69.1392 1.69543V1.49518M66.0207 1.69543H65.8202M66.0207 1.69543V1.49518M65.6198 0.508759H69.5476M69.1392 1.5916H66.0207M66.0207 1.49518H69.1392M66.0207 1.49518H65.8202M69.1392 1.49518H69.3471M69.3471 1.82892H69.5476V1.35426H69.3471V1.82892ZM65.8202 1.82892H65.6198V1.35426H65.8202V1.82892Z" stroke="white" stroke-width="0.5"/>
<path d="M42.1938 46.1657L40.241 42.7615L38.0581 42.7541M40.2336 46.6849H38.0507" stroke="white" stroke-width="0.5"/>
<path d="M3.20519 77.2564V81.1798M2.21766 77.6643V80.7793M2.21766 77.6643V77.4567M2.21766 77.6643H2.01718M2.21766 80.7793V80.9796M2.21766 80.7793H2.01718M1.02966 81.1798V77.2564M2.11371 77.6643V80.7793M2.01718 80.7793V77.6643M2.01718 80.7793V80.9796M2.01718 77.6643V77.4567M2.35131 77.4567V77.2564H1.88353V77.4567H2.35131ZM2.35131 80.9796V81.1798H1.88353V80.9796H2.35131Z" stroke="white" stroke-width="0.5"/>
<path d="M29.0292 53.9978L32.4299 52.0398V51.528M28.5021 52.0398V51.528" stroke="white" stroke-width="0.5"/>
<path d="M62.9244 2.68185H58.9966M62.5235 1.69543H59.405M62.5235 1.69543H62.7239M62.5235 1.69543V1.49518M59.405 1.69543H59.1971M59.405 1.69543V1.49518M58.9966 0.508759H62.9244M62.5235 1.5916H59.405M59.405 1.49518H62.5235M59.405 1.49518H59.1971M62.5235 1.49518H62.7239M62.7239 1.82892H62.9244V1.35426H62.7239V1.82892ZM59.1971 1.82892H58.9966V1.35426H59.1971V1.82892Z" stroke="white" stroke-width="0.5"/>
<path d="M3.20519 45.7504V49.6738M2.21766 46.1509V49.2659M2.21766 46.1509V45.9507M2.21766 46.1509H2.01718M2.21766 49.2659V49.4736M2.21766 49.2659H2.01718M1.02966 49.6738V45.7504M2.11371 46.1509V49.2659M2.01718 49.2659V46.1509M2.01718 49.2659V49.4736M2.01718 46.1509V45.9507M2.35131 45.9507V45.7504H1.88353V45.9507H2.35131ZM2.35131 49.4736V49.6738H1.88353V49.4736H2.35131Z" stroke="white" stroke-width="0.5"/>
<path d="M3.20519 66.3391V70.2625M2.21766 66.7396V69.8546M2.21766 66.7396V66.5393M2.21766 66.7396H2.01718M2.21766 69.8546V70.0548M2.21766 69.8546H2.01718M1.02966 70.2625V66.3391M2.11371 66.7396V69.8546M2.01718 69.8546V66.7396M2.01718 69.8546V70.0548M2.01718 66.7396V66.5393M2.35131 66.5393V66.3391H1.88353V66.5393H2.35131ZM2.35131 70.0548V70.2625H1.88353V70.0548H2.35131Z" stroke="white" stroke-width="0.5"/>
<path d="M5.04651 0.508759H34.9396M5.44746 1.49518H34.5312M5.44746 1.49518H5.24699M5.44746 1.49518V1.69543M34.5312 1.49518H34.7391M34.5312 1.49518V1.69543M34.9396 2.68185H5.04651M5.44746 1.5916H34.5312M34.5312 1.69543H5.44746M34.5312 1.69543H34.7391M5.44746 1.69543H5.24699M5.24699 1.35426H5.04651V1.82892H5.24699V1.35426ZM34.7391 1.35426H34.9396V1.82892H34.7391V1.35426Z" stroke="white" stroke-width="0.5"/>
<path d="M49.4777 2.68185H40.9315M49.0693 1.69543H41.3399M49.0693 1.69543H49.2698M49.0693 1.69543V1.49518M41.3399 1.69543H41.1394M41.3399 1.69543V1.49518M40.9315 0.508759H49.4777M49.0693 1.5916H41.3399M41.3399 1.49518H49.0693M41.3399 1.49518H41.1394M49.0693 1.49518H49.2698M49.2698 1.82892H49.4777V1.35426H49.2698V1.82892ZM41.1394 1.82892H40.9315V1.35426H41.1394V1.82892Z" stroke="white" stroke-width="0.5"/>
<path d="M29.1109 94.9674L32.5116 93.002V92.4902M28.5837 93.002V92.4902" stroke="white" stroke-width="0.5"/>
<path d="M38.4442 147.848H5.34351M38.0358 146.862H5.75188M38.0358 146.862H38.2437M38.0358 146.862V146.662M5.75188 146.862H5.5514M5.75188 146.862V146.662M5.34351 145.675H38.4442M38.0358 146.758H5.75188M5.75188 146.662H38.0358M5.75188 146.662H5.5514M38.0358 146.662H38.2437M38.2437 146.995H38.4442V146.521H38.2437V146.995ZM5.5514 146.995H5.34351V146.521H5.5514V146.995Z" stroke="white" stroke-width="0.5"/>
<path d="M27.7299 63.9509L25.7623 60.5467H25.25M25.7623 64.4775H25.25" stroke="white" stroke-width="0.5"/>
<path d="M1.02966 59.9385V56.0077M2.01718 59.5306V56.4156M2.01718 59.5306V59.7308M2.01718 59.5306H2.21766M2.01718 56.4156V56.2153M2.01718 56.4156H2.21766M3.20519 56.0077V59.9385M2.11371 59.5306V56.4156M2.21766 56.4156V59.5306M2.21766 56.4156V56.2153M2.21766 59.5306V59.7308M1.88353 59.7308V59.9385H2.35131V59.7308H1.88353ZM1.88353 56.2153V56.0077H2.35131V56.2153H1.88353Z" stroke="white" stroke-width="0.5"/>
<path d="M3.20519 99.4841V103.408M2.21766 99.8921V103.007M2.21766 99.8921V99.6844M2.21766 99.8921H2.01718M2.21766 103.007V103.207M2.21766 103.007H2.01718M1.02966 103.408V99.4841M2.11371 99.8921V103.007M2.01718 103.007V99.8921M2.01718 103.007V103.207M2.01718 99.8921V99.6844M2.35131 99.6844V99.4841H1.88353V99.6844H2.35131ZM2.35131 103.207V103.408H1.88353V103.207H2.35131Z" stroke="white" stroke-width="0.5"/>
<path d="M46.5226 35.6489L43.1219 37.6069V38.1187M47.0498 37.6069V38.1187" stroke="white" stroke-width="0.5"/>
<path d="M22.2502 49.7851L20.29 46.3883H19.7777M20.29 50.3117H19.7777" stroke="white" stroke-width="0.5"/>
<path d="M37.8279 55.1251L39.7955 58.5219H40.3078M39.7955 54.5985H40.3078" stroke="white" stroke-width="0.5"/>
<path d="M37.6275 87.6843L35.6525 84.2874H35.1401M35.6599 88.2109H35.1476" stroke="white" stroke-width="0.5"/>
<path d="M54.2173 57H53.5044V54.5586H52.6719V54.085C52.8916 54.0752 53.0454 54.0605 53.1333 54.041C53.2733 54.0101 53.3872 53.9482 53.4751 53.8555C53.5353 53.792 53.5809 53.7074 53.6118 53.6016C53.6297 53.5381 53.6387 53.4909 53.6387 53.46H54.2173V57ZM56.4854 57.0879C56.0345 57.0879 55.7179 56.93 55.5356 56.6143C55.355 56.2985 55.2646 55.8485 55.2646 55.2642C55.2646 54.6799 55.355 54.229 55.5356 53.9116C55.7179 53.5942 56.0345 53.4355 56.4854 53.4355C56.9362 53.4355 57.2528 53.5942 57.4351 53.9116C57.6157 54.229 57.7061 54.6799 57.7061 55.2642C57.7061 55.8485 57.6149 56.2985 57.4326 56.6143C57.252 56.93 56.9362 57.0879 56.4854 57.0879ZM56.8931 56.1968C56.9565 55.9819 56.9883 55.6711 56.9883 55.2642C56.9883 54.8377 56.9557 54.522 56.8906 54.3169C56.8271 54.1118 56.6921 54.0093 56.4854 54.0093C56.2786 54.0093 56.1419 54.1118 56.0752 54.3169C56.0085 54.522 55.9751 54.8377 55.9751 55.2642C55.9751 55.6711 56.0085 55.9827 56.0752 56.1992C56.1419 56.4141 56.2786 56.5215 56.4854 56.5215C56.6921 56.5215 56.828 56.4132 56.8931 56.1968ZM59.7837 57H59.0708V54.5586H58.2383V54.085C58.458 54.0752 58.6118 54.0605 58.6997 54.041C58.8397 54.0101 58.9536 53.9482 59.0415 53.8555C59.1017 53.792 59.1473 53.7074 59.1782 53.6016C59.1961 53.5381 59.2051 53.4909 59.2051 53.46H59.7837V57Z" fill="white"/>
<path d="M19.2173 122H18.5044V119.559H17.6719V119.085C17.8916 119.075 18.0454 119.061 18.1333 119.041C18.2733 119.01 18.3872 118.948 18.4751 118.855C18.5353 118.792 18.5809 118.707 18.6118 118.602C18.6297 118.538 18.6387 118.491 18.6387 118.46H19.2173V122ZM21.4854 122.088C21.0345 122.088 20.7179 121.93 20.5356 121.614C20.355 121.299 20.2646 120.848 20.2646 120.264C20.2646 119.68 20.355 119.229 20.5356 118.912C20.7179 118.594 21.0345 118.436 21.4854 118.436C21.9362 118.436 22.2528 118.594 22.4351 118.912C22.6157 119.229 22.7061 119.68 22.7061 120.264C22.7061 120.848 22.6149 121.299 22.4326 121.614C22.252 121.93 21.9362 122.088 21.4854 122.088ZM21.8931 121.197C21.9565 120.982 21.9883 120.671 21.9883 120.264C21.9883 119.838 21.9557 119.522 21.8906 119.317C21.8271 119.112 21.6921 119.009 21.4854 119.009C21.2786 119.009 21.1419 119.112 21.0752 119.317C21.0085 119.522 20.9751 119.838 20.9751 120.264C20.9751 120.671 21.0085 120.983 21.0752 121.199C21.1419 121.414 21.2786 121.521 21.4854 121.521C21.6921 121.521 21.828 121.413 21.8931 121.197ZM24.6299 119.18C24.5469 119.081 24.4281 119.031 24.2734 119.031C24.0618 119.031 23.9178 119.11 23.8413 119.268C23.7974 119.359 23.7713 119.504 23.7632 119.703H23.0869C23.0983 119.402 23.1528 119.158 23.2505 118.973C23.436 118.619 23.7656 118.443 24.2393 118.443C24.6136 118.443 24.9115 118.547 25.1328 118.755C25.3542 118.962 25.4648 119.236 25.4648 119.578C25.4648 119.84 25.3867 120.073 25.2305 120.276C25.1279 120.411 24.9595 120.562 24.7251 120.728L24.4468 120.926C24.2726 121.049 24.153 121.139 24.0879 121.194C24.0244 121.25 23.9707 121.314 23.9268 121.387H25.4722V122H23.0479C23.0544 121.746 23.1089 121.514 23.2114 121.304C23.3107 121.068 23.5451 120.818 23.9146 120.555C24.2352 120.325 24.4427 120.161 24.5371 120.062C24.682 119.907 24.7544 119.738 24.7544 119.554C24.7544 119.404 24.7129 119.279 24.6299 119.18Z" fill="white"/>
</svg>
