<svg width="215" height="87" viewBox="0 0 215 87" fill="none" xmlns="http://www.w3.org/2000/svg">
<path d="M92.7148 14.4111H93.8159V18H93.125V14.9995H93.1152L92.4341 18H91.7041L91.0498 14.9995H91.04V18H90.3491V14.4111H91.4453L92.0752 17.2041H92.085L92.7148 14.4111Z" fill="black"/>
<path d="M178.64 3.3501V2.71008" stroke="black" stroke-width="0.5"/>
<path d="M34.03 71.91H33.38" stroke="black" stroke-width="0.5"/>
<path d="M1.64 3.3501V85.7601M1 86.4001V2.71008" stroke="black" stroke-width="0.5"/>
<path d="M211.67 2.71008V86.4001M211.03 85.7601V3.3501" stroke="black" stroke-width="0.5"/>
<path d="M45.28 15.54H55.04M55.04 16.18H45.28" stroke="black" stroke-width="0.5"/>
<path d="M97.4 3.3501H93.72V2.71008H98.04M86.38 2.71008H89.45V3.3501H87.02" stroke="black" stroke-width="0.5"/>
<path d="M87.02 20.74H92.71M92.07 21.38H87.02" stroke="black" stroke-width="0.5"/>
<path d="M68.13 3.3501V28.3601M67.49 28.3601V3.3501" stroke="black" stroke-width="0.5"/>
<path d="M34.03 3.3501V28.3601M33.38 29.0101V3.3501" stroke="black" stroke-width="0.5"/>
<path d="M34.03 28.3601H37.6V29.0101H34.03M45.28 28.3601H55.04M55.68 28.3601H61.09V29.0101H41.02V28.3601H44.64M68.13 28.3601H70.39V29.0101H64.51V28.3601H67.49" stroke="black" stroke-width="0.5"/>
<path d="M45.28 3.3501V15.5401M45.28 16.1801V28.3601M45.28 29.0101H44.64M44.64 28.3601V3.3501" stroke="black" stroke-width="0.5"/>
<path d="M55.6801 3.3501V7.96008H55.04V3.3501M55.04 15.5401V11.3801H55.6801V20.9201H55.04V16.1801M55.04 28.3601V24.3401H55.6801V28.3601" stroke="black" stroke-width="0.5"/>
<path d="M86.38 28.3601V3.3501M87.02 3.3501V20.7401M87.02 21.3801V28.3601" stroke="black" stroke-width="0.5"/>
<path d="M87.02 28.3601H87.85V29.0101H86.38M92.71 29.0101H91.27V28.3601H92.07" stroke="black" stroke-width="0.5"/>
<path d="M98.04 3.3501V28.3601M97.4 28.3601V3.3501" stroke="black" stroke-width="0.5"/>
<path d="M118.62 29.0101H115.16V28.3601H117.98M98.04 28.3601H107.42M108.07 28.3601H111.74V29.0101H97.4" stroke="black" stroke-width="0.5"/>
<path d="M118.62 3.3501V20.3601H117.98V3.3501M117.98 28.3601V23.7801H118.62V28.3601" stroke="black" stroke-width="0.5"/>
<path d="M108.07 3.3501V20.3601H107.42V3.3501M107.42 28.3601V23.7801H108.07V28.3601" stroke="black" stroke-width="0.5"/>
<path d="M92.0701 28.36V21.38M92.7101 20.74V28.36" stroke="black" stroke-width="0.5"/>
<path d="M67.64 42.3701H64.3401V41.7301H68.2801M55.04 41.7301H60.92V42.3701H55.6801" stroke="black" stroke-width="0.5"/>
<path d="M34.03 71.91H37.8V72.55H34.03M55.68 71.91H58.6V72.55H52.81V71.91H55.04M68.28 71.91H74.64V72.55H62.87V71.91H67.64M86.35 72.55H78.91V71.91H86.99M42.08 71.91H48.53V72.55H42.08V71.91Z" stroke="black" stroke-width="0.5"/>
<path d="M86.12 71.91H86.67M86.35 72.55H86.12" stroke="black" stroke-width="0.5"/>
<path d="M67.64 71.9101V42.3701M68.28 41.7301V71.9101" stroke="black" stroke-width="0.5"/>
<path d="M34.03 3.3501V28.3601M34.03 29.0101V32.4101H33.38V3.3501M33.38 72.2301V66.4601H34.03V71.9101M34.03 35.8301V63.0401H33.38V35.8301H34.03Z" stroke="black" stroke-width="0.5"/>
<path d="M55.04 71.9101V41.7301M55.6801 42.3701V71.9101" stroke="black" stroke-width="0.5"/>
<path d="M86.35 86.4001V72.55M86.99 71.91V85.7601" stroke="black" stroke-width="0.5"/>
<path d="M127.9 3.3501H125.92V2.71008H128.55M117.98 2.71008H121.64V3.3501H118.62" stroke="black" stroke-width="0.5"/>
<path d="M128.55 28.3601H131.45V29.0101H127.9" stroke="black" stroke-width="0.5"/>
<path d="M128.55 3.3501V28.3601M127.9 28.3601V3.3501" stroke="black" stroke-width="0.5"/>
<path d="M87.85 29.0101H83.87V28.3601H86.38M87.02 28.3601H87.85M91.27 28.3601H92.07M92.71 28.3601H97.4M98.04 28.3601H107.42M108.07 28.3601H111.74M111.74 29.0101H91.27M115.16 28.3601H117.98M118.62 28.3601H127.9M128.55 28.3601H131.45V29.0101H115.16" stroke="black" stroke-width="0.5"/>
<path d="M86.99 85.76H127.9M128.55 86.4H86.35" stroke="black" stroke-width="0.5"/>
<path d="M128.55 72.55V86.4001M127.9 85.7601V71.91" stroke="black" stroke-width="0.5"/>
<path d="M179.28 85.76H211.03M211.67 86.4H178.64" stroke="black" stroke-width="0.5"/>
<path d="M1 2.71008H34.03M33.38 3.3501H1.64" stroke="black" stroke-width="0.5"/>
<path d="M34.03 72.55V86.4001M33.38 85.7601V71.91" stroke="black" stroke-width="0.5"/>
<path d="M1.64 85.76H33.38M34.03 86.4H1" stroke="black" stroke-width="0.5"/>
<path d="M158.25 3.3501H156.92M156.28 3.3501H153.72V2.71008H158.25M146.31 2.71008H149.45V3.3501H146.95" stroke="black" stroke-width="0.5"/>
<path d="M178.64 3.3501H175.7V2.71008H179.28M167.6 3.3501H164.11V2.71008H171.42V3.3501H168.25M153.72 2.71008H159.83V3.3501H156.92M156.28 3.3501H153.72M149.45 3.3501H146.95M146.31 3.3501H143.74V2.71008H149.45M125.92 2.71008H131.33V3.3501H128.55M127.9 3.3501H125.92M121.64 3.3501H118.62M117.98 3.3501H114.64V2.71008H121.64M107.42 3.3501H105.12V2.71008H110.37V3.3501H108.07M93.7199 2.71008H100.85V3.3501H98.0399M97.4 3.3501H93.7199M86.3799 3.3501H83.7499V2.71008H89.45M89.45 3.3501H87.02M67.49 3.3501H62.84V2.71008H71.1899V3.3501H68.1299M55.0399 3.3501H52.15V2.71008H58.5699V3.3501H55.68M44.64 3.3501H42.05V2.71008H47.8699V3.3501H45.28M33.71 2.71008H37.77V3.3501H34.03M140.32 3.3501H134.75V2.71008H140.32V3.3501ZM80.33 3.3501H74.61V2.71008H80.33V3.3501Z" stroke="black" stroke-width="0.5"/>
<path d="M179.28 28.3601V34.3701M178.64 34.3701V29.0101M179.28 37.7901V42.3401M178.64 41.7001V37.7901" stroke="black" stroke-width="0.5"/>
<path d="M156.92 3.3501V28.3601M156.28 28.3601V3.3501" stroke="black" stroke-width="0.5"/>
<path d="M146.95 29.0101H143.42V28.3601H146.31" stroke="black" stroke-width="0.5"/>
<path d="M146.95 3.3501V28.3601M146.31 28.3601V3.3501" stroke="black" stroke-width="0.5"/>
<path d="M146.95 28.3601H149.76V29.0101H143.42V28.3601H146.31M156.92 28.3601H158.25M158.25 29.0101H153.18V28.3601H156.28" stroke="black" stroke-width="0.5"/>
<path d="M146.27 41.7001H151.94V42.3401H146.91M178.64 42.3401H155.36V41.7001H178.64" stroke="black" stroke-width="0.5"/>
<path d="M158.25 28.3601H160.47V29.0101H158.25M168.25 28.3601H171.71V29.0101H163.89V28.3601H167.6M178.64 29.0101H175.13V28.3601H178.64" stroke="black" stroke-width="0.5"/>
<path d="M167.6 28.3601V3.3501M168.25 3.3501V28.3601" stroke="black" stroke-width="0.5"/>
<path d="M178.64 41.7001V37.7901H179.28V72.5501M178.64 71.9101V42.3401M179.28 3.3501V34.3701H178.64V29.0101M178.64 28.3601V3.3501" stroke="black" stroke-width="0.5"/>
<path d="M146.27 71.91V41.7001M146.91 42.3401V71.91" stroke="black" stroke-width="0.5"/>
<path d="M127.9 71.91H138.31V72.55H128.55M146.91 71.91H151.14V72.55H142.58V71.91H146.27M178.64 72.55H174.97V71.91H178.64M155.42 71.91H160.6V72.55H155.42V71.91ZM164.88 71.91H170.69V72.55H164.88V71.91Z" stroke="black" stroke-width="0.5"/>
<path d="M179.28 71.91V85.7601M178.64 86.4001V72.55" stroke="black" stroke-width="0.5"/>
<path d="M179.28 2.71008H211.67M211.03 3.3501H179.28" stroke="black" stroke-width="0.5"/>
<path d="M86.14 10.41H68.61M86.14 12.55H68.61M86.14 14.68H68.61M86.14 16.82H68.61M86.14 18.96H68.61M86.14 21.1H68.61M86.14 23.23H68.61M77.37 8.27002V23.94V23.93M86.14 8.27002V23.94H68.61V8.27002H86.14Z" stroke="#6D6D71" stroke-width="0.5"/>
<path d="M146.07 10.5601H128.55M146.07 12.7001H128.55M146.07 14.83H128.55M146.07 16.9701H128.55M146.07 19.11H128.55M146.07 21.2501H128.55M146.07 23.3801H128.55M137.31 8.42004V24.0901V24.08M146.07 8.42004V24.0901H128.55V8.42004H146.07Z" stroke="#6D6D71" stroke-width="0.5"/>
<path d="M37.77 3.3501V2.71008ZM37.77 3.0701V2.99008ZM42.05 2.71008V3.3501ZM42.05 2.99008V3.0701ZM37.77 2.71008H42.05ZM42.05 3.3501H37.77ZM37.77 2.99008H42.05ZM42.05 3.0701H37.77Z" stroke="black" stroke-width="0.5"/>
<path d="M47.87 3.3501V2.71008ZM47.87 3.0701V2.99008ZM52.15 2.71008V3.3501ZM52.15 2.99008V3.0701ZM47.87 2.71008H52.15ZM52.15 3.3501H47.87ZM47.87 2.99008H52.15ZM52.15 3.0701H47.87Z" stroke="black" stroke-width="0.5"/>
<path d="M58.5701 3.3501V2.71008ZM58.5701 3.0701V2.99008ZM62.8401 2.71008V3.3501ZM62.8401 2.99008V3.0701ZM58.5701 2.71008H62.8401ZM62.8401 3.3501H58.5701ZM58.5701 2.99008H62.8401ZM62.8401 3.0701H58.5701Z" stroke="black" stroke-width="0.5"/>
<path d="M89.45 3.3501V2.71008ZM89.45 3.0701V2.99008ZM93.7199 2.71008V3.3501ZM93.7199 2.99008V3.0701ZM89.45 2.71008H93.7199ZM93.7199 3.3501H89.45ZM89.45 2.99008H93.7199ZM93.7199 3.0701H89.45Z" stroke="black" stroke-width="0.5"/>
<path d="M116.27 20.8201L117.98 23.7801H118.62M117.98 20.3601H118.62" stroke="black" stroke-width="0.5"/>
<path d="M121.64 3.3501V2.71008ZM121.64 3.0701V2.99008ZM125.92 2.71008V3.3501ZM125.92 2.99008V3.0701ZM121.64 2.71008H125.92ZM125.92 3.3501H121.64ZM121.64 2.99008H125.92ZM125.92 3.0701H121.64Z" stroke="black" stroke-width="0.5"/>
<path d="M110.37 3.3501V2.71008ZM110.37 3.0701V2.99008ZM114.64 2.71008V3.3501ZM114.64 2.99008V3.0701ZM110.37 2.71008H114.64ZM114.64 3.3501H110.37ZM110.37 2.99008H114.64ZM114.64 3.0701H110.37Z" stroke="black" stroke-width="0.5"/>
<path d="M100.85 3.3501V2.71008ZM100.85 3.0701V2.99008ZM105.12 2.71008V3.3501ZM105.12 2.99008V3.0701ZM100.85 2.71008H105.12ZM105.12 3.3501H100.85ZM100.85 2.99008H105.12ZM105.12 3.0701H100.85Z" stroke="black" stroke-width="0.5"/>
<path d="M105.71 20.8201L107.42 23.7801H108.07M107.42 20.3601H108.07" stroke="black" stroke-width="0.5"/>
<path d="M63.88 40.02L60.92 41.73V42.37M64.3401 41.73V42.37" stroke="black" stroke-width="0.5"/>
<path d="M61.5501 30.7201L64.5101 29.0101V28.3601M61.0901 29.0101V28.3601" stroke="black" stroke-width="0.5"/>
<path d="M88.31 30.7201L91.27 29.0101V28.3601M87.85 29.0101V28.3601" stroke="black" stroke-width="0.5"/>
<path d="M112.19 30.7201L115.16 29.0101V28.3601M111.74 29.0101V28.3601" stroke="black" stroke-width="0.5"/>
<path d="M38.0601 30.7201L41.0201 29.0101V28.3601M37.6001 29.0101V28.3601" stroke="black" stroke-width="0.5"/>
<path d="M53.3301 8.4101L55.0401 11.3801H55.6801M55.0401 7.96008H55.6801" stroke="black" stroke-width="0.5"/>
<path d="M53.3301 21.3801L55.0401 24.3401H55.6801M55.0401 20.92H55.6801" stroke="black" stroke-width="0.5"/>
<path d="M58.6 72.55V71.91ZM58.6 72.2701V72.1901ZM62.87 71.91V72.55ZM62.87 72.1901V72.2701ZM58.6 71.91H62.87ZM62.87 72.55H58.6ZM58.6 72.1901H62.87ZM62.87 72.2701H58.6Z" stroke="black" stroke-width="0.5"/>
<path d="M48.53 72.55V71.91ZM48.53 72.2701V72.1901ZM52.81 71.91V72.55ZM52.81 72.1901V72.2701ZM48.53 71.91H52.81ZM52.81 72.55H48.53ZM48.53 72.1901H52.81ZM52.81 72.2701H48.53Z" stroke="black" stroke-width="0.5"/>
<path d="M37.8 72.55V71.91ZM37.8 72.2701V72.1901ZM42.08 71.91V72.55ZM42.08 72.1901V72.2701ZM37.8 71.91H42.08ZM42.08 72.55H37.8ZM37.8 72.1901H42.08ZM42.08 72.2701H37.8Z" stroke="black" stroke-width="0.5"/>
<path d="M74.64 72.55V71.91ZM74.64 72.2701V72.1901ZM78.91 71.91V72.55ZM78.91 72.1901V72.2701ZM74.64 71.91H78.91ZM78.91 72.55H74.64ZM74.64 72.1901H78.91ZM78.91 72.2701H74.64Z" stroke="black" stroke-width="0.5"/>
<path d="M138.31 72.55V71.91ZM138.31 72.2701V72.1901ZM142.58 71.91V72.55ZM142.58 72.1901V72.2701ZM138.31 71.91H142.58ZM142.58 72.55H138.31ZM138.31 72.1901H142.58ZM142.58 72.2701H138.31Z" stroke="black" stroke-width="0.5"/>
<path d="M31.67 32.87L33.3801 35.83H34.03M33.3801 32.41H34.03" stroke="black" stroke-width="0.5"/>
<path d="M31.67 63.4901L33.3801 66.4601H34.03M33.3801 63.04H34.03" stroke="black" stroke-width="0.5"/>
<path d="M159.83 3.3501V2.71008ZM159.83 3.0701V2.99008ZM164.11 2.71008V3.3501ZM164.11 2.99008V3.0701ZM159.83 2.71008H164.11ZM164.11 3.3501H159.83ZM159.83 2.99008H164.11ZM164.11 3.0701H159.83Z" stroke="black" stroke-width="0.5"/>
<path d="M171.42 3.3501V2.71008ZM171.42 3.0701V2.99008ZM175.7 2.71008V3.3501ZM175.7 2.99008V3.0701ZM171.42 2.71008H175.7ZM175.7 3.3501H171.42ZM171.42 2.99008H175.7ZM175.7 3.0701H171.42Z" stroke="black" stroke-width="0.5"/>
<path d="M149.45 3.3501V2.71008ZM149.45 3.0701V2.99008ZM153.72 2.71008V3.3501ZM153.72 2.99008V3.0701ZM149.45 2.71008H153.72ZM153.72 3.3501H149.45ZM149.45 2.99008H153.72ZM153.72 3.0701H149.45Z" stroke="black" stroke-width="0.5"/>
<path d="M150.22 30.7201L153.18 29.0101V28.3601M149.76 29.0101V28.3601" stroke="black" stroke-width="0.5"/>
<path d="M170.69 72.55V71.91ZM170.69 72.2701V72.1901ZM174.97 71.91V72.55ZM174.97 72.1901V72.2701ZM170.69 71.91H174.97ZM174.97 72.55H170.69ZM170.69 72.1901H174.97ZM174.97 72.2701H170.69Z" stroke="black" stroke-width="0.5"/>
<path d="M160.6 72.55V71.91ZM160.6 72.2701V72.1901ZM164.88 71.91V72.55ZM164.88 72.1901V72.2701ZM160.6 71.91H164.88ZM164.88 72.55H160.6ZM160.6 72.1901H164.88ZM164.88 72.2701H160.6Z" stroke="black" stroke-width="0.5"/>
<path d="M154.9 39.99L151.94 41.7V42.34M155.36 41.7V42.34" stroke="black" stroke-width="0.5"/>
<path d="M176.93 34.8301L178.64 37.7901H179.28M178.64 34.3701H179.28" stroke="black" stroke-width="0.5"/>
<path d="M160.93 30.7201L163.89 29.0101V28.3601M160.47 29.0101V28.3601" stroke="black" stroke-width="0.5"/>
<path d="M172.17 30.7201L175.13 29.0101V28.3601M171.71 29.0101V28.3601" stroke="black" stroke-width="0.5"/>
<path d="M74.15 1L71.1899 2.70999V3.35001M74.61 2.70999V3.35001" stroke="black" stroke-width="0.5"/>
<path d="M83.3001 1L80.3301 2.70999V3.35001M83.7501 2.70999V3.35001" stroke="black" stroke-width="0.5"/>
<path d="M134.29 1L131.33 2.70999V3.35001M134.75 2.70999V3.35001" stroke="black" stroke-width="0.5"/>
<path d="M143.28 1L140.32 2.70999V3.35001M143.74 2.70999V3.35001" stroke="black" stroke-width="0.5"/>
<path d="M151.14 72.55V71.91ZM151.14 72.2701V72.1901ZM155.42 71.91V72.55ZM155.42 72.1901V72.2701ZM151.14 71.91H155.42ZM155.42 72.55H151.14ZM151.14 72.1901H155.42ZM155.42 72.2701H151.14Z" stroke="black" stroke-width="0.5"/>
<path d="M111.892 18H111.179V15.5586H110.347V15.085C110.566 15.0752 110.72 15.0605 110.808 15.041C110.948 15.0101 111.062 14.9482 111.15 14.8555C111.21 14.792 111.256 14.7074 111.287 14.6016C111.305 14.5381 111.313 14.4909 111.313 14.46H111.892V18ZM115.398 16.6938V17.2383H114.998V18H114.316V17.2383H112.915V16.6304L114.216 14.4819H114.998V16.6938H115.398ZM113.43 16.6938H114.316V15.1655L113.43 16.6938Z" fill="black"/>
<path d="M150.892 18H150.179V15.5586H149.347V15.085C149.566 15.0752 149.72 15.0605 149.808 15.041C149.948 15.0101 150.062 14.9482 150.15 14.8555C150.21 14.792 150.256 14.7074 150.287 14.6016C150.305 14.5381 150.313 14.4909 150.313 14.46H150.892V18ZM153.116 16.2422C153.032 16.2422 152.958 16.2528 152.896 16.2739C152.787 16.313 152.705 16.3854 152.65 16.4912L152.025 16.4619L152.274 14.5063H154.225V15.0972H152.777L152.65 15.8711C152.757 15.8011 152.841 15.7547 152.901 15.7319C153.002 15.6945 153.125 15.6758 153.27 15.6758C153.563 15.6758 153.819 15.7743 154.037 15.9712C154.255 16.1681 154.364 16.4546 154.364 16.8306C154.364 17.1577 154.259 17.4499 154.049 17.707C153.839 17.9642 153.525 18.0928 153.106 18.0928C152.77 18.0928 152.493 18.0024 152.276 17.8218C152.06 17.6411 151.939 17.3848 151.915 17.0527H152.608C152.636 17.2041 152.689 17.3213 152.767 17.4043C152.845 17.4857 152.959 17.5264 153.109 17.5264C153.281 17.5264 153.412 17.4661 153.502 17.3457C153.593 17.2236 153.639 17.0706 153.639 16.8867C153.639 16.7061 153.596 16.5539 153.512 16.4302C153.427 16.3049 153.295 16.2422 153.116 16.2422Z" fill="black"/>
<path d="M160.892 18H160.179V15.5586H159.347V15.085C159.566 15.0752 159.72 15.0605 159.808 15.041C159.948 15.0101 160.062 14.9482 160.15 14.8555C160.21 14.792 160.256 14.7074 160.287 14.6016C160.305 14.5381 160.313 14.4909 160.313 14.46H160.892V18ZM163.312 15.7026C163.626 15.7026 163.883 15.8092 164.083 16.0225C164.285 16.2357 164.386 16.5083 164.386 16.8403C164.386 17.1707 164.287 17.4621 164.09 17.7144C163.893 17.9666 163.587 18.0928 163.172 18.0928C162.726 18.0928 162.398 17.9064 162.186 17.5337C162.022 17.2424 161.939 16.8664 161.939 16.4058C161.939 16.1356 161.951 15.9159 161.974 15.7466C162.014 15.4455 162.093 15.1948 162.21 14.9946C162.311 14.8237 162.443 14.6862 162.606 14.582C162.77 14.4779 162.966 14.4258 163.194 14.4258C163.523 14.4258 163.785 14.5104 163.98 14.6797C164.176 14.8473 164.286 15.0711 164.31 15.3511H163.617C163.617 15.2941 163.595 15.2314 163.551 15.1631C163.476 15.0524 163.363 14.9971 163.211 14.9971C162.985 14.9971 162.824 15.124 162.728 15.3779C162.676 15.5179 162.64 15.7246 162.621 15.998C162.707 15.8955 162.807 15.8206 162.921 15.7734C163.035 15.7262 163.165 15.7026 163.312 15.7026ZM162.843 16.3667C162.706 16.4725 162.638 16.6434 162.638 16.8794C162.638 17.0698 162.689 17.2253 162.792 17.3457C162.894 17.4661 163.024 17.5264 163.182 17.5264C163.337 17.5264 163.458 17.4686 163.546 17.353C163.635 17.2358 163.68 17.0845 163.68 16.8989C163.68 16.6922 163.63 16.5343 163.529 16.4253C163.428 16.3146 163.304 16.2593 163.158 16.2593C163.039 16.2593 162.934 16.2951 162.843 16.3667Z" fill="black"/>
<path d="M161.892 58H161.179V55.5586H160.347V55.085C160.566 55.0752 160.72 55.0605 160.808 55.041C160.948 55.0101 161.062 54.9482 161.15 54.8555C161.21 54.792 161.256 54.7074 161.287 54.6016C161.305 54.5381 161.313 54.4909 161.313 54.46H161.892V58ZM164.082 58.1025C163.817 58.1025 163.578 58.0244 163.367 57.8682C163.155 57.7103 163.034 57.4808 163.003 57.1797H163.696C163.713 57.2839 163.757 57.3685 163.828 57.4336C163.9 57.4987 163.995 57.5312 164.114 57.5312C164.343 57.5312 164.504 57.4043 164.597 57.1504C164.648 57.0104 164.679 56.8062 164.692 56.5376C164.629 56.6174 164.561 56.6784 164.49 56.7207C164.36 56.7988 164.199 56.8379 164.009 56.8379C163.727 56.8379 163.477 56.741 163.259 56.5474C163.041 56.3521 162.932 56.0713 162.932 55.7051C162.932 55.3258 163.041 55.019 163.259 54.7847C163.479 54.5487 163.764 54.4307 164.114 54.4307C164.653 54.4307 165.022 54.6691 165.222 55.146C165.336 55.4162 165.393 55.7718 165.393 56.2129C165.393 56.641 165.339 56.9982 165.229 57.2847C165.021 57.8299 164.639 58.1025 164.082 58.1025ZM163.838 55.1118C163.704 55.216 163.638 55.3926 163.638 55.6416C163.638 55.8516 163.68 56.0094 163.765 56.1152C163.851 56.2194 163.983 56.2715 164.16 56.2715C164.256 56.2715 164.347 56.2438 164.431 56.1885C164.589 56.0876 164.668 55.9126 164.668 55.6636C164.668 55.4634 164.621 55.3047 164.526 55.1875C164.434 55.0703 164.306 55.0117 164.143 55.0117C164.024 55.0117 163.923 55.0451 163.838 55.1118Z" fill="black"/>
<path d="M187.062 17V13.1133H187.047L184.777 17H183.559V11.2578H184.711V15.168H184.727L187 11.2578H188.215V17H187.062ZM193.996 16.0078H194.594V18.2305H193.555V17H189.34V11.2578H190.543V16.0078H192.797V11.2578H193.996V16.0078Z" fill="black"/>
<path d="M8.51074 14H7.69531L7.46582 13.2603H6.14014L5.89111 14H5.1001L6.38428 10.4111H7.24121L8.51074 14ZM7.25586 12.6401L6.80908 11.2192H6.79932L6.34033 12.6401H7.25586ZM11.6138 14H10.7129L9.93164 12.877L9.65332 13.1577V14H8.9624V11.3389H9.65332V12.3496L10.6494 11.3389H11.5674L10.4688 12.4448L11.6138 14ZM14.0698 11.3389V11.9004H13.2642V14H12.5757V11.9004H11.77V11.3389H14.0698ZM15.1343 13.9756C14.9666 13.9056 14.8234 13.8079 14.7046 13.6826C14.5874 13.5573 14.4971 13.4084 14.4336 13.2358C14.3717 13.0633 14.3408 12.8745 14.3408 12.6694C14.3408 12.4644 14.3717 12.2756 14.4336 12.103C14.4971 11.9305 14.5874 11.7824 14.7046 11.6587C14.8234 11.5334 14.9666 11.4357 15.1343 11.3657C15.3019 11.2957 15.4907 11.2607 15.7007 11.2607C15.9139 11.2607 16.1043 11.2957 16.272 11.3657C16.4412 11.4357 16.5837 11.5334 16.6992 11.6587C16.8164 11.7824 16.9059 11.9305 16.9678 12.103C17.0296 12.2756 17.0605 12.4644 17.0605 12.6694C17.0605 12.8745 17.0296 13.0633 16.9678 13.2358C16.9059 13.4084 16.8164 13.5573 16.6992 13.6826C16.5837 13.8079 16.4412 13.9056 16.272 13.9756C16.1043 14.0456 15.9139 14.0806 15.7007 14.0806C15.4907 14.0806 15.3019 14.0456 15.1343 13.9756ZM15.0952 12.9673C15.1164 13.0666 15.1522 13.1553 15.2026 13.2334C15.2531 13.3099 15.319 13.3717 15.4004 13.4189C15.4818 13.4661 15.5819 13.4897 15.7007 13.4897C15.8244 13.4897 15.9269 13.467 16.0083 13.4214C16.0913 13.3742 16.1572 13.3132 16.2061 13.2383C16.2549 13.1618 16.2891 13.0747 16.3086 12.9771C16.3298 12.8778 16.3403 12.7752 16.3403 12.6694C16.3403 12.5653 16.3298 12.4635 16.3086 12.3643C16.2891 12.265 16.2549 12.1779 16.2061 12.103C16.1572 12.0265 16.0913 11.9655 16.0083 11.9199C15.9269 11.8727 15.8244 11.8491 15.7007 11.8491C15.5819 11.8491 15.4818 11.8727 15.4004 11.9199C15.319 11.9671 15.2531 12.0298 15.2026 12.1079C15.1522 12.1844 15.1156 12.2723 15.0928 12.3716C15.0716 12.4692 15.061 12.5685 15.061 12.6694C15.061 12.7703 15.0724 12.8696 15.0952 12.9673ZM19.0723 14H17.5806V11.3389H18.9575C19.0796 11.3389 19.1968 11.3494 19.3091 11.3706C19.423 11.3918 19.5231 11.4292 19.6094 11.4829C19.6956 11.535 19.764 11.6066 19.8145 11.6978C19.8665 11.7873 19.8926 11.9012 19.8926 12.0396C19.8926 12.1193 19.8836 12.1885 19.8657 12.2471C19.8494 12.3057 19.8267 12.3561 19.7974 12.3984C19.7681 12.4391 19.7339 12.4741 19.6948 12.5034C19.6574 12.5311 19.6183 12.5547 19.5776 12.5742C19.7111 12.6214 19.8128 12.6971 19.8828 12.8013C19.9528 12.9038 19.9878 13.0267 19.9878 13.1699C19.9878 13.2952 19.9658 13.4092 19.9219 13.5117C19.8796 13.6126 19.8185 13.6997 19.7388 13.7729C19.6606 13.8446 19.5646 13.9007 19.4507 13.9414C19.3384 13.9805 19.2122 14 19.0723 14ZM19.0186 12.8599C18.9583 12.8501 18.8867 12.8452 18.8037 12.8452H18.2715V13.5093H18.8037C18.903 13.5093 18.9827 13.4987 19.043 13.4775C19.1048 13.4564 19.152 13.4295 19.1846 13.397C19.2188 13.3644 19.2407 13.3286 19.2505 13.2896C19.2619 13.2505 19.2676 13.2139 19.2676 13.1797C19.2676 13.1146 19.2586 13.0609 19.2407 13.0186C19.2244 12.9746 19.1976 12.9396 19.1602 12.9136C19.1243 12.8875 19.0771 12.8696 19.0186 12.8599ZM19.1235 12.3105C19.1528 12.2878 19.1732 12.2593 19.1846 12.2251C19.1976 12.1893 19.2041 12.1478 19.2041 12.1006C19.2041 12.0615 19.1976 12.0257 19.1846 11.9932C19.1732 11.959 19.1528 11.9305 19.1235 11.9077C19.0942 11.8833 19.0552 11.8646 19.0063 11.8516C18.9575 11.8369 18.8965 11.8296 18.8232 11.8296H18.2715V12.3838H18.8037C18.8818 12.3838 18.9469 12.3781 18.999 12.3667C19.0511 12.3537 19.0926 12.335 19.1235 12.3105ZM22.3047 12.3154C22.4333 12.3496 22.5423 12.4025 22.6318 12.4741C22.7214 12.5457 22.7897 12.6369 22.8369 12.7476C22.8841 12.8566 22.9077 12.986 22.9077 13.1357C22.9077 13.2708 22.8882 13.3864 22.8491 13.4824C22.8101 13.5785 22.7596 13.659 22.6978 13.7241C22.6375 13.7876 22.57 13.8381 22.4951 13.8755C22.4202 13.9113 22.347 13.939 22.2754 13.9585C22.2038 13.9764 22.137 13.9878 22.0752 13.9927C22.015 13.9976 21.9686 14 21.936 14H20.5444V11.3389H21.2354V12.2642H21.8628C22.0272 12.2642 22.1745 12.2812 22.3047 12.3154ZM23.9038 11.3389V14H23.2129V11.3389H23.9038ZM21.6821 12.7842H21.2354V13.48H21.7407C21.7944 13.48 21.8473 13.4759 21.8994 13.4678C21.9531 13.458 22.0011 13.4409 22.0435 13.4165C22.0874 13.3905 22.1224 13.3555 22.1484 13.3115C22.1745 13.266 22.1875 13.2074 22.1875 13.1357C22.1875 13.0658 22.1737 13.008 22.146 12.9624C22.12 12.9168 22.0833 12.881 22.0361 12.855C21.9906 12.8289 21.9368 12.811 21.875 12.8013C21.8148 12.7899 21.7505 12.7842 21.6821 12.7842ZM25.2539 12.9795H25.2637L26.2329 11.3389H26.958V14H26.2695V12.396H26.2573L25.3174 14H24.563V11.3389H25.2539V12.9795ZM25.437 10.3525C25.4468 10.3932 25.4639 10.429 25.4883 10.46C25.5143 10.4893 25.5485 10.5129 25.5908 10.5308C25.6348 10.547 25.6909 10.5552 25.7593 10.5552C25.826 10.5552 25.8813 10.5487 25.9253 10.5356C25.9709 10.521 26.0067 10.4998 26.0327 10.4722C26.0588 10.4445 26.0767 10.4103 26.0864 10.3696C26.0962 10.3289 26.1003 10.2809 26.0986 10.2256H26.5967C26.5967 10.3542 26.5755 10.464 26.5332 10.5552C26.4909 10.6463 26.4323 10.7212 26.3574 10.7798C26.2842 10.8368 26.1963 10.8791 26.0938 10.9067C25.9912 10.9328 25.8797 10.9458 25.7593 10.9458C25.6372 10.9458 25.5249 10.9328 25.4224 10.9067C25.3198 10.8791 25.2311 10.8368 25.1562 10.7798C25.0814 10.7212 25.0228 10.6463 24.9805 10.5552C24.9398 10.464 24.9194 10.3542 24.9194 10.2256H25.4199C25.4215 10.2712 25.4272 10.3135 25.437 10.3525ZM5.91797 18.3838H6.18408C6.3387 18.3838 6.44775 18.3569 6.51123 18.3032C6.57633 18.2495 6.60889 18.1714 6.60889 18.0688C6.60889 18.0086 6.59912 17.9582 6.57959 17.9175C6.56169 17.8768 6.53564 17.8442 6.50146 17.8198C6.46891 17.7938 6.42985 17.7759 6.38428 17.7661C6.3387 17.7547 6.28906 17.749 6.23535 17.749C6.11328 17.749 6.014 17.7775 5.9375 17.8345C5.86263 17.8898 5.8252 17.9704 5.8252 18.0762H5.17578C5.17741 17.9297 5.20671 17.8052 5.26367 17.7026C5.32227 17.5985 5.4012 17.5138 5.50049 17.4487C5.59977 17.3836 5.71696 17.3364 5.85205 17.3071C5.98714 17.2762 6.13281 17.2607 6.28906 17.2607C6.46484 17.2607 6.61621 17.2819 6.74316 17.3242C6.87012 17.3665 6.9751 17.4227 7.05811 17.4927C7.14111 17.5627 7.20215 17.6432 7.24121 17.7344C7.28027 17.8239 7.2998 17.9159 7.2998 18.0103C7.2998 18.0884 7.28841 18.1584 7.26562 18.2202C7.24284 18.2804 7.21191 18.3333 7.17285 18.3789C7.13379 18.4229 7.08822 18.4595 7.03613 18.4888C6.98568 18.5181 6.93278 18.54 6.87744 18.5547V18.5645C6.97021 18.5791 7.04915 18.6068 7.11426 18.6475C7.17936 18.6865 7.23226 18.7337 7.27295 18.7891C7.31364 18.8444 7.34294 18.9054 7.36084 18.9722C7.38037 19.0373 7.39014 19.1016 7.39014 19.165C7.39014 19.3311 7.35758 19.4718 7.29248 19.5874C7.22738 19.703 7.14193 19.7974 7.03613 19.8706C6.93197 19.9438 6.81396 19.9967 6.68213 20.0293C6.55192 20.0635 6.4209 20.0806 6.28906 20.0806C6.11654 20.0806 5.95785 20.0643 5.81299 20.0317C5.66976 20.0008 5.54606 19.9495 5.44189 19.8779C5.33936 19.8047 5.25879 19.7103 5.2002 19.5947C5.1416 19.4775 5.11149 19.3343 5.10986 19.165H5.76904C5.76904 19.2269 5.78044 19.2839 5.80322 19.3359C5.82601 19.388 5.85775 19.4328 5.89844 19.4702C5.93913 19.5076 5.98796 19.5369 6.04492 19.5581C6.10189 19.5793 6.16536 19.5898 6.23535 19.5898C6.31999 19.5898 6.38997 19.5768 6.44531 19.5508C6.50228 19.5231 6.54704 19.4889 6.57959 19.4482C6.61214 19.4076 6.63493 19.3644 6.64795 19.3188C6.6626 19.2716 6.66992 19.2285 6.66992 19.1895C6.66992 19.0625 6.63493 18.9738 6.56494 18.9233C6.49658 18.8713 6.38672 18.8452 6.23535 18.8452H5.91797V18.3838ZM9.04541 18.3398C9.06982 18.3366 9.09587 18.3317 9.12354 18.3252C9.15283 18.3187 9.17969 18.3081 9.2041 18.2935C9.22852 18.2772 9.24886 18.256 9.26514 18.23C9.28141 18.2023 9.28955 18.1657 9.28955 18.1201C9.28955 18.0762 9.28223 18.0363 9.26758 18.0005C9.25456 17.9631 9.23177 17.9313 9.19922 17.9053C9.16667 17.8776 9.12272 17.8564 9.06738 17.8418C9.01367 17.8271 8.94613 17.8198 8.86475 17.8198C8.77197 17.8198 8.6971 17.8296 8.64014 17.8491C8.5848 17.867 8.54085 17.8931 8.5083 17.9272C8.47575 17.9598 8.45215 17.9989 8.4375 18.0444C8.42285 18.0884 8.41227 18.1356 8.40576 18.186H7.71484C7.71484 18.1535 7.71973 18.1087 7.72949 18.0518C7.74089 17.9932 7.76042 17.9297 7.78809 17.8613C7.81738 17.793 7.85726 17.7238 7.90771 17.6538C7.9598 17.5838 8.02734 17.5203 8.11035 17.4634C8.19499 17.4048 8.29753 17.3568 8.41797 17.3193C8.53841 17.2819 8.68245 17.2624 8.8501 17.2607C9.08773 17.2607 9.27979 17.2852 9.42627 17.334C9.57438 17.3812 9.68913 17.4438 9.77051 17.522C9.85352 17.5985 9.90885 17.6847 9.93652 17.7808C9.96582 17.8752 9.98047 17.9696 9.98047 18.064V19.4751C9.98047 19.5549 9.98454 19.6208 9.99268 19.6729C10.0024 19.7233 10.0146 19.764 10.0293 19.7949C10.0439 19.8242 10.0602 19.8462 10.0781 19.8608C10.0977 19.8739 10.118 19.8836 10.1392 19.8901V20H9.375C9.36198 19.9691 9.34733 19.9284 9.33105 19.8779C9.31641 19.8258 9.30908 19.7632 9.30908 19.6899C9.25537 19.7453 9.20247 19.7965 9.15039 19.8438C9.09993 19.891 9.04297 19.9325 8.97949 19.9683C8.91602 20.0024 8.84277 20.0293 8.75977 20.0488C8.67676 20.07 8.57666 20.0806 8.45947 20.0806C8.34066 20.0806 8.23079 20.0627 8.12988 20.0269C8.0306 19.9927 7.94434 19.9414 7.87109 19.873C7.79785 19.8047 7.74089 19.7192 7.7002 19.6167C7.65951 19.5142 7.63916 19.3953 7.63916 19.2603C7.63916 19.1512 7.65625 19.0503 7.69043 18.9575C7.72461 18.8631 7.77262 18.7809 7.83447 18.7109C7.89795 18.6393 7.97445 18.5807 8.06396 18.5352C8.15511 18.488 8.25684 18.4562 8.36914 18.4399L9.04541 18.3398ZM8.54248 19.5703C8.5848 19.5833 8.63037 19.5898 8.6792 19.5898C8.70524 19.5898 8.73861 19.5874 8.7793 19.5825C8.81999 19.576 8.86312 19.5646 8.90869 19.5483C8.95426 19.5321 8.99984 19.5101 9.04541 19.4824C9.09098 19.4531 9.13167 19.4157 9.16748 19.3701C9.20329 19.3245 9.23258 19.2692 9.25537 19.2041C9.27816 19.1374 9.28955 19.0592 9.28955 18.9697V18.7012C9.24723 18.724 9.20492 18.7451 9.1626 18.7646C9.12028 18.7826 9.06413 18.798 8.99414 18.811L8.81104 18.8452C8.73128 18.8599 8.6613 18.877 8.60107 18.8965C8.54085 18.916 8.4904 18.9421 8.44971 18.9746C8.41064 19.0055 8.38053 19.0438 8.35938 19.0894C8.33984 19.1349 8.33008 19.1919 8.33008 19.2603C8.33008 19.3172 8.33903 19.3669 8.35693 19.4092C8.37484 19.4499 8.39925 19.484 8.43018 19.5117C8.46273 19.5378 8.50016 19.5573 8.54248 19.5703ZM11.6455 17.9004L11.6309 18.396C11.6227 18.6743 11.6048 18.9185 11.5771 19.1284C11.5495 19.3384 11.5039 19.5142 11.4404 19.6558C11.3786 19.7957 11.2939 19.9015 11.1865 19.9731C11.0807 20.0448 10.9448 20.0806 10.7788 20.0806C10.7007 20.0806 10.6323 20.0757 10.5737 20.0659C10.5151 20.0578 10.4671 20.0456 10.4297 20.0293V19.4507C10.4525 19.4604 10.481 19.4694 10.5151 19.4775C10.5509 19.4857 10.5941 19.4897 10.6445 19.4897C10.6966 19.4897 10.743 19.4743 10.7837 19.4434C10.8244 19.4108 10.8594 19.353 10.8887 19.27C10.918 19.1854 10.9408 19.069 10.957 18.9209C10.9733 18.7728 10.9839 18.5815 10.9888 18.3472L11.0083 17.3389H13.1494V20H12.4609V17.9004H11.6455Z" fill="black"/>
<path d="M183.186 19.2056H183.425V20.657H183.43L184.343 19.2056H184.62V21H184.379V19.54H184.375L183.463 21H183.186V19.2056ZM184.971 19.6926H185.196V20.22H185.806V19.6926H186.032V21H185.806V20.4153H185.196V21H184.971V19.6926ZM187.126 20.2322C187.126 20.1703 187.118 20.1158 187.103 20.0686C187.087 20.0206 187.067 19.9803 187.041 19.9478C187.014 19.9152 186.984 19.8904 186.95 19.8733C186.916 19.8562 186.88 19.8477 186.843 19.8477C186.783 19.8477 186.731 19.8607 186.689 19.8867C186.647 19.9128 186.612 19.9486 186.585 19.9941C186.558 20.0389 186.539 20.0914 186.527 20.1516C186.514 20.2118 186.508 20.2761 186.508 20.3445C186.508 20.3811 186.51 20.4194 186.514 20.4592C186.519 20.4991 186.527 20.5382 186.536 20.5764C186.546 20.6147 186.559 20.6509 186.575 20.6851C186.592 20.7192 186.612 20.7493 186.636 20.7754C186.661 20.8014 186.689 20.8222 186.722 20.8376C186.755 20.8523 186.794 20.8596 186.838 20.8596C186.931 20.8596 187.003 20.8267 187.052 20.7607C187.101 20.694 187.126 20.5996 187.126 20.4775V20.2322ZM187.126 20.8425H187.121C187.097 20.884 187.073 20.9178 187.047 20.9438C187.021 20.9691 186.995 20.9886 186.966 21.0024C186.938 21.0171 186.909 21.0269 186.878 21.0317C186.848 21.0374 186.817 21.0403 186.785 21.0403C186.722 21.0403 186.66 21.0252 186.6 20.9951C186.54 20.965 186.486 20.9207 186.439 20.8621C186.392 20.8027 186.355 20.729 186.326 20.6411C186.298 20.5532 186.284 20.4519 186.284 20.3372C186.284 20.281 186.288 20.2253 186.296 20.1699C186.304 20.1138 186.317 20.0605 186.334 20.01C186.351 19.9596 186.372 19.9124 186.398 19.8684C186.425 19.8245 186.457 19.7866 186.494 19.7549C186.531 19.7231 186.574 19.6983 186.622 19.6804C186.67 19.6617 186.724 19.6523 186.783 19.6523C186.828 19.6523 186.868 19.6589 186.904 19.6719C186.94 19.6841 186.971 19.7 186.998 19.7195C187.025 19.739 187.049 19.7602 187.069 19.783C187.089 19.8057 187.106 19.8273 187.121 19.8477H187.126V19.2056H187.351V19.8477H187.355C187.37 19.8273 187.387 19.8057 187.407 19.783C187.427 19.7602 187.451 19.739 187.478 19.7195C187.505 19.7 187.537 19.6841 187.572 19.6719C187.607 19.6589 187.648 19.6523 187.694 19.6523C187.753 19.6523 187.807 19.6617 187.855 19.6804C187.903 19.6983 187.945 19.7231 187.982 19.7549C188.019 19.7866 188.051 19.8245 188.077 19.8684C188.104 19.9124 188.126 19.9596 188.143 20.01C188.16 20.0605 188.173 20.1138 188.181 20.1699C188.189 20.2253 188.193 20.281 188.193 20.3372C188.193 20.4519 188.179 20.5532 188.15 20.6411C188.122 20.729 188.084 20.8027 188.037 20.8621C187.99 20.9207 187.937 20.965 187.877 20.9951C187.816 21.0252 187.755 21.0403 187.691 21.0403C187.659 21.0403 187.628 21.0374 187.597 21.0317C187.567 21.0269 187.538 21.0171 187.509 21.0024C187.482 20.9886 187.455 20.9691 187.429 20.9438C187.403 20.9178 187.378 20.884 187.355 20.8425H187.351V21.5151H187.126V20.8425ZM187.634 20.8596C187.679 20.8596 187.718 20.8523 187.752 20.8376C187.786 20.8222 187.816 20.8014 187.84 20.7754C187.865 20.7493 187.886 20.7192 187.902 20.6851C187.919 20.6509 187.932 20.6147 187.941 20.5764C187.951 20.5382 187.958 20.4991 187.962 20.4592C187.966 20.4194 187.968 20.3811 187.968 20.3445C187.968 20.2761 187.962 20.2118 187.949 20.1516C187.937 20.0914 187.917 20.0389 187.89 19.9941C187.863 19.9486 187.829 19.9128 187.786 19.8867C187.744 19.8607 187.693 19.8477 187.634 19.8477C187.596 19.8477 187.561 19.8562 187.526 19.8733C187.492 19.8904 187.462 19.9152 187.436 19.9478C187.41 19.9803 187.389 20.0206 187.374 20.0686C187.358 20.1158 187.351 20.1703 187.351 20.2322V20.4775C187.351 20.5996 187.375 20.694 187.424 20.7607C187.473 20.8267 187.543 20.8596 187.634 20.8596ZM189.356 20.3445C189.356 20.2721 189.348 20.2057 189.332 20.1455C189.316 20.0845 189.291 20.032 189.259 19.988C189.226 19.9441 189.186 19.9099 189.138 19.8855C189.09 19.8603 189.036 19.8477 188.973 19.8477C188.91 19.8477 188.855 19.8603 188.808 19.8855C188.761 19.9099 188.721 19.9441 188.688 19.988C188.656 20.032 188.632 20.0845 188.615 20.1455C188.599 20.2057 188.591 20.2721 188.591 20.3445C188.591 20.4177 188.599 20.4853 188.615 20.5471C188.632 20.6082 188.656 20.6606 188.688 20.7046C188.721 20.7485 188.761 20.7831 188.808 20.8083C188.855 20.8328 188.91 20.845 188.973 20.845C189.036 20.845 189.09 20.8328 189.138 20.8083C189.186 20.7831 189.226 20.7485 189.259 20.7046C189.291 20.6606 189.316 20.6082 189.332 20.5471C189.348 20.4853 189.356 20.4177 189.356 20.3445ZM189.581 20.3445C189.581 20.4519 189.567 20.5487 189.539 20.635C189.512 20.7205 189.472 20.7933 189.42 20.8535C189.368 20.9137 189.304 20.9601 189.228 20.9927C189.153 21.0244 189.068 21.0403 188.973 21.0403C188.878 21.0403 188.793 21.0244 188.718 20.9927C188.643 20.9601 188.579 20.9137 188.527 20.8535C188.475 20.7933 188.435 20.7205 188.408 20.635C188.38 20.5487 188.366 20.4519 188.366 20.3445C188.366 20.2387 188.38 20.1431 188.408 20.0576C188.435 19.9722 188.475 19.8993 188.527 19.8391C188.579 19.7789 188.643 19.7329 188.718 19.7012C188.793 19.6686 188.878 19.6523 188.973 19.6523C189.068 19.6523 189.153 19.6686 189.228 19.7012C189.304 19.7329 189.368 19.7789 189.42 19.8391C189.472 19.8993 189.512 19.9722 189.539 20.0576C189.567 20.1431 189.581 20.2387 189.581 20.3445ZM189.823 19.6926H190.047V19.8721H190.052C190.067 19.842 190.085 19.8135 190.107 19.7866C190.13 19.7598 190.157 19.7366 190.188 19.717C190.219 19.6967 190.255 19.6808 190.296 19.6694C190.338 19.658 190.385 19.6523 190.438 19.6523C190.508 19.6523 190.575 19.6658 190.639 19.6926C190.703 19.7195 190.76 19.7598 190.81 19.8135C190.86 19.8672 190.899 19.9347 190.928 20.0161C190.958 20.0967 190.972 20.1907 190.972 20.2981C190.972 20.4324 190.959 20.5467 190.931 20.6411C190.904 20.7347 190.865 20.8112 190.815 20.8706C190.765 20.93 190.705 20.9731 190.634 21C190.563 21.0269 190.485 21.0403 190.397 21.0403C190.354 21.0403 190.314 21.0346 190.277 21.0232C190.239 21.0118 190.205 20.9972 190.175 20.9792C190.146 20.9605 190.121 20.9402 190.1 20.9182C190.078 20.8954 190.063 20.8735 190.052 20.8523H190.047V21.5151H189.823V19.6926ZM190.042 20.353C190.042 20.4238 190.049 20.4893 190.063 20.5496C190.077 20.609 190.098 20.6606 190.126 20.7046C190.156 20.7485 190.192 20.7831 190.235 20.8083C190.279 20.8328 190.331 20.845 190.39 20.845C190.452 20.845 190.505 20.8328 190.55 20.8083C190.596 20.7831 190.633 20.7485 190.662 20.7046C190.692 20.6606 190.713 20.609 190.727 20.5496C190.741 20.4893 190.748 20.4238 190.748 20.353C190.748 20.279 190.741 20.211 190.727 20.1492C190.713 20.0873 190.692 20.034 190.662 19.9893C190.633 19.9445 190.596 19.9099 190.55 19.8855C190.505 19.8603 190.452 19.8477 190.39 19.8477C190.331 19.8477 190.279 19.8603 190.235 19.8855C190.192 19.9099 190.156 19.9445 190.126 19.9893C190.098 20.034 190.077 20.0873 190.063 20.1492C190.049 20.211 190.042 20.279 190.042 20.353ZM191.226 19.6926H191.553L191.899 20.7644H191.904L192.254 19.6926H192.562V21H192.352V19.9478H192.347L192.001 21H191.787L191.441 19.9478H191.436V21H191.226V19.6926ZM192.889 20.0845C192.891 20.0047 192.906 19.9376 192.934 19.8831C192.962 19.8277 192.999 19.783 193.046 19.7488C193.094 19.7146 193.149 19.6902 193.214 19.6755C193.279 19.6601 193.35 19.6523 193.426 19.6523C193.49 19.6523 193.551 19.6589 193.61 19.6719C193.671 19.6849 193.724 19.7061 193.77 19.7354C193.817 19.7638 193.854 19.8013 193.881 19.8477C193.91 19.8932 193.924 19.949 193.924 20.0149V20.7754C193.924 20.7965 193.93 20.8149 193.941 20.8303C193.953 20.845 193.971 20.8523 193.996 20.8523C194.007 20.8523 194.019 20.8515 194.031 20.8499C194.044 20.8474 194.056 20.845 194.069 20.8425V20.9976C194.051 21.0024 194.032 21.0069 194.013 21.011C193.995 21.0151 193.974 21.0171 193.948 21.0171C193.909 21.0171 193.876 21.0138 193.847 21.0073C193.819 21.0008 193.796 20.9902 193.776 20.9756C193.758 20.9601 193.743 20.9406 193.732 20.917C193.722 20.8926 193.715 20.8629 193.712 20.8279C193.684 20.858 193.655 20.8861 193.624 20.9121C193.593 20.9373 193.558 20.9597 193.52 20.9792C193.482 20.998 193.439 21.0126 193.392 21.0232C193.345 21.0346 193.291 21.0403 193.232 21.0403C193.181 21.0403 193.132 21.0321 193.084 21.0159C193.037 20.9996 192.994 20.9756 192.956 20.9438C192.919 20.9121 192.889 20.873 192.866 20.8267C192.843 20.7795 192.832 20.7249 192.832 20.6631C192.832 20.5955 192.843 20.5374 192.866 20.4885C192.889 20.4389 192.918 20.3978 192.955 20.3652C192.991 20.3319 193.033 20.3062 193.081 20.2883C193.128 20.2704 193.176 20.2586 193.225 20.2529L193.592 20.2078C193.627 20.2037 193.654 20.1903 193.674 20.1675C193.694 20.1439 193.704 20.1064 193.704 20.0552C193.704 19.9762 193.678 19.9197 193.626 19.8855C193.575 19.8505 193.501 19.833 193.404 19.833C193.305 19.833 193.231 19.8542 193.182 19.8965C193.133 19.938 193.105 20.0007 193.099 20.0845H192.889ZM193.699 20.3347C193.682 20.3477 193.659 20.3587 193.632 20.3677C193.606 20.3758 193.577 20.3827 193.546 20.3884C193.514 20.3941 193.48 20.3994 193.444 20.4043C193.409 20.4084 193.373 20.4128 193.337 20.4177C193.296 20.4234 193.259 20.4316 193.225 20.4421C193.19 20.4527 193.161 20.4666 193.135 20.4836C193.11 20.5007 193.091 20.5215 193.077 20.5459C193.063 20.5695 193.056 20.5976 193.056 20.6301C193.056 20.6676 193.062 20.7005 193.073 20.729C193.085 20.7575 193.102 20.7815 193.122 20.801C193.143 20.8206 193.168 20.8352 193.198 20.845C193.227 20.8547 193.259 20.8596 193.294 20.8596C193.316 20.8596 193.341 20.8572 193.37 20.8523C193.398 20.8466 193.428 20.8385 193.458 20.8279C193.488 20.8173 193.517 20.8039 193.546 20.7876C193.575 20.7705 193.601 20.7502 193.624 20.7266C193.647 20.703 193.665 20.6761 193.679 20.646C193.693 20.6159 193.699 20.5821 193.699 20.5447V20.3347ZM194.283 19.6926H194.508V20.8047H195.118V19.6926H195.344V20.8047H195.505V21.3198H195.295V21H194.283V19.6926ZM195.711 19.6926H195.936V20.6948H195.941L196.583 19.6926H196.84V21H196.615V19.9978H196.61L195.969 21H195.711V19.6926ZM198.084 20.3445C198.084 20.2721 198.076 20.2057 198.06 20.1455C198.044 20.0845 198.019 20.032 197.987 19.988C197.954 19.9441 197.914 19.9099 197.866 19.8855C197.819 19.8603 197.764 19.8477 197.701 19.8477C197.638 19.8477 197.583 19.8603 197.536 19.8855C197.489 19.9099 197.449 19.9441 197.417 19.988C197.384 20.032 197.36 20.0845 197.343 20.1455C197.327 20.2057 197.319 20.2721 197.319 20.3445C197.319 20.4177 197.327 20.4853 197.343 20.5471C197.36 20.6082 197.384 20.6606 197.417 20.7046C197.449 20.7485 197.489 20.7831 197.536 20.8083C197.583 20.8328 197.638 20.845 197.701 20.845C197.764 20.845 197.819 20.8328 197.866 20.8083C197.914 20.7831 197.954 20.7485 197.987 20.7046C198.019 20.6606 198.044 20.6082 198.06 20.5471C198.076 20.4853 198.084 20.4177 198.084 20.3445ZM198.309 20.3445C198.309 20.4519 198.295 20.5487 198.267 20.635C198.24 20.7205 198.2 20.7933 198.148 20.8535C198.096 20.9137 198.032 20.9601 197.956 20.9927C197.881 21.0244 197.796 21.0403 197.701 21.0403C197.606 21.0403 197.521 21.0244 197.446 20.9927C197.371 20.9601 197.307 20.9137 197.255 20.8535C197.203 20.7933 197.163 20.7205 197.136 20.635C197.108 20.5487 197.094 20.4519 197.094 20.3445C197.094 20.2387 197.108 20.1431 197.136 20.0576C197.163 19.9722 197.203 19.8993 197.255 19.8391C197.307 19.7789 197.371 19.7329 197.446 19.7012C197.521 19.6686 197.606 19.6523 197.701 19.6523C197.796 19.6523 197.881 19.6686 197.956 19.7012C198.032 19.7329 198.096 19.7789 198.148 19.8391C198.2 19.8993 198.24 19.9722 198.267 20.0576C198.295 20.1431 198.309 20.2387 198.309 20.3445ZM198.563 19.6926H198.787V20.22H199.398V19.6926H199.624V21H199.398V20.4153H198.787V21H198.563V19.6926ZM199.954 19.6926H200.179V20.22H200.789V19.6926H201.015V21H200.789V20.4153H200.179V21H199.954V19.6926ZM202.596 19.6926H202.821V21H202.596V19.6926ZM201.346 19.6926H201.571V20.1846H201.964C202.034 20.1846 202.098 20.1943 202.154 20.2139C202.211 20.2326 202.259 20.2598 202.298 20.2957C202.337 20.3306 202.367 20.3734 202.387 20.4238C202.408 20.4735 202.419 20.5296 202.419 20.5923C202.419 20.6558 202.408 20.7127 202.387 20.7632C202.367 20.8128 202.337 20.8556 202.298 20.8914C202.259 20.9264 202.211 20.9532 202.154 20.9719C202.098 20.9906 202.034 21 201.964 21H201.346V19.6926ZM201.571 20.8206H201.918C201.958 20.8206 201.994 20.8165 202.027 20.8083C202.061 20.8002 202.091 20.7872 202.115 20.7693C202.139 20.7506 202.159 20.727 202.172 20.6985C202.186 20.6692 202.193 20.6338 202.193 20.5923C202.193 20.5516 202.186 20.517 202.171 20.4885C202.157 20.46 202.137 20.4368 202.111 20.4189C202.086 20.4002 202.055 20.3868 202.019 20.3787C201.983 20.3697 201.943 20.3652 201.899 20.3652H201.571V20.8206ZM203.505 19.1848C203.516 19.2369 203.538 19.2784 203.571 19.3093C203.605 19.3394 203.654 19.3545 203.719 19.3545C203.785 19.3545 203.835 19.3398 203.868 19.3105C203.901 19.2804 203.923 19.2385 203.933 19.1848H204.141C204.141 19.2336 204.13 19.278 204.11 19.3179C204.089 19.3569 204.06 19.3903 204.023 19.418C203.986 19.4456 203.942 19.4672 203.89 19.4827C203.839 19.4973 203.782 19.5046 203.719 19.5046C203.656 19.5046 203.599 19.4973 203.548 19.4827C203.497 19.468 203.453 19.4469 203.416 19.4192C203.38 19.3915 203.351 19.3582 203.33 19.3191C203.309 19.2792 203.299 19.2345 203.298 19.1848H203.505ZM203.153 19.6926H203.377V20.6948H203.382L204.024 19.6926H204.282V21H204.056V19.9978H204.051L203.41 21H203.153V19.6926ZM183.165 22.6926H183.389V23.8047H184V22.6926H184.226V23.8047H184.387V24.3198H184.177V24H183.165V22.6926ZM185.706 23.5825C185.697 23.6395 185.678 23.6952 185.648 23.7498C185.618 23.8043 185.578 23.8531 185.529 23.8962C185.48 23.9394 185.423 23.974 185.356 24C185.29 24.0269 185.217 24.0403 185.136 24.0403C185.048 24.0403 184.967 24.026 184.892 23.9976C184.818 23.9683 184.754 23.9247 184.699 23.8669C184.646 23.8083 184.603 23.7351 184.572 23.6472C184.541 23.5593 184.526 23.456 184.526 23.3372C184.526 23.2574 184.534 23.1854 184.552 23.1211C184.569 23.056 184.593 22.9982 184.622 22.9478C184.652 22.8965 184.687 22.8525 184.726 22.8159C184.765 22.7785 184.806 22.748 184.849 22.7244C184.893 22.7 184.938 22.682 184.984 22.6707C185.029 22.6584 185.073 22.6523 185.115 22.6523C185.205 22.6523 185.287 22.6658 185.361 22.6926C185.435 22.7195 185.498 22.7606 185.551 22.8159C185.605 22.8704 185.646 22.9392 185.676 23.0222C185.706 23.1044 185.721 23.2013 185.721 23.3127V23.425H184.765C184.766 23.4885 184.775 23.5463 184.792 23.5984C184.809 23.6497 184.833 23.6936 184.865 23.7302C184.897 23.7668 184.935 23.7953 184.98 23.8157C185.026 23.8352 185.077 23.845 185.134 23.845C185.192 23.845 185.24 23.8368 185.28 23.8206C185.32 23.8043 185.354 23.7835 185.38 23.7583C185.407 23.7331 185.429 23.705 185.445 23.6741C185.462 23.6431 185.476 23.6126 185.488 23.5825H185.706ZM185.495 23.2456C185.493 23.1821 185.484 23.1256 185.466 23.0759C185.449 23.0263 185.424 22.9848 185.393 22.9514C185.362 22.9172 185.324 22.8916 185.28 22.8745C185.236 22.8566 185.188 22.8477 185.134 22.8477C185.083 22.8477 185.035 22.8578 184.992 22.8782C184.949 22.8977 184.911 22.9254 184.879 22.9612C184.846 22.9962 184.82 23.0381 184.801 23.0869C184.781 23.1349 184.769 23.1878 184.765 23.2456H185.495ZM185.985 22.6926H186.209V23.22H186.82V22.6926H187.045V24H186.82V23.4153H186.209V24H185.985V22.6926ZM187.724 22.8879H187.274V22.6926H188.399V22.8879H187.949V24H187.724V22.8879ZM188.614 22.6926H188.839V22.8721H188.844C188.858 22.842 188.876 22.8135 188.898 22.7866C188.921 22.7598 188.948 22.7366 188.979 22.717C189.011 22.6967 189.047 22.6808 189.088 22.6694C189.129 22.658 189.176 22.6523 189.229 22.6523C189.299 22.6523 189.366 22.6658 189.431 22.6926C189.495 22.7195 189.552 22.7598 189.602 22.8135C189.651 22.8672 189.691 22.9347 189.72 23.0161C189.749 23.0967 189.764 23.1907 189.764 23.2981C189.764 23.4324 189.75 23.5467 189.722 23.6411C189.696 23.7347 189.657 23.8112 189.606 23.8706C189.557 23.93 189.497 23.9731 189.426 24C189.355 24.0269 189.276 24.0403 189.189 24.0403C189.146 24.0403 189.106 24.0346 189.068 24.0232C189.031 24.0118 188.997 23.9972 188.967 23.9792C188.938 23.9605 188.912 23.9402 188.891 23.9182C188.87 23.8954 188.854 23.8735 188.844 23.8523H188.839V24.5151H188.614V22.6926ZM188.834 23.353C188.834 23.4238 188.841 23.4893 188.854 23.5496C188.868 23.609 188.889 23.6606 188.918 23.7046C188.947 23.7485 188.983 23.7831 189.027 23.8083C189.071 23.8328 189.122 23.845 189.182 23.845C189.243 23.845 189.297 23.8328 189.342 23.8083C189.387 23.7831 189.425 23.7485 189.454 23.7046C189.483 23.6606 189.505 23.609 189.519 23.5496C189.532 23.4893 189.539 23.4238 189.539 23.353C189.539 23.279 189.532 23.211 189.519 23.1492C189.505 23.0873 189.483 23.034 189.454 22.9893C189.425 22.9445 189.387 22.9099 189.342 22.8855C189.297 22.8603 189.243 22.8477 189.182 22.8477C189.122 22.8477 189.071 22.8603 189.027 22.8855C188.983 22.9099 188.947 22.9445 188.918 22.9893C188.889 23.034 188.868 23.0873 188.854 23.1492C188.841 23.211 188.834 23.279 188.834 23.353Z" fill="black"/>
<path d="M157.148 59.5645H158.131V59.7324H157.34V60.1562H157.74C157.824 60.1562 157.897 60.166 157.959 60.1855C158.021 60.2051 158.072 60.2331 158.113 60.2695C158.154 60.306 158.185 60.3503 158.204 60.4023C158.224 60.4544 158.234 60.513 158.234 60.5781C158.234 60.6419 158.224 60.6999 158.204 60.752C158.184 60.8034 158.154 60.8477 158.115 60.8848C158.077 60.9212 158.029 60.9495 157.973 60.9697C157.917 60.9899 157.853 61 157.78 61H157.148V59.5645ZM157.34 60.832H157.755C157.794 60.832 157.83 60.8278 157.863 60.8193C157.897 60.8109 157.926 60.7969 157.951 60.7773C157.976 60.7572 157.995 60.7311 158.009 60.6992C158.023 60.6667 158.03 60.6263 158.03 60.5781C158.03 60.5306 158.023 60.4906 158.008 60.458C157.993 60.4255 157.973 60.3994 157.945 60.3799C157.918 60.3597 157.885 60.3454 157.846 60.3369C157.807 60.3285 157.762 60.3242 157.713 60.3242H157.34V60.832ZM158.456 59.9541H158.636V60.7559H158.64L159.153 59.9541H159.359V61H159.179V60.1982H159.175L158.662 61H158.456V59.9541ZM160.437 59.5518C160.435 59.5615 160.433 59.5736 160.431 59.5879C160.429 59.6016 160.424 59.6162 160.418 59.6318C160.411 59.6475 160.402 59.6634 160.391 59.6797C160.38 59.6953 160.365 59.71 160.346 59.7236C160.335 59.7308 160.326 59.737 160.317 59.7422C160.309 59.7474 160.298 59.752 160.285 59.7559C160.272 59.7598 160.256 59.763 160.235 59.7656C160.215 59.7682 160.188 59.7699 160.154 59.7705L160.08 59.7725C160.029 59.7738 159.983 59.7842 159.942 59.8037C159.902 59.8226 159.866 59.8493 159.835 59.8838C159.804 59.9176 159.779 59.9587 159.759 60.0068C159.739 60.055 159.724 60.1087 159.714 60.168C159.728 60.1419 159.744 60.1165 159.765 60.0918C159.785 60.0664 159.81 60.0439 159.84 60.0244C159.87 60.0042 159.905 59.9883 159.945 59.9766C159.986 59.9642 160.033 59.958 160.086 59.958C160.146 59.958 160.204 59.9688 160.258 59.9902C160.312 60.0117 160.36 60.0439 160.4 60.0869C160.441 60.1299 160.474 60.1833 160.498 60.2471C160.522 60.3109 160.534 60.3851 160.534 60.4697C160.534 60.4964 160.532 60.529 160.528 60.5674C160.524 60.6051 160.517 60.6449 160.505 60.6865C160.493 60.7282 160.476 60.7699 160.454 60.8115C160.433 60.8525 160.404 60.8893 160.367 60.9219C160.331 60.9544 160.287 60.9808 160.235 61.001C160.184 61.0218 160.122 61.0322 160.05 61.0322C160.02 61.0322 159.988 61.0296 159.954 61.0244C159.921 61.0199 159.887 61.0111 159.854 60.998C159.82 60.985 159.788 60.9668 159.756 60.9434C159.725 60.9199 159.696 60.89 159.67 60.8535C159.657 60.8353 159.644 60.8145 159.631 60.791C159.618 60.7669 159.607 60.738 159.597 60.7041C159.586 60.6702 159.578 60.6302 159.571 60.584C159.565 60.5378 159.562 60.4831 159.562 60.4199C159.562 60.3783 159.564 60.3311 159.568 60.2783C159.572 60.2256 159.579 60.1719 159.589 60.1172C159.599 60.0625 159.612 60.0098 159.628 59.959C159.644 59.9076 159.665 59.8626 159.69 59.8242C159.718 59.7826 159.746 59.7487 159.776 59.7227C159.806 59.6966 159.838 59.6761 159.872 59.6611C159.906 59.6462 159.942 59.6354 159.981 59.6289C160.021 59.6224 160.063 59.6182 160.108 59.6162L160.172 59.6143C160.193 59.6136 160.21 59.6126 160.225 59.6113C160.24 59.6094 160.252 59.6064 160.262 59.6025C160.271 59.5986 160.279 59.5928 160.285 59.585C160.291 59.5771 160.296 59.5661 160.3 59.5518H160.437ZM159.742 60.4961C159.742 60.5156 159.743 60.5387 159.745 60.5654C159.748 60.5921 159.753 60.6201 159.76 60.6494C159.767 60.6781 159.777 60.7067 159.791 60.7354C159.805 60.764 159.823 60.7897 159.845 60.8125C159.868 60.8346 159.896 60.8529 159.929 60.8672C159.962 60.8809 160.002 60.8877 160.048 60.8877C160.099 60.8877 160.143 60.8796 160.178 60.8633C160.213 60.8464 160.242 60.8249 160.265 60.7988C160.287 60.7721 160.305 60.7428 160.316 60.7109C160.329 60.679 160.338 60.6481 160.343 60.6182C160.349 60.5876 160.352 60.5599 160.353 60.5352C160.354 60.5098 160.354 60.4906 160.354 60.4775C160.354 60.43 160.349 60.3835 160.338 60.3379C160.327 60.2923 160.31 60.252 160.286 60.2168C160.263 60.1816 160.232 60.1533 160.193 60.1318C160.156 60.1104 160.109 60.0996 160.054 60.0996C160 60.0996 159.953 60.1104 159.914 60.1318C159.875 60.1527 159.843 60.1813 159.817 60.2178C159.792 60.2536 159.773 60.2956 159.761 60.3438C159.748 60.3913 159.742 60.4421 159.742 60.4961ZM161.441 60.1104H161.041L161.033 60.3613C161.029 60.4883 161.02 60.5944 161.004 60.6797C160.988 60.7643 160.967 60.8324 160.939 60.8838C160.913 60.9352 160.88 60.9717 160.842 60.9932C160.803 61.0146 160.759 61.0254 160.71 61.0254C160.692 61.0254 160.676 61.0225 160.662 61.0166C160.649 61.0114 160.639 61.0059 160.632 61V60.8418C160.657 60.8516 160.68 60.8564 160.699 60.8564C160.713 60.8564 160.726 60.8542 160.738 60.8496C160.751 60.8451 160.763 60.8363 160.774 60.8232C160.786 60.8102 160.797 60.792 160.807 60.7686C160.816 60.7445 160.825 60.7132 160.832 60.6748C160.84 60.6364 160.846 60.5898 160.851 60.5352C160.856 60.4805 160.859 60.4154 160.861 60.3398L160.87 59.9541H161.621V61H161.441V60.1104ZM161.886 59.9541H162.065V60.7559H162.069L162.583 59.9541H162.789V61H162.608V60.1982H162.604L162.092 61H161.886V59.9541ZM163.784 60.4756C163.784 60.4176 163.778 60.3646 163.765 60.3164C163.752 60.2676 163.732 60.2256 163.706 60.1904C163.68 60.1553 163.648 60.1279 163.609 60.1084C163.572 60.0882 163.528 60.0781 163.478 60.0781C163.427 60.0781 163.383 60.0882 163.346 60.1084C163.308 60.1279 163.276 60.1553 163.25 60.1904C163.224 60.2256 163.204 60.2676 163.191 60.3164C163.178 60.3646 163.172 60.4176 163.172 60.4756C163.172 60.5342 163.178 60.5882 163.191 60.6377C163.204 60.6865 163.224 60.7285 163.25 60.7637C163.276 60.7988 163.308 60.8265 163.346 60.8467C163.383 60.8662 163.427 60.876 163.478 60.876C163.528 60.876 163.572 60.8662 163.609 60.8467C163.648 60.8265 163.68 60.7988 163.706 60.7637C163.732 60.7285 163.752 60.6865 163.765 60.6377C163.778 60.5882 163.784 60.5342 163.784 60.4756ZM163.964 60.4756C163.964 60.5615 163.953 60.639 163.931 60.708C163.909 60.7764 163.877 60.8346 163.835 60.8828C163.793 60.931 163.742 60.9681 163.682 60.9941C163.622 61.0195 163.554 61.0322 163.478 61.0322C163.401 61.0322 163.333 61.0195 163.273 60.9941C163.214 60.9681 163.163 60.931 163.121 60.8828C163.079 60.8346 163.048 60.7764 163.025 60.708C163.003 60.639 162.992 60.5615 162.992 60.4756C162.992 60.391 163.003 60.3145 163.025 60.2461C163.048 60.1777 163.079 60.1195 163.121 60.0713C163.163 60.0231 163.214 59.9863 163.273 59.9609C163.333 59.9349 163.401 59.9219 163.478 59.9219C163.554 59.9219 163.622 59.9349 163.682 59.9609C163.742 59.9863 163.793 60.0231 163.835 60.0713C163.877 60.1195 163.909 60.1777 163.931 60.2461C163.953 60.3145 163.964 60.391 163.964 60.4756ZM164.445 60.1104H164.085V59.9541H164.985V60.1104H164.625V61H164.445V60.1104ZM166.058 60.666C166.05 60.7116 166.035 60.7562 166.011 60.7998C165.987 60.8434 165.955 60.8825 165.916 60.917C165.877 60.9515 165.831 60.9792 165.777 61C165.725 61.0215 165.666 61.0322 165.602 61.0322C165.531 61.0322 165.466 61.0208 165.406 60.998C165.347 60.9746 165.296 60.9398 165.252 60.8936C165.209 60.8467 165.175 60.7881 165.15 60.7178C165.126 60.6475 165.113 60.5648 165.113 60.4697C165.113 60.4059 165.12 60.3483 165.134 60.2969C165.148 60.2448 165.167 60.1986 165.19 60.1582C165.215 60.1172 165.242 60.082 165.273 60.0527C165.305 60.0228 165.338 59.9984 165.372 59.9795C165.407 59.96 165.443 59.9456 165.479 59.9365C165.516 59.9268 165.551 59.9219 165.585 59.9219C165.657 59.9219 165.722 59.9326 165.781 59.9541C165.84 59.9756 165.891 60.0085 165.934 60.0527C165.977 60.0964 166.01 60.1514 166.033 60.2178C166.057 60.2835 166.069 60.361 166.069 60.4502V60.54H165.305C165.305 60.5908 165.312 60.637 165.326 60.6787C165.34 60.7197 165.359 60.7549 165.385 60.7842C165.41 60.8135 165.441 60.8363 165.477 60.8525C165.513 60.8682 165.554 60.876 165.6 60.876C165.646 60.876 165.685 60.8695 165.717 60.8564C165.749 60.8434 165.775 60.8268 165.797 60.8066C165.818 60.7865 165.836 60.764 165.849 60.7393C165.862 60.7145 165.874 60.6901 165.883 60.666H166.058ZM165.889 60.3965C165.887 60.3457 165.88 60.3005 165.865 60.2607C165.852 60.221 165.832 60.1878 165.807 60.1611C165.782 60.1338 165.752 60.1133 165.717 60.0996C165.682 60.0853 165.643 60.0781 165.6 60.0781C165.559 60.0781 165.521 60.0863 165.486 60.1025C165.452 60.1182 165.422 60.1403 165.396 60.1689C165.369 60.1969 165.349 60.2305 165.333 60.2695C165.317 60.3079 165.308 60.3503 165.305 60.3965H165.889ZM166.28 59.9541H166.46V60.46L166.988 59.9541H167.224L166.732 60.416L167.231 61H167L166.592 60.5254L166.46 60.6357V61H166.28V59.9541ZM167.374 60.2676C167.376 60.2038 167.388 60.1501 167.41 60.1064C167.432 60.0622 167.462 60.0264 167.5 59.999C167.538 59.9717 167.582 59.9521 167.634 59.9404C167.686 59.9281 167.743 59.9219 167.804 59.9219C167.854 59.9219 167.904 59.9271 167.951 59.9375C167.999 59.9479 168.042 59.9648 168.079 59.9883C168.116 60.0111 168.146 60.041 168.168 60.0781C168.191 60.1146 168.202 60.1592 168.202 60.2119V60.8203C168.202 60.8372 168.207 60.8519 168.216 60.8643C168.225 60.876 168.24 60.8818 168.26 60.8818C168.269 60.8818 168.278 60.8812 168.288 60.8799C168.298 60.8779 168.308 60.876 168.318 60.874V60.998C168.303 61.002 168.288 61.0055 168.273 61.0088C168.259 61.012 168.242 61.0137 168.222 61.0137C168.19 61.0137 168.163 61.0111 168.141 61.0059C168.118 61.0007 168.1 60.9922 168.084 60.9805C168.069 60.9681 168.057 60.9525 168.049 60.9336C168.04 60.9141 168.035 60.8903 168.032 60.8623C168.01 60.8864 167.987 60.9089 167.962 60.9297C167.937 60.9499 167.91 60.9678 167.879 60.9834C167.848 60.9984 167.814 61.0101 167.776 61.0186C167.739 61.0277 167.696 61.0322 167.648 61.0322C167.608 61.0322 167.569 61.0257 167.53 61.0127C167.493 60.9997 167.458 60.9805 167.428 60.9551C167.398 60.9297 167.374 60.8984 167.355 60.8613C167.337 60.8236 167.328 60.7799 167.328 60.7305C167.328 60.6764 167.337 60.6299 167.355 60.5908C167.374 60.5511 167.397 60.5182 167.427 60.4922C167.456 60.4655 167.49 60.445 167.527 60.4307C167.565 60.4163 167.604 60.4069 167.643 60.4023L167.937 60.3662C167.965 60.363 167.986 60.3522 168.002 60.334C168.018 60.3151 168.026 60.2852 168.026 60.2441C168.026 60.181 168.006 60.1357 167.964 60.1084C167.923 60.0804 167.864 60.0664 167.786 60.0664C167.707 60.0664 167.647 60.0833 167.608 60.1172C167.569 60.1504 167.547 60.2005 167.542 60.2676H167.374ZM168.022 60.4678C168.008 60.4782 167.99 60.487 167.969 60.4941C167.948 60.5007 167.925 60.5062 167.899 60.5107C167.874 60.5153 167.847 60.5195 167.818 60.5234C167.79 60.5267 167.761 60.5303 167.732 60.5342C167.7 60.5387 167.67 60.5452 167.643 60.5537C167.615 60.5622 167.591 60.5732 167.571 60.5869C167.551 60.6006 167.535 60.6172 167.524 60.6367C167.513 60.6556 167.508 60.6781 167.508 60.7041C167.508 60.734 167.512 60.7604 167.521 60.7832C167.531 60.806 167.544 60.8252 167.561 60.8408C167.577 60.8564 167.598 60.8682 167.621 60.876C167.645 60.8838 167.67 60.8877 167.698 60.8877C167.716 60.8877 167.736 60.8857 167.759 60.8818C167.782 60.8773 167.805 60.8708 167.829 60.8623C167.853 60.8538 167.877 60.8431 167.899 60.8301C167.923 60.8164 167.944 60.8001 167.962 60.7812C167.98 60.7624 167.995 60.7409 168.006 60.7168C168.017 60.6927 168.022 60.6657 168.022 60.6357V60.4678Z" fill="black"/>
</svg>
