<svg width="165" height="82" viewBox="0 0 165 82" fill="none" xmlns="http://www.w3.org/2000/svg">
<path d="M2.28442 4.41167L27.9081 4.40425" stroke="#FF00FF" stroke-width="0.5"/>
<path d="M56.487 4.41167H54.653V3.12859H164.573M163.288 4.41167H84.0635M82.7864 4.41167H70.5945M69.3174 4.41167H57.7715M1 3.12859H50.3837V4.41167H41.3623M40.0778 4.41167H28.5467M27.2622 4.41167H2.28451" stroke="black" stroke-width="0.5"/>
<path d="M2.28451 79.9207H40.0778M41.3623 79.9207H65.7014M66.986 79.9207H163.288M164.573 81.1964H1" stroke="black" stroke-width="0.5"/>
<path d="M2.28442 59.4656H14.454M15.7311 59.4656H17.8398V60.7487H2.28442M25.1386 59.4656H31.9696M33.2467 59.4656H40.0777M40.0777 60.7487H22.1092V59.4656H23.8615" stroke="black" stroke-width="0.5"/>
<path d="M40.0776 79.9208V60.7487M41.3622 60.1034V79.9208" stroke="black" stroke-width="0.5"/>
<path d="M25.1387 43.6829V59.4656M23.8616 59.4656V42.3998" stroke="black" stroke-width="0.5"/>
<path d="M23.8616 42.3998H26.3341V43.6829H25.1387M31.9697 43.6829H30.6035V42.3998H34.6204V43.6829H33.2468M40.0778 43.6829H38.8898V42.3998H40.7163" stroke="black" stroke-width="0.5"/>
<path d="M41.3622 43.6829V60.7487M40.0776 59.4656V43.6829" stroke="black" stroke-width="0.5"/>
<path d="M33.2466 43.6829V59.4656M31.9695 59.4656V43.6829" stroke="black" stroke-width="0.5"/>
<path d="M40.0776 42.3998H51.4082V43.6829H41.3622M65.7013 43.6829H55.6776V42.3998H66.9859" stroke="black" stroke-width="0.5"/>
<path d="M65.7014 79.9207V43.6829M66.9859 43.6829V79.9207" stroke="black" stroke-width="0.5"/>
<path d="M66.3398 42.3998H82.7862M84.0633 43.6829H66.9858" stroke="black" stroke-width="0.5"/>
<path d="M41.3622 30.6444H36.2464V29.3613H40.0777M28.5466 29.3613H31.977V30.6444H23.4308V29.3613H27.2621M2.28442 29.3613H19.1615V30.6444H15.7311M14.454 30.6444H2.28442" stroke="black" stroke-width="0.5"/>
<path d="M15.7312 30.6444V35.7026H14.4541V30.6444M14.4541 59.4656V39.9672H15.7312V59.4656" stroke="black" stroke-width="0.5"/>
<path d="M82.7864 23.4058V4.41167M84.0635 4.41167V24.6888" stroke="black" stroke-width="0.5"/>
<path d="M163.288 79.9208V4.41167M164.573 3.12859V81.1964" stroke="black" stroke-width="0.5"/>
<path d="M84.0635 23.4057V31.5196H82.7864V24.6888M82.7864 42.3998V35.7842H84.0635V43.6829" stroke="black" stroke-width="0.5"/>
<path d="M41.3622 4.41167V30.6444M40.0776 29.3613V4.41167" stroke="black" stroke-width="0.5"/>
<path d="M28.5467 4.41167V29.3613M27.2622 29.3613V4.41167" stroke="black" stroke-width="0.5"/>
<path d="M56.4868 24.6888V4.41167M57.7713 4.41167V23.4058" stroke="black" stroke-width="0.5"/>
<path d="M66.3398 23.4057H69.3173M70.5944 23.4057H75.7473V24.6888H66.3398M82.7862 24.6888H80.0167V23.4057H82.7862" stroke="black" stroke-width="0.5"/>
<path d="M2.28451 4.41167V29.3613M2.28451 30.6444V59.4656M2.28451 60.7487V79.9208M1 81.1964V3.12859" stroke="black" stroke-width="0.5"/>
<path d="M57.7713 23.4057H62.0704V24.6888H56.4868" stroke="black" stroke-width="0.5"/>
<path d="M69.3174 23.4058V4.41167M70.5945 4.41167V23.4058" stroke="black" stroke-width="0.5"/>
<path d="M56.5314 9.29925H41.4141M56.5314 10.5749H41.4141M56.5314 11.858H41.4141M56.5314 13.1337H41.4141M56.5314 14.4168H41.4141M56.5314 15.6998H41.4141M56.5314 16.9755H41.4141M56.5314 18.2586H41.4141M56.5314 19.5343H41.4141M48.9727 8.01617V20.8173M48.9727 20.8173V20.8025M48.9727 20.8173L48.9653 20.8025M56.5314 20.8173H41.4141V8.01617H56.5314V20.8173Z" stroke="black" stroke-width="0.5"/>
<path d="M54.0812 1L50.3835 3.12858V4.41167M54.6529 3.12858V4.41167" stroke="black" stroke-width="0.5"/>
<path d="M21.5375 57.3296L17.8398 59.4656V60.7487M22.1092 59.4656V60.7487" stroke="black" stroke-width="0.5"/>
<path d="M30.0316 40.2713L26.334 42.3998V43.6829M30.6034 42.3998V43.6829" stroke="black" stroke-width="0.5"/>
<path d="M38.318 40.2713L34.6204 42.3998V43.6829M38.8897 42.3998V43.6829" stroke="black" stroke-width="0.5"/>
<path d="M17.8696 39.3961L15.7312 35.7026H14.4541M15.7312 39.9672H14.4541" stroke="black" stroke-width="0.5"/>
<path d="M80.6479 32.0907L82.7864 35.7842H84.0635M82.7864 31.5196H84.0635" stroke="black" stroke-width="0.5"/>
<path d="M55.1059 40.2713L51.4082 42.3998V43.6829M55.6776 42.3998V43.6829" stroke="black" stroke-width="0.5"/>
<path d="M19.7331 32.773L23.4308 30.6444V29.3613M19.1614 30.6444V29.3613" stroke="black" stroke-width="0.5"/>
<path d="M32.5488 32.773L36.2464 30.6444V29.3613M31.9771 30.6444V29.3613" stroke="black" stroke-width="0.5"/>
<path d="M62.6423 26.8174L66.3399 24.6888V23.4057M62.0706 24.6888V23.4057" stroke="black" stroke-width="0.5"/>
<path d="M76.319 26.8174L80.0167 24.6888V23.4057M75.7473 24.6888V23.4057" stroke="black" stroke-width="0.5"/>
<path d="M18.6538 71.7778C18.4504 71.5695 18.3486 71.3164 18.3486 71.0186C18.3486 70.82 18.3934 70.6401 18.4829 70.479C18.5741 70.3179 18.7067 70.1966 18.8809 70.1152C18.71 70.0013 18.5985 69.8784 18.5464 69.7466C18.4959 69.6131 18.4707 69.4886 18.4707 69.373C18.4707 69.1159 18.5675 68.897 18.7612 68.7163C18.9549 68.534 19.2284 68.4429 19.5815 68.4429C19.9347 68.4429 20.2082 68.534 20.4019 68.7163C20.5955 68.897 20.6924 69.1159 20.6924 69.373C20.6924 69.4886 20.6663 69.6131 20.6143 69.7466C20.5638 69.8784 20.4531 69.9932 20.2822 70.0908C20.4564 70.1885 20.5874 70.3179 20.6753 70.479C20.7632 70.6401 20.8071 70.82 20.8071 71.0186C20.8071 71.3164 20.6965 71.5703 20.4751 71.7803C20.2554 71.9886 19.9478 72.0928 19.5522 72.0928C19.1567 72.0928 18.8573 71.9878 18.6538 71.7778ZM19.0713 70.9722C19.0713 71.1463 19.116 71.2814 19.2056 71.3774C19.2967 71.4735 19.422 71.5215 19.5815 71.5215C19.741 71.5215 19.8656 71.4735 19.9551 71.3774C20.0462 71.2814 20.0918 71.1463 20.0918 70.9722C20.0918 70.7915 20.0454 70.6548 19.9526 70.562C19.8615 70.4676 19.7378 70.4204 19.5815 70.4204C19.4253 70.4204 19.3008 70.4676 19.208 70.562C19.1169 70.6548 19.0713 70.7915 19.0713 70.9722ZM19.2544 69.7661C19.3325 69.8475 19.4416 69.8882 19.5815 69.8882C19.7231 69.8882 19.8322 69.8475 19.9087 69.7661C19.9868 69.6847 20.0259 69.5798 20.0259 69.4512C20.0259 69.3112 19.9868 69.2021 19.9087 69.124C19.8322 69.0443 19.7231 69.0044 19.5815 69.0044C19.4416 69.0044 19.3317 69.0443 19.252 69.124C19.1738 69.2021 19.1348 69.3112 19.1348 69.4512C19.1348 69.5798 19.1746 69.6847 19.2544 69.7661ZM23.2021 69.5977C23.0166 69.8613 22.8612 70.1331 22.7358 70.4131C22.6366 70.6328 22.547 70.9014 22.4673 71.2188C22.3875 71.5361 22.3477 71.7965 22.3477 72H21.625C21.6462 71.3652 21.8545 70.7052 22.25 70.02C22.5055 69.5952 22.7196 69.299 22.8921 69.1313H21.127L21.1367 68.5063H23.6367V69.0508C23.5326 69.1533 23.3877 69.3356 23.2021 69.5977Z" fill="black"/>
<path d="M34.437 53.7778C34.2336 53.5695 34.1318 53.3164 34.1318 53.0186C34.1318 52.82 34.1766 52.6401 34.2661 52.479C34.3573 52.3179 34.4899 52.1966 34.6641 52.1152C34.4932 52.0013 34.3817 51.8784 34.3296 51.7466C34.2791 51.6131 34.2539 51.4886 34.2539 51.373C34.2539 51.1159 34.3507 50.897 34.5444 50.7163C34.7381 50.534 35.0116 50.4429 35.3647 50.4429C35.7179 50.4429 35.9914 50.534 36.1851 50.7163C36.3787 50.897 36.4756 51.1159 36.4756 51.373C36.4756 51.4886 36.4495 51.6131 36.3975 51.7466C36.347 51.8784 36.2363 51.9932 36.0654 52.0908C36.2396 52.1885 36.3706 52.3179 36.4585 52.479C36.5464 52.6401 36.5903 52.82 36.5903 53.0186C36.5903 53.3164 36.4797 53.5703 36.2583 53.7803C36.0386 53.9886 35.731 54.0928 35.3354 54.0928C34.9399 54.0928 34.6405 53.9878 34.437 53.7778ZM34.8545 52.9722C34.8545 53.1463 34.8993 53.2814 34.9888 53.3774C35.0799 53.4735 35.2052 53.5215 35.3647 53.5215C35.5243 53.5215 35.6488 53.4735 35.7383 53.3774C35.8294 53.2814 35.875 53.1463 35.875 52.9722C35.875 52.7915 35.8286 52.6548 35.7358 52.562C35.6447 52.4676 35.521 52.4204 35.3647 52.4204C35.2085 52.4204 35.084 52.4676 34.9912 52.562C34.9001 52.6548 34.8545 52.7915 34.8545 52.9722ZM35.0376 51.7661C35.1157 51.8475 35.2248 51.8882 35.3647 51.8882C35.5063 51.8882 35.6154 51.8475 35.6919 51.7661C35.77 51.6847 35.8091 51.5798 35.8091 51.4512C35.8091 51.3112 35.77 51.2021 35.6919 51.124C35.6154 51.0443 35.5063 51.0044 35.3647 51.0044C35.2248 51.0044 35.1149 51.0443 35.0352 51.124C34.957 51.2021 34.918 51.3112 34.918 51.4512C34.918 51.5798 34.9578 51.6847 35.0376 51.7661ZM38.3115 51.7026C38.6257 51.7026 38.8828 51.8092 39.083 52.0225C39.2848 52.2357 39.3857 52.5083 39.3857 52.8403C39.3857 53.1707 39.2873 53.4621 39.0903 53.7144C38.8934 53.9666 38.5874 54.0928 38.1724 54.0928C37.7264 54.0928 37.3976 53.9064 37.186 53.5337C37.0216 53.2424 36.9395 52.8664 36.9395 52.4058C36.9395 52.1356 36.9508 51.9159 36.9736 51.7466C37.0143 51.4455 37.0933 51.1948 37.2104 50.9946C37.3114 50.8237 37.4432 50.6862 37.606 50.582C37.7703 50.4779 37.9665 50.4258 38.1943 50.4258C38.5231 50.4258 38.7852 50.5104 38.9805 50.6797C39.1758 50.8473 39.2856 51.0711 39.3101 51.3511H38.6167C38.6167 51.2941 38.5947 51.2314 38.5508 51.1631C38.4759 51.0524 38.3628 50.9971 38.2114 50.9971C37.9852 50.9971 37.8241 51.124 37.728 51.3779C37.6759 51.5179 37.6401 51.7246 37.6206 51.998C37.7069 51.8955 37.807 51.8206 37.9209 51.7734C38.0348 51.7262 38.165 51.7026 38.3115 51.7026ZM37.8428 52.3667C37.7061 52.4725 37.6377 52.6434 37.6377 52.8794C37.6377 53.0698 37.689 53.2253 37.7915 53.3457C37.894 53.4661 38.0243 53.5264 38.1821 53.5264C38.3368 53.5264 38.458 53.4686 38.5459 53.353C38.6354 53.2358 38.6802 53.0845 38.6802 52.8989C38.6802 52.6922 38.6297 52.5343 38.5288 52.4253C38.4279 52.3146 38.3042 52.2593 38.1577 52.2593C38.0389 52.2593 37.9339 52.2951 37.8428 52.3667Z" fill="black"/>
<path d="M5.65381 46.7778C5.45036 46.5695 5.34863 46.3164 5.34863 46.0186C5.34863 45.82 5.39339 45.6401 5.48291 45.479C5.57406 45.3179 5.70671 45.1966 5.88086 45.1152C5.70996 45.0013 5.59847 44.8784 5.54639 44.7466C5.49593 44.6131 5.4707 44.4886 5.4707 44.373C5.4707 44.1159 5.56755 43.897 5.76123 43.7163C5.95492 43.534 6.22835 43.4429 6.58154 43.4429C6.93473 43.4429 7.20817 43.534 7.40186 43.7163C7.59554 43.897 7.69238 44.1159 7.69238 44.373C7.69238 44.4886 7.66634 44.6131 7.61426 44.7466C7.5638 44.8784 7.45312 44.9932 7.28223 45.0908C7.45638 45.1885 7.5874 45.3179 7.67529 45.479C7.76318 45.6401 7.80713 45.82 7.80713 46.0186C7.80713 46.3164 7.69645 46.5703 7.4751 46.7803C7.25537 46.9886 6.94775 47.0928 6.55225 47.0928C6.15674 47.0928 5.85726 46.9878 5.65381 46.7778ZM6.07129 45.9722C6.07129 46.1463 6.11605 46.2814 6.20557 46.3774C6.29671 46.4735 6.42204 46.5215 6.58154 46.5215C6.74105 46.5215 6.86556 46.4735 6.95508 46.3774C7.04622 46.2814 7.0918 46.1463 7.0918 45.9722C7.0918 45.7915 7.04541 45.6548 6.95264 45.562C6.86149 45.4676 6.73779 45.4204 6.58154 45.4204C6.42529 45.4204 6.30078 45.4676 6.20801 45.562C6.11686 45.6548 6.07129 45.7915 6.07129 45.9722ZM6.25439 44.7661C6.33252 44.8475 6.44157 44.8882 6.58154 44.8882C6.72314 44.8882 6.83219 44.8475 6.90869 44.7661C6.98682 44.6847 7.02588 44.5798 7.02588 44.4512C7.02588 44.3112 6.98682 44.2021 6.90869 44.124C6.83219 44.0443 6.72314 44.0044 6.58154 44.0044C6.44157 44.0044 6.33171 44.0443 6.25195 44.124C6.17383 44.2021 6.13477 44.3112 6.13477 44.4512C6.13477 44.5798 6.17464 44.6847 6.25439 44.7661ZM8.43701 46.7778C8.23356 46.5695 8.13184 46.3164 8.13184 46.0186C8.13184 45.82 8.1766 45.6401 8.26611 45.479C8.35726 45.3179 8.48991 45.1966 8.66406 45.1152C8.49316 45.0013 8.38167 44.8784 8.32959 44.7466C8.27913 44.6131 8.25391 44.4886 8.25391 44.373C8.25391 44.1159 8.35075 43.897 8.54443 43.7163C8.73812 43.534 9.01156 43.4429 9.36475 43.4429C9.71794 43.4429 9.99137 43.534 10.1851 43.7163C10.3787 43.897 10.4756 44.1159 10.4756 44.373C10.4756 44.4886 10.4495 44.6131 10.3975 44.7466C10.347 44.8784 10.2363 44.9932 10.0654 45.0908C10.2396 45.1885 10.3706 45.3179 10.4585 45.479C10.5464 45.6401 10.5903 45.82 10.5903 46.0186C10.5903 46.3164 10.4797 46.5703 10.2583 46.7803C10.0386 46.9886 9.73096 47.0928 9.33545 47.0928C8.93994 47.0928 8.64046 46.9878 8.43701 46.7778ZM8.85449 45.9722C8.85449 46.1463 8.89925 46.2814 8.98877 46.3774C9.07992 46.4735 9.20524 46.5215 9.36475 46.5215C9.52425 46.5215 9.64876 46.4735 9.73828 46.3774C9.82943 46.2814 9.875 46.1463 9.875 45.9722C9.875 45.7915 9.82861 45.6548 9.73584 45.562C9.64469 45.4676 9.521 45.4204 9.36475 45.4204C9.2085 45.4204 9.08398 45.4676 8.99121 45.562C8.90007 45.6548 8.85449 45.7915 8.85449 45.9722ZM9.0376 44.7661C9.11572 44.8475 9.22477 44.8882 9.36475 44.8882C9.50635 44.8882 9.6154 44.8475 9.69189 44.7661C9.77002 44.6847 9.80908 44.5798 9.80908 44.4512C9.80908 44.3112 9.77002 44.2021 9.69189 44.124C9.6154 44.0443 9.50635 44.0044 9.36475 44.0044C9.22477 44.0044 9.11491 44.0443 9.03516 44.124C8.95703 44.2021 8.91797 44.3112 8.91797 44.4512C8.91797 44.5798 8.95785 44.6847 9.0376 44.7661Z" fill="black"/>
<path d="M93.375 16.9688C93.5469 17.0599 93.7422 17.1055 93.9609 17.1055C94.2135 17.1055 94.4193 17.0664 94.5781 16.9883C94.737 16.9102 94.8633 16.8151 94.957 16.7031C95.0534 16.5911 95.125 16.474 95.1719 16.3516C95.2188 16.2292 95.2552 16.1224 95.2812 16.0312H96.4727C96.4076 16.3906 96.2995 16.7031 96.1484 16.9688C95.9974 17.2318 95.8138 17.4505 95.5977 17.625C95.3815 17.7995 95.138 17.9297 94.8672 18.0156C94.599 18.1016 94.3125 18.1445 94.0078 18.1445C93.5807 18.1445 93.2018 18.0742 92.8711 17.9336C92.543 17.7904 92.2656 17.5872 92.0391 17.3242C91.8151 17.0612 91.6445 16.7448 91.5273 16.375C91.4102 16.0026 91.3516 15.5872 91.3516 15.1289C91.3516 14.7747 91.3854 14.4544 91.4531 14.168C91.5208 13.8815 91.6146 13.6276 91.7344 13.4062C91.8568 13.1823 92 12.9896 92.1641 12.8281C92.3281 12.6641 92.5065 12.5299 92.6992 12.4258C92.8945 12.319 93.099 12.2409 93.3125 12.1914C93.526 12.1393 93.7422 12.1133 93.9609 12.1133C94.2734 12.1133 94.5508 12.1458 94.793 12.2109C95.0352 12.276 95.2474 12.3633 95.4297 12.4727C95.612 12.582 95.7669 12.707 95.8945 12.8477C96.0247 12.9883 96.1302 13.1341 96.2109 13.2852C96.2943 13.4336 96.3555 13.5833 96.3945 13.7344C96.4362 13.8828 96.4622 14.0195 96.4727 14.1445H95.2734C95.2578 14.0898 95.2383 14.0273 95.2148 13.957C95.1914 13.8841 95.1589 13.8112 95.1172 13.7383C95.0781 13.6654 95.0273 13.5938 94.9648 13.5234C94.9049 13.4531 94.8294 13.3906 94.7383 13.3359C94.6471 13.2812 94.5378 13.237 94.4102 13.2031C94.2826 13.1693 94.1328 13.1523 93.9609 13.1523C93.888 13.1523 93.8021 13.1615 93.7031 13.1797C93.6042 13.1979 93.5026 13.2331 93.3984 13.2852C93.2943 13.3346 93.1914 13.4049 93.0898 13.4961C92.9883 13.5872 92.8971 13.707 92.8164 13.8555C92.7383 14.0013 92.6745 14.1784 92.625 14.3867C92.5755 14.5951 92.5508 14.8424 92.5508 15.1289C92.5508 15.4388 92.5833 15.7161 92.6484 15.9609C92.7135 16.2057 92.8073 16.4128 92.9297 16.582C93.0521 16.7513 93.2005 16.8802 93.375 16.9688ZM100.621 13.7422V14.6406H99.332V18H98.2305V14.6406H96.9414V13.7422H100.621ZM102.324 17.9609C102.056 17.849 101.827 17.6927 101.637 17.4922C101.449 17.2917 101.305 17.0534 101.203 16.7773C101.104 16.5013 101.055 16.1992 101.055 15.8711C101.055 15.543 101.104 15.2409 101.203 14.9648C101.305 14.6888 101.449 14.4518 101.637 14.2539C101.827 14.0534 102.056 13.8971 102.324 13.7852C102.592 13.6732 102.895 13.6172 103.23 13.6172C103.572 13.6172 103.876 13.6732 104.145 13.7852C104.415 13.8971 104.643 14.0534 104.828 14.2539C105.016 14.4518 105.159 14.6888 105.258 14.9648C105.357 15.2409 105.406 15.543 105.406 15.8711C105.406 16.1992 105.357 16.5013 105.258 16.7773C105.159 17.0534 105.016 17.2917 104.828 17.4922C104.643 17.6927 104.415 17.849 104.145 17.9609C103.876 18.0729 103.572 18.1289 103.23 18.1289C102.895 18.1289 102.592 18.0729 102.324 17.9609ZM102.262 16.3477C102.296 16.5065 102.353 16.6484 102.434 16.7734C102.514 16.8958 102.62 16.9948 102.75 17.0703C102.88 17.1458 103.04 17.1836 103.23 17.1836C103.428 17.1836 103.592 17.1471 103.723 17.0742C103.855 16.9987 103.961 16.901 104.039 16.7812C104.117 16.6589 104.172 16.5195 104.203 16.3633C104.237 16.2044 104.254 16.0404 104.254 15.8711C104.254 15.7044 104.237 15.5417 104.203 15.3828C104.172 15.224 104.117 15.0846 104.039 14.9648C103.961 14.8424 103.855 14.7448 103.723 14.6719C103.592 14.5964 103.428 14.5586 103.23 14.5586C103.04 14.5586 102.88 14.5964 102.75 14.6719C102.62 14.7474 102.514 14.8477 102.434 14.9727C102.353 15.0951 102.294 15.2357 102.258 15.3945C102.224 15.5508 102.207 15.7096 102.207 15.8711C102.207 16.0326 102.225 16.1914 102.262 16.3477ZM107.859 14.6406L107.836 15.4336C107.823 15.8789 107.794 16.2695 107.75 16.6055C107.706 16.9414 107.633 17.2227 107.531 17.4492C107.432 17.6732 107.297 17.8424 107.125 17.957C106.956 18.0716 106.738 18.1289 106.473 18.1289C106.348 18.1289 106.238 18.1211 106.145 18.1055C106.051 18.0924 105.974 18.0729 105.914 18.0469V17.1211C105.951 17.1367 105.996 17.151 106.051 17.1641C106.108 17.1771 106.177 17.1836 106.258 17.1836C106.341 17.1836 106.415 17.1589 106.48 17.1094C106.546 17.0573 106.602 16.9648 106.648 16.832C106.695 16.6966 106.732 16.5104 106.758 16.2734C106.784 16.0365 106.801 15.7305 106.809 15.3555L106.84 13.7422H110.266V18H109.164V14.6406H107.859ZM112.441 17.9609C112.173 17.849 111.944 17.6927 111.754 17.4922C111.566 17.2917 111.422 17.0534 111.32 16.7773C111.221 16.5013 111.172 16.1992 111.172 15.8711C111.172 15.543 111.221 15.2409 111.32 14.9648C111.422 14.6888 111.566 14.4518 111.754 14.2539C111.944 14.0534 112.173 13.8971 112.441 13.7852C112.71 13.6732 113.012 13.6172 113.348 13.6172C113.689 13.6172 113.993 13.6732 114.262 13.7852C114.533 13.8971 114.76 14.0534 114.945 14.2539C115.133 14.4518 115.276 14.6888 115.375 14.9648C115.474 15.2409 115.523 15.543 115.523 15.8711C115.523 16.1992 115.474 16.5013 115.375 16.7773C115.276 17.0534 115.133 17.2917 114.945 17.4922C114.76 17.6927 114.533 17.849 114.262 17.9609C113.993 18.0729 113.689 18.1289 113.348 18.1289C113.012 18.1289 112.71 18.0729 112.441 17.9609ZM112.379 16.3477C112.413 16.5065 112.47 16.6484 112.551 16.7734C112.632 16.8958 112.737 16.9948 112.867 17.0703C112.997 17.1458 113.158 17.1836 113.348 17.1836C113.546 17.1836 113.71 17.1471 113.84 17.0742C113.973 16.9987 114.078 16.901 114.156 16.7812C114.234 16.6589 114.289 16.5195 114.32 16.3633C114.354 16.2044 114.371 16.0404 114.371 15.8711C114.371 15.7044 114.354 15.5417 114.32 15.3828C114.289 15.224 114.234 15.0846 114.156 14.9648C114.078 14.8424 113.973 14.7448 113.84 14.6719C113.71 14.5964 113.546 14.5586 113.348 14.5586C113.158 14.5586 112.997 14.5964 112.867 14.6719C112.737 14.7474 112.632 14.8477 112.551 14.9727C112.47 15.0951 112.411 15.2357 112.375 15.3945C112.341 15.5508 112.324 15.7096 112.324 15.8711C112.324 16.0326 112.342 16.1914 112.379 16.3477ZM118.742 18H116.355V13.7422H118.559C118.754 13.7422 118.941 13.7591 119.121 13.793C119.303 13.8268 119.464 13.8867 119.602 13.9727C119.74 14.056 119.849 14.1706 119.93 14.3164C120.013 14.4596 120.055 14.6419 120.055 14.8633C120.055 14.9909 120.04 15.1016 120.012 15.1953C119.986 15.2891 119.949 15.3698 119.902 15.4375C119.855 15.5026 119.801 15.5586 119.738 15.6055C119.678 15.6497 119.616 15.6875 119.551 15.7188C119.764 15.7943 119.927 15.9154 120.039 16.082C120.151 16.2461 120.207 16.4427 120.207 16.6719C120.207 16.8724 120.172 17.0547 120.102 17.2188C120.034 17.3802 119.936 17.5195 119.809 17.6367C119.684 17.7513 119.53 17.8411 119.348 17.9062C119.168 17.9688 118.966 18 118.742 18ZM118.656 16.1758C118.56 16.1602 118.445 16.1523 118.312 16.1523H117.461V17.2148H118.312C118.471 17.2148 118.599 17.1979 118.695 17.1641C118.794 17.1302 118.87 17.0872 118.922 17.0352C118.977 16.9831 119.012 16.9258 119.027 16.8633C119.046 16.8008 119.055 16.7422 119.055 16.6875C119.055 16.5833 119.04 16.4974 119.012 16.4297C118.986 16.3594 118.943 16.3034 118.883 16.2617C118.826 16.2201 118.75 16.1914 118.656 16.1758ZM118.824 15.2969C118.871 15.2604 118.904 15.2148 118.922 15.1602C118.943 15.1029 118.953 15.0365 118.953 14.9609C118.953 14.8984 118.943 14.8411 118.922 14.7891C118.904 14.7344 118.871 14.6888 118.824 14.6523C118.777 14.6133 118.715 14.5833 118.637 14.5625C118.559 14.5391 118.461 14.5273 118.344 14.5273H117.461V15.4141H118.312C118.438 15.4141 118.542 15.4049 118.625 15.3867C118.708 15.3659 118.775 15.3359 118.824 15.2969ZM123.043 15.3438C123.082 15.3385 123.124 15.3307 123.168 15.3203C123.215 15.3099 123.258 15.293 123.297 15.2695C123.336 15.2435 123.368 15.2096 123.395 15.168C123.421 15.1237 123.434 15.0651 123.434 14.9922C123.434 14.9219 123.422 14.8581 123.398 14.8008C123.378 14.7409 123.341 14.6901 123.289 14.6484C123.237 14.6042 123.167 14.5703 123.078 14.5469C122.992 14.5234 122.884 14.5117 122.754 14.5117C122.605 14.5117 122.486 14.5273 122.395 14.5586C122.306 14.5872 122.236 14.6289 122.184 14.6836C122.132 14.7357 122.094 14.7982 122.07 14.8711C122.047 14.9414 122.03 15.0169 122.02 15.0977H120.914C120.914 15.0456 120.922 14.974 120.938 14.8828C120.956 14.7891 120.987 14.6875 121.031 14.5781C121.078 14.4688 121.142 14.3581 121.223 14.2461C121.306 14.1341 121.414 14.0326 121.547 13.9414C121.682 13.8477 121.846 13.7708 122.039 13.7109C122.232 13.651 122.462 13.6198 122.73 13.6172C123.111 13.6172 123.418 13.6562 123.652 13.7344C123.889 13.8099 124.073 13.9102 124.203 14.0352C124.336 14.1576 124.424 14.2956 124.469 14.4492C124.516 14.6003 124.539 14.7513 124.539 14.9023V17.1602C124.539 17.2878 124.546 17.3932 124.559 17.4766C124.574 17.5573 124.594 17.6224 124.617 17.6719C124.641 17.7188 124.667 17.7539 124.695 17.7773C124.727 17.7982 124.759 17.8138 124.793 17.8242V18H123.57C123.549 17.9505 123.526 17.8854 123.5 17.8047C123.477 17.7214 123.465 17.6211 123.465 17.5039C123.379 17.5924 123.294 17.6745 123.211 17.75C123.13 17.8255 123.039 17.8919 122.938 17.9492C122.836 18.0039 122.719 18.0469 122.586 18.0781C122.453 18.112 122.293 18.1289 122.105 18.1289C121.915 18.1289 121.74 18.1003 121.578 18.043C121.419 17.9883 121.281 17.9062 121.164 17.7969C121.047 17.6875 120.956 17.5508 120.891 17.3867C120.826 17.2227 120.793 17.0326 120.793 16.8164C120.793 16.6419 120.82 16.4805 120.875 16.332C120.93 16.181 121.007 16.0495 121.105 15.9375C121.207 15.8229 121.329 15.7292 121.473 15.6562C121.618 15.5807 121.781 15.5299 121.961 15.5039L123.043 15.3438ZM122.238 17.3125C122.306 17.3333 122.379 17.3438 122.457 17.3438C122.499 17.3438 122.552 17.3398 122.617 17.332C122.682 17.3216 122.751 17.3034 122.824 17.2773C122.897 17.2513 122.97 17.2161 123.043 17.1719C123.116 17.125 123.181 17.0651 123.238 16.9922C123.296 16.9193 123.342 16.8307 123.379 16.7266C123.415 16.6198 123.434 16.4948 123.434 16.3516V15.9219C123.366 15.9583 123.298 15.9922 123.23 16.0234C123.163 16.0521 123.073 16.0768 122.961 16.0977L122.668 16.1523C122.54 16.1758 122.428 16.2031 122.332 16.2344C122.236 16.2656 122.155 16.3073 122.09 16.3594C122.027 16.4089 121.979 16.4701 121.945 16.543C121.914 16.6159 121.898 16.707 121.898 16.8164C121.898 16.9076 121.913 16.987 121.941 17.0547C121.97 17.1198 122.009 17.1745 122.059 17.2188C122.111 17.2604 122.171 17.2917 122.238 17.3125ZM125.727 16.332C125.768 16.2721 125.826 16.2201 125.898 16.1758C125.971 16.1315 126.069 16.0911 126.191 16.0547C126.152 16.0443 126.108 16.0299 126.059 16.0117C126.012 15.9909 125.961 15.9648 125.906 15.9336C125.854 15.8997 125.801 15.8581 125.746 15.8086C125.694 15.7565 125.645 15.6927 125.598 15.6172C125.564 15.5677 125.536 15.5156 125.516 15.4609C125.497 15.4036 125.483 15.349 125.473 15.2969C125.462 15.2422 125.456 15.1914 125.453 15.1445C125.451 15.0977 125.449 15.0573 125.449 15.0234C125.449 14.8724 125.467 14.7383 125.504 14.6211C125.54 14.5013 125.587 14.3971 125.645 14.3086C125.702 14.2201 125.767 14.1445 125.84 14.082C125.913 14.0195 125.987 13.9688 126.062 13.9297C126.146 13.8828 126.238 13.8477 126.34 13.8242C126.441 13.7982 126.54 13.7799 126.637 13.7695C126.733 13.7565 126.823 13.7487 126.906 13.7461C126.99 13.7435 127.055 13.7422 127.102 13.7422H129.391V18H128.281V16.4336H127.559C127.4 16.4336 127.263 16.4401 127.148 16.4531C127.036 16.4635 126.944 16.4909 126.871 16.5352C126.798 16.5768 126.742 16.6393 126.703 16.7227C126.667 16.806 126.646 16.9193 126.641 17.0625L126.625 17.4727C126.62 17.5326 126.612 17.6107 126.602 17.707C126.594 17.8034 126.569 17.901 126.527 18H125.359C125.393 17.9427 125.421 17.888 125.441 17.8359C125.462 17.7812 125.478 17.7292 125.488 17.6797C125.501 17.6276 125.51 17.5755 125.516 17.5234C125.523 17.4714 125.53 17.4167 125.535 17.3594L125.59 16.8477C125.603 16.7331 125.618 16.6341 125.637 16.5508C125.655 16.4674 125.685 16.3945 125.727 16.332ZM126.68 15.4258C126.724 15.4961 126.781 15.5482 126.852 15.582C126.924 15.6159 127.005 15.6354 127.094 15.6406C127.182 15.6458 127.271 15.6484 127.359 15.6484H128.281V14.5742H127.391C127.297 14.5742 127.203 14.5768 127.109 14.582C127.016 14.5872 126.931 14.6081 126.855 14.6445C126.783 14.6784 126.723 14.7331 126.676 14.8086C126.632 14.8815 126.609 14.9857 126.609 15.1211C126.609 15.2539 126.633 15.3555 126.68 15.4258Z" fill="black"/>
<path d="M12.437 18.7778C12.2336 18.5695 12.1318 18.3164 12.1318 18.0186C12.1318 17.82 12.1766 17.6401 12.2661 17.479C12.3573 17.3179 12.4899 17.1966 12.6641 17.1152C12.4932 17.0013 12.3817 16.8784 12.3296 16.7466C12.2791 16.6131 12.2539 16.4886 12.2539 16.373C12.2539 16.1159 12.3507 15.897 12.5444 15.7163C12.7381 15.534 13.0116 15.4429 13.3647 15.4429C13.7179 15.4429 13.9914 15.534 14.1851 15.7163C14.3787 15.897 14.4756 16.1159 14.4756 16.373C14.4756 16.4886 14.4495 16.6131 14.3975 16.7466C14.347 16.8784 14.2363 16.9932 14.0654 17.0908C14.2396 17.1885 14.3706 17.3179 14.4585 17.479C14.5464 17.6401 14.5903 17.82 14.5903 18.0186C14.5903 18.3164 14.4797 18.5703 14.2583 18.7803C14.0386 18.9886 13.731 19.0928 13.3354 19.0928C12.9399 19.0928 12.6405 18.9878 12.437 18.7778ZM12.8545 17.9722C12.8545 18.1463 12.8993 18.2814 12.9888 18.3774C13.0799 18.4735 13.2052 18.5215 13.3647 18.5215C13.5243 18.5215 13.6488 18.4735 13.7383 18.3774C13.8294 18.2814 13.875 18.1463 13.875 17.9722C13.875 17.7915 13.8286 17.6548 13.7358 17.562C13.6447 17.4676 13.521 17.4204 13.3647 17.4204C13.2085 17.4204 13.084 17.4676 12.9912 17.562C12.9001 17.6548 12.8545 17.7915 12.8545 17.9722ZM13.0376 16.7661C13.1157 16.8475 13.2248 16.8882 13.3647 16.8882C13.5063 16.8882 13.6154 16.8475 13.6919 16.7661C13.77 16.6847 13.8091 16.5798 13.8091 16.4512C13.8091 16.3112 13.77 16.2021 13.6919 16.124C13.6154 16.0443 13.5063 16.0044 13.3647 16.0044C13.2248 16.0044 13.1149 16.0443 13.0352 16.124C12.957 16.2021 12.918 16.3112 12.918 16.4512C12.918 16.5798 12.9578 16.6847 13.0376 16.7661ZM16.082 19.1025C15.8167 19.1025 15.5783 19.0244 15.3667 18.8682C15.1551 18.7103 15.0339 18.4808 15.0029 18.1797H15.6963C15.7126 18.2839 15.7565 18.3685 15.8281 18.4336C15.8997 18.4987 15.995 18.5312 16.1138 18.5312C16.3433 18.5312 16.5044 18.4043 16.5972 18.1504C16.6476 18.0104 16.6794 17.8062 16.6924 17.5376C16.6289 17.6174 16.5614 17.6784 16.4897 17.7207C16.3595 17.7988 16.1992 17.8379 16.0088 17.8379C15.7272 17.8379 15.4774 17.741 15.2593 17.5474C15.0412 17.3521 14.9321 17.0713 14.9321 16.7051C14.9321 16.3258 15.0412 16.019 15.2593 15.7847C15.479 15.5487 15.7638 15.4307 16.1138 15.4307C16.6525 15.4307 17.022 15.6691 17.2222 16.146C17.3361 16.4162 17.3931 16.7718 17.3931 17.2129C17.3931 17.641 17.3385 17.9982 17.2295 18.2847C17.0212 18.8299 16.6387 19.1025 16.082 19.1025ZM15.8379 16.1118C15.7044 16.216 15.6377 16.3926 15.6377 16.6416C15.6377 16.8516 15.68 17.0094 15.7646 17.1152C15.8509 17.2194 15.9827 17.2715 16.1602 17.2715C16.2562 17.2715 16.3465 17.2438 16.4312 17.1885C16.589 17.0876 16.668 16.9126 16.668 16.6636C16.668 16.4634 16.6208 16.3047 16.5264 16.1875C16.4336 16.0703 16.3058 16.0117 16.1431 16.0117C16.0243 16.0117 15.9225 16.0451 15.8379 16.1118Z" fill="black"/>
<path d="M64.1323 12.4111H65.2334V16H64.5425V12.9995H64.5327L63.8516 16H63.1216L62.4673 12.9995H62.4575V16H61.7666V12.4111H62.8628L63.4927 15.2041H63.5024L64.1323 12.4111Z" fill="black"/>
<path d="M78.0845 12.4111H78.939L77.645 14.0493L78.939 16H78.0454L77.0151 14.4497H76.8711V16H76.146V14.4497H75.9946L74.9546 16H74.061L75.3745 14.0493L74.0903 12.4111H74.9253L75.9946 13.8491H76.146V12.4111H76.8711V13.8491H77.0151L78.0845 12.4111Z" fill="black"/>
</svg>
