<svg width="208" height="130" viewBox="0 0 208 130" fill="none" xmlns="http://www.w3.org/2000/svg">
<path d="M90.0735 64.365H91.358" stroke="black" stroke-width="0.5"/>
<path d="M2.25049 75.7199H25.2903M25.9288 76.9956H2.25049" stroke="black" stroke-width="0.5"/>
<path d="M2.25034 2.39876V35.5364M2.25034 36.8195V39.2744H0.96582V1.11569M2.25034 65.6481V69.4602H0.96582V63.8014H2.25034V64.365M0.96582 128.897V93.9872H2.25034V127.622" stroke="black" stroke-width="0.5"/>
<path d="M26.5751 35.5364V40.8394H25.2905V36.8195M25.2905 64.365V47.6701H26.5751V66.8793H25.2905V65.6481M25.2905 75.7199V73.7026H26.5751V75.7199" stroke="black" stroke-width="0.5"/>
<path d="M2.25049 35.5364H26.5748M25.2903 36.8195H2.25049" stroke="black" stroke-width="0.5"/>
<path d="M2.25049 64.365H25.2903M25.2903 65.6481H2.25049" stroke="black" stroke-width="0.5"/>
<path d="M124.57 65.6481V68.9263H123.285V65.6481M123.285 79.6879V75.7496H124.57V127.622M123.285 127.622V80.9709" stroke="black" stroke-width="0.5"/>
<path d="M149.83 65.6481V127.622M148.545 127.622V65.6481" stroke="black" stroke-width="0.5"/>
<path d="M71.7115 2.39877V22.0974M70.427 20.8218V2.39877" stroke="black" stroke-width="0.5"/>
<path d="M44.3504 65.6481V67.9621H43.0659V64.365M43.0659 127.622V76.9956M43.0659 75.7199V74.7928H44.3504V79.6879M44.3504 80.9709V127.622" stroke="black" stroke-width="0.5"/>
<path d="M90.0735 31.7984V2.39877M91.358 2.39877V40.0161H90.0735V33.0815M90.0735 47.4476V46.8394H91.358V47.4476" stroke="black" stroke-width="0.5"/>
<path d="M73.4712 31.7985H90.0735M90.0735 33.0815H74.7483" stroke="black" stroke-width="0.5"/>
<path d="M182.901 92.1034H187.371V93.3864H182.901M205.651 93.3864H194.209V92.1034H205.651" stroke="black" stroke-width="0.5"/>
<path d="M57.5669 47.4476V22.0974M58.8514 22.0974V47.4476" stroke="black" stroke-width="0.5"/>
<path d="M181.624 65.6481H181.03V64.365H205.651M205.651 65.6481H182.901M44.3503 64.365H123.286M124.57 64.365H171.934M173.219 64.365H174.199V65.6481H173.219M171.934 65.6481H149.83M148.545 65.6481H124.57M123.286 65.6481H44.3503" stroke="black" stroke-width="0.5"/>
<path d="M26.5751 75.7199H29.5451V76.9956H25.2905M43.066 76.9956H36.3761V75.7199H43.066" stroke="black" stroke-width="0.5"/>
<path d="M44.3503 20.8218H59.7052V22.0974H58.8514M57.5668 22.0974H44.3503M71.7115 22.0974H66.5362V20.8218H70.4269" stroke="black" stroke-width="0.5"/>
<path d="M182.901 109.355H205.651M205.651 110.63H181.089V109.355H181.624M173.219 109.355H174.251V110.63H173.219" stroke="black" stroke-width="0.5"/>
<path d="M205.651 2.39876H202.295V1.11569H206.935M171.934 2.39876H169.647V1.11569H177.74V2.39876H173.218M123.285 2.39876H118.481V1.11569H127.258V2.39876H124.57M90.0732 2.39876H88.1353V1.11569H97.127V2.39876H91.3578M70.4267 2.39876H64.6203V1.11569H76.9681V2.39876H71.7112M43.0656 2.39876H38.269V1.11569H49.5847V2.39876H44.3501M0.96582 1.11569H10.5144V2.39876H2.25034M150.431 2.39876H144.335V1.11569H150.431V2.39876ZM84.2001 2.39876H80.8959V1.11569H84.2001V2.39876ZM60.6925 2.39876H53.5125V1.11569H60.6925V2.39876Z" stroke="black" stroke-width="0.5"/>
<path d="M124.57 47.4476V55.91H123.285V48.7307M123.285 64.365V62.7333H124.57V64.365" stroke="black" stroke-width="0.5"/>
<path d="M2.25034 127.622H8.64327V128.897H0.96582M44.3501 127.622H49.1244V128.897H38.5363V127.622H43.0656M83.9773 127.622H86.68V128.897H77.9482V127.622H82.7002M124.57 127.622H128.305V128.897H115.504V127.622H123.285M149.83 127.622H154.04V128.897H144.32V127.622H148.545M173.218 127.622H205.651M206.935 128.897H167.278V127.622H171.934" stroke="black" stroke-width="0.5"/>
<path d="M182.901 65.6481V81.8387H181.624V65.6481M181.624 109.355V88.6694H182.901V92.1034M182.901 93.3864V109.355" stroke="black" stroke-width="0.5"/>
<path d="M43.0659 65.0103V60.9904H44.3504V64.365M44.3504 2.39877V20.8218M44.3504 22.0974V47.4476M44.3504 48.7307V54.1671H43.0659V2.39877" stroke="black" stroke-width="0.5"/>
<path d="M171.934 64.365V2.39877M173.219 2.39877V64.365M173.219 65.6481V109.355M173.219 110.63V112.818H171.934V65.6481M171.934 127.622V119.649H173.219V127.622" stroke="black" stroke-width="0.5"/>
<path d="M74.7483 33.0815V47.4476M73.4712 47.4476V31.7985" stroke="black" stroke-width="0.5"/>
<path d="M44.3503 47.4476H45.3304V48.7307H44.3503M58.8514 47.4476H60.3809V48.7307H52.1689V47.4476H57.5668M74.7483 47.4476H90.0735M91.358 47.4476H91.9669V48.7307H67.2119V47.4476H73.4712M123.286 48.7307H98.7979V47.4476H123.286" stroke="black" stroke-width="0.5"/>
<path d="M44.3503 79.6879H54.6488V80.9709H44.3503M82.7005 80.9709H61.4798V79.6879H105.198V80.9709H83.9776M123.286 80.9709H112.029V79.6879H123.286" stroke="black" stroke-width="0.5"/>
<path d="M124.57 62.7334V64.365M123.285 64.365V62.7334M123.285 47.4476V2.39877M124.57 2.39877V55.91M123.285 55.91V48.7307" stroke="black" stroke-width="0.5"/>
<path d="M205.651 127.622V125.923H206.935V128.897M205.651 109.355V108.502H206.935V115.258H205.651V110.63M205.651 92.1034V88.751H206.935V97.8364H205.651V93.3864M205.651 64.365V2.39876M206.935 1.11569V69.1043H205.651V65.6481M205.651 80.2218V77.6334H206.935V80.2218H205.651Z" stroke="black" stroke-width="0.5"/>
<path d="M182.901 109.355H205.651M205.651 110.63H181.624" stroke="black" stroke-width="0.5"/>
<path d="M82.7004 127.622V80.9709M83.9775 80.9709V127.622" stroke="black" stroke-width="0.5"/>
<path d="M39.5612 8.1986H5.39136M39.5612 11.4026H5.39136M39.5612 14.5992H5.39136M39.5612 17.7958H5.39136M39.5612 20.9998H5.39136M39.5612 24.1964H5.39136M39.5612 27.3929H5.39136M39.5612 30.5969H5.39136M22.4763 5.00201V33.2224V33.2076M39.5612 5.00201V33.2224H5.39136V5.00201H39.5612Z" stroke="black" stroke-width="0.5"/>
<path d="M183.398 112.41V126.064M185.537 112.41V126.064M187.668 112.41V126.064M189.806 112.41V126.064M191.937 112.41V126.064M194.075 112.41V126.064M196.214 112.41V126.064M198.345 112.41V126.064M200.483 112.41V126.064M202.614 112.41V126.064M204.752 112.41V126.064M181.26 119.234H205.124M205.124 119.234H205.109M205.124 119.234L205.109 119.241M181.26 112.41H205.124V126.064H181.26V112.41Z" stroke="black" stroke-width="0.5"/>
<path d="M8.64355 128.897V127.622ZM8.64355 128.341V128.178ZM38.5366 127.622V128.897ZM38.5366 128.178V128.341ZM8.64355 127.622H38.5366ZM38.5366 128.897H8.64355ZM8.64355 128.178H38.5366ZM38.5366 128.341H8.64355Z" stroke="black" stroke-width="0.5"/>
<path d="M29.9906 72.7904L26.5751 66.8793H25.2905M26.5751 73.7026H25.2905" stroke="black" stroke-width="0.5"/>
<path d="M0.96582 39.2744H2.25034ZM1.53012 39.2744H1.68605ZM2.25034 63.8014H0.96582ZM1.68605 63.8014H1.53012ZM2.25034 39.2744V63.8014ZM0.96582 63.8014V39.2744ZM1.68605 39.2744V63.8014ZM1.53012 63.8014V39.2744Z" stroke="black" stroke-width="0.5"/>
<path d="M29.9906 46.7505L26.5751 40.8394H25.2905M26.5751 47.6701H25.2905" stroke="black" stroke-width="0.5"/>
<path d="M2.25034 93.9872H0.96582ZM1.68605 93.9872H1.53012ZM0.96582 69.4603H2.25034ZM1.53012 69.4603H1.68605ZM0.96582 93.9872V69.4603ZM2.25034 69.4603V93.9872ZM1.53012 93.9872V69.4603ZM1.68605 69.4603V93.9872Z" stroke="black" stroke-width="0.5"/>
<path d="M10.5146 2.39876V1.11569ZM10.5146 1.83511V1.67934ZM38.2693 1.11569V2.39876ZM38.2693 1.67934V1.83511ZM10.5146 1.11569H38.2693ZM38.2693 2.39876H10.5146ZM10.5146 1.67934H38.2693ZM38.2693 1.83511H10.5146Z" stroke="black" stroke-width="0.5"/>
<path d="M30.4582 80.4147L36.3759 76.9956V75.7199M29.5449 76.9956V75.7199" stroke="black" stroke-width="0.5"/>
<path d="M127.258 2.39876V1.11569ZM127.258 1.83511V1.67934ZM144.336 1.11569V2.39876ZM144.336 1.67934V1.83511ZM127.258 1.11569H144.336ZM144.336 2.39876H127.258ZM127.258 1.67934H144.336ZM144.336 1.83511H127.258Z" stroke="black" stroke-width="0.5"/>
<path d="M205.651 97.8365H206.935ZM206.215 97.8365H206.371ZM206.935 108.502H205.651ZM206.371 108.502H206.215ZM206.935 97.8365V108.502ZM205.651 108.502V97.8365ZM206.371 97.8365V108.502ZM206.215 108.502V97.8365Z" stroke="black" stroke-width="0.5"/>
<path d="M92.8801 52.1423L98.7978 48.7307V47.4476M91.9668 48.7307V47.4476" stroke="black" stroke-width="0.5"/>
<path d="M150.431 2.39876V1.11569ZM150.431 1.83511V1.67934ZM169.647 1.11569V2.39876ZM169.647 1.67934V1.83511ZM150.431 1.11569H169.647ZM169.647 2.39876H150.431ZM150.431 1.67934H169.647ZM169.647 1.83511H150.431Z" stroke="black" stroke-width="0.5"/>
<path d="M206.935 88.751H205.651ZM206.371 88.751H206.215ZM205.651 80.2219H206.935ZM206.215 80.2219H206.371ZM205.651 88.751V80.2219ZM206.935 80.2219V88.751ZM206.215 88.751V80.2219ZM206.371 80.2219V88.751Z" stroke="black" stroke-width="0.5"/>
<path d="M47.7659 73.8732L44.3504 67.9621H43.0659M44.3504 74.7928H43.0659" stroke="black" stroke-width="0.5"/>
<path d="M167.279 127.622V128.897ZM167.279 128.178V128.341ZM154.04 128.897V127.622ZM154.04 128.341V128.178ZM167.279 128.897H154.04ZM154.04 127.622H167.279ZM167.279 128.341H154.04ZM154.04 128.178H167.279Z" stroke="black" stroke-width="0.5"/>
<path d="M205.651 115.258H206.935ZM206.215 115.258H206.371ZM206.935 125.923H205.651ZM206.371 125.923H206.215ZM206.935 115.258V125.923ZM205.651 125.923V115.258ZM206.371 115.258V125.923ZM206.215 125.923V115.258Z" stroke="black" stroke-width="0.5"/>
<path d="M206.935 77.6334H205.651ZM206.371 77.6334H206.215ZM205.651 69.1043H206.935ZM206.215 69.1043H206.371ZM205.651 77.6334V69.1043ZM206.935 69.1043V77.6334ZM206.215 77.6334V69.1043ZM206.371 69.1043V77.6334Z" stroke="black" stroke-width="0.5"/>
<path d="M60.5664 76.2762L54.6487 79.6879V80.9709M61.4797 79.6879V80.9709" stroke="black" stroke-width="0.5"/>
<path d="M180.116 60.9534L174.199 64.3651V65.6482M181.03 64.3651V65.6482" stroke="black" stroke-width="0.5"/>
<path d="M193.288 88.6917L187.371 92.1034V93.3864M194.209 92.1034V93.3864" stroke="black" stroke-width="0.5"/>
<path d="M128.305 128.897V127.622ZM128.305 128.341V128.178ZM144.32 127.622V128.897ZM144.32 128.178V128.341ZM128.305 127.622H144.32ZM144.32 128.897H128.305ZM128.305 128.178H144.32ZM144.32 128.341H128.305Z" stroke="black" stroke-width="0.5"/>
<path d="M46.2513 52.1423L52.169 48.7307V47.4476M45.3306 48.7307V47.4476" stroke="black" stroke-width="0.5"/>
<path d="M76.9683 2.39876V1.11569ZM76.9683 1.83511V1.67934ZM80.8961 1.11569V2.39876ZM80.8961 1.67934V1.83511ZM76.9683 1.11569H80.8961ZM80.8961 2.39876H76.9683ZM76.9683 1.67934H80.8961ZM80.8961 1.83511H76.9683Z" stroke="black" stroke-width="0.5"/>
<path d="M180.168 105.943L174.25 109.355V110.63M181.089 109.355V110.63" stroke="black" stroke-width="0.5"/>
<path d="M53.5128 1.11569V2.39876ZM53.5128 1.67934V1.83511ZM49.585 2.39876V1.11569ZM49.585 1.83511V1.67934ZM53.5128 2.39876H49.585ZM49.585 1.11569H53.5128ZM53.5128 1.83511H49.585ZM49.585 1.67934H53.5128Z" stroke="black" stroke-width="0.5"/>
<path d="M186.324 87.7498L182.901 81.8387H181.624M182.901 88.6695H181.624" stroke="black" stroke-width="0.5"/>
<path d="M86.6804 128.897V127.622ZM86.6804 128.341V128.178ZM115.504 127.622V128.897ZM115.504 128.178V128.341ZM86.6804 127.622H115.504ZM115.504 128.897H86.6804ZM86.6804 128.178H115.504ZM115.504 128.341H86.6804Z" stroke="black" stroke-width="0.5"/>
<path d="M64.6204 1.11569V2.39876ZM64.6204 1.67934V1.83511ZM60.6926 2.39876V1.11569ZM60.6926 1.83511V1.67934ZM64.6204 2.39876H60.6926ZM60.6926 1.11569H64.6204ZM64.6204 1.83511H60.6926ZM60.6926 1.67934H64.6204Z" stroke="black" stroke-width="0.5"/>
<path d="M111.116 76.2762L105.198 79.6879V80.9709M112.029 79.6879V80.9709" stroke="black" stroke-width="0.5"/>
<path d="M61.2941 52.1423L67.2119 48.7307V47.4476M60.3809 48.7307V47.4476" stroke="black" stroke-width="0.5"/>
<path d="M94.7735 45.9272L91.358 40.0161H90.0735M91.358 46.8395H90.0735" stroke="black" stroke-width="0.5"/>
<path d="M60.6183 25.5091L66.5361 22.0974V20.8218M59.7051 22.0974V20.8218" stroke="black" stroke-width="0.5"/>
<path d="M127.985 61.8211L124.57 55.91H123.285M124.57 62.7333H123.285" stroke="black" stroke-width="0.5"/>
<path d="M47.7659 60.0782L44.3504 54.1671H43.0659M44.3504 60.9904H43.0659" stroke="black" stroke-width="0.5"/>
<path d="M77.9484 127.622V128.897ZM77.9484 128.178V128.341ZM49.1245 128.897V127.622ZM49.1245 128.341V128.178ZM77.9484 128.897H49.1245ZM49.1245 127.622H77.9484ZM77.9484 128.341H49.1245ZM49.1245 128.178H77.9484Z" stroke="black" stroke-width="0.5"/>
<path d="M202.295 1.11569V2.39876ZM202.295 1.67934V1.83511ZM177.74 2.39876V1.11569ZM177.74 1.83511V1.67934ZM202.295 2.39876H177.74ZM177.74 1.11569H202.295ZM202.295 1.83511H177.74ZM177.74 1.67934H202.295Z" stroke="black" stroke-width="0.5"/>
<path d="M97.1272 2.39876V1.11569ZM97.1272 1.83511V1.67934ZM118.482 1.11569V2.39876ZM118.482 1.67934V1.83511ZM97.1272 1.11569H118.482ZM118.482 2.39876H97.1272ZM97.1272 1.67934H118.482ZM118.482 1.83511H97.1272Z" stroke="black" stroke-width="0.5"/>
<path d="M88.1354 1.11569V2.39876ZM88.1354 1.67934V1.83511ZM84.2002 2.39876V1.11569ZM84.2002 1.83511V1.67934ZM88.1354 2.39876H84.2002ZM84.2002 1.11569H88.1354ZM88.1354 1.83511H84.2002ZM84.2002 1.67934H88.1354Z" stroke="black" stroke-width="0.5"/>
<path d="M168.519 113.738L171.934 119.649H173.219M171.934 112.818H173.219" stroke="black" stroke-width="0.5"/>
<path d="M119.87 69.8385L123.286 75.7496H124.57M123.286 68.9263H124.57" stroke="black" stroke-width="0.5"/>
<path d="M134.094 9.32422C134.271 9.36849 134.424 9.42839 134.555 9.50391C134.685 9.57943 134.794 9.66667 134.883 9.76562C134.971 9.86458 135.042 9.96875 135.094 10.0781C135.146 10.1849 135.182 10.2943 135.203 10.4062C135.227 10.5182 135.238 10.625 135.238 10.7266C135.238 10.8724 135.225 11.0039 135.199 11.1211C135.173 11.2357 135.132 11.3411 135.074 11.4375C135.02 11.5312 134.947 11.6172 134.855 11.6953C134.767 11.7708 134.66 11.8398 134.535 11.9023C134.728 11.9753 134.883 12.0651 135 12.1719C135.117 12.2786 135.207 12.3945 135.27 12.5195C135.332 12.6419 135.374 12.7695 135.395 12.9023C135.415 13.0326 135.426 13.1589 135.426 13.2812C135.426 13.5599 135.375 13.806 135.273 14.0195C135.172 14.2331 135.029 14.4128 134.844 14.5586C134.659 14.7018 134.434 14.8112 134.168 14.8867C133.905 14.9622 133.612 15 133.289 15H130.656V9.25781H133.473C133.707 9.25781 133.914 9.27995 134.094 9.32422ZM133.621 12.4883C133.507 12.4727 133.391 12.4648 133.273 12.4648H131.809V14.0078H133.305C133.438 14.0078 133.56 13.9922 133.672 13.9609C133.784 13.9297 133.88 13.8828 133.961 13.8203C134.044 13.7552 134.108 13.6745 134.152 13.5781C134.199 13.4792 134.223 13.3633 134.223 13.2305C134.223 13.0638 134.195 12.931 134.141 12.832C134.086 12.7305 134.013 12.6523 133.922 12.5977C133.833 12.543 133.733 12.5065 133.621 12.4883ZM133.848 11.3672C133.921 11.3151 133.979 11.2474 134.023 11.1641C134.068 11.0807 134.09 10.9805 134.09 10.8633C134.09 10.7409 134.069 10.6406 134.027 10.5625C133.988 10.4818 133.934 10.418 133.863 10.3711C133.793 10.3242 133.711 10.2917 133.617 10.2734C133.523 10.2552 133.424 10.2461 133.32 10.2461H131.809V11.5195H133.289C133.393 11.5195 133.493 11.5078 133.59 11.4844C133.686 11.4609 133.772 11.4219 133.848 11.3672ZM140.996 14.0078H141.594V16.2305H140.555V15H136.34V9.25781H137.543V14.0078H139.797V9.25781H140.996V14.0078ZM146.934 15H145.793V11.0938H144.461V10.3359C144.812 10.3203 145.059 10.2969 145.199 10.2656C145.423 10.2161 145.605 10.1172 145.746 9.96875C145.842 9.86719 145.915 9.73177 145.965 9.5625C145.993 9.46094 146.008 9.38542 146.008 9.33594H146.934V15Z" fill="black"/>
<path d="M105.516 27.1025C105.25 27.1025 105.012 27.0244 104.8 26.8682C104.589 26.7103 104.467 26.4808 104.437 26.1797H105.13C105.146 26.2839 105.19 26.3685 105.262 26.4336C105.333 26.4987 105.429 26.5312 105.547 26.5312C105.777 26.5312 105.938 26.4043 106.031 26.1504C106.081 26.0104 106.113 25.8062 106.126 25.5376C106.062 25.6174 105.995 25.6784 105.923 25.7207C105.793 25.7988 105.633 25.8379 105.442 25.8379C105.161 25.8379 104.911 25.741 104.693 25.5474C104.475 25.3521 104.366 25.0713 104.366 24.7051C104.366 24.3258 104.475 24.019 104.693 23.7847C104.913 23.5487 105.197 23.4307 105.547 23.4307C106.086 23.4307 106.456 23.6691 106.656 24.146C106.77 24.4162 106.827 24.7718 106.827 25.2129C106.827 25.641 106.772 25.9982 106.663 26.2847C106.455 26.8299 106.072 27.1025 105.516 27.1025ZM105.271 24.1118C105.138 24.216 105.071 24.3926 105.071 24.6416C105.071 24.8516 105.114 25.0094 105.198 25.1152C105.285 25.2194 105.416 25.2715 105.594 25.2715C105.69 25.2715 105.78 25.2438 105.865 25.1885C106.023 25.0876 106.102 24.9126 106.102 24.6636C106.102 24.4634 106.054 24.3047 105.96 24.1875C105.867 24.0703 105.739 24.0117 105.577 24.0117C105.458 24.0117 105.356 24.0451 105.271 24.1118ZM107.957 24.1655C107.879 24.2697 107.841 24.4089 107.845 24.583H107.195C107.202 24.4072 107.232 24.2404 107.286 24.0825C107.343 23.9442 107.432 23.8164 107.554 23.6992C107.645 23.6162 107.754 23.5527 107.879 23.5088C108.004 23.4648 108.158 23.4429 108.34 23.4429C108.679 23.4429 108.951 23.5308 109.158 23.7065C109.367 23.8807 109.471 24.1151 109.471 24.4097C109.471 24.618 109.409 24.7938 109.285 24.937C109.207 25.0265 109.126 25.0876 109.041 25.1201C109.104 25.1201 109.196 25.1746 109.314 25.2837C109.492 25.4481 109.581 25.6727 109.581 25.9575C109.581 26.257 109.476 26.5207 109.268 26.7485C109.061 26.9748 108.755 27.0879 108.348 27.0879C107.846 27.0879 107.498 26.9243 107.303 26.5972C107.2 26.423 107.143 26.1951 107.132 25.9136H107.815C107.815 26.0552 107.838 26.1724 107.884 26.2651C107.968 26.436 108.122 26.5215 108.345 26.5215C108.482 26.5215 108.601 26.4751 108.702 26.3823C108.804 26.2879 108.855 26.1528 108.855 25.9771C108.855 25.7443 108.761 25.5889 108.572 25.5107C108.465 25.4668 108.296 25.4448 108.064 25.4448V24.9468C108.291 24.9435 108.449 24.9215 108.538 24.8809C108.693 24.8125 108.77 24.6742 108.77 24.4658C108.77 24.3307 108.73 24.2209 108.65 24.1362C108.572 24.0516 108.462 24.0093 108.318 24.0093C108.154 24.0093 108.034 24.0614 107.957 24.1655Z" fill="black"/>
<path d="M134.516 99.1025C134.25 99.1025 134.012 99.0244 133.8 98.8682C133.589 98.7103 133.467 98.4808 133.437 98.1797H134.13C134.146 98.2839 134.19 98.3685 134.262 98.4336C134.333 98.4987 134.429 98.5312 134.547 98.5312C134.777 98.5312 134.938 98.4043 135.031 98.1504C135.081 98.0104 135.113 97.8062 135.126 97.5376C135.062 97.6174 134.995 97.6784 134.923 97.7207C134.793 97.7988 134.633 97.8379 134.442 97.8379C134.161 97.8379 133.911 97.741 133.693 97.5474C133.475 97.3521 133.366 97.0713 133.366 96.7051C133.366 96.3258 133.475 96.019 133.693 95.7847C133.913 95.5487 134.197 95.4307 134.547 95.4307C135.086 95.4307 135.456 95.6691 135.656 96.146C135.77 96.4162 135.827 96.7718 135.827 97.2129C135.827 97.641 135.772 97.9982 135.663 98.2847C135.455 98.8299 135.072 99.1025 134.516 99.1025ZM134.271 96.1118C134.138 96.216 134.071 96.3926 134.071 96.6416C134.071 96.8516 134.114 97.0094 134.198 97.1152C134.285 97.2194 134.416 97.2715 134.594 97.2715C134.69 97.2715 134.78 97.2438 134.865 97.1885C135.023 97.0876 135.102 96.9126 135.102 96.6636C135.102 96.4634 135.054 96.3047 134.96 96.1875C134.867 96.0703 134.739 96.0117 134.577 96.0117C134.458 96.0117 134.356 96.0451 134.271 96.1118ZM137.333 97.2422C137.248 97.2422 137.175 97.2528 137.113 97.2739C137.004 97.313 136.922 97.3854 136.867 97.4912L136.242 97.4619L136.491 95.5063H138.441V96.0972H136.994L136.867 96.8711C136.974 96.8011 137.058 96.7547 137.118 96.7319C137.219 96.6945 137.342 96.6758 137.487 96.6758C137.78 96.6758 138.035 96.7743 138.253 96.9712C138.472 97.1681 138.581 97.4546 138.581 97.8306C138.581 98.1577 138.476 98.4499 138.266 98.707C138.056 98.9642 137.742 99.0928 137.323 99.0928C136.986 99.0928 136.71 99.0024 136.493 98.8218C136.277 98.6411 136.156 98.3848 136.132 98.0527H136.825C136.853 98.2041 136.906 98.3213 136.984 98.4043C137.062 98.4857 137.176 98.5264 137.326 98.5264C137.498 98.5264 137.629 98.4661 137.719 98.3457C137.81 98.2236 137.855 98.0706 137.855 97.8867C137.855 97.7061 137.813 97.5539 137.729 97.4302C137.644 97.3049 137.512 97.2422 137.333 97.2422Z" fill="black"/>
<path d="M158.217 99H157.504V96.5586H156.672V96.085C156.892 96.0752 157.045 96.0605 157.133 96.041C157.273 96.0101 157.387 95.9482 157.475 95.8555C157.535 95.792 157.581 95.7074 157.612 95.6016C157.63 95.5381 157.639 95.4909 157.639 95.46H158.217V99ZM160.485 99.0879C160.035 99.0879 159.718 98.93 159.536 98.6143C159.355 98.2985 159.265 97.8485 159.265 97.2642C159.265 96.6799 159.355 96.229 159.536 95.9116C159.718 95.5942 160.035 95.4355 160.485 95.4355C160.936 95.4355 161.253 95.5942 161.435 95.9116C161.616 96.229 161.706 96.6799 161.706 97.2642C161.706 97.8485 161.615 98.2985 161.433 98.6143C161.252 98.93 160.936 99.0879 160.485 99.0879ZM160.893 98.1968C160.957 97.9819 160.988 97.6711 160.988 97.2642C160.988 96.8377 160.956 96.522 160.891 96.3169C160.827 96.1118 160.692 96.0093 160.485 96.0093C160.279 96.0093 160.142 96.1118 160.075 96.3169C160.008 96.522 159.975 96.8377 159.975 97.2642C159.975 97.6711 160.008 97.9827 160.075 98.1992C160.142 98.4141 160.279 98.5215 160.485 98.5215C160.692 98.5215 160.828 98.4132 160.893 98.1968ZM164.506 97.6938V98.2383H164.106V99H163.425V98.2383H162.023V97.6304L163.325 95.4819H164.106V97.6938H164.506ZM162.539 97.6938H163.425V96.1655L162.539 97.6938Z" fill="black"/>
<path d="M187.217 35H186.504V32.5586H185.672V32.085C185.892 32.0752 186.045 32.0605 186.133 32.041C186.273 32.0101 186.387 31.9482 186.475 31.8555C186.535 31.792 186.581 31.7074 186.612 31.6016C186.63 31.5381 186.639 31.4909 186.639 31.46H187.217V35ZM189.485 35.0879C189.035 35.0879 188.718 34.93 188.536 34.6143C188.355 34.2985 188.265 33.8485 188.265 33.2642C188.265 32.6799 188.355 32.229 188.536 31.9116C188.718 31.5942 189.035 31.4355 189.485 31.4355C189.936 31.4355 190.253 31.5942 190.435 31.9116C190.616 32.229 190.706 32.6799 190.706 33.2642C190.706 33.8485 190.615 34.2985 190.433 34.6143C190.252 34.93 189.936 35.0879 189.485 35.0879ZM189.893 34.1968C189.957 33.9819 189.988 33.6711 189.988 33.2642C189.988 32.8377 189.956 32.522 189.891 32.3169C189.827 32.1118 189.692 32.0093 189.485 32.0093C189.279 32.0093 189.142 32.1118 189.075 32.3169C189.008 32.522 188.975 32.8377 188.975 33.2642C188.975 33.6711 189.008 33.9827 189.075 34.1992C189.142 34.4141 189.279 34.5215 189.485 34.5215C189.692 34.5215 189.828 34.4132 189.893 34.1968ZM192.225 33.2422C192.14 33.2422 192.067 33.2528 192.005 33.2739C191.896 33.313 191.814 33.3854 191.758 33.4912L191.133 33.4619L191.382 31.5063H193.333V32.0972H191.885L191.758 32.8711C191.866 32.8011 191.95 32.7547 192.01 32.7319C192.111 32.6945 192.234 32.6758 192.378 32.6758C192.671 32.6758 192.927 32.7743 193.145 32.9712C193.363 33.1681 193.472 33.4546 193.472 33.8306C193.472 34.1577 193.367 34.4499 193.157 34.707C192.947 34.9642 192.633 35.0928 192.215 35.0928C191.878 35.0928 191.601 35.0024 191.385 34.8218C191.168 34.6411 191.048 34.3848 191.023 34.0527H191.717C191.744 34.2041 191.797 34.3213 191.875 34.4043C191.954 34.4857 192.068 34.5264 192.217 34.5264C192.39 34.5264 192.521 34.4661 192.61 34.3457C192.701 34.2236 192.747 34.0706 192.747 33.8867C192.747 33.7061 192.705 33.5539 192.62 33.4302C192.535 33.3049 192.404 33.2422 192.225 33.2422Z" fill="black"/>
<path d="M191.217 81H190.504V78.5586H189.672V78.085C189.892 78.0752 190.045 78.0605 190.133 78.041C190.273 78.0101 190.387 77.9482 190.475 77.8555C190.535 77.792 190.581 77.7074 190.612 77.6016C190.63 77.5381 190.639 77.4909 190.639 77.46H191.217V81ZM193.485 81.0879C193.035 81.0879 192.718 80.93 192.536 80.6143C192.355 80.2985 192.265 79.8485 192.265 79.2642C192.265 78.6799 192.355 78.229 192.536 77.9116C192.718 77.5942 193.035 77.4355 193.485 77.4355C193.936 77.4355 194.253 77.5942 194.435 77.9116C194.616 78.229 194.706 78.6799 194.706 79.2642C194.706 79.8485 194.615 80.2985 194.433 80.6143C194.252 80.93 193.936 81.0879 193.485 81.0879ZM193.893 80.1968C193.957 79.9819 193.988 79.6711 193.988 79.2642C193.988 78.8377 193.956 78.522 193.891 78.3169C193.827 78.1118 193.692 78.0093 193.485 78.0093C193.279 78.0093 193.142 78.1118 193.075 78.3169C193.008 78.522 192.975 78.8377 192.975 79.2642C192.975 79.6711 193.008 79.9827 193.075 80.1992C193.142 80.4141 193.279 80.5215 193.485 80.5215C193.692 80.5215 193.828 80.4132 193.893 80.1968ZM196.42 78.7026C196.734 78.7026 196.991 78.8092 197.191 79.0225C197.393 79.2357 197.494 79.5083 197.494 79.8403C197.494 80.1707 197.396 80.4621 197.199 80.7144C197.002 80.9666 196.696 81.0928 196.281 81.0928C195.835 81.0928 195.506 80.9064 195.294 80.5337C195.13 80.2424 195.048 79.8664 195.048 79.4058C195.048 79.1356 195.059 78.9159 195.082 78.7466C195.123 78.4455 195.202 78.1948 195.319 77.9946C195.42 77.8237 195.552 77.6862 195.714 77.582C195.879 77.4779 196.075 77.4258 196.303 77.4258C196.632 77.4258 196.894 77.5104 197.089 77.6797C197.284 77.8473 197.394 78.0711 197.418 78.3511H196.725C196.725 78.2941 196.703 78.2314 196.659 78.1631C196.584 78.0524 196.471 77.9971 196.32 77.9971C196.094 77.9971 195.932 78.124 195.836 78.3779C195.784 78.5179 195.749 78.7246 195.729 78.998C195.815 78.8955 195.915 78.8206 196.029 78.7734C196.143 78.7262 196.273 78.7026 196.42 78.7026ZM195.951 79.3667C195.814 79.4725 195.746 79.6434 195.746 79.8794C195.746 80.0698 195.797 80.2253 195.9 80.3457C196.002 80.4661 196.133 80.5264 196.291 80.5264C196.445 80.5264 196.566 80.4686 196.654 80.353C196.744 80.2358 196.789 80.0845 196.789 79.8989C196.789 79.6922 196.738 79.5343 196.637 79.4253C196.536 79.3146 196.413 79.2593 196.266 79.2593C196.147 79.2593 196.042 79.2951 195.951 79.3667Z" fill="black"/>
<path d="M79.5156 15.1025C79.2503 15.1025 79.0119 15.0244 78.8003 14.8682C78.5887 14.7103 78.4674 14.4808 78.4365 14.1797H79.1299C79.1462 14.2839 79.1901 14.3685 79.2617 14.4336C79.3333 14.4987 79.4285 14.5312 79.5474 14.5312C79.7769 14.5312 79.938 14.4043 80.0308 14.1504C80.0812 14.0104 80.113 13.8062 80.126 13.5376C80.0625 13.6174 79.995 13.6784 79.9233 13.7207C79.7931 13.7988 79.6328 13.8379 79.4424 13.8379C79.1608 13.8379 78.911 13.741 78.6929 13.5474C78.4748 13.3521 78.3657 13.0713 78.3657 12.7051C78.3657 12.3258 78.4748 12.019 78.6929 11.7847C78.9126 11.5487 79.1974 11.4307 79.5474 11.4307C80.0861 11.4307 80.4556 11.6691 80.6558 12.146C80.7697 12.4162 80.8267 12.7718 80.8267 13.2129C80.8267 13.641 80.7721 13.9982 80.6631 14.2847C80.4548 14.8299 80.0723 15.1025 79.5156 15.1025ZM79.2715 12.1118C79.138 12.216 79.0713 12.3926 79.0713 12.6416C79.0713 12.8516 79.1136 13.0094 79.1982 13.1152C79.2845 13.2194 79.4163 13.2715 79.5938 13.2715C79.6898 13.2715 79.7801 13.2438 79.8647 13.1885C80.0226 13.0876 80.1016 12.9126 80.1016 12.6636C80.1016 12.4634 80.0544 12.3047 79.96 12.1875C79.8672 12.0703 79.7394 12.0117 79.5767 12.0117C79.4578 12.0117 79.3561 12.0451 79.2715 12.1118ZM82.7383 12.1802C82.6553 12.0809 82.5365 12.0312 82.3818 12.0312C82.1702 12.0312 82.0262 12.1102 81.9497 12.2681C81.9058 12.3592 81.8797 12.5041 81.8716 12.7026H81.1953C81.2067 12.4015 81.2612 12.1582 81.3589 11.9727C81.5444 11.6195 81.874 11.4429 82.3477 11.4429C82.722 11.4429 83.0199 11.547 83.2412 11.7554C83.4626 11.9621 83.5732 12.2363 83.5732 12.5781C83.5732 12.8402 83.4951 13.0729 83.3389 13.2764C83.2363 13.4115 83.0679 13.562 82.8335 13.728L82.5552 13.9258C82.381 14.0495 82.2614 14.139 82.1963 14.1943C82.1328 14.2497 82.0791 14.314 82.0352 14.3872H83.5806V15H81.1562C81.1628 14.7461 81.2173 14.5142 81.3198 14.3042C81.4191 14.0682 81.6535 13.8184 82.0229 13.5547C82.3436 13.3252 82.5511 13.1608 82.6455 13.0615C82.7904 12.9069 82.8628 12.7376 82.8628 12.5537C82.8628 12.404 82.8213 12.2795 82.7383 12.1802Z" fill="black"/>
<path d="M49.5156 37.1025C49.2503 37.1025 49.0119 37.0244 48.8003 36.8682C48.5887 36.7103 48.4674 36.4808 48.4365 36.1797H49.1299C49.1462 36.2839 49.1901 36.3685 49.2617 36.4336C49.3333 36.4987 49.4285 36.5312 49.5474 36.5312C49.7769 36.5312 49.938 36.4043 50.0308 36.1504C50.0812 36.0104 50.113 35.8062 50.126 35.5376C50.0625 35.6174 49.995 35.6784 49.9233 35.7207C49.7931 35.7988 49.6328 35.8379 49.4424 35.8379C49.1608 35.8379 48.911 35.741 48.6929 35.5474C48.4748 35.3521 48.3657 35.0713 48.3657 34.7051C48.3657 34.3258 48.4748 34.019 48.6929 33.7847C48.9126 33.5487 49.1974 33.4307 49.5474 33.4307C50.0861 33.4307 50.4556 33.6691 50.6558 34.146C50.7697 34.4162 50.8267 34.7718 50.8267 35.2129C50.8267 35.641 50.7721 35.9982 50.6631 36.2847C50.4548 36.8299 50.0723 37.1025 49.5156 37.1025ZM49.2715 34.1118C49.138 34.216 49.0713 34.3926 49.0713 34.6416C49.0713 34.8516 49.1136 35.0094 49.1982 35.1152C49.2845 35.2194 49.4163 35.2715 49.5938 35.2715C49.6898 35.2715 49.7801 35.2438 49.8647 35.1885C50.0226 35.0876 50.1016 34.9126 50.1016 34.6636C50.1016 34.4634 50.0544 34.3047 49.96 34.1875C49.8672 34.0703 49.7394 34.0117 49.5767 34.0117C49.4578 34.0117 49.3561 34.0451 49.2715 34.1118ZM52.8921 37H52.1792V34.5586H51.3467V34.085C51.5664 34.0752 51.7202 34.0605 51.8081 34.041C51.9481 34.0101 52.062 33.9482 52.1499 33.8555C52.2101 33.792 52.2557 33.7074 52.2866 33.6016C52.3045 33.5381 52.3135 33.4909 52.3135 33.46H52.8921V37Z" fill="black"/>
<path d="M11.2173 53H10.5044V50.5586H9.67188V50.085C9.8916 50.0752 10.0454 50.0605 10.1333 50.041C10.2733 50.0101 10.3872 49.9482 10.4751 49.8555C10.5353 49.792 10.5809 49.7074 10.6118 49.6016C10.6297 49.5381 10.6387 49.4909 10.6387 49.46H11.2173V53ZM13.4854 53.0879C13.0345 53.0879 12.7179 52.93 12.5356 52.6143C12.355 52.2985 12.2646 51.8485 12.2646 51.2642C12.2646 50.6799 12.355 50.229 12.5356 49.9116C12.7179 49.5942 13.0345 49.4355 13.4854 49.4355C13.9362 49.4355 14.2528 49.5942 14.4351 49.9116C14.6157 50.229 14.7061 50.6799 14.7061 51.2642C14.7061 51.8485 14.6149 52.2985 14.4326 52.6143C14.252 52.93 13.9362 53.0879 13.4854 53.0879ZM13.8931 52.1968C13.9565 51.9819 13.9883 51.6711 13.9883 51.2642C13.9883 50.8377 13.9557 50.522 13.8906 50.3169C13.8271 50.1118 13.6921 50.0093 13.4854 50.0093C13.2786 50.0093 13.1419 50.1118 13.0752 50.3169C13.0085 50.522 12.9751 50.8377 12.9751 51.2642C12.9751 51.6711 13.0085 51.9827 13.0752 52.1992C13.1419 52.4141 13.2786 52.5215 13.4854 52.5215C13.6921 52.5215 13.828 52.4132 13.8931 52.1968ZM16.2686 53.0879C15.8177 53.0879 15.5011 52.93 15.3188 52.6143C15.1382 52.2985 15.0479 51.8485 15.0479 51.2642C15.0479 50.6799 15.1382 50.229 15.3188 49.9116C15.5011 49.5942 15.8177 49.4355 16.2686 49.4355C16.7194 49.4355 17.036 49.5942 17.2183 49.9116C17.3989 50.229 17.4893 50.6799 17.4893 51.2642C17.4893 51.8485 17.3981 52.2985 17.2158 52.6143C17.0352 52.93 16.7194 53.0879 16.2686 53.0879ZM16.6763 52.1968C16.7397 51.9819 16.7715 51.6711 16.7715 51.2642C16.7715 50.8377 16.7389 50.522 16.6738 50.3169C16.6104 50.1118 16.4753 50.0093 16.2686 50.0093C16.0618 50.0093 15.9251 50.1118 15.8584 50.3169C15.7917 50.522 15.7583 50.8377 15.7583 51.2642C15.7583 51.6711 15.7917 51.9827 15.8584 52.1992C15.9251 52.4141 16.0618 52.5215 16.2686 52.5215C16.4753 52.5215 16.6112 52.4132 16.6763 52.1968Z" fill="black"/>
<path d="M21.5156 105.103C21.2503 105.103 21.0119 105.024 20.8003 104.868C20.5887 104.71 20.4674 104.481 20.4365 104.18H21.1299C21.1462 104.284 21.1901 104.368 21.2617 104.434C21.3333 104.499 21.4285 104.531 21.5474 104.531C21.7769 104.531 21.938 104.404 22.0308 104.15C22.0812 104.01 22.113 103.806 22.126 103.538C22.0625 103.617 21.995 103.678 21.9233 103.721C21.7931 103.799 21.6328 103.838 21.4424 103.838C21.1608 103.838 20.911 103.741 20.6929 103.547C20.4748 103.352 20.3657 103.071 20.3657 102.705C20.3657 102.326 20.4748 102.019 20.6929 101.785C20.9126 101.549 21.1974 101.431 21.5474 101.431C22.0861 101.431 22.4556 101.669 22.6558 102.146C22.7697 102.416 22.8267 102.772 22.8267 103.213C22.8267 103.641 22.7721 103.998 22.6631 104.285C22.4548 104.83 22.0723 105.103 21.5156 105.103ZM21.2715 102.112C21.138 102.216 21.0713 102.393 21.0713 102.642C21.0713 102.852 21.1136 103.009 21.1982 103.115C21.2845 103.219 21.4163 103.271 21.5938 103.271C21.6898 103.271 21.7801 103.244 21.8647 103.188C22.0226 103.088 22.1016 102.913 22.1016 102.664C22.1016 102.463 22.0544 102.305 21.96 102.188C21.8672 102.07 21.7394 102.012 21.5767 102.012C21.4578 102.012 21.3561 102.045 21.2715 102.112ZM23.437 104.778C23.2336 104.569 23.1318 104.316 23.1318 104.019C23.1318 103.82 23.1766 103.64 23.2661 103.479C23.3573 103.318 23.4899 103.197 23.6641 103.115C23.4932 103.001 23.3817 102.878 23.3296 102.747C23.2791 102.613 23.2539 102.489 23.2539 102.373C23.2539 102.116 23.3507 101.897 23.5444 101.716C23.7381 101.534 24.0116 101.443 24.3647 101.443C24.7179 101.443 24.9914 101.534 25.1851 101.716C25.3787 101.897 25.4756 102.116 25.4756 102.373C25.4756 102.489 25.4495 102.613 25.3975 102.747C25.347 102.878 25.2363 102.993 25.0654 103.091C25.2396 103.188 25.3706 103.318 25.4585 103.479C25.5464 103.64 25.5903 103.82 25.5903 104.019C25.5903 104.316 25.4797 104.57 25.2583 104.78C25.0386 104.989 24.731 105.093 24.3354 105.093C23.9399 105.093 23.6405 104.988 23.437 104.778ZM23.8545 103.972C23.8545 104.146 23.8993 104.281 23.9888 104.377C24.0799 104.473 24.2052 104.521 24.3647 104.521C24.5243 104.521 24.6488 104.473 24.7383 104.377C24.8294 104.281 24.875 104.146 24.875 103.972C24.875 103.792 24.8286 103.655 24.7358 103.562C24.6447 103.468 24.521 103.42 24.3647 103.42C24.2085 103.42 24.084 103.468 23.9912 103.562C23.9001 103.655 23.8545 103.792 23.8545 103.972ZM24.0376 102.766C24.1157 102.847 24.2248 102.888 24.3647 102.888C24.5063 102.888 24.6154 102.847 24.6919 102.766C24.77 102.685 24.8091 102.58 24.8091 102.451C24.8091 102.311 24.77 102.202 24.6919 102.124C24.6154 102.044 24.5063 102.004 24.3647 102.004C24.2248 102.004 24.1149 102.044 24.0352 102.124C23.957 102.202 23.918 102.311 23.918 102.451C23.918 102.58 23.9578 102.685 24.0376 102.766Z" fill="black"/>
<path d="M53.4141 86.3242C53.5911 86.3685 53.7448 86.4284 53.875 86.5039C54.0052 86.5794 54.1146 86.6667 54.2031 86.7656C54.2917 86.8646 54.362 86.9688 54.4141 87.0781C54.4661 87.1849 54.5026 87.2943 54.5234 87.4062C54.5469 87.5182 54.5586 87.625 54.5586 87.7266C54.5586 87.8724 54.5456 88.0039 54.5195 88.1211C54.4935 88.2357 54.4518 88.3411 54.3945 88.4375C54.3398 88.5312 54.2669 88.6172 54.1758 88.6953C54.0872 88.7708 53.9805 88.8398 53.8555 88.9023C54.0482 88.9753 54.2031 89.0651 54.3203 89.1719C54.4375 89.2786 54.5273 89.3945 54.5898 89.5195C54.6523 89.6419 54.694 89.7695 54.7148 89.9023C54.7357 90.0326 54.7461 90.1589 54.7461 90.2812C54.7461 90.5599 54.6953 90.806 54.5938 91.0195C54.4922 91.2331 54.349 91.4128 54.1641 91.5586C53.9792 91.7018 53.7539 91.8112 53.4883 91.8867C53.2253 91.9622 52.9323 92 52.6094 92H49.9766V86.2578H52.793C53.0273 86.2578 53.2344 86.2799 53.4141 86.3242ZM52.9414 89.4883C52.8268 89.4727 52.7109 89.4648 52.5938 89.4648H51.1289V91.0078H52.625C52.7578 91.0078 52.8802 90.9922 52.9922 90.9609C53.1042 90.9297 53.2005 90.8828 53.2812 90.8203C53.3646 90.7552 53.4284 90.6745 53.4727 90.5781C53.5195 90.4792 53.543 90.3633 53.543 90.2305C53.543 90.0638 53.5156 89.931 53.4609 89.832C53.4062 89.7305 53.3333 89.6523 53.2422 89.5977C53.1536 89.543 53.0534 89.5065 52.9414 89.4883ZM53.168 88.3672C53.2409 88.3151 53.2995 88.2474 53.3438 88.1641C53.388 88.0807 53.4102 87.9805 53.4102 87.8633C53.4102 87.7409 53.3893 87.6406 53.3477 87.5625C53.3086 87.4818 53.2539 87.418 53.1836 87.3711C53.1133 87.3242 53.0312 87.2917 52.9375 87.2734C52.8438 87.2552 52.7448 87.2461 52.6406 87.2461H51.1289V88.5195H52.6094C52.7135 88.5195 52.8138 88.5078 52.9102 88.4844C53.0065 88.4609 53.0924 88.4219 53.168 88.3672ZM60.3164 91.0078H60.9141V93.2305H59.875V92H55.6602V86.2578H56.8633V91.0078H59.1172V86.2578H60.3164V91.0078ZM64.7578 87.4648C64.6328 87.6315 64.5729 87.8542 64.5781 88.1328H63.5391C63.5495 87.8516 63.5977 87.5846 63.6836 87.332C63.7747 87.1107 63.918 86.9062 64.1133 86.7188C64.2591 86.5859 64.4323 86.4844 64.6328 86.4141C64.8333 86.3438 65.0794 86.3086 65.3711 86.3086C65.9128 86.3086 66.349 86.4492 66.6797 86.7305C67.013 87.0091 67.1797 87.3841 67.1797 87.8555C67.1797 88.1888 67.0807 88.4701 66.8828 88.6992C66.7578 88.8424 66.6276 88.9401 66.4922 88.9922C66.5938 88.9922 66.7396 89.0794 66.9297 89.2539C67.2135 89.5169 67.3555 89.8763 67.3555 90.332C67.3555 90.8112 67.1888 91.2331 66.8555 91.5977C66.5247 91.9596 66.0339 92.1406 65.3828 92.1406C64.5807 92.1406 64.0234 91.8789 63.7109 91.3555C63.5469 91.0768 63.4557 90.7122 63.4375 90.2617H64.5312C64.5312 90.4883 64.5677 90.6758 64.6406 90.8242C64.776 91.0977 65.0221 91.2344 65.3789 91.2344C65.5977 91.2344 65.7878 91.1602 65.9492 91.0117C66.1133 90.8607 66.1953 90.6445 66.1953 90.3633C66.1953 89.9909 66.0443 89.7422 65.7422 89.6172C65.5703 89.5469 65.2995 89.5117 64.9297 89.5117V88.7148C65.2917 88.7096 65.5443 88.6745 65.6875 88.6094C65.9349 88.5 66.0586 88.2786 66.0586 87.9453C66.0586 87.7292 65.9948 87.5534 65.8672 87.418C65.7422 87.2826 65.5651 87.2148 65.3359 87.2148C65.0729 87.2148 64.8802 87.2982 64.7578 87.4648Z" fill="black"/>
<path d="M92.4141 86.3242C92.5911 86.3685 92.7448 86.4284 92.875 86.5039C93.0052 86.5794 93.1146 86.6667 93.2031 86.7656C93.2917 86.8646 93.362 86.9688 93.4141 87.0781C93.4661 87.1849 93.5026 87.2943 93.5234 87.4062C93.5469 87.5182 93.5586 87.625 93.5586 87.7266C93.5586 87.8724 93.5456 88.0039 93.5195 88.1211C93.4935 88.2357 93.4518 88.3411 93.3945 88.4375C93.3398 88.5312 93.2669 88.6172 93.1758 88.6953C93.0872 88.7708 92.9805 88.8398 92.8555 88.9023C93.0482 88.9753 93.2031 89.0651 93.3203 89.1719C93.4375 89.2786 93.5273 89.3945 93.5898 89.5195C93.6523 89.6419 93.694 89.7695 93.7148 89.9023C93.7357 90.0326 93.7461 90.1589 93.7461 90.2812C93.7461 90.5599 93.6953 90.806 93.5938 91.0195C93.4922 91.2331 93.349 91.4128 93.1641 91.5586C92.9792 91.7018 92.7539 91.8112 92.4883 91.8867C92.2253 91.9622 91.9323 92 91.6094 92H88.9766V86.2578H91.793C92.0273 86.2578 92.2344 86.2799 92.4141 86.3242ZM91.9414 89.4883C91.8268 89.4727 91.7109 89.4648 91.5938 89.4648H90.1289V91.0078H91.625C91.7578 91.0078 91.8802 90.9922 91.9922 90.9609C92.1042 90.9297 92.2005 90.8828 92.2812 90.8203C92.3646 90.7552 92.4284 90.6745 92.4727 90.5781C92.5195 90.4792 92.543 90.3633 92.543 90.2305C92.543 90.0638 92.5156 89.931 92.4609 89.832C92.4062 89.7305 92.3333 89.6523 92.2422 89.5977C92.1536 89.543 92.0534 89.5065 91.9414 89.4883ZM92.168 88.3672C92.2409 88.3151 92.2995 88.2474 92.3438 88.1641C92.388 88.0807 92.4102 87.9805 92.4102 87.8633C92.4102 87.7409 92.3893 87.6406 92.3477 87.5625C92.3086 87.4818 92.2539 87.418 92.1836 87.3711C92.1133 87.3242 92.0312 87.2917 91.9375 87.2734C91.8438 87.2552 91.7448 87.2461 91.6406 87.2461H90.1289V88.5195H91.6094C91.7135 88.5195 91.8138 88.5078 91.9102 88.4844C92.0065 88.4609 92.0924 88.4219 92.168 88.3672ZM99.3164 91.0078H99.9141V93.2305H98.875V92H94.6602V86.2578H95.8633V91.0078H98.1172V86.2578H99.3164V91.0078ZM105.008 87.4883C104.875 87.3294 104.685 87.25 104.438 87.25C104.099 87.25 103.868 87.3763 103.746 87.6289C103.676 87.7747 103.634 88.0065 103.621 88.3242H102.539C102.557 87.8424 102.645 87.4531 102.801 87.1562C103.098 86.5911 103.625 86.3086 104.383 86.3086C104.982 86.3086 105.458 86.4753 105.812 86.8086C106.167 87.1393 106.344 87.5781 106.344 88.125C106.344 88.5443 106.219 88.9167 105.969 89.2422C105.805 89.4583 105.535 89.6992 105.16 89.9648L104.715 90.2812C104.436 90.4792 104.245 90.6224 104.141 90.7109C104.039 90.7995 103.953 90.9023 103.883 91.0195H106.355V92H102.477C102.487 91.5938 102.574 91.2227 102.738 90.8867C102.897 90.5091 103.272 90.1094 103.863 89.6875C104.376 89.3203 104.708 89.0573 104.859 88.8984C105.091 88.651 105.207 88.3802 105.207 88.0859C105.207 87.8464 105.141 87.6471 105.008 87.4883Z" fill="black"/>
<path d="M12.5156 73.1025C12.2503 73.1025 12.0119 73.0244 11.8003 72.8682C11.5887 72.7103 11.4674 72.4808 11.4365 72.1797H12.1299C12.1462 72.2839 12.1901 72.3685 12.2617 72.4336C12.3333 72.4987 12.4285 72.5312 12.5474 72.5312C12.7769 72.5312 12.938 72.4043 13.0308 72.1504C13.0812 72.0104 13.113 71.8062 13.126 71.5376C13.0625 71.6174 12.995 71.6784 12.9233 71.7207C12.7931 71.7988 12.6328 71.8379 12.4424 71.8379C12.1608 71.8379 11.911 71.741 11.6929 71.5474C11.4748 71.3521 11.3657 71.0713 11.3657 70.7051C11.3657 70.3258 11.4748 70.019 11.6929 69.7847C11.9126 69.5487 12.1974 69.4307 12.5474 69.4307C13.0861 69.4307 13.4556 69.6691 13.6558 70.146C13.7697 70.4162 13.8267 70.7718 13.8267 71.2129C13.8267 71.641 13.7721 71.9982 13.6631 72.2847C13.4548 72.8299 13.0723 73.1025 12.5156 73.1025ZM12.2715 70.1118C12.138 70.216 12.0713 70.3926 12.0713 70.6416C12.0713 70.8516 12.1136 71.0094 12.1982 71.1152C12.2845 71.2194 12.4163 71.2715 12.5938 71.2715C12.6898 71.2715 12.7801 71.2438 12.8647 71.1885C13.0226 71.0876 13.1016 70.9126 13.1016 70.6636C13.1016 70.4634 13.0544 70.3047 12.96 70.1875C12.8672 70.0703 12.7394 70.0117 12.5767 70.0117C12.4578 70.0117 12.3561 70.0451 12.2715 70.1118ZM15.2988 73.1025C15.0335 73.1025 14.7951 73.0244 14.5835 72.8682C14.3719 72.7103 14.2507 72.4808 14.2197 72.1797H14.9131C14.9294 72.2839 14.9733 72.3685 15.0449 72.4336C15.1165 72.4987 15.2118 72.5312 15.3306 72.5312C15.5601 72.5312 15.7212 72.4043 15.814 72.1504C15.8644 72.0104 15.8962 71.8062 15.9092 71.5376C15.8457 71.6174 15.7782 71.6784 15.7065 71.7207C15.5763 71.7988 15.416 71.8379 15.2256 71.8379C14.944 71.8379 14.6942 71.741 14.4761 71.5474C14.258 71.3521 14.1489 71.0713 14.1489 70.7051C14.1489 70.3258 14.258 70.019 14.4761 69.7847C14.6958 69.5487 14.9806 69.4307 15.3306 69.4307C15.8693 69.4307 16.2388 69.6691 16.439 70.146C16.5529 70.4162 16.6099 70.7718 16.6099 71.2129C16.6099 71.641 16.5553 71.9982 16.4463 72.2847C16.238 72.8299 15.8555 73.1025 15.2988 73.1025ZM15.0547 70.1118C14.9212 70.216 14.8545 70.3926 14.8545 70.6416C14.8545 70.8516 14.8968 71.0094 14.9814 71.1152C15.0677 71.2194 15.1995 71.2715 15.377 71.2715C15.473 71.2715 15.5633 71.2438 15.6479 71.1885C15.8058 71.0876 15.8848 70.9126 15.8848 70.6636C15.8848 70.4634 15.8376 70.3047 15.7432 70.1875C15.6504 70.0703 15.5226 70.0117 15.3599 70.0117C15.241 70.0117 15.1393 70.0451 15.0547 70.1118Z" fill="black"/>
<path d="M130.186 17.2056H130.828C130.898 17.2056 130.96 17.2076 131.013 17.2117C131.066 17.2149 131.116 17.2227 131.162 17.2349C131.206 17.2471 131.247 17.265 131.285 17.2886C131.324 17.3114 131.359 17.3407 131.388 17.3765C131.417 17.4115 131.44 17.4526 131.456 17.4998C131.473 17.5461 131.482 17.5986 131.482 17.6572C131.482 17.6882 131.478 17.7215 131.47 17.7573C131.462 17.7931 131.448 17.8285 131.429 17.8635C131.411 17.8977 131.386 17.9299 131.355 17.96C131.325 17.9893 131.287 18.0133 131.243 18.032C131.279 18.0442 131.317 18.0613 131.355 18.0833C131.393 18.1052 131.428 18.1337 131.459 18.1687C131.49 18.2029 131.517 18.2448 131.537 18.2944C131.557 18.3433 131.567 18.4019 131.567 18.4702C131.567 18.5093 131.562 18.55 131.553 18.5923C131.544 18.6338 131.529 18.6741 131.508 18.7131C131.487 18.7522 131.461 18.7892 131.428 18.8242C131.396 18.8592 131.356 18.8897 131.31 18.9158C131.263 18.9418 131.21 18.9626 131.149 18.978C131.088 18.9927 131.02 19 130.942 19H130.186V17.2056ZM130.907 18.79C130.985 18.79 131.051 18.7827 131.104 18.7681C131.157 18.7526 131.2 18.7314 131.233 18.7046C131.266 18.6769 131.29 18.644 131.305 18.6057C131.32 18.5675 131.327 18.5247 131.327 18.4775C131.327 18.4303 131.32 18.3876 131.305 18.3494C131.29 18.3111 131.266 18.2786 131.233 18.2517C131.2 18.224 131.157 18.2029 131.104 18.1882C131.051 18.1728 130.985 18.165 130.907 18.165H130.425V18.79H130.907ZM130.873 17.9697C130.952 17.9697 131.015 17.9624 131.063 17.9478C131.112 17.9323 131.149 17.9119 131.176 17.8867C131.202 17.8607 131.22 17.8302 131.229 17.7952C131.238 17.7602 131.243 17.7227 131.243 17.6829C131.243 17.6405 131.236 17.6031 131.223 17.5706C131.211 17.5372 131.19 17.5091 131.161 17.4863C131.132 17.4635 131.093 17.446 131.046 17.4338C130.999 17.4216 130.941 17.4155 130.873 17.4155H130.425V17.9697H130.873ZM133.082 17.6926H133.307V19H133.082V17.6926ZM131.832 17.6926H132.057V18.1846H132.45C132.521 18.1846 132.584 18.1943 132.64 18.2139C132.697 18.2326 132.745 18.2598 132.784 18.2957C132.823 18.3306 132.853 18.3734 132.874 18.4238C132.895 18.4735 132.905 18.5296 132.905 18.5923C132.905 18.6558 132.895 18.7127 132.874 18.7632C132.853 18.8128 132.823 18.8556 132.784 18.8914C132.745 18.9264 132.697 18.9532 132.64 18.9719C132.584 18.9906 132.521 19 132.45 19H131.832V17.6926ZM132.057 18.8206H132.405C132.444 18.8206 132.48 18.8165 132.513 18.8083C132.548 18.8002 132.577 18.7872 132.601 18.7693C132.626 18.7506 132.645 18.727 132.659 18.6985C132.673 18.6692 132.679 18.6338 132.679 18.5923C132.679 18.5516 132.672 18.517 132.657 18.4885C132.644 18.46 132.624 18.4368 132.598 18.4189C132.572 18.4002 132.542 18.3868 132.505 18.3787C132.469 18.3697 132.429 18.3652 132.385 18.3652H132.057V18.8206ZM134.426 18.4727C134.377 18.4857 134.324 18.4967 134.265 18.5056C134.207 18.5146 134.153 18.519 134.103 18.519C133.928 18.519 133.798 18.4857 133.713 18.4189C133.629 18.3514 133.586 18.2452 133.586 18.1003V17.6926H133.811V18.0552C133.811 18.104 133.817 18.1463 133.828 18.1821C133.84 18.2179 133.86 18.2476 133.887 18.2712C133.914 18.294 133.949 18.3111 133.993 18.3225C134.037 18.3339 134.091 18.3396 134.155 18.3396C134.172 18.3396 134.193 18.338 134.216 18.3347C134.241 18.3315 134.266 18.3274 134.291 18.3225C134.316 18.3176 134.34 18.3123 134.364 18.3066C134.388 18.3001 134.409 18.2936 134.426 18.2871V17.6926H134.652V19H134.426V18.4727ZM134.984 17.6926H135.209V18.6948H135.214L135.856 17.6926H136.113V19H135.887V17.9978H135.883L135.242 19H134.984V17.6926ZM137.472 18.5398C137.469 18.5715 137.462 18.6061 137.452 18.6436C137.443 18.681 137.43 18.7184 137.412 18.7559C137.394 18.7925 137.371 18.8279 137.343 18.8621C137.315 18.8962 137.281 18.9268 137.24 18.9536C137.2 18.9797 137.153 19.0004 137.098 19.0159C137.044 19.0321 136.982 19.0403 136.912 19.0403C136.873 19.0403 136.833 19.0354 136.791 19.0256C136.748 19.0167 136.707 19.0012 136.666 18.9792C136.626 18.9573 136.588 18.9292 136.552 18.895C136.516 18.86 136.484 18.8169 136.456 18.7656C136.429 18.7144 136.408 18.6549 136.392 18.5874C136.375 18.519 136.367 18.4409 136.367 18.353C136.367 18.2448 136.383 18.1475 136.414 18.0613C136.444 17.9742 136.486 17.9006 136.537 17.8403C136.589 17.7801 136.649 17.7337 136.718 17.7012C136.787 17.6686 136.859 17.6523 136.935 17.6523C137.003 17.6523 137.063 17.6597 137.115 17.6743C137.168 17.689 137.214 17.7085 137.253 17.7329C137.292 17.7573 137.325 17.7858 137.352 17.8184C137.379 17.8501 137.401 17.8839 137.417 17.9197C137.434 17.9547 137.447 17.9905 137.455 18.0271C137.464 18.0637 137.469 18.0987 137.472 18.1321H137.262C137.251 18.0434 137.22 17.9738 137.169 17.9233C137.12 17.8729 137.05 17.8477 136.959 17.8477C136.897 17.8477 136.843 17.8603 136.797 17.8855C136.751 17.9107 136.713 17.9461 136.682 17.9917C136.652 18.0365 136.629 18.091 136.614 18.1553C136.599 18.2188 136.592 18.2887 136.592 18.3652C136.592 18.4515 136.6 18.526 136.616 18.5886C136.632 18.6505 136.656 18.7017 136.686 18.7424C136.716 18.7823 136.753 18.812 136.796 18.8315C136.84 18.8503 136.889 18.8596 136.945 18.8596C136.984 18.8596 137.021 18.8527 137.056 18.8389C137.091 18.8242 137.122 18.8035 137.15 18.7766C137.177 18.7489 137.201 18.7152 137.22 18.6753C137.24 18.6354 137.254 18.5903 137.262 18.5398H137.472ZM138.574 17.8879H138.074L138.064 18.2017C138.059 18.3604 138.047 18.493 138.027 18.5996C138.008 18.7054 137.981 18.7904 137.947 18.8547C137.913 18.919 137.873 18.9646 137.825 18.9915C137.777 19.0183 137.722 19.0317 137.66 19.0317C137.637 19.0317 137.617 19.0281 137.6 19.0208C137.584 19.0142 137.571 19.0073 137.562 19V18.8022C137.594 18.8145 137.622 18.8206 137.646 18.8206C137.664 18.8206 137.68 18.8177 137.695 18.812C137.712 18.8063 137.727 18.7953 137.74 18.7791C137.755 18.7628 137.769 18.74 137.781 18.7107C137.793 18.6806 137.804 18.6415 137.812 18.5935C137.822 18.5455 137.83 18.4873 137.836 18.4189C137.842 18.3506 137.847 18.2692 137.849 18.1748L137.86 17.6926H138.799V19H138.574V17.8879ZM139.13 17.6926H139.354V18.6948H139.359L140.001 17.6926H140.259V19H140.033V17.9978H140.028L139.387 19H139.13V17.6926ZM140.938 17.8879H140.487V17.6926H141.613V17.8879H141.162V19H140.938V17.8879ZM142.953 18.5825C142.944 18.6395 142.924 18.6952 142.894 18.7498C142.864 18.8043 142.825 18.8531 142.776 18.8962C142.727 18.9394 142.669 18.974 142.603 19C142.537 19.0269 142.463 19.0403 142.383 19.0403C142.295 19.0403 142.214 19.026 142.139 18.9976C142.065 18.9683 142 18.9247 141.946 18.8669C141.892 18.8083 141.85 18.7351 141.819 18.6472C141.788 18.5593 141.772 18.456 141.772 18.3372C141.772 18.2574 141.781 18.1854 141.798 18.1211C141.816 18.056 141.84 17.9982 141.869 17.9478C141.899 17.8965 141.934 17.8525 141.973 17.8159C142.012 17.7785 142.053 17.748 142.096 17.7244C142.14 17.7 142.185 17.682 142.23 17.6707C142.276 17.6584 142.32 17.6523 142.362 17.6523C142.452 17.6523 142.533 17.6658 142.607 17.6926C142.681 17.7195 142.745 17.7606 142.798 17.8159C142.852 17.8704 142.893 17.9392 142.922 18.0222C142.952 18.1044 142.968 18.2013 142.968 18.3127V18.425H142.012C142.013 18.4885 142.021 18.5463 142.039 18.5984C142.056 18.6497 142.08 18.6936 142.112 18.7302C142.144 18.7668 142.182 18.7953 142.227 18.8157C142.272 18.8352 142.323 18.845 142.38 18.845C142.438 18.845 142.487 18.8368 142.527 18.8206C142.567 18.8043 142.6 18.7835 142.627 18.7583C142.654 18.7331 142.675 18.705 142.692 18.6741C142.709 18.6431 142.723 18.6126 142.734 18.5825H142.953ZM142.742 18.2456C142.74 18.1821 142.73 18.1256 142.712 18.0759C142.695 18.0263 142.671 17.9848 142.639 17.9514C142.608 17.9172 142.571 17.8916 142.527 17.8745C142.483 17.8566 142.434 17.8477 142.38 17.8477C142.329 17.8477 142.282 17.8578 142.239 17.8782C142.196 17.8977 142.158 17.9254 142.125 17.9612C142.093 17.9962 142.067 18.0381 142.047 18.0869C142.028 18.1349 142.016 18.1878 142.012 18.2456H142.742ZM144.111 17.8879H143.611L143.601 18.2017C143.596 18.3604 143.584 18.493 143.564 18.5996C143.545 18.7054 143.518 18.7904 143.484 18.8547C143.451 18.919 143.41 18.9646 143.362 18.9915C143.314 19.0183 143.259 19.0317 143.197 19.0317C143.174 19.0317 143.154 19.0281 143.137 19.0208C143.121 19.0142 143.108 19.0073 143.099 19V18.8022C143.131 18.8145 143.159 18.8206 143.184 18.8206C143.201 18.8206 143.217 18.8177 143.232 18.812C143.249 18.8063 143.264 18.7953 143.278 18.7791C143.292 18.7628 143.306 18.74 143.318 18.7107C143.33 18.6806 143.341 18.6415 143.35 18.5935C143.359 18.5455 143.367 18.4873 143.373 18.4189C143.379 18.3506 143.384 18.2692 143.386 18.1748L143.397 17.6926H144.336V19H144.111V17.8879ZM144.667 17.6926H144.891V18.1846H145.254C145.326 18.1846 145.389 18.1943 145.446 18.2139C145.502 18.2326 145.549 18.2598 145.588 18.2957C145.627 18.3306 145.657 18.3734 145.677 18.4238C145.699 18.4735 145.709 18.5296 145.709 18.5923C145.709 18.6558 145.699 18.7127 145.677 18.7632C145.657 18.8128 145.627 18.8556 145.588 18.8914C145.549 18.9264 145.502 18.9532 145.446 18.9719C145.389 18.9906 145.326 19 145.254 19H144.667V17.6926ZM144.891 18.8206H145.21C145.249 18.8206 145.285 18.8165 145.319 18.8083C145.353 18.8002 145.382 18.7872 145.406 18.7693C145.431 18.7506 145.45 18.727 145.464 18.6985C145.478 18.6692 145.485 18.6338 145.485 18.5923C145.485 18.5516 145.477 18.517 145.463 18.4885C145.449 18.46 145.429 18.4368 145.403 18.4189C145.378 18.4002 145.347 18.3868 145.31 18.3787C145.274 18.3697 145.234 18.3652 145.189 18.3652H144.891V18.8206ZM145.917 17.6926H146.141V18.22H146.752V17.6926H146.978V19H146.752V18.4153H146.141V19H145.917V17.6926ZM148.558 17.6926H148.783V19H148.558V17.6926ZM147.308 17.6926H147.533V18.1846H147.926C147.997 18.1846 148.06 18.1943 148.116 18.2139C148.173 18.2326 148.221 18.2598 148.26 18.2957C148.3 18.3306 148.329 18.3734 148.35 18.4238C148.371 18.4735 148.381 18.5296 148.381 18.5923C148.381 18.6558 148.371 18.7127 148.35 18.7632C148.329 18.8128 148.3 18.8556 148.26 18.8914C148.221 18.9264 148.173 18.9532 148.116 18.9719C148.06 18.9906 147.997 19 147.926 19H147.308V17.6926ZM147.533 18.8206H147.881C147.92 18.8206 147.956 18.8165 147.99 18.8083C148.024 18.8002 148.053 18.7872 148.077 18.7693C148.102 18.7506 148.121 18.727 148.135 18.6985C148.149 18.6692 148.156 18.6338 148.156 18.5923C148.156 18.5516 148.148 18.517 148.134 18.4885C148.12 18.46 148.1 18.4368 148.074 18.4189C148.049 18.4002 148.018 18.3868 147.981 18.3787C147.945 18.3697 147.905 18.3652 147.861 18.3652H147.533V18.8206ZM149.468 17.1848C149.478 17.2369 149.5 17.2784 149.534 17.3093C149.567 17.3394 149.616 17.3545 149.681 17.3545C149.747 17.3545 149.797 17.3398 149.83 17.3105C149.864 17.2804 149.885 17.2385 149.895 17.1848H150.104C150.103 17.2336 150.092 17.278 150.072 17.3179C150.052 17.3569 150.023 17.3903 149.985 17.418C149.949 17.4456 149.904 17.4672 149.852 17.4827C149.801 17.4973 149.744 17.5046 149.681 17.5046C149.619 17.5046 149.562 17.4973 149.51 17.4827C149.459 17.468 149.415 17.4469 149.379 17.4192C149.342 17.3915 149.313 17.3582 149.292 17.3191C149.272 17.2792 149.261 17.2345 149.26 17.1848H149.468ZM149.115 17.6926H149.34V18.6948H149.344L149.987 17.6926H150.244V19H150.018V17.9978H150.013L149.373 19H149.115V17.6926ZM130.165 20.6926H130.389V21.8047H131V20.6926H131.226V21.8047H131.387V22.3198H131.177V22H130.165V20.6926ZM132.706 21.5825C132.697 21.6395 132.678 21.6952 132.648 21.7498C132.618 21.8043 132.578 21.8531 132.529 21.8962C132.48 21.9394 132.423 21.974 132.356 22C132.29 22.0269 132.217 22.0403 132.136 22.0403C132.048 22.0403 131.967 22.026 131.892 21.9976C131.818 21.9683 131.754 21.9247 131.699 21.8669C131.646 21.8083 131.603 21.7351 131.572 21.6472C131.541 21.5593 131.526 21.456 131.526 21.3372C131.526 21.2574 131.534 21.1854 131.552 21.1211C131.569 21.056 131.593 20.9982 131.622 20.9478C131.652 20.8965 131.687 20.8525 131.726 20.8159C131.765 20.7785 131.806 20.748 131.849 20.7244C131.893 20.7 131.938 20.682 131.984 20.6707C132.029 20.6584 132.073 20.6523 132.115 20.6523C132.205 20.6523 132.287 20.6658 132.361 20.6926C132.435 20.7195 132.498 20.7606 132.551 20.8159C132.605 20.8704 132.646 20.9392 132.676 21.0222C132.706 21.1044 132.721 21.2013 132.721 21.3127V21.425H131.765C131.766 21.4885 131.775 21.5463 131.792 21.5984C131.809 21.6497 131.833 21.6936 131.865 21.7302C131.897 21.7668 131.935 21.7953 131.98 21.8157C132.026 21.8352 132.077 21.845 132.134 21.845C132.192 21.845 132.24 21.8368 132.28 21.8206C132.32 21.8043 132.354 21.7835 132.38 21.7583C132.407 21.7331 132.429 21.705 132.445 21.6741C132.462 21.6431 132.476 21.6126 132.488 21.5825H132.706ZM132.495 21.2456C132.493 21.1821 132.484 21.1256 132.466 21.0759C132.449 21.0263 132.424 20.9848 132.393 20.9514C132.362 20.9172 132.324 20.8916 132.28 20.8745C132.236 20.8566 132.188 20.8477 132.134 20.8477C132.083 20.8477 132.035 20.8578 131.992 20.8782C131.949 20.8977 131.911 20.9254 131.879 20.9612C131.846 20.9962 131.82 21.0381 131.801 21.0869C131.781 21.1349 131.769 21.1878 131.765 21.2456H132.495ZM132.985 20.6926H133.209V21.22H133.82V20.6926H134.045V22H133.82V21.4153H133.209V22H132.985V20.6926ZM134.724 20.8879H134.274V20.6926H135.399V20.8879H134.949V22H134.724V20.8879ZM135.614 20.6926H135.839V20.8721H135.844C135.858 20.842 135.876 20.8135 135.898 20.7866C135.921 20.7598 135.948 20.7366 135.979 20.717C136.011 20.6967 136.047 20.6808 136.088 20.6694C136.129 20.658 136.176 20.6523 136.229 20.6523C136.299 20.6523 136.366 20.6658 136.431 20.6926C136.495 20.7195 136.552 20.7598 136.602 20.8135C136.651 20.8672 136.691 20.9347 136.72 21.0161C136.749 21.0967 136.764 21.1907 136.764 21.2981C136.764 21.4324 136.75 21.5467 136.722 21.6411C136.696 21.7347 136.657 21.8112 136.606 21.8706C136.557 21.93 136.497 21.9731 136.426 22C136.355 22.0269 136.276 22.0403 136.189 22.0403C136.146 22.0403 136.106 22.0346 136.068 22.0232C136.031 22.0118 135.997 21.9972 135.967 21.9792C135.938 21.9605 135.912 21.9402 135.891 21.9182C135.87 21.8954 135.854 21.8735 135.844 21.8523H135.839V22.5151H135.614V20.6926ZM135.834 21.353C135.834 21.4238 135.841 21.4893 135.854 21.5496C135.868 21.609 135.889 21.6606 135.918 21.7046C135.947 21.7485 135.983 21.7831 136.027 21.8083C136.071 21.8328 136.122 21.845 136.182 21.845C136.243 21.845 136.297 21.8328 136.342 21.8083C136.387 21.7831 136.425 21.7485 136.454 21.7046C136.483 21.6606 136.505 21.609 136.519 21.5496C136.532 21.4893 136.539 21.4238 136.539 21.353C136.539 21.279 136.532 21.211 136.519 21.1492C136.505 21.0873 136.483 21.034 136.454 20.9893C136.425 20.9445 136.387 20.9099 136.342 20.8855C136.297 20.8603 136.243 20.8477 136.182 20.8477C136.122 20.8477 136.071 20.8603 136.027 20.8855C135.983 20.9099 135.947 20.9445 135.918 20.9893C135.889 21.034 135.868 21.0873 135.854 21.1492C135.841 21.211 135.834 21.279 135.834 21.353ZM137.788 20.7622V20.5938C137.947 20.5783 138.057 20.5527 138.12 20.5168C138.183 20.4802 138.23 20.3944 138.26 20.2593H138.434V22H138.199V20.7622H137.788Z" fill="black"/>
<path d="M49.1855 94.2056H49.8276C49.8984 94.2056 49.9603 94.2076 50.0132 94.2117C50.0661 94.2149 50.1157 94.2227 50.1621 94.2349C50.2061 94.2471 50.2472 94.265 50.2854 94.2886C50.3245 94.3114 50.3586 94.3407 50.3879 94.3765C50.4172 94.4115 50.44 94.4526 50.4563 94.4998C50.4734 94.5461 50.4819 94.5986 50.4819 94.6572C50.4819 94.6882 50.4779 94.7215 50.4697 94.7573C50.4616 94.7931 50.4482 94.8285 50.4294 94.8635C50.4107 94.8977 50.3859 94.9299 50.355 94.96C50.3249 94.9893 50.2874 95.0133 50.2427 95.032C50.2793 95.0442 50.3167 95.0613 50.355 95.0833C50.3932 95.1052 50.4278 95.1337 50.4587 95.1687C50.4905 95.2029 50.5165 95.2448 50.5369 95.2944C50.5572 95.3433 50.5674 95.4019 50.5674 95.4702C50.5674 95.5093 50.5625 95.55 50.5527 95.5923C50.5438 95.6338 50.5287 95.6741 50.5076 95.7131C50.4872 95.7522 50.4608 95.7892 50.4282 95.8242C50.3957 95.8592 50.3562 95.8897 50.3098 95.9158C50.2634 95.9418 50.2097 95.9626 50.1487 95.978C50.0885 95.9927 50.0197 96 49.9424 96H49.1855V94.2056ZM49.907 95.79C49.9851 95.79 50.0506 95.7827 50.1035 95.7681C50.1572 95.7526 50.2004 95.7314 50.2329 95.7046C50.2663 95.6769 50.2903 95.644 50.3049 95.6057C50.3196 95.5675 50.3269 95.5247 50.3269 95.4775C50.3269 95.4303 50.3196 95.3876 50.3049 95.3494C50.2903 95.3111 50.2663 95.2786 50.2329 95.2517C50.2004 95.224 50.1572 95.2029 50.1035 95.1882C50.0506 95.1728 49.9851 95.165 49.907 95.165H49.4248V95.79H49.907ZM49.8728 94.9697C49.9517 94.9697 50.0152 94.9624 50.0632 94.9478C50.1121 94.9323 50.1495 94.9119 50.1755 94.8867C50.2024 94.8607 50.2203 94.8302 50.2292 94.7952C50.2382 94.7602 50.2427 94.7227 50.2427 94.6829C50.2427 94.6405 50.2362 94.6031 50.2231 94.5706C50.2109 94.5372 50.1902 94.5091 50.1609 94.4863C50.1316 94.4635 50.0933 94.446 50.0461 94.4338C49.9989 94.4216 49.9412 94.4155 49.8728 94.4155H49.4248V94.9697H49.8728ZM52.0823 94.6926H52.3069V96H52.0823V94.6926ZM50.8323 94.6926H51.0569V95.1846H51.45C51.5208 95.1846 51.5842 95.1943 51.6404 95.2139C51.6973 95.2326 51.7454 95.2598 51.7844 95.2957C51.8235 95.3306 51.8532 95.3734 51.8735 95.4238C51.8947 95.4735 51.9053 95.5296 51.9053 95.5923C51.9053 95.6558 51.8947 95.7127 51.8735 95.7632C51.8532 95.8128 51.8235 95.8556 51.7844 95.8914C51.7454 95.9264 51.6973 95.9532 51.6404 95.9719C51.5842 95.9906 51.5208 96 51.45 96H50.8323V94.6926ZM51.0569 95.8206H51.4048C51.4438 95.8206 51.4801 95.8165 51.5134 95.8083C51.5476 95.8002 51.5769 95.7872 51.6013 95.7693C51.6257 95.7506 51.6449 95.727 51.6587 95.6985C51.6725 95.6692 51.6794 95.6338 51.6794 95.5923C51.6794 95.5516 51.6721 95.517 51.6575 95.4885C51.6436 95.46 51.6237 95.4368 51.5977 95.4189C51.5724 95.4002 51.5415 95.3868 51.5049 95.3787C51.4691 95.3697 51.4292 95.3652 51.3853 95.3652H51.0569V95.8206ZM53.4263 95.4727C53.3774 95.4857 53.3237 95.4967 53.2651 95.5056C53.2074 95.5146 53.1532 95.519 53.1028 95.519C52.9278 95.519 52.798 95.4857 52.7134 95.4189C52.6287 95.3514 52.5864 95.2452 52.5864 95.1003V94.6926H52.811V95.0552C52.811 95.104 52.8167 95.1463 52.8281 95.1821C52.8403 95.2179 52.8599 95.2476 52.8867 95.2712C52.9136 95.294 52.949 95.3111 52.9929 95.3225C53.0369 95.3339 53.091 95.3396 53.1553 95.3396C53.1724 95.3396 53.1927 95.338 53.2163 95.3347C53.2407 95.3315 53.2655 95.3274 53.2908 95.3225C53.316 95.3176 53.3404 95.3123 53.364 95.3066C53.3884 95.3001 53.4092 95.2936 53.4263 95.2871V94.6926H53.6521V96H53.4263V95.4727ZM53.9841 94.6926H54.2087V95.6948H54.2136L54.8557 94.6926H55.1133V96H54.8875V94.9978H54.8826L54.2417 96H53.9841V94.6926ZM56.4719 95.5398C56.4687 95.5715 56.4622 95.6061 56.4524 95.6436C56.4434 95.681 56.43 95.7184 56.4121 95.7559C56.3942 95.7925 56.371 95.8279 56.3425 95.8621C56.3149 95.8962 56.2807 95.9268 56.24 95.9536C56.2001 95.9797 56.1529 96.0004 56.0984 96.0159C56.0439 96.0321 55.9816 96.0403 55.9116 96.0403C55.8734 96.0403 55.8331 96.0354 55.7908 96.0256C55.7485 96.0167 55.7069 96.0012 55.6663 95.9792C55.6264 95.9573 55.5881 95.9292 55.5515 95.895C55.5157 95.86 55.484 95.8169 55.4563 95.7656C55.4294 95.7144 55.4079 95.6549 55.3916 95.5874C55.3753 95.519 55.3672 95.4409 55.3672 95.353C55.3672 95.2448 55.3826 95.1475 55.4136 95.0613C55.4445 94.9742 55.4856 94.9006 55.5369 94.8403C55.5889 94.7801 55.6492 94.7337 55.7175 94.7012C55.7867 94.6686 55.8591 94.6523 55.9348 94.6523C56.0032 94.6523 56.0634 94.6597 56.1155 94.6743C56.1684 94.689 56.2144 94.7085 56.2534 94.7329C56.2925 94.7573 56.3254 94.7858 56.3523 94.8184C56.3792 94.8501 56.4007 94.8839 56.417 94.9197C56.4341 94.9547 56.4467 94.9905 56.4548 95.0271C56.4638 95.0637 56.4695 95.0987 56.4719 95.1321H56.262C56.2506 95.0434 56.2196 94.9738 56.1692 94.9233C56.1195 94.8729 56.0496 94.8477 55.9592 94.8477C55.8974 94.8477 55.8433 94.8603 55.7969 94.8855C55.7513 94.9107 55.7131 94.9461 55.6821 94.9917C55.652 95.0365 55.6292 95.091 55.6138 95.1553C55.5991 95.2188 55.5918 95.2887 55.5918 95.3652C55.5918 95.4515 55.5999 95.526 55.6162 95.5886C55.6325 95.6505 55.6557 95.7017 55.6858 95.7424C55.7159 95.7823 55.7525 95.812 55.7957 95.8315C55.8396 95.8503 55.8892 95.8596 55.9446 95.8596C55.9836 95.8596 56.0207 95.8527 56.0557 95.8389C56.0907 95.8242 56.122 95.8035 56.1497 95.7766C56.1773 95.7489 56.2009 95.7152 56.2205 95.6753C56.24 95.6354 56.2538 95.5903 56.262 95.5398H56.4719ZM57.5742 94.8879H57.0737L57.064 95.2017C57.0591 95.3604 57.0469 95.493 57.0273 95.5996C57.0078 95.7054 56.981 95.7904 56.9468 95.8547C56.9134 95.919 56.8727 95.9646 56.8247 95.9915C56.7767 96.0183 56.7218 96.0317 56.6599 96.0317C56.6371 96.0317 56.6172 96.0281 56.6001 96.0208C56.5838 96.0142 56.5712 96.0073 56.5623 96V95.8022C56.594 95.8145 56.6221 95.8206 56.6465 95.8206C56.6636 95.8206 56.6799 95.8177 56.6953 95.812C56.7116 95.8063 56.7266 95.7953 56.7405 95.7791C56.7551 95.7628 56.7686 95.74 56.7808 95.7107C56.793 95.6806 56.8035 95.6415 56.8125 95.5935C56.8223 95.5455 56.83 95.4873 56.8357 95.4189C56.8422 95.3506 56.8467 95.2692 56.8491 95.1748L56.8601 94.6926H57.7988V96H57.5742V94.8879ZM58.1296 94.6926H58.3542V95.6948H58.3591L59.0012 94.6926H59.2588V96H59.033V94.9978H59.0281L58.3872 96H58.1296V94.6926ZM59.9375 94.8879H59.4871V94.6926H60.6125V94.8879H60.1621V96H59.9375V94.8879ZM61.9529 95.5825C61.9439 95.6395 61.9244 95.6952 61.8943 95.7498C61.8642 95.8043 61.8247 95.8531 61.7759 95.8962C61.7271 95.9394 61.6693 95.974 61.6025 96C61.5366 96.0269 61.4634 96.0403 61.3828 96.0403C61.2949 96.0403 61.2135 96.026 61.1387 95.9976C61.0646 95.9683 61.0003 95.9247 60.9458 95.8669C60.8921 95.8083 60.8498 95.7351 60.8188 95.6472C60.7879 95.5593 60.7725 95.456 60.7725 95.3372C60.7725 95.2574 60.781 95.1854 60.7981 95.1211C60.816 95.056 60.8396 94.9982 60.8689 94.9478C60.899 94.8965 60.9336 94.8525 60.9727 94.8159C61.0117 94.7785 61.0528 94.748 61.0959 94.7244C61.1399 94.7 61.1847 94.682 61.2302 94.6707C61.2758 94.6584 61.3197 94.6523 61.3621 94.6523C61.4516 94.6523 61.5334 94.6658 61.6074 94.6926C61.6815 94.7195 61.745 94.7606 61.7979 94.8159C61.8516 94.8704 61.8931 94.9392 61.9224 95.0222C61.9525 95.1044 61.9675 95.2013 61.9675 95.3127V95.425H61.0117C61.0125 95.4885 61.0215 95.5463 61.0386 95.5984C61.0557 95.6497 61.0801 95.6936 61.1118 95.7302C61.1436 95.7668 61.1818 95.7953 61.2266 95.8157C61.2721 95.8352 61.3234 95.845 61.3804 95.845C61.4382 95.845 61.487 95.8368 61.5269 95.8206C61.5667 95.8043 61.6001 95.7835 61.627 95.7583C61.6538 95.7331 61.6754 95.705 61.6917 95.6741C61.7087 95.6431 61.723 95.6126 61.7344 95.5825H61.9529ZM61.7417 95.2456C61.7401 95.1821 61.7303 95.1256 61.7124 95.0759C61.6953 95.0263 61.6709 94.9848 61.6392 94.9514C61.6082 94.9172 61.5708 94.8916 61.5269 94.8745C61.4829 94.8566 61.4341 94.8477 61.3804 94.8477C61.3291 94.8477 61.2819 94.8578 61.2388 94.8782C61.1956 94.8977 61.1578 94.9254 61.1252 94.9612C61.0927 94.9962 61.0667 95.0381 61.0471 95.0869C61.0276 95.1349 61.0158 95.1878 61.0117 95.2456H61.7417ZM63.1113 94.8879H62.6108L62.6011 95.2017C62.5962 95.3604 62.584 95.493 62.5645 95.5996C62.5449 95.7054 62.5181 95.7904 62.4839 95.8547C62.4505 95.919 62.4098 95.9646 62.3618 95.9915C62.3138 96.0183 62.2589 96.0317 62.197 96.0317C62.1742 96.0317 62.1543 96.0281 62.1372 96.0208C62.1209 96.0142 62.1083 96.0073 62.0994 96V95.8022C62.1311 95.8145 62.1592 95.8206 62.1836 95.8206C62.2007 95.8206 62.217 95.8177 62.2324 95.812C62.2487 95.8063 62.2638 95.7953 62.2776 95.7791C62.2922 95.7628 62.3057 95.74 62.3179 95.7107C62.3301 95.6806 62.3407 95.6415 62.3496 95.5935C62.3594 95.5455 62.3671 95.4873 62.3728 95.4189C62.3793 95.3506 62.3838 95.2692 62.3862 95.1748L62.3972 94.6926H63.3359V96H63.1113V94.8879ZM63.6667 94.6926H63.8914V95.1846H64.2539C64.3255 95.1846 64.3894 95.1943 64.4456 95.2139C64.5017 95.2326 64.5493 95.2598 64.5884 95.2957C64.6274 95.3306 64.6571 95.3734 64.6775 95.4238C64.6986 95.4735 64.7092 95.5296 64.7092 95.5923C64.7092 95.6558 64.6986 95.7127 64.6775 95.7632C64.6571 95.8128 64.6274 95.8556 64.5884 95.8914C64.5493 95.9264 64.5017 95.9532 64.4456 95.9719C64.3894 95.9906 64.3255 96 64.2539 96H63.6667V94.6926ZM63.8914 95.8206H64.21C64.249 95.8206 64.2852 95.8165 64.3186 95.8083C64.3528 95.8002 64.3821 95.7872 64.4065 95.7693C64.4309 95.7506 64.45 95.727 64.4639 95.6985C64.4777 95.6692 64.4846 95.6338 64.4846 95.5923C64.4846 95.5516 64.4773 95.517 64.4626 95.4885C64.4488 95.46 64.4289 95.4368 64.4028 95.4189C64.3776 95.4002 64.3467 95.3868 64.3101 95.3787C64.2743 95.3697 64.234 95.3652 64.1892 95.3652H63.8914V95.8206ZM64.9167 94.6926H65.1414V95.22H65.7517V94.6926H65.9775V96H65.7517V95.4153H65.1414V96H64.9167V94.6926ZM67.5583 94.6926H67.783V96H67.5583V94.6926ZM66.3083 94.6926H66.533V95.1846H66.926C66.9968 95.1846 67.0603 95.1943 67.1165 95.2139C67.1734 95.2326 67.2214 95.2598 67.2605 95.2957C67.2996 95.3306 67.3293 95.3734 67.3496 95.4238C67.3708 95.4735 67.3813 95.5296 67.3813 95.5923C67.3813 95.6558 67.3708 95.7127 67.3496 95.7632C67.3293 95.8128 67.2996 95.8556 67.2605 95.8914C67.2214 95.9264 67.1734 95.9532 67.1165 95.9719C67.0603 95.9906 66.9968 96 66.926 96H66.3083V94.6926ZM66.533 95.8206H66.8809C66.9199 95.8206 66.9561 95.8165 66.9895 95.8083C67.0237 95.8002 67.053 95.7872 67.0774 95.7693C67.1018 95.7506 67.1209 95.727 67.1348 95.6985C67.1486 95.6692 67.1555 95.6338 67.1555 95.5923C67.1555 95.5516 67.1482 95.517 67.1335 95.4885C67.1197 95.46 67.0998 95.4368 67.0737 95.4189C67.0485 95.4002 67.0176 95.3868 66.981 95.3787C66.9451 95.3697 66.9053 95.3652 66.8613 95.3652H66.533V95.8206ZM68.4678 94.1848C68.4784 94.2369 68.5003 94.2784 68.5337 94.3093C68.5671 94.3394 68.6163 94.3545 68.6814 94.3545C68.7473 94.3545 68.797 94.3398 68.8303 94.3105C68.8637 94.2804 68.8853 94.2385 68.895 94.1848H69.1038C69.1029 94.2336 69.0924 94.278 69.072 94.3179C69.0517 94.3569 69.0228 94.3903 68.9854 94.418C68.9487 94.4456 68.9044 94.4672 68.8523 94.4827C68.801 94.4973 68.7441 94.5046 68.6814 94.5046C68.6187 94.5046 68.5618 94.4973 68.5105 94.4827C68.4592 94.468 68.4153 94.4469 68.3787 94.4192C68.342 94.3915 68.3132 94.3582 68.292 94.3191C68.2716 94.2792 68.2611 94.2345 68.2603 94.1848H68.4678ZM68.115 94.6926H68.3396V95.6948H68.3445L68.9866 94.6926H69.2441V96H69.0183V94.9978H69.0134L68.3726 96H68.115V94.6926ZM49.1648 97.6926H49.3894V98.8047H49.9998V97.6926H50.2256V98.8047H50.3867V99.3198H50.1768V99H49.1648V97.6926ZM51.7063 98.5825C51.6973 98.6395 51.6778 98.6952 51.6477 98.7498C51.6176 98.8043 51.5781 98.8531 51.5293 98.8962C51.4805 98.9394 51.4227 98.974 51.356 99C51.29 99.0269 51.2168 99.0403 51.1362 99.0403C51.0483 99.0403 50.967 99.026 50.8921 98.9976C50.818 98.9683 50.7537 98.9247 50.6992 98.8669C50.6455 98.8083 50.6032 98.7351 50.5723 98.6472C50.5413 98.5593 50.5259 98.456 50.5259 98.3372C50.5259 98.2574 50.5344 98.1854 50.5515 98.1211C50.5694 98.056 50.593 97.9982 50.6223 97.9478C50.6524 97.8965 50.687 97.8525 50.7261 97.8159C50.7651 97.7785 50.8062 97.748 50.8494 97.7244C50.8933 97.7 50.9381 97.682 50.9836 97.6707C51.0292 97.6584 51.0732 97.6523 51.1155 97.6523C51.205 97.6523 51.2868 97.6658 51.3608 97.6926C51.4349 97.7195 51.4984 97.7606 51.5513 97.8159C51.605 97.8704 51.6465 97.9392 51.6758 98.0222C51.7059 98.1044 51.7209 98.2013 51.7209 98.3127V98.425H50.7651C50.766 98.4885 50.7749 98.5463 50.792 98.5984C50.8091 98.6497 50.8335 98.6936 50.8652 98.7302C50.897 98.7668 50.9352 98.7953 50.98 98.8157C51.0256 98.8352 51.0768 98.845 51.1338 98.845C51.1916 98.845 51.2404 98.8368 51.2803 98.8206C51.3201 98.8043 51.3535 98.7835 51.3804 98.7583C51.4072 98.7331 51.4288 98.705 51.4451 98.6741C51.4622 98.6431 51.4764 98.6126 51.4878 98.5825H51.7063ZM51.4951 98.2456C51.4935 98.1821 51.4837 98.1256 51.4658 98.0759C51.4487 98.0263 51.4243 97.9848 51.3926 97.9514C51.3617 97.9172 51.3242 97.8916 51.2803 97.8745C51.2363 97.8566 51.1875 97.8477 51.1338 97.8477C51.0825 97.8477 51.0353 97.8578 50.9922 97.8782C50.9491 97.8977 50.9112 97.9254 50.8787 97.9612C50.8461 97.9962 50.8201 98.0381 50.8005 98.0869C50.781 98.1349 50.7692 98.1878 50.7651 98.2456H51.4951ZM51.9846 97.6926H52.2092V98.22H52.8196V97.6926H53.0454V99H52.8196V98.4153H52.2092V99H51.9846V97.6926ZM53.7241 97.8879H53.2737V97.6926H54.3992V97.8879H53.9487V99H53.7241V97.8879ZM54.614 97.6926H54.8386V97.8721H54.8435C54.8582 97.842 54.8765 97.8135 54.8984 97.7866C54.9212 97.7598 54.9481 97.7366 54.979 97.717C55.0107 97.6967 55.047 97.6808 55.0876 97.6694C55.1292 97.658 55.1764 97.6523 55.2292 97.6523C55.2992 97.6523 55.3664 97.6658 55.4307 97.6926C55.495 97.7195 55.5519 97.7598 55.6016 97.8135C55.6512 97.8672 55.6907 97.9347 55.72 98.0161C55.7493 98.0967 55.7639 98.1907 55.7639 98.2981C55.7639 98.4324 55.7501 98.5467 55.7224 98.6411C55.6956 98.7347 55.6569 98.8112 55.6064 98.8706C55.5568 98.93 55.4966 98.9731 55.4258 99C55.355 99.0269 55.276 99.0403 55.189 99.0403C55.1458 99.0403 55.1056 99.0346 55.0681 99.0232C55.0307 99.0118 54.9969 98.9972 54.9668 98.9792C54.9375 98.9605 54.9123 98.9402 54.8911 98.9182C54.87 98.8954 54.8541 98.8735 54.8435 98.8523H54.8386V99.5151H54.614V97.6926ZM54.8337 98.353C54.8337 98.4238 54.8407 98.4893 54.8545 98.5496C54.8683 98.609 54.8895 98.6606 54.918 98.7046C54.9473 98.7485 54.9835 98.7831 55.0266 98.8083C55.0706 98.8328 55.1222 98.845 55.1816 98.845C55.2435 98.845 55.2968 98.8328 55.3416 98.8083C55.3871 98.7831 55.4246 98.7485 55.4539 98.7046C55.4832 98.6606 55.5047 98.609 55.5186 98.5496C55.5324 98.4893 55.5393 98.4238 55.5393 98.353C55.5393 98.279 55.5324 98.211 55.5186 98.1492C55.5047 98.0873 55.4832 98.034 55.4539 97.9893C55.4246 97.9445 55.3871 97.9099 55.3416 97.8855C55.2968 97.8603 55.2435 97.8477 55.1816 97.8477C55.1222 97.8477 55.0706 97.8603 55.0266 97.8855C54.9835 97.9099 54.9473 97.9445 54.918 97.9893C54.8895 98.034 54.8683 98.0873 54.8545 98.1492C54.8407 98.211 54.8337 98.279 54.8337 98.353ZM57.1982 99.0476C56.9915 99.0476 56.8414 98.991 56.7478 98.8779C56.655 98.764 56.6086 98.6257 56.6086 98.4629H56.8381C56.8479 98.576 56.8691 98.6582 56.9016 98.7095C56.9586 98.8014 57.0615 98.8474 57.2104 98.8474C57.326 98.8474 57.4188 98.8165 57.4888 98.7546C57.5588 98.6928 57.5938 98.613 57.5938 98.5154C57.5938 98.3949 57.5567 98.3107 57.4827 98.2627C57.4094 98.2147 57.3073 98.1907 57.1763 98.1907C57.1616 98.1907 57.1466 98.1911 57.1311 98.1919C57.1165 98.1919 57.1014 98.1923 57.0859 98.1931V97.999C57.1087 98.0015 57.1278 98.0031 57.1433 98.0039C57.1588 98.0047 57.1755 98.0051 57.1934 98.0051C57.2756 98.0051 57.3431 97.9921 57.396 97.9661C57.4888 97.9205 57.5352 97.8391 57.5352 97.7219C57.5352 97.6348 57.5042 97.5677 57.4424 97.5205C57.3805 97.4733 57.3085 97.4497 57.2263 97.4497C57.0798 97.4497 56.9785 97.4985 56.9224 97.5962C56.8914 97.6499 56.8739 97.7264 56.8699 97.8257H56.6526C56.6526 97.6955 56.6786 97.5848 56.7307 97.4937C56.8202 97.3309 56.9777 97.2495 57.2031 97.2495C57.3813 97.2495 57.5193 97.2894 57.6169 97.3691C57.7146 97.4481 57.7634 97.5628 57.7634 97.7134C57.7634 97.8208 57.7345 97.9079 57.6768 97.9746C57.641 98.0161 57.5946 98.0487 57.5376 98.0723C57.6296 98.0975 57.7012 98.1463 57.7524 98.2188C57.8045 98.2904 57.8306 98.3783 57.8306 98.4824C57.8306 98.6493 57.7756 98.7852 57.6658 98.8901C57.5559 98.9951 57.4001 99.0476 57.1982 99.0476Z" fill="black"/>
<path d="M88.1855 94.2056H88.8276C88.8984 94.2056 88.9603 94.2076 89.0132 94.2117C89.0661 94.2149 89.1157 94.2227 89.1621 94.2349C89.2061 94.2471 89.2472 94.265 89.2854 94.2886C89.3245 94.3114 89.3586 94.3407 89.3879 94.3765C89.4172 94.4115 89.44 94.4526 89.4563 94.4998C89.4734 94.5461 89.4819 94.5986 89.4819 94.6572C89.4819 94.6882 89.4779 94.7215 89.4697 94.7573C89.4616 94.7931 89.4482 94.8285 89.4294 94.8635C89.4107 94.8977 89.3859 94.9299 89.355 94.96C89.3249 94.9893 89.2874 95.0133 89.2427 95.032C89.2793 95.0442 89.3167 95.0613 89.355 95.0833C89.3932 95.1052 89.4278 95.1337 89.4587 95.1687C89.4905 95.2029 89.5165 95.2448 89.5369 95.2944C89.5572 95.3433 89.5674 95.4019 89.5674 95.4702C89.5674 95.5093 89.5625 95.55 89.5527 95.5923C89.5438 95.6338 89.5287 95.6741 89.5076 95.7131C89.4872 95.7522 89.4608 95.7892 89.4282 95.8242C89.3957 95.8592 89.3562 95.8897 89.3098 95.9158C89.2634 95.9418 89.2097 95.9626 89.1487 95.978C89.0885 95.9927 89.0197 96 88.9424 96H88.1855V94.2056ZM88.907 95.79C88.9851 95.79 89.0506 95.7827 89.1035 95.7681C89.1572 95.7526 89.2004 95.7314 89.2329 95.7046C89.2663 95.6769 89.2903 95.644 89.3049 95.6057C89.3196 95.5675 89.3269 95.5247 89.3269 95.4775C89.3269 95.4303 89.3196 95.3876 89.3049 95.3494C89.2903 95.3111 89.2663 95.2786 89.2329 95.2517C89.2004 95.224 89.1572 95.2029 89.1035 95.1882C89.0506 95.1728 88.9851 95.165 88.907 95.165H88.4248V95.79H88.907ZM88.8728 94.9697C88.9517 94.9697 89.0152 94.9624 89.0632 94.9478C89.1121 94.9323 89.1495 94.9119 89.1755 94.8867C89.2024 94.8607 89.2203 94.8302 89.2292 94.7952C89.2382 94.7602 89.2427 94.7227 89.2427 94.6829C89.2427 94.6405 89.2362 94.6031 89.2231 94.5706C89.2109 94.5372 89.1902 94.5091 89.1609 94.4863C89.1316 94.4635 89.0933 94.446 89.0461 94.4338C88.9989 94.4216 88.9412 94.4155 88.8728 94.4155H88.4248V94.9697H88.8728ZM91.0823 94.6926H91.3069V96H91.0823V94.6926ZM89.8323 94.6926H90.0569V95.1846H90.45C90.5208 95.1846 90.5842 95.1943 90.6404 95.2139C90.6973 95.2326 90.7454 95.2598 90.7844 95.2957C90.8235 95.3306 90.8532 95.3734 90.8735 95.4238C90.8947 95.4735 90.9053 95.5296 90.9053 95.5923C90.9053 95.6558 90.8947 95.7127 90.8735 95.7632C90.8532 95.8128 90.8235 95.8556 90.7844 95.8914C90.7454 95.9264 90.6973 95.9532 90.6404 95.9719C90.5842 95.9906 90.5208 96 90.45 96H89.8323V94.6926ZM90.0569 95.8206H90.4048C90.4438 95.8206 90.4801 95.8165 90.5134 95.8083C90.5476 95.8002 90.5769 95.7872 90.6013 95.7693C90.6257 95.7506 90.6449 95.727 90.6587 95.6985C90.6725 95.6692 90.6794 95.6338 90.6794 95.5923C90.6794 95.5516 90.6721 95.517 90.6575 95.4885C90.6436 95.46 90.6237 95.4368 90.5977 95.4189C90.5724 95.4002 90.5415 95.3868 90.5049 95.3787C90.4691 95.3697 90.4292 95.3652 90.3853 95.3652H90.0569V95.8206ZM92.4263 95.4727C92.3774 95.4857 92.3237 95.4967 92.2651 95.5056C92.2074 95.5146 92.1532 95.519 92.1028 95.519C91.9278 95.519 91.798 95.4857 91.7134 95.4189C91.6287 95.3514 91.5864 95.2452 91.5864 95.1003V94.6926H91.811V95.0552C91.811 95.104 91.8167 95.1463 91.8281 95.1821C91.8403 95.2179 91.8599 95.2476 91.8867 95.2712C91.9136 95.294 91.949 95.3111 91.9929 95.3225C92.0369 95.3339 92.091 95.3396 92.1553 95.3396C92.1724 95.3396 92.1927 95.338 92.2163 95.3347C92.2407 95.3315 92.2655 95.3274 92.2908 95.3225C92.316 95.3176 92.3404 95.3123 92.364 95.3066C92.3884 95.3001 92.4092 95.2936 92.4263 95.2871V94.6926H92.6521V96H92.4263V95.4727ZM92.9841 94.6926H93.2087V95.6948H93.2136L93.8557 94.6926H94.1133V96H93.8875V94.9978H93.8826L93.2417 96H92.9841V94.6926ZM95.4719 95.5398C95.4687 95.5715 95.4622 95.6061 95.4524 95.6436C95.4434 95.681 95.43 95.7184 95.4121 95.7559C95.3942 95.7925 95.371 95.8279 95.3425 95.8621C95.3149 95.8962 95.2807 95.9268 95.24 95.9536C95.2001 95.9797 95.1529 96.0004 95.0984 96.0159C95.0439 96.0321 94.9816 96.0403 94.9116 96.0403C94.8734 96.0403 94.8331 96.0354 94.7908 96.0256C94.7485 96.0167 94.7069 96.0012 94.6663 95.9792C94.6264 95.9573 94.5881 95.9292 94.5515 95.895C94.5157 95.86 94.484 95.8169 94.4563 95.7656C94.4294 95.7144 94.4079 95.6549 94.3916 95.5874C94.3753 95.519 94.3672 95.4409 94.3672 95.353C94.3672 95.2448 94.3826 95.1475 94.4136 95.0613C94.4445 94.9742 94.4856 94.9006 94.5369 94.8403C94.5889 94.7801 94.6492 94.7337 94.7175 94.7012C94.7867 94.6686 94.8591 94.6523 94.9348 94.6523C95.0032 94.6523 95.0634 94.6597 95.1155 94.6743C95.1684 94.689 95.2144 94.7085 95.2534 94.7329C95.2925 94.7573 95.3254 94.7858 95.3523 94.8184C95.3792 94.8501 95.4007 94.8839 95.417 94.9197C95.4341 94.9547 95.4467 94.9905 95.4548 95.0271C95.4638 95.0637 95.4695 95.0987 95.4719 95.1321H95.262C95.2506 95.0434 95.2196 94.9738 95.1692 94.9233C95.1195 94.8729 95.0496 94.8477 94.9592 94.8477C94.8974 94.8477 94.8433 94.8603 94.7969 94.8855C94.7513 94.9107 94.7131 94.9461 94.6821 94.9917C94.652 95.0365 94.6292 95.091 94.6138 95.1553C94.5991 95.2188 94.5918 95.2887 94.5918 95.3652C94.5918 95.4515 94.5999 95.526 94.6162 95.5886C94.6325 95.6505 94.6557 95.7017 94.6858 95.7424C94.7159 95.7823 94.7525 95.812 94.7957 95.8315C94.8396 95.8503 94.8892 95.8596 94.9446 95.8596C94.9836 95.8596 95.0207 95.8527 95.0557 95.8389C95.0907 95.8242 95.122 95.8035 95.1497 95.7766C95.1773 95.7489 95.2009 95.7152 95.2205 95.6753C95.24 95.6354 95.2538 95.5903 95.262 95.5398H95.4719ZM96.5742 94.8879H96.0737L96.064 95.2017C96.0591 95.3604 96.0469 95.493 96.0273 95.5996C96.0078 95.7054 95.981 95.7904 95.9468 95.8547C95.9134 95.919 95.8727 95.9646 95.8247 95.9915C95.7767 96.0183 95.7218 96.0317 95.6599 96.0317C95.6371 96.0317 95.6172 96.0281 95.6001 96.0208C95.5838 96.0142 95.5712 96.0073 95.5623 96V95.8022C95.594 95.8145 95.6221 95.8206 95.6465 95.8206C95.6636 95.8206 95.6799 95.8177 95.6953 95.812C95.7116 95.8063 95.7266 95.7953 95.7405 95.7791C95.7551 95.7628 95.7686 95.74 95.7808 95.7107C95.793 95.6806 95.8035 95.6415 95.8125 95.5935C95.8223 95.5455 95.83 95.4873 95.8357 95.4189C95.8422 95.3506 95.8467 95.2692 95.8491 95.1748L95.8601 94.6926H96.7988V96H96.5742V94.8879ZM97.1296 94.6926H97.3542V95.6948H97.3591L98.0012 94.6926H98.2588V96H98.033V94.9978H98.0281L97.3872 96H97.1296V94.6926ZM98.9375 94.8879H98.4871V94.6926H99.6125V94.8879H99.1621V96H98.9375V94.8879ZM100.953 95.5825C100.944 95.6395 100.924 95.6952 100.894 95.7498C100.864 95.8043 100.825 95.8531 100.776 95.8962C100.727 95.9394 100.669 95.974 100.603 96C100.537 96.0269 100.463 96.0403 100.383 96.0403C100.295 96.0403 100.214 96.026 100.139 95.9976C100.065 95.9683 100 95.9247 99.9458 95.8669C99.8921 95.8083 99.8498 95.7351 99.8188 95.6472C99.7879 95.5593 99.7725 95.456 99.7725 95.3372C99.7725 95.2574 99.781 95.1854 99.7981 95.1211C99.816 95.056 99.8396 94.9982 99.8689 94.9478C99.899 94.8965 99.9336 94.8525 99.9727 94.8159C100.012 94.7785 100.053 94.748 100.096 94.7244C100.14 94.7 100.185 94.682 100.23 94.6707C100.276 94.6584 100.32 94.6523 100.362 94.6523C100.452 94.6523 100.533 94.6658 100.607 94.6926C100.681 94.7195 100.745 94.7606 100.798 94.8159C100.852 94.8704 100.893 94.9392 100.922 95.0222C100.952 95.1044 100.968 95.2013 100.968 95.3127V95.425H100.012C100.013 95.4885 100.021 95.5463 100.039 95.5984C100.056 95.6497 100.08 95.6936 100.112 95.7302C100.144 95.7668 100.182 95.7953 100.227 95.8157C100.272 95.8352 100.323 95.845 100.38 95.845C100.438 95.845 100.487 95.8368 100.527 95.8206C100.567 95.8043 100.6 95.7835 100.627 95.7583C100.654 95.7331 100.675 95.705 100.692 95.6741C100.709 95.6431 100.723 95.6126 100.734 95.5825H100.953ZM100.742 95.2456C100.74 95.1821 100.73 95.1256 100.712 95.0759C100.695 95.0263 100.671 94.9848 100.639 94.9514C100.608 94.9172 100.571 94.8916 100.527 94.8745C100.483 94.8566 100.434 94.8477 100.38 94.8477C100.329 94.8477 100.282 94.8578 100.239 94.8782C100.196 94.8977 100.158 94.9254 100.125 94.9612C100.093 94.9962 100.067 95.0381 100.047 95.0869C100.028 95.1349 100.016 95.1878 100.012 95.2456H100.742ZM102.111 94.8879H101.611L101.601 95.2017C101.596 95.3604 101.584 95.493 101.564 95.5996C101.545 95.7054 101.518 95.7904 101.484 95.8547C101.451 95.919 101.41 95.9646 101.362 95.9915C101.314 96.0183 101.259 96.0317 101.197 96.0317C101.174 96.0317 101.154 96.0281 101.137 96.0208C101.121 96.0142 101.108 96.0073 101.099 96V95.8022C101.131 95.8145 101.159 95.8206 101.184 95.8206C101.201 95.8206 101.217 95.8177 101.232 95.812C101.249 95.8063 101.264 95.7953 101.278 95.7791C101.292 95.7628 101.306 95.74 101.318 95.7107C101.33 95.6806 101.341 95.6415 101.35 95.5935C101.359 95.5455 101.367 95.4873 101.373 95.4189C101.379 95.3506 101.384 95.2692 101.386 95.1748L101.397 94.6926H102.336V96H102.111V94.8879ZM102.667 94.6926H102.891V95.1846H103.254C103.326 95.1846 103.389 95.1943 103.446 95.2139C103.502 95.2326 103.549 95.2598 103.588 95.2957C103.627 95.3306 103.657 95.3734 103.677 95.4238C103.699 95.4735 103.709 95.5296 103.709 95.5923C103.709 95.6558 103.699 95.7127 103.677 95.7632C103.657 95.8128 103.627 95.8556 103.588 95.8914C103.549 95.9264 103.502 95.9532 103.446 95.9719C103.389 95.9906 103.326 96 103.254 96H102.667V94.6926ZM102.891 95.8206H103.21C103.249 95.8206 103.285 95.8165 103.319 95.8083C103.353 95.8002 103.382 95.7872 103.406 95.7693C103.431 95.7506 103.45 95.727 103.464 95.6985C103.478 95.6692 103.485 95.6338 103.485 95.5923C103.485 95.5516 103.477 95.517 103.463 95.4885C103.449 95.46 103.429 95.4368 103.403 95.4189C103.378 95.4002 103.347 95.3868 103.31 95.3787C103.274 95.3697 103.234 95.3652 103.189 95.3652H102.891V95.8206ZM103.917 94.6926H104.141V95.22H104.752V94.6926H104.978V96H104.752V95.4153H104.141V96H103.917V94.6926ZM106.558 94.6926H106.783V96H106.558V94.6926ZM105.308 94.6926H105.533V95.1846H105.926C105.997 95.1846 106.06 95.1943 106.116 95.2139C106.173 95.2326 106.221 95.2598 106.26 95.2957C106.3 95.3306 106.329 95.3734 106.35 95.4238C106.371 95.4735 106.381 95.5296 106.381 95.5923C106.381 95.6558 106.371 95.7127 106.35 95.7632C106.329 95.8128 106.3 95.8556 106.26 95.8914C106.221 95.9264 106.173 95.9532 106.116 95.9719C106.06 95.9906 105.997 96 105.926 96H105.308V94.6926ZM105.533 95.8206H105.881C105.92 95.8206 105.956 95.8165 105.99 95.8083C106.024 95.8002 106.053 95.7872 106.077 95.7693C106.102 95.7506 106.121 95.727 106.135 95.6985C106.149 95.6692 106.156 95.6338 106.156 95.5923C106.156 95.5516 106.148 95.517 106.134 95.4885C106.12 95.46 106.1 95.4368 106.074 95.4189C106.049 95.4002 106.018 95.3868 105.981 95.3787C105.945 95.3697 105.905 95.3652 105.861 95.3652H105.533V95.8206ZM107.468 94.1848C107.478 94.2369 107.5 94.2784 107.534 94.3093C107.567 94.3394 107.616 94.3545 107.681 94.3545C107.747 94.3545 107.797 94.3398 107.83 94.3105C107.864 94.2804 107.885 94.2385 107.895 94.1848H108.104C108.103 94.2336 108.092 94.278 108.072 94.3179C108.052 94.3569 108.023 94.3903 107.985 94.418C107.949 94.4456 107.904 94.4672 107.852 94.4827C107.801 94.4973 107.744 94.5046 107.681 94.5046C107.619 94.5046 107.562 94.4973 107.51 94.4827C107.459 94.468 107.415 94.4469 107.379 94.4192C107.342 94.3915 107.313 94.3582 107.292 94.3191C107.272 94.2792 107.261 94.2345 107.26 94.1848H107.468ZM107.115 94.6926H107.34V95.6948H107.344L107.987 94.6926H108.244V96H108.018V94.9978H108.013L107.373 96H107.115V94.6926ZM88.1648 97.6926H88.3894V98.8047H88.9998V97.6926H89.2256V98.8047H89.3867V99.3198H89.1768V99H88.1648V97.6926ZM90.7063 98.5825C90.6973 98.6395 90.6778 98.6952 90.6477 98.7498C90.6176 98.8043 90.5781 98.8531 90.5293 98.8962C90.4805 98.9394 90.4227 98.974 90.356 99C90.29 99.0269 90.2168 99.0403 90.1362 99.0403C90.0483 99.0403 89.967 99.026 89.8921 98.9976C89.818 98.9683 89.7537 98.9247 89.6992 98.8669C89.6455 98.8083 89.6032 98.7351 89.5723 98.6472C89.5413 98.5593 89.5259 98.456 89.5259 98.3372C89.5259 98.2574 89.5344 98.1854 89.5515 98.1211C89.5694 98.056 89.593 97.9982 89.6223 97.9478C89.6524 97.8965 89.687 97.8525 89.7261 97.8159C89.7651 97.7785 89.8062 97.748 89.8494 97.7244C89.8933 97.7 89.9381 97.682 89.9836 97.6707C90.0292 97.6584 90.0732 97.6523 90.1155 97.6523C90.205 97.6523 90.2868 97.6658 90.3608 97.6926C90.4349 97.7195 90.4984 97.7606 90.5513 97.8159C90.605 97.8704 90.6465 97.9392 90.6758 98.0222C90.7059 98.1044 90.7209 98.2013 90.7209 98.3127V98.425H89.7651C89.766 98.4885 89.7749 98.5463 89.792 98.5984C89.8091 98.6497 89.8335 98.6936 89.8652 98.7302C89.897 98.7668 89.9352 98.7953 89.98 98.8157C90.0256 98.8352 90.0768 98.845 90.1338 98.845C90.1916 98.845 90.2404 98.8368 90.2803 98.8206C90.3201 98.8043 90.3535 98.7835 90.3804 98.7583C90.4072 98.7331 90.4288 98.705 90.4451 98.6741C90.4622 98.6431 90.4764 98.6126 90.4878 98.5825H90.7063ZM90.4951 98.2456C90.4935 98.1821 90.4837 98.1256 90.4658 98.0759C90.4487 98.0263 90.4243 97.9848 90.3926 97.9514C90.3617 97.9172 90.3242 97.8916 90.2803 97.8745C90.2363 97.8566 90.1875 97.8477 90.1338 97.8477C90.0825 97.8477 90.0353 97.8578 89.9922 97.8782C89.9491 97.8977 89.9112 97.9254 89.8787 97.9612C89.8461 97.9962 89.8201 98.0381 89.8005 98.0869C89.781 98.1349 89.7692 98.1878 89.7651 98.2456H90.4951ZM90.9846 97.6926H91.2092V98.22H91.8196V97.6926H92.0454V99H91.8196V98.4153H91.2092V99H90.9846V97.6926ZM92.7241 97.8879H92.2737V97.6926H93.3992V97.8879H92.9487V99H92.7241V97.8879ZM93.614 97.6926H93.8386V97.8721H93.8435C93.8582 97.842 93.8765 97.8135 93.8984 97.7866C93.9212 97.7598 93.9481 97.7366 93.979 97.717C94.0107 97.6967 94.047 97.6808 94.0876 97.6694C94.1292 97.658 94.1764 97.6523 94.2292 97.6523C94.2992 97.6523 94.3664 97.6658 94.4307 97.6926C94.495 97.7195 94.5519 97.7598 94.6016 97.8135C94.6512 97.8672 94.6907 97.9347 94.72 98.0161C94.7493 98.0967 94.7639 98.1907 94.7639 98.2981C94.7639 98.4324 94.7501 98.5467 94.7224 98.6411C94.6956 98.7347 94.6569 98.8112 94.6064 98.8706C94.5568 98.93 94.4966 98.9731 94.4258 99C94.355 99.0269 94.276 99.0403 94.189 99.0403C94.1458 99.0403 94.1056 99.0346 94.0681 99.0232C94.0307 99.0118 93.9969 98.9972 93.9668 98.9792C93.9375 98.9605 93.9123 98.9402 93.8911 98.9182C93.87 98.8954 93.8541 98.8735 93.8435 98.8523H93.8386V99.5151H93.614V97.6926ZM93.8337 98.353C93.8337 98.4238 93.8407 98.4893 93.8545 98.5496C93.8683 98.609 93.8895 98.6606 93.918 98.7046C93.9473 98.7485 93.9835 98.7831 94.0266 98.8083C94.0706 98.8328 94.1222 98.845 94.1816 98.845C94.2435 98.845 94.2968 98.8328 94.3416 98.8083C94.3871 98.7831 94.4246 98.7485 94.4539 98.7046C94.4832 98.6606 94.5047 98.609 94.5186 98.5496C94.5324 98.4893 94.5393 98.4238 94.5393 98.353C94.5393 98.279 94.5324 98.211 94.5186 98.1492C94.5047 98.0873 94.4832 98.034 94.4539 97.9893C94.4246 97.9445 94.3871 97.9099 94.3416 97.8855C94.2968 97.8603 94.2435 97.8477 94.1816 97.8477C94.1222 97.8477 94.0706 97.8603 94.0266 97.8855C93.9835 97.9099 93.9473 97.9445 93.918 97.9893C93.8895 98.034 93.8683 98.0873 93.8545 98.1492C93.8407 98.211 93.8337 98.279 93.8337 98.353ZM95.627 99C95.6351 98.8494 95.666 98.7184 95.7197 98.6069C95.7743 98.4954 95.88 98.3941 96.0371 98.303L96.2715 98.1675C96.3765 98.1064 96.4501 98.0544 96.4924 98.0112C96.5592 97.9437 96.5925 97.8664 96.5925 97.7793C96.5925 97.6776 96.562 97.597 96.501 97.5376C96.4399 97.4774 96.3586 97.4473 96.2568 97.4473C96.1063 97.4473 96.0021 97.5042 95.9443 97.6182C95.9134 97.6792 95.8963 97.7638 95.8931 97.8721H95.6697C95.6721 97.7199 95.7002 97.5958 95.7539 97.4998C95.8491 97.3305 96.0172 97.2458 96.2581 97.2458C96.4583 97.2458 96.6043 97.3 96.6963 97.4082C96.7891 97.5164 96.8354 97.6369 96.8354 97.7695C96.8354 97.9095 96.7862 98.0291 96.6877 98.1284C96.6308 98.1862 96.5286 98.2562 96.3813 98.3384L96.2141 98.4312C96.1344 98.4751 96.0717 98.517 96.0261 98.5569C95.9447 98.6277 95.8935 98.7062 95.8723 98.7925H96.8269V99H95.627Z" fill="black"/>
</svg>
