<svg width="154" height="60" viewBox="0 0 154 60" fill="none" xmlns="http://www.w3.org/2000/svg">
<path d="M23.1121 35.08H9.22187V34.34H26.8228V35.08H23.8452M38.8277 35.08H30.4936V34.34H39.5608M1.36157 34.34H5.54608V35.08H1.36157V34.34Z" stroke="black" stroke-width="0.5"/>
<path d="M93.9395 56.26V35.08M94.6776 34.34V56.26" stroke="black" stroke-width="0.5"/>
<path d="M79.1815 35.08V56.26M78.4434 56.26V35.08" stroke="black" stroke-width="0.5"/>
<path d="M64.5482 56.26V35.08M65.2814 35.08V56.26" stroke="black" stroke-width="0.5"/>
<path d="M48.7478 35.08V56.26M48.0146 56.26V34.34" stroke="black" stroke-width="0.5"/>
<path d="M38.8276 56.26V35.08M39.5608 34.34V56.26" stroke="black" stroke-width="0.5"/>
<path d="M48.0146 34.34H57.7602V35.08H48.7478M64.5482 35.08H61.431V34.34H69.81V35.08H65.2814M78.4434 35.08H73.4858V34.34H82.4134V35.08H79.1815M93.9395 35.08H86.0892V34.34H94.6777" stroke="black" stroke-width="0.5"/>
<path d="M23.8452 35.08V56.26M23.1121 56.26V35.08" stroke="black" stroke-width="0.5"/>
<path d="M1.36152 56.26H23.112M23.8452 56.26H38.8276M39.5608 56.26H41.7403V57.365H0.259277M48.7478 56.26H64.5482M65.2813 56.26H78.4433M79.1815 56.26H93.9395M94.6776 56.26H97.0367V57.365H45.4111V56.26H48.0146M103.86 56.26H121.495M122.234 56.26H152.333M153.435 57.365H100.713V56.26H103.126" stroke="black" stroke-width="0.5"/>
<path d="M121.495 56.26V35.08M122.234 35.08V56.26" stroke="black" stroke-width="0.5"/>
<path d="M103.126 56.26V34.34M103.86 35.08V56.26" stroke="black" stroke-width="0.5"/>
<path d="M103.126 34.34H108.538V35.08H103.86M121.495 35.08H112.209V34.34H128.563V35.08H122.234M139.291 34.34H152.333M152.333 35.08H132.234V34.34H138.553" stroke="black" stroke-width="0.5"/>
<path d="M1.36157 23.29H8.44881V24.03H1.36157M31.112 23.29H32.4786V24.03H12.1246V23.29H30.3788M39.5608 24.03H36.1544V23.29H38.8277" stroke="black" stroke-width="0.5"/>
<path d="M31.1119 1.56V23.29M30.3788 23.29V1.56" stroke="black" stroke-width="0.5"/>
<path d="M38.8276 23.29V1.56M39.5608 1.56V24.03" stroke="black" stroke-width="0.5"/>
<path d="M48.0146 24.03V1.56M48.7478 1.56V23.29" stroke="black" stroke-width="0.5"/>
<path d="M64.5482 23.29V1.56M65.2814 1.56V23.29" stroke="black" stroke-width="0.5"/>
<path d="M93.9395 23.29V1.56M94.6776 1.56V24.03" stroke="black" stroke-width="0.5"/>
<path d="M48.7478 23.29H51.88V24.03H48.0146M65.2814 23.29H79.1815V24.03H55.5557V23.29H64.5482M94.6777 24.03H82.8523V23.29H93.9395" stroke="black" stroke-width="0.5"/>
<path d="M0.259277 0.454987H153.435M152.333 1.55998H131.416M130.682 1.55998H113.047M112.313 1.55998H103.86M103.126 1.55998H94.6776M93.9395 1.55998H65.2813M64.5482 1.55998H48.7478M48.0146 1.55998H39.5608M38.8276 1.55998H31.112M30.3788 1.55998H1.36152" stroke="black" stroke-width="0.5"/>
<path d="M103.126 24.03V1.56M103.86 1.56V23.29" stroke="black" stroke-width="0.5"/>
<path d="M113.047 1.56V23.29M112.313 23.29V1.56" stroke="black" stroke-width="0.5"/>
<path d="M131.416 1.56V23.29M130.682 23.29V1.56" stroke="black" stroke-width="0.5"/>
<path d="M103.86 23.29H105.635V24.03H103.126M113.047 23.29H124.263V24.03H109.306V23.29H112.313M131.416 23.29H133.081V24.03H127.934V23.29H130.682M138.553 24.03H136.752V23.29H152.333M152.333 24.03H139.291" stroke="black" stroke-width="0.5"/>
<path d="M0.259277 57.365V0.454987M1.36152 1.55998V23.29M1.36152 24.03V56.26" stroke="black" stroke-width="0.5"/>
<path d="M152.333 34.34V24.03M152.333 23.29V1.55998M153.435 0.454987V57.365M152.333 56.26V35.08" stroke="black" stroke-width="0.5"/>
<path d="M139.291 24.03V26.975H138.553V24.03M138.553 34.34V30.66H139.291V34.34" stroke="black" stroke-width="0.5"/>
<path d="M48.0146 5.795H39.5608M48.0146 6.9H39.5608M48.0146 8.005H39.5608M48.0146 9.11H39.5608M48.0146 10.215H39.5608M48.0146 11.32H39.5608M48.0146 12.425H39.5608M48.0146 13.53H39.5608M48.0146 14.635H39.5608M48.0146 15.74H39.5608M48.0146 16.845H39.5608M48.0146 17.95H39.5608M48.0146 19.055H39.5608M43.7902 4.69V20.16M43.7902 20.16V20.15M43.7902 20.16L43.7852 20.15M48.0146 20.16H39.5608V4.69H48.0146V20.16Z" stroke="black" stroke-width="0.5"/>
<path d="M103.126 5.795H94.6776M103.126 6.9H94.6776M103.126 8.005H94.6776M103.126 9.11H94.6776M103.126 10.215H94.6776M103.126 11.32H94.6776M103.126 12.425H94.6776M103.126 13.53H94.6776M103.126 14.635H94.6776M103.126 15.74H94.6776M103.126 16.845H94.6776M103.126 17.95H94.6776M103.126 19.055H94.6776M98.902 4.69V20.16M98.902 20.16V20.15M98.902 20.16L98.897 20.15M103.126 20.16H94.6776V4.69H103.126V20.16Z" stroke="black" stroke-width="0.5"/>
<path d="M136.717 27.47L138.553 30.66H139.291M138.553 26.975H139.291" stroke="black" stroke-width="0.5"/>
<path d="M60.9422 32.5L57.7601 34.34V35.08M61.4309 34.34V35.08" stroke="black" stroke-width="0.5"/>
<path d="M72.992 32.5L69.8099 34.34V35.08M73.4857 34.34V35.08" stroke="black" stroke-width="0.5"/>
<path d="M85.5955 32.5L82.4135 34.34V35.08M86.0892 34.34V35.08" stroke="black" stroke-width="0.5"/>
<path d="M131.745 32.5L128.563 34.34V35.08M132.234 34.34V35.08" stroke="black" stroke-width="0.5"/>
<path d="M111.72 32.5L108.538 34.34V35.08M112.209 34.34V35.08" stroke="black" stroke-width="0.5"/>
<path d="M30.0048 32.5L26.8228 34.34V35.08M30.4936 34.34V35.08" stroke="black" stroke-width="0.5"/>
<path d="M8.72805 32.5L5.54602 34.34V35.08M9.22181 34.34V35.08" stroke="black" stroke-width="0.5"/>
<path d="M32.9723 25.87L36.1543 24.03V23.29M32.4785 24.03V23.29" stroke="black" stroke-width="0.5"/>
<path d="M52.3736 25.87L55.5557 24.03V23.29M51.8799 24.03V23.29" stroke="black" stroke-width="0.5"/>
<path d="M79.6703 25.87L82.8523 24.03V23.29M79.1815 24.03V23.29" stroke="black" stroke-width="0.5"/>
<path d="M106.124 25.87L109.306 24.03V23.29M105.635 24.03V23.29" stroke="black" stroke-width="0.5"/>
<path d="M124.752 25.87L127.934 24.03V23.29M124.264 24.03V23.29" stroke="black" stroke-width="0.5"/>
<path d="M133.57 25.87L136.752 24.03V23.29M133.081 24.03V23.29" stroke="black" stroke-width="0.5"/>
<path d="M8.94249 25.87L12.1245 24.03V23.29M8.44873 24.03V23.29" stroke="black" stroke-width="0.5"/>
<path d="M42.2291 59.205L45.4112 57.365V56.26M41.7404 57.365V56.26" stroke="black" stroke-width="0.5"/>
<path d="M97.5305 59.205L100.713 57.365V56.26M97.0367 57.365V56.26" stroke="black" stroke-width="0.5"/>
<path d="M135.528 45.7026C135.842 45.7026 136.1 45.8092 136.3 46.0225C136.502 46.2357 136.603 46.5083 136.603 46.8403C136.603 47.1707 136.504 47.4621 136.307 47.7144C136.11 47.9666 135.804 48.0928 135.389 48.0928C134.943 48.0928 134.614 47.9064 134.403 47.5337C134.238 47.2424 134.156 46.8664 134.156 46.4058C134.156 46.1356 134.168 45.9159 134.19 45.7466C134.231 45.4455 134.31 45.1948 134.427 44.9946C134.528 44.8237 134.66 44.6862 134.823 44.582C134.987 44.4779 135.183 44.4258 135.411 44.4258C135.74 44.4258 136.002 44.5104 136.197 44.6797C136.393 44.8473 136.502 45.0711 136.527 45.3511H135.833C135.833 45.2941 135.812 45.2314 135.768 45.1631C135.693 45.0524 135.58 44.9971 135.428 44.9971C135.202 44.9971 135.041 45.124 134.945 45.3779C134.893 45.5179 134.857 45.7246 134.837 45.998C134.924 45.8955 135.024 45.8206 135.138 45.7734C135.252 45.7262 135.382 45.7026 135.528 45.7026ZM135.06 46.3667C134.923 46.4725 134.854 46.6434 134.854 46.8794C134.854 47.0698 134.906 47.2253 135.008 47.3457C135.111 47.4661 135.241 47.5264 135.399 47.5264C135.554 47.5264 135.675 47.4686 135.763 47.353C135.852 47.2358 135.897 47.0845 135.897 46.8989C135.897 46.6922 135.847 46.5343 135.746 46.4253C135.645 46.3146 135.521 46.2593 135.375 46.2593C135.256 46.2593 135.151 46.2951 135.06 46.3667ZM138.116 46.2422C138.032 46.2422 137.958 46.2528 137.896 46.2739C137.787 46.313 137.705 46.3854 137.65 46.4912L137.025 46.4619L137.274 44.5063H139.225V45.0972H137.777L137.65 45.8711C137.757 45.8011 137.841 45.7547 137.901 45.7319C138.002 45.6945 138.125 45.6758 138.27 45.6758C138.563 45.6758 138.819 45.7743 139.037 45.9712C139.255 46.1681 139.364 46.4546 139.364 46.8306C139.364 47.1577 139.259 47.4499 139.049 47.707C138.839 47.9642 138.525 48.0928 138.106 48.0928C137.77 48.0928 137.493 48.0024 137.276 47.8218C137.06 47.6411 136.939 47.3848 136.915 47.0527H137.608C137.636 47.2041 137.689 47.3213 137.767 47.4043C137.845 47.4857 137.959 47.5264 138.109 47.5264C138.281 47.5264 138.412 47.4661 138.502 47.3457C138.593 47.2236 138.639 47.0706 138.639 46.8867C138.639 46.7061 138.596 46.5539 138.512 46.4302C138.427 46.3049 138.295 46.2422 138.116 46.2422Z" fill="black"/>
<path d="M77.5283 11.7026C77.8424 11.7026 78.0996 11.8092 78.2998 12.0225C78.5016 12.2357 78.6025 12.5083 78.6025 12.8403C78.6025 13.1707 78.5041 13.4621 78.3071 13.7144C78.1102 13.9666 77.8042 14.0928 77.3892 14.0928C76.9432 14.0928 76.6144 13.9064 76.4028 13.5337C76.2384 13.2424 76.1562 12.8664 76.1562 12.4058C76.1562 12.1356 76.1676 11.9159 76.1904 11.7466C76.2311 11.4455 76.3101 11.1948 76.4272 10.9946C76.5282 10.8237 76.66 10.6862 76.8228 10.582C76.9871 10.4779 77.1833 10.4258 77.4111 10.4258C77.7399 10.4258 78.002 10.5104 78.1973 10.6797C78.3926 10.8473 78.5024 11.0711 78.5269 11.3511H77.8335C77.8335 11.2941 77.8115 11.2314 77.7676 11.1631C77.6927 11.0524 77.5796 10.9971 77.4282 10.9971C77.202 10.9971 77.0409 11.124 76.9448 11.3779C76.8927 11.5179 76.8569 11.7246 76.8374 11.998C76.9237 11.8955 77.0238 11.8206 77.1377 11.7734C77.2516 11.7262 77.3818 11.7026 77.5283 11.7026ZM77.0596 12.3667C76.9229 12.4725 76.8545 12.6434 76.8545 12.8794C76.8545 13.0698 76.9058 13.2253 77.0083 13.3457C77.1108 13.4661 77.241 13.5264 77.3989 13.5264C77.5535 13.5264 77.6748 13.4686 77.7627 13.353C77.8522 13.2358 77.897 13.0845 77.897 12.8989C77.897 12.6922 77.8465 12.5343 77.7456 12.4253C77.6447 12.3146 77.521 12.2593 77.3745 12.2593C77.2557 12.2593 77.1507 12.2951 77.0596 12.3667ZM80.1602 14.0879C79.7093 14.0879 79.3927 13.93 79.2104 13.6143C79.0298 13.2985 78.9395 12.8485 78.9395 12.2642C78.9395 11.6799 79.0298 11.229 79.2104 10.9116C79.3927 10.5942 79.7093 10.4355 80.1602 10.4355C80.611 10.4355 80.9276 10.5942 81.1099 10.9116C81.2905 11.229 81.3809 11.6799 81.3809 12.2642C81.3809 12.8485 81.2897 13.2985 81.1074 13.6143C80.9268 13.93 80.611 14.0879 80.1602 14.0879ZM80.5679 13.1968C80.6313 12.9819 80.6631 12.6711 80.6631 12.2642C80.6631 11.8377 80.6305 11.522 80.5654 11.3169C80.502 11.1118 80.3669 11.0093 80.1602 11.0093C79.9535 11.0093 79.8167 11.1118 79.75 11.3169C79.6833 11.522 79.6499 11.8377 79.6499 12.2642C79.6499 12.6711 79.6833 12.9827 79.75 13.1992C79.8167 13.4141 79.9535 13.5215 80.1602 13.5215C80.3669 13.5215 80.5028 13.4132 80.5679 13.1968Z" fill="black"/>
<path d="M54.333 12.2422C54.2484 12.2422 54.1751 12.2528 54.1133 12.2739C54.0042 12.313 53.922 12.3854 53.8667 12.4912L53.2417 12.4619L53.4907 10.5063H55.4414V11.0972H53.9937L53.8667 11.8711C53.9741 11.8011 54.0579 11.7547 54.1182 11.7319C54.2191 11.6945 54.342 11.6758 54.4868 11.6758C54.7798 11.6758 55.0353 11.7743 55.2534 11.9712C55.4715 12.1681 55.5806 12.4546 55.5806 12.8306C55.5806 13.1577 55.4756 13.4499 55.2656 13.707C55.0557 13.9642 54.7415 14.0928 54.3232 14.0928C53.9863 14.0928 53.7096 14.0024 53.4932 13.8218C53.2767 13.6411 53.1562 13.3848 53.1318 13.0527H53.8252C53.8529 13.2041 53.9058 13.3213 53.9839 13.4043C54.062 13.4857 54.1759 13.5264 54.3257 13.5264C54.4982 13.5264 54.6292 13.4661 54.7188 13.3457C54.8099 13.2236 54.8555 13.0706 54.8555 12.8867C54.8555 12.7061 54.8132 12.5539 54.7285 12.4302C54.6439 12.3049 54.512 12.2422 54.333 12.2422ZM57.082 14.1025C56.8167 14.1025 56.5783 14.0244 56.3667 13.8682C56.1551 13.7103 56.0339 13.4808 56.0029 13.1797H56.6963C56.7126 13.2839 56.7565 13.3685 56.8281 13.4336C56.8997 13.4987 56.995 13.5312 57.1138 13.5312C57.3433 13.5312 57.5044 13.4043 57.5972 13.1504C57.6476 13.0104 57.6794 12.8062 57.6924 12.5376C57.6289 12.6174 57.5614 12.6784 57.4897 12.7207C57.3595 12.7988 57.1992 12.8379 57.0088 12.8379C56.7272 12.8379 56.4774 12.741 56.2593 12.5474C56.0412 12.3521 55.9321 12.0713 55.9321 11.7051C55.9321 11.3258 56.0412 11.019 56.2593 10.7847C56.479 10.5487 56.7638 10.4307 57.1138 10.4307C57.6525 10.4307 58.022 10.6691 58.2222 11.146C58.3361 11.4162 58.3931 11.7718 58.3931 12.2129C58.3931 12.641 58.3385 12.9982 58.2295 13.2847C58.0212 13.8299 57.6387 14.1025 57.082 14.1025ZM56.8379 11.1118C56.7044 11.216 56.6377 11.3926 56.6377 11.6416C56.6377 11.8516 56.68 12.0094 56.7646 12.1152C56.8509 12.2194 56.9827 12.2715 57.1602 12.2715C57.2562 12.2715 57.3465 12.2438 57.4312 12.1885C57.589 12.0876 57.668 11.9126 57.668 11.6636C57.668 11.4634 57.6208 11.3047 57.5264 11.1875C57.4336 11.0703 57.3058 11.0117 57.1431 11.0117C57.0243 11.0117 56.9225 11.0451 56.8379 11.1118Z" fill="black"/>
<path d="M85.5283 45.7026C85.8424 45.7026 86.0996 45.8092 86.2998 46.0225C86.5016 46.2357 86.6025 46.5083 86.6025 46.8403C86.6025 47.1707 86.5041 47.4621 86.3071 47.7144C86.1102 47.9666 85.8042 48.0928 85.3892 48.0928C84.9432 48.0928 84.6144 47.9064 84.4028 47.5337C84.2384 47.2424 84.1562 46.8664 84.1562 46.4058C84.1562 46.1356 84.1676 45.9159 84.1904 45.7466C84.2311 45.4455 84.3101 45.1948 84.4272 44.9946C84.5282 44.8237 84.66 44.6862 84.8228 44.582C84.9871 44.4779 85.1833 44.4258 85.4111 44.4258C85.7399 44.4258 86.002 44.5104 86.1973 44.6797C86.3926 44.8473 86.5024 45.0711 86.5269 45.3511H85.8335C85.8335 45.2941 85.8115 45.2314 85.7676 45.1631C85.6927 45.0524 85.5796 44.9971 85.4282 44.9971C85.202 44.9971 85.0409 45.124 84.9448 45.3779C84.8927 45.5179 84.8569 45.7246 84.8374 45.998C84.9237 45.8955 85.0238 45.8206 85.1377 45.7734C85.2516 45.7262 85.3818 45.7026 85.5283 45.7026ZM85.0596 46.3667C84.9229 46.4725 84.8545 46.6434 84.8545 46.8794C84.8545 47.0698 84.9058 47.2253 85.0083 47.3457C85.1108 47.4661 85.241 47.5264 85.3989 47.5264C85.5535 47.5264 85.6748 47.4686 85.7627 47.353C85.8522 47.2358 85.897 47.0845 85.897 46.8989C85.897 46.6922 85.8465 46.5343 85.7456 46.4253C85.6447 46.3146 85.521 46.2593 85.3745 46.2593C85.2557 46.2593 85.1507 46.2951 85.0596 46.3667ZM87.2202 47.7778C87.0168 47.5695 86.915 47.3164 86.915 47.0186C86.915 46.82 86.9598 46.6401 87.0493 46.479C87.1405 46.3179 87.2731 46.1966 87.4473 46.1152C87.2764 46.0013 87.1649 45.8784 87.1128 45.7466C87.0623 45.6131 87.0371 45.4886 87.0371 45.373C87.0371 45.1159 87.134 44.897 87.3276 44.7163C87.5213 44.534 87.7948 44.4429 88.1479 44.4429C88.5011 44.4429 88.7746 44.534 88.9683 44.7163C89.1619 44.897 89.2588 45.1159 89.2588 45.373C89.2588 45.4886 89.2327 45.6131 89.1807 45.7466C89.1302 45.8784 89.0195 45.9932 88.8486 46.0908C89.0228 46.1885 89.1538 46.3179 89.2417 46.479C89.3296 46.6401 89.3735 46.82 89.3735 47.0186C89.3735 47.3164 89.2629 47.5703 89.0415 47.7803C88.8218 47.9886 88.5142 48.0928 88.1187 48.0928C87.7231 48.0928 87.4237 47.9878 87.2202 47.7778ZM87.6377 46.9722C87.6377 47.1463 87.6825 47.2814 87.772 47.3774C87.8631 47.4735 87.9884 47.5215 88.1479 47.5215C88.3075 47.5215 88.432 47.4735 88.5215 47.3774C88.6126 47.2814 88.6582 47.1463 88.6582 46.9722C88.6582 46.7915 88.6118 46.6548 88.519 46.562C88.4279 46.4676 88.3042 46.4204 88.1479 46.4204C87.9917 46.4204 87.8672 46.4676 87.7744 46.562C87.6833 46.6548 87.6377 46.7915 87.6377 46.9722ZM87.8208 45.7661C87.8989 45.8475 88.008 45.8882 88.1479 45.8882C88.2896 45.8882 88.3986 45.8475 88.4751 45.7661C88.5532 45.6847 88.5923 45.5798 88.5923 45.4512C88.5923 45.3112 88.5532 45.2021 88.4751 45.124C88.3986 45.0443 88.2896 45.0044 88.1479 45.0044C88.008 45.0044 87.8981 45.0443 87.8184 45.124C87.7402 45.2021 87.7012 45.3112 87.7012 45.4512C87.7012 45.5798 87.741 45.6847 87.8208 45.7661Z" fill="black"/>
<path d="M110.528 45.7026C110.842 45.7026 111.1 45.8092 111.3 46.0225C111.502 46.2357 111.603 46.5083 111.603 46.8403C111.603 47.1707 111.504 47.4621 111.307 47.7144C111.11 47.9666 110.804 48.0928 110.389 48.0928C109.943 48.0928 109.614 47.9064 109.403 47.5337C109.238 47.2424 109.156 46.8664 109.156 46.4058C109.156 46.1356 109.168 45.9159 109.19 45.7466C109.231 45.4455 109.31 45.1948 109.427 44.9946C109.528 44.8237 109.66 44.6862 109.823 44.582C109.987 44.4779 110.183 44.4258 110.411 44.4258C110.74 44.4258 111.002 44.5104 111.197 44.6797C111.393 44.8473 111.502 45.0711 111.527 45.3511H110.833C110.833 45.2941 110.812 45.2314 110.768 45.1631C110.693 45.0524 110.58 44.9971 110.428 44.9971C110.202 44.9971 110.041 45.124 109.945 45.3779C109.893 45.5179 109.857 45.7246 109.837 45.998C109.924 45.8955 110.024 45.8206 110.138 45.7734C110.252 45.7262 110.382 45.7026 110.528 45.7026ZM110.06 46.3667C109.923 46.4725 109.854 46.6434 109.854 46.8794C109.854 47.0698 109.906 47.2253 110.008 47.3457C110.111 47.4661 110.241 47.5264 110.399 47.5264C110.554 47.5264 110.675 47.4686 110.763 47.353C110.852 47.2358 110.897 47.0845 110.897 46.8989C110.897 46.6922 110.847 46.5343 110.746 46.4253C110.645 46.3146 110.521 46.2593 110.375 46.2593C110.256 46.2593 110.151 46.2951 110.06 46.3667ZM113.312 45.7026C113.626 45.7026 113.883 45.8092 114.083 46.0225C114.285 46.2357 114.386 46.5083 114.386 46.8403C114.386 47.1707 114.287 47.4621 114.09 47.7144C113.893 47.9666 113.587 48.0928 113.172 48.0928C112.726 48.0928 112.398 47.9064 112.186 47.5337C112.022 47.2424 111.939 46.8664 111.939 46.4058C111.939 46.1356 111.951 45.9159 111.974 45.7466C112.014 45.4455 112.093 45.1948 112.21 44.9946C112.311 44.8237 112.443 44.6862 112.606 44.582C112.77 44.4779 112.966 44.4258 113.194 44.4258C113.523 44.4258 113.785 44.5104 113.98 44.6797C114.176 44.8473 114.286 45.0711 114.31 45.3511H113.617C113.617 45.2941 113.595 45.2314 113.551 45.1631C113.476 45.0524 113.363 44.9971 113.211 44.9971C112.985 44.9971 112.824 45.124 112.728 45.3779C112.676 45.5179 112.64 45.7246 112.621 45.998C112.707 45.8955 112.807 45.8206 112.921 45.7734C113.035 45.7262 113.165 45.7026 113.312 45.7026ZM112.843 46.3667C112.706 46.4725 112.638 46.6434 112.638 46.8794C112.638 47.0698 112.689 47.2253 112.792 47.3457C112.894 47.4661 113.024 47.5264 113.182 47.5264C113.337 47.5264 113.458 47.4686 113.546 47.353C113.635 47.2358 113.68 47.0845 113.68 46.8989C113.68 46.6922 113.63 46.5343 113.529 46.4253C113.428 46.3146 113.304 46.2593 113.158 46.2593C113.039 46.2593 112.934 46.2951 112.843 46.3667Z" fill="black"/>
<path d="M144.528 28.7026C144.842 28.7026 145.1 28.8092 145.3 29.0225C145.502 29.2357 145.603 29.5083 145.603 29.8403C145.603 30.1707 145.504 30.4621 145.307 30.7144C145.11 30.9666 144.804 31.0928 144.389 31.0928C143.943 31.0928 143.614 30.9064 143.403 30.5337C143.238 30.2424 143.156 29.8664 143.156 29.4058C143.156 29.1356 143.168 28.9159 143.19 28.7466C143.231 28.4455 143.31 28.1948 143.427 27.9946C143.528 27.8237 143.66 27.6862 143.823 27.582C143.987 27.4779 144.183 27.4258 144.411 27.4258C144.74 27.4258 145.002 27.5104 145.197 27.6797C145.393 27.8473 145.502 28.0711 145.527 28.3511H144.833C144.833 28.2941 144.812 28.2314 144.768 28.1631C144.693 28.0524 144.58 27.9971 144.428 27.9971C144.202 27.9971 144.041 28.124 143.945 28.3779C143.893 28.5179 143.857 28.7246 143.837 28.998C143.924 28.8955 144.024 28.8206 144.138 28.7734C144.252 28.7262 144.382 28.7026 144.528 28.7026ZM144.06 29.3667C143.923 29.4725 143.854 29.6434 143.854 29.8794C143.854 30.0698 143.906 30.2253 144.008 30.3457C144.111 30.4661 144.241 30.5264 144.399 30.5264C144.554 30.5264 144.675 30.4686 144.763 30.353C144.852 30.2358 144.897 30.0845 144.897 29.8989C144.897 29.6922 144.847 29.5343 144.746 29.4253C144.645 29.3146 144.521 29.2593 144.375 29.2593C144.256 29.2593 144.151 29.2951 144.06 29.3667ZM148.398 29.6938V30.2383H147.998V31H147.316V30.2383H145.915V29.6304L147.216 27.4819H147.998V29.6938H148.398ZM146.43 29.6938H147.316V28.1655L146.43 29.6938Z" fill="black"/>
<path d="M140.528 11.7026C140.842 11.7026 141.1 11.8092 141.3 12.0225C141.502 12.2357 141.603 12.5083 141.603 12.8403C141.603 13.1707 141.504 13.4621 141.307 13.7144C141.11 13.9666 140.804 14.0928 140.389 14.0928C139.943 14.0928 139.614 13.9064 139.403 13.5337C139.238 13.2424 139.156 12.8664 139.156 12.4058C139.156 12.1356 139.168 11.9159 139.19 11.7466C139.231 11.4455 139.31 11.1948 139.427 10.9946C139.528 10.8237 139.66 10.6862 139.823 10.582C139.987 10.4779 140.183 10.4258 140.411 10.4258C140.74 10.4258 141.002 10.5104 141.197 10.6797C141.393 10.8473 141.502 11.0711 141.527 11.3511H140.833C140.833 11.2941 140.812 11.2314 140.768 11.1631C140.693 11.0524 140.58 10.9971 140.428 10.9971C140.202 10.9971 140.041 11.124 139.945 11.3779C139.893 11.5179 139.857 11.7246 139.837 11.998C139.924 11.8955 140.024 11.8206 140.138 11.7734C140.252 11.7262 140.382 11.7026 140.528 11.7026ZM140.06 12.3667C139.923 12.4725 139.854 12.6434 139.854 12.8794C139.854 13.0698 139.906 13.2253 140.008 13.3457C140.111 13.4661 140.241 13.5264 140.399 13.5264C140.554 13.5264 140.675 13.4686 140.763 13.353C140.852 13.2358 140.897 13.0845 140.897 12.8989C140.897 12.6922 140.847 12.5343 140.746 12.4253C140.645 12.3146 140.521 12.2593 140.375 12.2593C140.256 12.2593 140.151 12.2951 140.06 12.3667ZM142.74 11.1655C142.662 11.2697 142.625 11.4089 142.628 11.583H141.979C141.985 11.4072 142.015 11.2404 142.069 11.0825C142.126 10.9442 142.215 10.8164 142.337 10.6992C142.429 10.6162 142.537 10.5527 142.662 10.5088C142.787 10.4648 142.941 10.4429 143.124 10.4429C143.462 10.4429 143.735 10.5308 143.941 10.7065C144.15 10.8807 144.254 11.1151 144.254 11.4097C144.254 11.618 144.192 11.7938 144.068 11.937C143.99 12.0265 143.909 12.0876 143.824 12.1201C143.888 12.1201 143.979 12.1746 144.098 12.2837C144.275 12.4481 144.364 12.6727 144.364 12.9575C144.364 13.257 144.26 13.5207 144.051 13.7485C143.845 13.9748 143.538 14.0879 143.131 14.0879C142.63 14.0879 142.281 13.9243 142.086 13.5972C141.983 13.423 141.926 13.1951 141.915 12.9136H142.599C142.599 13.0552 142.621 13.1724 142.667 13.2651C142.752 13.436 142.905 13.5215 143.128 13.5215C143.265 13.5215 143.384 13.4751 143.485 13.3823C143.587 13.2879 143.639 13.1528 143.639 12.9771C143.639 12.7443 143.544 12.5889 143.355 12.5107C143.248 12.4668 143.079 12.4448 142.848 12.4448V11.9468C143.074 11.9435 143.232 11.9215 143.321 11.8809C143.476 11.8125 143.553 11.6742 143.553 11.4658C143.553 11.3307 143.513 11.2209 143.434 11.1362C143.355 11.0516 143.245 11.0093 143.102 11.0093C142.937 11.0093 142.817 11.0614 142.74 11.1655Z" fill="black"/>
<path d="M120.528 11.7026C120.842 11.7026 121.1 11.8092 121.3 12.0225C121.502 12.2357 121.603 12.5083 121.603 12.8403C121.603 13.1707 121.504 13.4621 121.307 13.7144C121.11 13.9666 120.804 14.0928 120.389 14.0928C119.943 14.0928 119.614 13.9064 119.403 13.5337C119.238 13.2424 119.156 12.8664 119.156 12.4058C119.156 12.1356 119.168 11.9159 119.19 11.7466C119.231 11.4455 119.31 11.1948 119.427 10.9946C119.528 10.8237 119.66 10.6862 119.823 10.582C119.987 10.4779 120.183 10.4258 120.411 10.4258C120.74 10.4258 121.002 10.5104 121.197 10.6797C121.393 10.8473 121.502 11.0711 121.527 11.3511H120.833C120.833 11.2941 120.812 11.2314 120.768 11.1631C120.693 11.0524 120.58 10.9971 120.428 10.9971C120.202 10.9971 120.041 11.124 119.945 11.3779C119.893 11.5179 119.857 11.7246 119.837 11.998C119.924 11.8955 120.024 11.8206 120.138 11.7734C120.252 11.7262 120.382 11.7026 120.528 11.7026ZM120.06 12.3667C119.923 12.4725 119.854 12.6434 119.854 12.8794C119.854 13.0698 119.906 13.2253 120.008 13.3457C120.111 13.4661 120.241 13.5264 120.399 13.5264C120.554 13.5264 120.675 13.4686 120.763 13.353C120.852 13.2358 120.897 13.0845 120.897 12.8989C120.897 12.6922 120.847 12.5343 120.746 12.4253C120.645 12.3146 120.521 12.2593 120.375 12.2593C120.256 12.2593 120.151 12.2951 120.06 12.3667ZM123.521 11.1802C123.438 11.0809 123.32 11.0312 123.165 11.0312C122.953 11.0312 122.809 11.1102 122.733 11.2681C122.689 11.3592 122.663 11.5041 122.655 11.7026H121.979C121.99 11.4015 122.044 11.1582 122.142 10.9727C122.328 10.6195 122.657 10.4429 123.131 10.4429C123.505 10.4429 123.803 10.547 124.024 10.7554C124.246 10.9621 124.356 11.2363 124.356 11.5781C124.356 11.8402 124.278 12.0729 124.122 12.2764C124.02 12.4115 123.851 12.562 123.617 12.728L123.338 12.9258C123.164 13.0495 123.045 13.139 122.979 13.1943C122.916 13.2497 122.862 13.314 122.818 13.3872H124.364V14H121.939C121.946 13.7461 122 13.5142 122.103 13.3042C122.202 13.0682 122.437 12.8184 122.806 12.5547C123.127 12.3252 123.334 12.1608 123.429 12.0615C123.574 11.9069 123.646 11.7376 123.646 11.5537C123.646 11.404 123.604 11.2795 123.521 11.1802Z" fill="black"/>
<path d="M106.528 11.7026C106.842 11.7026 107.1 11.8092 107.3 12.0225C107.502 12.2357 107.603 12.5083 107.603 12.8403C107.603 13.1707 107.504 13.4621 107.307 13.7144C107.11 13.9666 106.804 14.0928 106.389 14.0928C105.943 14.0928 105.614 13.9064 105.403 13.5337C105.238 13.2424 105.156 12.8664 105.156 12.4058C105.156 12.1356 105.168 11.9159 105.19 11.7466C105.231 11.4455 105.31 11.1948 105.427 10.9946C105.528 10.8237 105.66 10.6862 105.823 10.582C105.987 10.4779 106.183 10.4258 106.411 10.4258C106.74 10.4258 107.002 10.5104 107.197 10.6797C107.393 10.8473 107.502 11.0711 107.527 11.3511H106.833C106.833 11.2941 106.812 11.2314 106.768 11.1631C106.693 11.0524 106.58 10.9971 106.428 10.9971C106.202 10.9971 106.041 11.124 105.945 11.3779C105.893 11.5179 105.857 11.7246 105.837 11.998C105.924 11.8955 106.024 11.8206 106.138 11.7734C106.252 11.7262 106.382 11.7026 106.528 11.7026ZM106.06 12.3667C105.923 12.4725 105.854 12.6434 105.854 12.8794C105.854 13.0698 105.906 13.2253 106.008 13.3457C106.111 13.4661 106.241 13.5264 106.399 13.5264C106.554 13.5264 106.675 13.4686 106.763 13.353C106.852 13.2358 106.897 13.0845 106.897 12.8989C106.897 12.6922 106.847 12.5343 106.746 12.4253C106.645 12.3146 106.521 12.2593 106.375 12.2593C106.256 12.2593 106.151 12.2951 106.06 12.3667ZM109.675 14H108.962V11.5586H108.13V11.085C108.35 11.0752 108.503 11.0605 108.591 11.041C108.731 11.0101 108.845 10.9482 108.933 10.8555C108.993 10.792 109.039 10.7074 109.07 10.6016C109.088 10.5381 109.097 10.4909 109.097 10.46H109.675V14Z" fill="black"/>
<path d="M70.5283 45.7026C70.8424 45.7026 71.0996 45.8092 71.2998 46.0225C71.5016 46.2357 71.6025 46.5083 71.6025 46.8403C71.6025 47.1707 71.5041 47.4621 71.3071 47.7144C71.1102 47.9666 70.8042 48.0928 70.3892 48.0928C69.9432 48.0928 69.6144 47.9064 69.4028 47.5337C69.2384 47.2424 69.1562 46.8664 69.1562 46.4058C69.1562 46.1356 69.1676 45.9159 69.1904 45.7466C69.2311 45.4455 69.3101 45.1948 69.4272 44.9946C69.5282 44.8237 69.66 44.6862 69.8228 44.582C69.9871 44.4779 70.1833 44.4258 70.4111 44.4258C70.7399 44.4258 71.002 44.5104 71.1973 44.6797C71.3926 44.8473 71.5024 45.0711 71.5269 45.3511H70.8335C70.8335 45.2941 70.8115 45.2314 70.7676 45.1631C70.6927 45.0524 70.5796 44.9971 70.4282 44.9971C70.202 44.9971 70.0409 45.124 69.9448 45.3779C69.8927 45.5179 69.8569 45.7246 69.8374 45.998C69.9237 45.8955 70.0238 45.8206 70.1377 45.7734C70.2516 45.7262 70.3818 45.7026 70.5283 45.7026ZM70.0596 46.3667C69.9229 46.4725 69.8545 46.6434 69.8545 46.8794C69.8545 47.0698 69.9058 47.2253 70.0083 47.3457C70.1108 47.4661 70.241 47.5264 70.3989 47.5264C70.5535 47.5264 70.6748 47.4686 70.7627 47.353C70.8522 47.2358 70.897 47.0845 70.897 46.8989C70.897 46.6922 70.8465 46.5343 70.7456 46.4253C70.6447 46.3146 70.521 46.2593 70.3745 46.2593C70.2557 46.2593 70.1507 46.2951 70.0596 46.3667ZM73.082 48.1025C72.8167 48.1025 72.5783 48.0244 72.3667 47.8682C72.1551 47.7103 72.0339 47.4808 72.0029 47.1797H72.6963C72.7126 47.2839 72.7565 47.3685 72.8281 47.4336C72.8997 47.4987 72.995 47.5312 73.1138 47.5312C73.3433 47.5312 73.5044 47.4043 73.5972 47.1504C73.6476 47.0104 73.6794 46.8062 73.6924 46.5376C73.6289 46.6174 73.5614 46.6784 73.4897 46.7207C73.3595 46.7988 73.1992 46.8379 73.0088 46.8379C72.7272 46.8379 72.4774 46.741 72.2593 46.5474C72.0412 46.3521 71.9321 46.0713 71.9321 45.7051C71.9321 45.3258 72.0412 45.019 72.2593 44.7847C72.479 44.5487 72.7638 44.4307 73.1138 44.4307C73.6525 44.4307 74.022 44.6691 74.2222 45.146C74.3361 45.4162 74.3931 45.7718 74.3931 46.2129C74.3931 46.641 74.3385 46.9982 74.2295 47.2847C74.0212 47.8299 73.6387 48.1025 73.082 48.1025ZM72.8379 45.1118C72.7044 45.216 72.6377 45.3926 72.6377 45.6416C72.6377 45.8516 72.68 46.0094 72.7646 46.1152C72.8509 46.2194 72.9827 46.2715 73.1602 46.2715C73.2562 46.2715 73.3465 46.2438 73.4312 46.1885C73.589 46.0876 73.668 45.9126 73.668 45.6636C73.668 45.4634 73.6208 45.3047 73.5264 45.1875C73.4336 45.0703 73.3058 45.0117 73.1431 45.0117C73.0243 45.0117 72.9225 45.0451 72.8379 45.1118Z" fill="black"/>
<path d="M56.2021 45.5977C56.0166 45.8613 55.8612 46.1331 55.7358 46.4131C55.6366 46.6328 55.547 46.9014 55.4673 47.2188C55.3875 47.5361 55.3477 47.7965 55.3477 48H54.625C54.6462 47.3652 54.8545 46.7052 55.25 46.02C55.5055 45.5952 55.7196 45.299 55.8921 45.1313H54.127L54.1367 44.5063H56.6367V45.0508C56.5326 45.1533 56.3877 45.3356 56.2021 45.5977ZM58.1602 48.0879C57.7093 48.0879 57.3927 47.93 57.2104 47.6143C57.0298 47.2985 56.9395 46.8485 56.9395 46.2642C56.9395 45.6799 57.0298 45.229 57.2104 44.9116C57.3927 44.5942 57.7093 44.4355 58.1602 44.4355C58.611 44.4355 58.9276 44.5942 59.1099 44.9116C59.2905 45.229 59.3809 45.6799 59.3809 46.2642C59.3809 46.8485 59.2897 47.2985 59.1074 47.6143C58.9268 47.93 58.611 48.0879 58.1602 48.0879ZM58.5679 47.1968C58.6313 46.9819 58.6631 46.6711 58.6631 46.2642C58.6631 45.8377 58.6305 45.522 58.5654 45.3169C58.502 45.1118 58.3669 45.0093 58.1602 45.0093C57.9535 45.0093 57.8167 45.1118 57.75 45.3169C57.6833 45.522 57.6499 45.8377 57.6499 46.2642C57.6499 46.6711 57.6833 46.9827 57.75 47.1992C57.8167 47.4141 57.9535 47.5215 58.1602 47.5215C58.3669 47.5215 58.5028 47.4132 58.5679 47.1968Z" fill="black"/>
<path d="M14.333 12.2422C14.2484 12.2422 14.1751 12.2528 14.1133 12.2739C14.0042 12.313 13.922 12.3854 13.8667 12.4912L13.2417 12.4619L13.4907 10.5063H15.4414V11.0972H13.9937L13.8667 11.8711C13.9741 11.8011 14.0579 11.7547 14.1182 11.7319C14.2191 11.6945 14.342 11.6758 14.4868 11.6758C14.7798 11.6758 15.0353 11.7743 15.2534 11.9712C15.4715 12.1681 15.5806 12.4546 15.5806 12.8306C15.5806 13.1577 15.4756 13.4499 15.2656 13.707C15.0557 13.9642 14.7415 14.0928 14.3232 14.0928C13.9863 14.0928 13.7096 14.0024 13.4932 13.8218C13.2767 13.6411 13.1562 13.3848 13.1318 13.0527H13.8252C13.8529 13.2041 13.9058 13.3213 13.9839 13.4043C14.062 13.4857 14.1759 13.5264 14.3257 13.5264C14.4982 13.5264 14.6292 13.4661 14.7188 13.3457C14.8099 13.2236 14.8555 13.0706 14.8555 12.8867C14.8555 12.7061 14.8132 12.5539 14.7285 12.4302C14.6439 12.3049 14.512 12.2422 14.333 12.2422ZM16.2202 13.7778C16.0168 13.5695 15.915 13.3164 15.915 13.0186C15.915 12.82 15.9598 12.6401 16.0493 12.479C16.1405 12.3179 16.2731 12.1966 16.4473 12.1152C16.2764 12.0013 16.1649 11.8784 16.1128 11.7466C16.0623 11.6131 16.0371 11.4886 16.0371 11.373C16.0371 11.1159 16.134 10.897 16.3276 10.7163C16.5213 10.534 16.7948 10.4429 17.1479 10.4429C17.5011 10.4429 17.7746 10.534 17.9683 10.7163C18.1619 10.897 18.2588 11.1159 18.2588 11.373C18.2588 11.4886 18.2327 11.6131 18.1807 11.7466C18.1302 11.8784 18.0195 11.9932 17.8486 12.0908C18.0228 12.1885 18.1538 12.3179 18.2417 12.479C18.3296 12.6401 18.3735 12.82 18.3735 13.0186C18.3735 13.3164 18.2629 13.5703 18.0415 13.7803C17.8218 13.9886 17.5142 14.0928 17.1187 14.0928C16.7231 14.0928 16.4237 13.9878 16.2202 13.7778ZM16.6377 12.9722C16.6377 13.1463 16.6825 13.2814 16.772 13.3774C16.8631 13.4735 16.9884 13.5215 17.1479 13.5215C17.3075 13.5215 17.432 13.4735 17.5215 13.3774C17.6126 13.2814 17.6582 13.1463 17.6582 12.9722C17.6582 12.7915 17.6118 12.6548 17.519 12.562C17.4279 12.4676 17.3042 12.4204 17.1479 12.4204C16.9917 12.4204 16.8672 12.4676 16.7744 12.562C16.6833 12.6548 16.6377 12.7915 16.6377 12.9722ZM16.8208 11.7661C16.8989 11.8475 17.008 11.8882 17.1479 11.8882C17.2896 11.8882 17.3986 11.8475 17.4751 11.7661C17.5532 11.6847 17.5923 11.5798 17.5923 11.4512C17.5923 11.3112 17.5532 11.2021 17.4751 11.124C17.3986 11.0443 17.2896 11.0044 17.1479 11.0044C17.008 11.0044 16.8981 11.0443 16.8184 11.124C16.7402 11.2021 16.7012 11.3112 16.7012 11.4512C16.7012 11.5798 16.741 11.6847 16.8208 11.7661Z" fill="black"/>
<path d="M35.7148 10.4111H36.8159V14H36.125V10.9995H36.1152L35.4341 14H34.7041L34.0498 10.9995H34.04V14H33.3491V10.4111H34.4453L35.0752 13.2041H35.085L35.7148 10.4111Z" fill="black"/>
<path d="M29.333 46.2422C29.2484 46.2422 29.1751 46.2528 29.1133 46.2739C29.0042 46.313 28.922 46.3854 28.8667 46.4912L28.2417 46.4619L28.4907 44.5063H30.4414V45.0972H28.9937L28.8667 45.8711C28.9741 45.8011 29.0579 45.7547 29.1182 45.7319C29.2191 45.6945 29.342 45.6758 29.4868 45.6758C29.7798 45.6758 30.0353 45.7743 30.2534 45.9712C30.4715 46.1681 30.5806 46.4546 30.5806 46.8306C30.5806 47.1577 30.4756 47.4499 30.2656 47.707C30.0557 47.9642 29.7415 48.0928 29.3232 48.0928C28.9863 48.0928 28.7096 48.0024 28.4932 47.8218C28.2767 47.6411 28.1562 47.3848 28.1318 47.0527H28.8252C28.8529 47.2041 28.9058 47.3213 28.9839 47.4043C29.062 47.4857 29.1759 47.5264 29.3257 47.5264C29.4982 47.5264 29.6292 47.4661 29.7188 47.3457C29.8099 47.2236 29.8555 47.0706 29.8555 46.8867C29.8555 46.7061 29.8132 46.5539 29.7285 46.4302C29.6439 46.3049 29.512 46.2422 29.333 46.2422ZM32.3115 45.7026C32.6257 45.7026 32.8828 45.8092 33.083 46.0225C33.2848 46.2357 33.3857 46.5083 33.3857 46.8403C33.3857 47.1707 33.2873 47.4621 33.0903 47.7144C32.8934 47.9666 32.5874 48.0928 32.1724 48.0928C31.7264 48.0928 31.3976 47.9064 31.186 47.5337C31.0216 47.2424 30.9395 46.8664 30.9395 46.4058C30.9395 46.1356 30.9508 45.9159 30.9736 45.7466C31.0143 45.4455 31.0933 45.1948 31.2104 44.9946C31.3114 44.8237 31.4432 44.6862 31.606 44.582C31.7703 44.4779 31.9665 44.4258 32.1943 44.4258C32.5231 44.4258 32.7852 44.5104 32.9805 44.6797C33.1758 44.8473 33.2856 45.0711 33.3101 45.3511H32.6167C32.6167 45.2941 32.5947 45.2314 32.5508 45.1631C32.4759 45.0524 32.3628 44.9971 32.2114 44.9971C31.9852 44.9971 31.8241 45.124 31.728 45.3779C31.6759 45.5179 31.6401 45.7246 31.6206 45.998C31.7069 45.8955 31.807 45.8206 31.9209 45.7734C32.0348 45.7262 32.165 45.7026 32.3115 45.7026ZM31.8428 46.3667C31.7061 46.4725 31.6377 46.6434 31.6377 46.8794C31.6377 47.0698 31.689 47.2253 31.7915 47.3457C31.894 47.4661 32.0243 47.5264 32.1821 47.5264C32.3368 47.5264 32.458 47.4686 32.5459 47.353C32.6354 47.2358 32.6802 47.0845 32.6802 46.8989C32.6802 46.6922 32.6297 46.5343 32.5288 46.4253C32.4279 46.3146 32.3042 46.2593 32.1577 46.2593C32.0389 46.2593 31.9339 46.2951 31.8428 46.3667Z" fill="black"/>
<path d="M10.333 46.2422C10.2484 46.2422 10.1751 46.2528 10.1133 46.2739C10.0042 46.313 9.92204 46.3854 9.8667 46.4912L9.2417 46.4619L9.49072 44.5063H11.4414V45.0972H9.99365L9.8667 45.8711C9.97412 45.8011 10.0579 45.7547 10.1182 45.7319C10.2191 45.6945 10.342 45.6758 10.4868 45.6758C10.7798 45.6758 11.0353 45.7743 11.2534 45.9712C11.4715 46.1681 11.5806 46.4546 11.5806 46.8306C11.5806 47.1577 11.4756 47.4499 11.2656 47.707C11.0557 47.9642 10.7415 48.0928 10.3232 48.0928C9.98633 48.0928 9.70964 48.0024 9.49316 47.8218C9.27669 47.6411 9.15625 47.3848 9.13184 47.0527H9.8252C9.85286 47.2041 9.90576 47.3213 9.98389 47.4043C10.062 47.4857 10.1759 47.5264 10.3257 47.5264C10.4982 47.5264 10.6292 47.4661 10.7188 47.3457C10.8099 47.2236 10.8555 47.0706 10.8555 46.8867C10.8555 46.7061 10.8132 46.5539 10.7285 46.4302C10.6439 46.3049 10.512 46.2422 10.333 46.2422ZM13.1162 46.2422C13.0316 46.2422 12.9583 46.2528 12.8965 46.2739C12.7874 46.313 12.7052 46.3854 12.6499 46.4912L12.0249 46.4619L12.2739 44.5063H14.2246V45.0972H12.7769L12.6499 45.8711C12.7573 45.8011 12.8411 45.7547 12.9014 45.7319C13.0023 45.6945 13.1252 45.6758 13.27 45.6758C13.563 45.6758 13.8185 45.7743 14.0366 45.9712C14.2547 46.1681 14.3638 46.4546 14.3638 46.8306C14.3638 47.1577 14.2588 47.4499 14.0488 47.707C13.8389 47.9642 13.5247 48.0928 13.1064 48.0928C12.7695 48.0928 12.4928 48.0024 12.2764 47.8218C12.0599 47.6411 11.9395 47.3848 11.915 47.0527H12.6084C12.6361 47.2041 12.689 47.3213 12.7671 47.4043C12.8452 47.4857 12.9591 47.5264 13.1089 47.5264C13.2814 47.5264 13.4124 47.4661 13.502 47.3457C13.5931 47.2236 13.6387 47.0706 13.6387 46.8867C13.6387 46.7061 13.5964 46.5539 13.5117 46.4302C13.4271 46.3049 13.2952 46.2422 13.1162 46.2422Z" fill="black"/>
</svg>
