<svg width="155" height="58" viewBox="0 0 155 58" fill="none" xmlns="http://www.w3.org/2000/svg">
<path d="M1.70447 23.175H8.79669V23.91H1.70447M23.3103 23.175H24.2629V23.91H12.4725V23.175H22.5722M31.4549 23.175H32.8265V23.91H27.9387V23.175H30.7217M39.9087 23.91H36.4973V23.175H39.1755" stroke="black" stroke-width="0.5"/>
<path d="M31.4548 1.44501V23.175M30.7217 23.175V1.44501" stroke="black" stroke-width="0.5"/>
<path d="M39.9087 1.44501V23.91M39.1755 23.175V1.44501" stroke="black" stroke-width="0.5"/>
<path d="M48.3575 23.91V1.44501M49.0957 1.44501V23.175" stroke="black" stroke-width="0.5"/>
<path d="M71.8437 1.44501V23.175M71.1106 23.175V1.44501" stroke="black" stroke-width="0.5"/>
<path d="M94.2874 23.175V1.44501M95.0205 1.44501V23.91" stroke="black" stroke-width="0.5"/>
<path d="M49.0957 23.175H52.2278V23.91H48.3575M71.8437 23.175H79.5244V23.91H55.8987V23.175H71.1105M95.0206 23.91H83.2002V23.175H94.2874" stroke="black" stroke-width="0.5"/>
<path d="M0.602295 0.339996H153.783M152.681 1.445H113.395M112.656 1.445H104.208M103.474 1.445H95.0207M94.2875 1.445H71.8437M71.1106 1.445H49.0958M48.3576 1.445H39.9088M39.1756 1.445H31.455M30.7218 1.445H23.3104M22.5722 1.445H1.70454" stroke="black" stroke-width="0.5"/>
<path d="M103.474 23.91V1.44501M104.208 1.44501V23.175" stroke="black" stroke-width="0.5"/>
<path d="M113.395 1.44501V23.175M112.656 23.175V1.44501" stroke="black" stroke-width="0.5"/>
<path d="M104.208 23.175H105.978V23.91H103.474M113.395 23.175H124.606V23.91H109.654V23.175H112.656M138.901 23.91H128.282V23.175H152.681M152.681 23.91H139.634" stroke="black" stroke-width="0.5"/>
<path d="M22.5721 23.175V1.44501M23.3103 1.44501V23.175" stroke="black" stroke-width="0.5"/>
<path d="M35.6893 34.965H30.8414V34.225H39.1755M39.1755 34.965H36.4274M1.70447 34.225H5.89396V34.965H1.70447V34.225ZM9.56975 34.225H27.1657V34.965H9.56975V34.225Z" stroke="black" stroke-width="0.5"/>
<path d="M79.5244 34.595V56.695ZM79.5244 56.695H78.7913ZM78.7913 56.695V34.595ZM78.7913 34.595H79.5244Z" stroke="black" stroke-width="0.5"/>
<path d="M49.0957 34.965V56.695ZM49.0957 56.695H48.3575ZM48.3575 56.695V34.225ZM48.3575 34.225L49.0957 34.965Z" stroke="black" stroke-width="0.5"/>
<path d="M35.6893 56.145V34.965M36.4275 34.965V56.145" stroke="black" stroke-width="0.5"/>
<path d="M48.3575 34.225H94.6515ZM94.6515 34.225V34.965ZM94.6515 34.965H49.0957ZM49.0957 34.965L48.3575 34.225Z" stroke="black" stroke-width="0.5"/>
<path d="M23.455 56.145V35.145H24.1931V56.145" stroke="black" stroke-width="0.5"/>
<path d="M1.70454 56.145H23.455M24.1932 56.145H35.6894M36.4275 56.145H48.3576M49.0958 56.145H65.5645M66.2976 56.145H78.7913M79.5245 56.145H103.474M104.208 56.145H121.843M122.577 56.145H152.681M153.783 57.25H0.602295" stroke="black" stroke-width="0.5"/>
<path d="M121.843 56.145V34.965M122.577 34.965V56.145" stroke="black" stroke-width="0.5"/>
<path d="M104.208 34.965V56.695ZM104.208 56.695H103.474ZM103.474 56.695V34.225ZM103.474 34.225L104.208 34.965Z" stroke="black" stroke-width="0.5"/>
<path d="M103.474 34.225H108.881V34.965H104.208M121.843 34.965H112.557V34.225H128.906V34.965H122.577M139.634 34.225H152.681M152.681 34.965H132.581V34.225H138.901" stroke="black" stroke-width="0.5"/>
<path d="M0.602295 57.25V0.339996M1.70454 1.445V23.175M1.70454 23.91V56.145" stroke="black" stroke-width="0.5"/>
<path d="M152.681 34.225V23.91M152.681 23.175V1.445M153.783 0.339996V57.25M152.681 56.145V34.965" stroke="black" stroke-width="0.5"/>
<path d="M139.634 23.91V26.86H138.901V23.91M138.901 34.225V30.545H139.634V34.225" stroke="black" stroke-width="0.5"/>
<path d="M48.3575 34.965H42.8463V34.225H48.3575" stroke="black" stroke-width="0.5"/>
<path d="M94.2874 34.225H103.474M103.474 34.965H94.2874" stroke="black" stroke-width="0.5"/>
<path d="M66.2976 34.965V56.145ZM66.2976 56.145H65.5645ZM65.5645 56.145V34.965ZM65.5645 34.965H66.2976Z" stroke="black" stroke-width="0.5"/>
<path d="M48.3575 5.68002H39.9087M48.3575 6.78502H39.9087M48.3575 7.89001H39.9087M48.3575 8.99501H39.9087M48.3575 10.1H39.9087M48.3575 11.205H39.9087M48.3575 12.31H39.9087M48.3575 13.415H39.9087M48.3575 14.52H39.9087M48.3575 15.625H39.9087M48.3575 16.73H39.9087M48.3575 17.835H39.9087M48.3575 18.94H39.9087M44.1331 4.57501V20.045M44.1331 20.045L44.1381 20.035M44.1331 20.045L44.1281 20.035M48.3575 20.045H39.9087V4.57501H48.3575V20.045Z" stroke="black" stroke-width="0.5"/>
<path d="M103.474 5.68002H95.0206M103.474 6.78502H95.0206M103.474 7.89001H95.0206M103.474 8.99501H95.0206M103.474 10.1H95.0206M103.474 11.205H95.0206M103.474 12.31H95.0206M103.474 13.415H95.0206M103.474 14.52H95.0206M103.474 15.625H95.0206M103.474 16.73H95.0206M103.474 17.835H95.0206M103.474 18.94H95.0206M99.245 4.57501V20.045M99.245 20.045L99.25 20.035M99.245 20.045V20.035M103.474 20.045H95.0206V4.57501H103.474V20.045Z" stroke="black" stroke-width="0.5"/>
<path d="M137.065 27.355L138.901 30.545H139.634M138.901 26.86H139.634" stroke="black" stroke-width="0.5"/>
<path d="M33.3202 25.755L36.4972 23.91V23.175M32.8264 23.91V23.175" stroke="black" stroke-width="0.5"/>
<path d="M52.7166 25.755L55.8986 23.91V23.175M52.2278 23.91V23.175" stroke="black" stroke-width="0.5"/>
<path d="M80.0182 25.755L83.2002 23.91V23.175M79.5244 23.91V23.175" stroke="black" stroke-width="0.5"/>
<path d="M106.472 25.755L109.654 23.91V23.175M105.978 23.91V23.175" stroke="black" stroke-width="0.5"/>
<path d="M125.1 25.755L128.282 23.91V23.175M124.606 23.91V23.175" stroke="black" stroke-width="0.5"/>
<path d="M9.29051 25.755L12.4725 23.91V23.175M8.79675 23.91V23.175" stroke="black" stroke-width="0.5"/>
<path d="M73.34 32.385L70.158 34.225V34.965M73.8288 34.225V34.965" stroke="black" stroke-width="0.5"/>
<path d="M85.9384 32.385L82.7563 34.225V34.965M86.4321 34.225V34.965" stroke="black" stroke-width="0.5"/>
<path d="M132.088 32.385L128.906 34.225V34.965M132.581 34.225V34.965" stroke="black" stroke-width="0.5"/>
<path d="M112.063 32.385L108.881 34.225V34.965M112.557 34.225V34.965" stroke="black" stroke-width="0.5"/>
<path d="M30.3477 32.385L27.1656 34.225V34.965M30.8414 34.225V34.965" stroke="black" stroke-width="0.5"/>
<path d="M9.07607 32.385L5.89404 34.225V34.965M9.56983 34.225V34.965" stroke="black" stroke-width="0.5"/>
<path d="M42.3576 32.385L39.1755 34.225V34.965M42.8463 34.225V34.965" stroke="black" stroke-width="0.5"/>
<path d="M61.6193 32.385L58.4373 34.225V34.965M62.1081 34.225V34.965" stroke="black" stroke-width="0.5"/>
<path d="M24.7567 25.755L27.9387 23.91V23.175M24.2629 23.91V23.175" stroke="black" stroke-width="0.5"/>
<path d="M137.202 45.5977C137.017 45.8613 136.861 46.1331 136.736 46.4131C136.637 46.6328 136.547 46.9014 136.467 47.2188C136.388 47.5361 136.348 47.7965 136.348 48H135.625C135.646 47.3652 135.854 46.7052 136.25 46.02C136.506 45.5952 136.72 45.299 136.892 45.1313H135.127L135.137 44.5063H137.637V45.0508C137.533 45.1533 137.388 45.3356 137.202 45.5977ZM138.22 47.7778C138.017 47.5695 137.915 47.3164 137.915 47.0186C137.915 46.82 137.96 46.6401 138.049 46.479C138.14 46.3179 138.273 46.1966 138.447 46.1152C138.276 46.0013 138.165 45.8784 138.113 45.7466C138.062 45.6131 138.037 45.4886 138.037 45.373C138.037 45.1159 138.134 44.897 138.328 44.7163C138.521 44.534 138.795 44.4429 139.148 44.4429C139.501 44.4429 139.775 44.534 139.968 44.7163C140.162 44.897 140.259 45.1159 140.259 45.373C140.259 45.4886 140.233 45.6131 140.181 45.7466C140.13 45.8784 140.02 45.9932 139.849 46.0908C140.023 46.1885 140.154 46.3179 140.242 46.479C140.33 46.6401 140.374 46.82 140.374 47.0186C140.374 47.3164 140.263 47.5703 140.042 47.7803C139.822 47.9886 139.514 48.0928 139.119 48.0928C138.723 48.0928 138.424 47.9878 138.22 47.7778ZM138.638 46.9722C138.638 47.1463 138.682 47.2814 138.772 47.3774C138.863 47.4735 138.988 47.5215 139.148 47.5215C139.307 47.5215 139.432 47.4735 139.521 47.3774C139.613 47.2814 139.658 47.1463 139.658 46.9722C139.658 46.7915 139.612 46.6548 139.519 46.562C139.428 46.4676 139.304 46.4204 139.148 46.4204C138.992 46.4204 138.867 46.4676 138.774 46.562C138.683 46.6548 138.638 46.7915 138.638 46.9722ZM138.821 45.7661C138.899 45.8475 139.008 45.8882 139.148 45.8882C139.29 45.8882 139.399 45.8475 139.475 45.7661C139.553 45.6847 139.592 45.5798 139.592 45.4512C139.592 45.3112 139.553 45.2021 139.475 45.124C139.399 45.0443 139.29 45.0044 139.148 45.0044C139.008 45.0044 138.898 45.0443 138.818 45.124C138.74 45.2021 138.701 45.3112 138.701 45.4512C138.701 45.5798 138.741 45.6847 138.821 45.7661Z" fill="black"/>
<path d="M88.437 47.7778C88.2336 47.5695 88.1318 47.3164 88.1318 47.0186C88.1318 46.82 88.1766 46.6401 88.2661 46.479C88.3573 46.3179 88.4899 46.1966 88.6641 46.1152C88.4932 46.0013 88.3817 45.8784 88.3296 45.7466C88.2791 45.6131 88.2539 45.4886 88.2539 45.373C88.2539 45.1159 88.3507 44.897 88.5444 44.7163C88.7381 44.534 89.0116 44.4429 89.3647 44.4429C89.7179 44.4429 89.9914 44.534 90.1851 44.7163C90.3787 44.897 90.4756 45.1159 90.4756 45.373C90.4756 45.4886 90.4495 45.6131 90.3975 45.7466C90.347 45.8784 90.2363 45.9932 90.0654 46.0908C90.2396 46.1885 90.3706 46.3179 90.4585 46.479C90.5464 46.6401 90.5903 46.82 90.5903 47.0186C90.5903 47.3164 90.4797 47.5703 90.2583 47.7803C90.0386 47.9886 89.731 48.0928 89.3354 48.0928C88.9399 48.0928 88.6405 47.9878 88.437 47.7778ZM88.8545 46.9722C88.8545 47.1463 88.8993 47.2814 88.9888 47.3774C89.0799 47.4735 89.2052 47.5215 89.3647 47.5215C89.5243 47.5215 89.6488 47.4735 89.7383 47.3774C89.8294 47.2814 89.875 47.1463 89.875 46.9722C89.875 46.7915 89.8286 46.6548 89.7358 46.562C89.6447 46.4676 89.521 46.4204 89.3647 46.4204C89.2085 46.4204 89.084 46.4676 88.9912 46.562C88.9001 46.6548 88.8545 46.7915 88.8545 46.9722ZM89.0376 45.7661C89.1157 45.8475 89.2248 45.8882 89.3647 45.8882C89.5063 45.8882 89.6154 45.8475 89.6919 45.7661C89.77 45.6847 89.8091 45.5798 89.8091 45.4512C89.8091 45.3112 89.77 45.2021 89.6919 45.124C89.6154 45.0443 89.5063 45.0044 89.3647 45.0044C89.2248 45.0044 89.1149 45.0443 89.0352 45.124C88.957 45.2021 88.918 45.3112 88.918 45.4512C88.918 45.5798 88.9578 45.6847 89.0376 45.7661ZM92.1602 48.0879C91.7093 48.0879 91.3927 47.93 91.2104 47.6143C91.0298 47.2985 90.9395 46.8485 90.9395 46.2642C90.9395 45.6799 91.0298 45.229 91.2104 44.9116C91.3927 44.5942 91.7093 44.4355 92.1602 44.4355C92.611 44.4355 92.9276 44.5942 93.1099 44.9116C93.2905 45.229 93.3809 45.6799 93.3809 46.2642C93.3809 46.8485 93.2897 47.2985 93.1074 47.6143C92.9268 47.93 92.611 48.0879 92.1602 48.0879ZM92.5679 47.1968C92.6313 46.9819 92.6631 46.6711 92.6631 46.2642C92.6631 45.8377 92.6305 45.522 92.5654 45.3169C92.502 45.1118 92.3669 45.0093 92.1602 45.0093C91.9535 45.0093 91.8167 45.1118 91.75 45.3169C91.6833 45.522 91.6499 45.8377 91.6499 46.2642C91.6499 46.6711 91.6833 46.9827 91.75 47.1992C91.8167 47.4141 91.9535 47.5215 92.1602 47.5215C92.3669 47.5215 92.5028 47.4132 92.5679 47.1968Z" fill="black"/>
<path d="M112.202 45.5977C112.017 45.8613 111.861 46.1331 111.736 46.4131C111.637 46.6328 111.547 46.9014 111.467 47.2188C111.388 47.5361 111.348 47.7965 111.348 48H110.625C110.646 47.3652 110.854 46.7052 111.25 46.02C111.506 45.5952 111.72 45.299 111.892 45.1313H110.127L110.137 44.5063H112.637V45.0508C112.533 45.1533 112.388 45.3356 112.202 45.5977ZM114.082 48.1025C113.817 48.1025 113.578 48.0244 113.367 47.8682C113.155 47.7103 113.034 47.4808 113.003 47.1797H113.696C113.713 47.2839 113.757 47.3685 113.828 47.4336C113.9 47.4987 113.995 47.5312 114.114 47.5312C114.343 47.5312 114.504 47.4043 114.597 47.1504C114.648 47.0104 114.679 46.8062 114.692 46.5376C114.629 46.6174 114.561 46.6784 114.49 46.7207C114.36 46.7988 114.199 46.8379 114.009 46.8379C113.727 46.8379 113.477 46.741 113.259 46.5474C113.041 46.3521 112.932 46.0713 112.932 45.7051C112.932 45.3258 113.041 45.019 113.259 44.7847C113.479 44.5487 113.764 44.4307 114.114 44.4307C114.653 44.4307 115.022 44.6691 115.222 45.146C115.336 45.4162 115.393 45.7718 115.393 46.2129C115.393 46.641 115.339 46.9982 115.229 47.2847C115.021 47.8299 114.639 48.1025 114.082 48.1025ZM113.838 45.1118C113.704 45.216 113.638 45.3926 113.638 45.6416C113.638 45.8516 113.68 46.0094 113.765 46.1152C113.851 46.2194 113.983 46.2715 114.16 46.2715C114.256 46.2715 114.347 46.2438 114.431 46.1885C114.589 46.0876 114.668 45.9126 114.668 45.6636C114.668 45.4634 114.621 45.3047 114.526 45.1875C114.434 45.0703 114.306 45.0117 114.143 45.0117C114.024 45.0117 113.923 45.0451 113.838 45.1118Z" fill="black"/>
<path d="M70.437 47.7778C70.2336 47.5695 70.1318 47.3164 70.1318 47.0186C70.1318 46.82 70.1766 46.6401 70.2661 46.479C70.3573 46.3179 70.4899 46.1966 70.6641 46.1152C70.4932 46.0013 70.3817 45.8784 70.3296 45.7466C70.2791 45.6131 70.2539 45.4886 70.2539 45.373C70.2539 45.1159 70.3507 44.897 70.5444 44.7163C70.7381 44.534 71.0116 44.4429 71.3647 44.4429C71.7179 44.4429 71.9914 44.534 72.1851 44.7163C72.3787 44.897 72.4756 45.1159 72.4756 45.373C72.4756 45.4886 72.4495 45.6131 72.3975 45.7466C72.347 45.8784 72.2363 45.9932 72.0654 46.0908C72.2396 46.1885 72.3706 46.3179 72.4585 46.479C72.5464 46.6401 72.5903 46.82 72.5903 47.0186C72.5903 47.3164 72.4797 47.5703 72.2583 47.7803C72.0386 47.9886 71.731 48.0928 71.3354 48.0928C70.9399 48.0928 70.6405 47.9878 70.437 47.7778ZM70.8545 46.9722C70.8545 47.1463 70.8993 47.2814 70.9888 47.3774C71.0799 47.4735 71.2052 47.5215 71.3647 47.5215C71.5243 47.5215 71.6488 47.4735 71.7383 47.3774C71.8294 47.2814 71.875 47.1463 71.875 46.9722C71.875 46.7915 71.8286 46.6548 71.7358 46.562C71.6447 46.4676 71.521 46.4204 71.3647 46.4204C71.2085 46.4204 71.084 46.4676 70.9912 46.562C70.9001 46.6548 70.8545 46.7915 70.8545 46.9722ZM71.0376 45.7661C71.1157 45.8475 71.2248 45.8882 71.3647 45.8882C71.5063 45.8882 71.6154 45.8475 71.6919 45.7661C71.77 45.6847 71.8091 45.5798 71.8091 45.4512C71.8091 45.3112 71.77 45.2021 71.6919 45.124C71.6154 45.0443 71.5063 45.0044 71.3647 45.0044C71.2248 45.0044 71.1149 45.0443 71.0352 45.124C70.957 45.2021 70.918 45.3112 70.918 45.4512C70.918 45.5798 70.9578 45.6847 71.0376 45.7661ZM74.6753 48H73.9624V45.5586H73.1299V45.085C73.3496 45.0752 73.5034 45.0605 73.5913 45.041C73.7313 45.0101 73.8452 44.9482 73.9331 44.8555C73.9933 44.792 74.0389 44.7074 74.0698 44.6016C74.0877 44.5381 74.0967 44.4909 74.0967 44.46H74.6753V48Z" fill="black"/>
<path d="M54.437 47.7778C54.2336 47.5695 54.1318 47.3164 54.1318 47.0186C54.1318 46.82 54.1766 46.6401 54.2661 46.479C54.3573 46.3179 54.4899 46.1966 54.6641 46.1152C54.4932 46.0013 54.3817 45.8784 54.3296 45.7466C54.2791 45.6131 54.2539 45.4886 54.2539 45.373C54.2539 45.1159 54.3507 44.897 54.5444 44.7163C54.7381 44.534 55.0116 44.4429 55.3647 44.4429C55.7179 44.4429 55.9914 44.534 56.1851 44.7163C56.3787 44.897 56.4756 45.1159 56.4756 45.373C56.4756 45.4886 56.4495 45.6131 56.3975 45.7466C56.347 45.8784 56.2363 45.9932 56.0654 46.0908C56.2396 46.1885 56.3706 46.3179 56.4585 46.479C56.5464 46.6401 56.5903 46.82 56.5903 47.0186C56.5903 47.3164 56.4797 47.5703 56.2583 47.7803C56.0386 47.9886 55.731 48.0928 55.3354 48.0928C54.9399 48.0928 54.6405 47.9878 54.437 47.7778ZM54.8545 46.9722C54.8545 47.1463 54.8993 47.2814 54.9888 47.3774C55.0799 47.4735 55.2052 47.5215 55.3647 47.5215C55.5243 47.5215 55.6488 47.4735 55.7383 47.3774C55.8294 47.2814 55.875 47.1463 55.875 46.9722C55.875 46.7915 55.8286 46.6548 55.7358 46.562C55.6447 46.4676 55.521 46.4204 55.3647 46.4204C55.2085 46.4204 55.084 46.4676 54.9912 46.562C54.9001 46.6548 54.8545 46.7915 54.8545 46.9722ZM55.0376 45.7661C55.1157 45.8475 55.2248 45.8882 55.3647 45.8882C55.5063 45.8882 55.6154 45.8475 55.6919 45.7661C55.77 45.6847 55.8091 45.5798 55.8091 45.4512C55.8091 45.3112 55.77 45.2021 55.6919 45.124C55.6154 45.0443 55.5063 45.0044 55.3647 45.0044C55.2248 45.0044 55.1149 45.0443 55.0352 45.124C54.957 45.2021 54.918 45.3112 54.918 45.4512C54.918 45.5798 54.9578 45.6847 55.0376 45.7661ZM58.5215 45.1802C58.4385 45.0809 58.3197 45.0312 58.165 45.0312C57.9535 45.0312 57.8094 45.1102 57.7329 45.2681C57.689 45.3592 57.6629 45.5041 57.6548 45.7026H56.9785C56.9899 45.4015 57.0444 45.1582 57.1421 44.9727C57.3276 44.6195 57.6572 44.4429 58.1309 44.4429C58.5052 44.4429 58.8031 44.547 59.0244 44.7554C59.2458 44.9621 59.3564 45.2363 59.3564 45.5781C59.3564 45.8402 59.2783 46.0729 59.1221 46.2764C59.0195 46.4115 58.8511 46.562 58.6167 46.728L58.3384 46.9258C58.1642 47.0495 58.0446 47.139 57.9795 47.1943C57.916 47.2497 57.8623 47.314 57.8184 47.3872H59.3638V48H56.9395C56.946 47.7461 57.0005 47.5142 57.103 47.3042C57.2023 47.0682 57.4367 46.8184 57.8062 46.5547C58.1268 46.3252 58.3343 46.1608 58.4287 46.0615C58.5736 45.9069 58.646 45.7376 58.646 45.5537C58.646 45.404 58.6045 45.2795 58.5215 45.1802Z" fill="black"/>
<path d="M39.6538 47.7778C39.4504 47.5695 39.3486 47.3164 39.3486 47.0186C39.3486 46.82 39.3934 46.6401 39.4829 46.479C39.5741 46.3179 39.7067 46.1966 39.8809 46.1152C39.71 46.0013 39.5985 45.8784 39.5464 45.7466C39.4959 45.6131 39.4707 45.4886 39.4707 45.373C39.4707 45.1159 39.5675 44.897 39.7612 44.7163C39.9549 44.534 40.2284 44.4429 40.5815 44.4429C40.9347 44.4429 41.2082 44.534 41.4019 44.7163C41.5955 44.897 41.6924 45.1159 41.6924 45.373C41.6924 45.4886 41.6663 45.6131 41.6143 45.7466C41.5638 45.8784 41.4531 45.9932 41.2822 46.0908C41.4564 46.1885 41.5874 46.3179 41.6753 46.479C41.7632 46.6401 41.8071 46.82 41.8071 47.0186C41.8071 47.3164 41.6965 47.5703 41.4751 47.7803C41.2554 47.9886 40.9478 48.0928 40.5522 48.0928C40.1567 48.0928 39.8573 47.9878 39.6538 47.7778ZM40.0713 46.9722C40.0713 47.1463 40.116 47.2814 40.2056 47.3774C40.2967 47.4735 40.422 47.5215 40.5815 47.5215C40.741 47.5215 40.8656 47.4735 40.9551 47.3774C41.0462 47.2814 41.0918 47.1463 41.0918 46.9722C41.0918 46.7915 41.0454 46.6548 40.9526 46.562C40.8615 46.4676 40.7378 46.4204 40.5815 46.4204C40.4253 46.4204 40.3008 46.4676 40.208 46.562C40.1169 46.6548 40.0713 46.7915 40.0713 46.9722ZM40.2544 45.7661C40.3325 45.8475 40.4416 45.8882 40.5815 45.8882C40.7231 45.8882 40.8322 45.8475 40.9087 45.7661C40.9868 45.6847 41.0259 45.5798 41.0259 45.4512C41.0259 45.3112 40.9868 45.2021 40.9087 45.124C40.8322 45.0443 40.7231 45.0044 40.5815 45.0044C40.4416 45.0044 40.3317 45.0443 40.252 45.124C40.1738 45.2021 40.1348 45.3112 40.1348 45.4512C40.1348 45.5798 40.1746 45.6847 40.2544 45.7661ZM42.957 45.1655C42.8789 45.2697 42.8415 45.4089 42.8447 45.583H42.1953C42.2018 45.4072 42.2319 45.2404 42.2856 45.0825C42.3426 44.9442 42.4321 44.8164 42.5542 44.6992C42.6453 44.6162 42.7536 44.5527 42.8789 44.5088C43.0042 44.4648 43.158 44.4429 43.3403 44.4429C43.6789 44.4429 43.9515 44.5308 44.1582 44.7065C44.3665 44.8807 44.4707 45.1151 44.4707 45.4097C44.4707 45.618 44.4089 45.7938 44.2852 45.937C44.207 46.0265 44.1257 46.0876 44.041 46.1201C44.1045 46.1201 44.1956 46.1746 44.3145 46.2837C44.4919 46.4481 44.5806 46.6727 44.5806 46.9575C44.5806 47.257 44.4764 47.5207 44.2681 47.7485C44.0614 47.9748 43.7546 48.0879 43.3477 48.0879C42.8464 48.0879 42.498 47.9243 42.3027 47.5972C42.2002 47.423 42.1432 47.1951 42.1318 46.9136H42.8154C42.8154 47.0552 42.8382 47.1724 42.8838 47.2651C42.9684 47.436 43.1222 47.5215 43.3452 47.5215C43.4819 47.5215 43.6007 47.4751 43.7017 47.3823C43.8042 47.2879 43.8555 47.1528 43.8555 46.9771C43.8555 46.7443 43.7611 46.5889 43.5723 46.5107C43.4648 46.4668 43.2956 46.4448 43.0645 46.4448V45.9468C43.2907 45.9435 43.4486 45.9215 43.5381 45.8809C43.6927 45.8125 43.77 45.6742 43.77 45.4658C43.77 45.3307 43.7301 45.2209 43.6504 45.1362C43.5723 45.0516 43.4616 45.0093 43.3184 45.0093C43.154 45.0093 43.0335 45.0614 42.957 45.1655Z" fill="black"/>
<path d="M27.437 47.7778C27.2336 47.5695 27.1318 47.3164 27.1318 47.0186C27.1318 46.82 27.1766 46.6401 27.2661 46.479C27.3573 46.3179 27.4899 46.1966 27.6641 46.1152C27.4932 46.0013 27.3817 45.8784 27.3296 45.7466C27.2791 45.6131 27.2539 45.4886 27.2539 45.373C27.2539 45.1159 27.3507 44.897 27.5444 44.7163C27.7381 44.534 28.0116 44.4429 28.3647 44.4429C28.7179 44.4429 28.9914 44.534 29.1851 44.7163C29.3787 44.897 29.4756 45.1159 29.4756 45.373C29.4756 45.4886 29.4495 45.6131 29.3975 45.7466C29.347 45.8784 29.2363 45.9932 29.0654 46.0908C29.2396 46.1885 29.3706 46.3179 29.4585 46.479C29.5464 46.6401 29.5903 46.82 29.5903 47.0186C29.5903 47.3164 29.4797 47.5703 29.2583 47.7803C29.0386 47.9886 28.731 48.0928 28.3354 48.0928C27.9399 48.0928 27.6405 47.9878 27.437 47.7778ZM27.8545 46.9722C27.8545 47.1463 27.8993 47.2814 27.9888 47.3774C28.0799 47.4735 28.2052 47.5215 28.3647 47.5215C28.5243 47.5215 28.6488 47.4735 28.7383 47.3774C28.8294 47.2814 28.875 47.1463 28.875 46.9722C28.875 46.7915 28.8286 46.6548 28.7358 46.562C28.6447 46.4676 28.521 46.4204 28.3647 46.4204C28.2085 46.4204 28.084 46.4676 27.9912 46.562C27.9001 46.6548 27.8545 46.7915 27.8545 46.9722ZM28.0376 45.7661C28.1157 45.8475 28.2248 45.8882 28.3647 45.8882C28.5063 45.8882 28.6154 45.8475 28.6919 45.7661C28.77 45.6847 28.8091 45.5798 28.8091 45.4512C28.8091 45.3112 28.77 45.2021 28.6919 45.124C28.6154 45.0443 28.5063 45.0044 28.3647 45.0044C28.2248 45.0044 28.1149 45.0443 28.0352 45.124C27.957 45.2021 27.918 45.3112 27.918 45.4512C27.918 45.5798 27.9578 45.6847 28.0376 45.7661ZM32.3979 46.6938V47.2383H31.9976V48H31.3164V47.2383H29.915V46.6304L31.2163 44.4819H31.9976V46.6938H32.3979ZM30.4302 46.6938H31.3164V45.1655L30.4302 46.6938Z" fill="black"/>
<path d="M10.437 47.7778C10.2336 47.5695 10.1318 47.3164 10.1318 47.0186C10.1318 46.82 10.1766 46.6401 10.2661 46.479C10.3573 46.3179 10.4899 46.1966 10.6641 46.1152C10.4932 46.0013 10.3817 45.8784 10.3296 45.7466C10.2791 45.6131 10.2539 45.4886 10.2539 45.373C10.2539 45.1159 10.3507 44.897 10.5444 44.7163C10.7381 44.534 11.0116 44.4429 11.3647 44.4429C11.7179 44.4429 11.9914 44.534 12.1851 44.7163C12.3787 44.897 12.4756 45.1159 12.4756 45.373C12.4756 45.4886 12.4495 45.6131 12.3975 45.7466C12.347 45.8784 12.2363 45.9932 12.0654 46.0908C12.2396 46.1885 12.3706 46.3179 12.4585 46.479C12.5464 46.6401 12.5903 46.82 12.5903 47.0186C12.5903 47.3164 12.4797 47.5703 12.2583 47.7803C12.0386 47.9886 11.731 48.0928 11.3354 48.0928C10.9399 48.0928 10.6405 47.9878 10.437 47.7778ZM10.8545 46.9722C10.8545 47.1463 10.8993 47.2814 10.9888 47.3774C11.0799 47.4735 11.2052 47.5215 11.3647 47.5215C11.5243 47.5215 11.6488 47.4735 11.7383 47.3774C11.8294 47.2814 11.875 47.1463 11.875 46.9722C11.875 46.7915 11.8286 46.6548 11.7358 46.562C11.6447 46.4676 11.521 46.4204 11.3647 46.4204C11.2085 46.4204 11.084 46.4676 10.9912 46.562C10.9001 46.6548 10.8545 46.7915 10.8545 46.9722ZM11.0376 45.7661C11.1157 45.8475 11.2248 45.8882 11.3647 45.8882C11.5063 45.8882 11.6154 45.8475 11.6919 45.7661C11.77 45.6847 11.8091 45.5798 11.8091 45.4512C11.8091 45.3112 11.77 45.2021 11.6919 45.124C11.6154 45.0443 11.5063 45.0044 11.3647 45.0044C11.2248 45.0044 11.1149 45.0443 11.0352 45.124C10.957 45.2021 10.918 45.3112 10.918 45.4512C10.918 45.5798 10.9578 45.6847 11.0376 45.7661ZM14.1162 46.2422C14.0316 46.2422 13.9583 46.2528 13.8965 46.2739C13.7874 46.313 13.7052 46.3854 13.6499 46.4912L13.0249 46.4619L13.2739 44.5063H15.2246V45.0972H13.7769L13.6499 45.8711C13.7573 45.8011 13.8411 45.7547 13.9014 45.7319C14.0023 45.6945 14.1252 45.6758 14.27 45.6758C14.563 45.6758 14.8185 45.7743 15.0366 45.9712C15.2547 46.1681 15.3638 46.4546 15.3638 46.8306C15.3638 47.1577 15.2588 47.4499 15.0488 47.707C14.8389 47.9642 14.5247 48.0928 14.1064 48.0928C13.7695 48.0928 13.4928 48.0024 13.2764 47.8218C13.0599 47.6411 12.9395 47.3848 12.915 47.0527H13.6084C13.6361 47.2041 13.689 47.3213 13.7671 47.4043C13.8452 47.4857 13.9591 47.5264 14.1089 47.5264C14.2814 47.5264 14.4124 47.4661 14.502 47.3457C14.5931 47.2236 14.6387 47.0706 14.6387 46.8867C14.6387 46.7061 14.5964 46.5539 14.5117 46.4302C14.4271 46.3049 14.2952 46.2422 14.1162 46.2422Z" fill="black"/>
<path d="M11.2021 11.5977C11.0166 11.8613 10.8612 12.1331 10.7358 12.4131C10.6366 12.6328 10.547 12.9014 10.4673 13.2188C10.3875 13.5361 10.3477 13.7965 10.3477 14H9.625C9.64616 13.3652 9.85449 12.7052 10.25 12.02C10.5055 11.5952 10.7196 11.299 10.8921 11.1313H9.12695L9.13672 10.5063H11.6367V11.0508C11.5326 11.1533 11.3877 11.3356 11.2021 11.5977ZM13.5215 11.1802C13.4385 11.0809 13.3197 11.0312 13.165 11.0312C12.9535 11.0312 12.8094 11.1102 12.7329 11.2681C12.689 11.3592 12.6629 11.5041 12.6548 11.7026H11.9785C11.9899 11.4015 12.0444 11.1582 12.1421 10.9727C12.3276 10.6195 12.6572 10.4429 13.1309 10.4429C13.5052 10.4429 13.8031 10.547 14.0244 10.7554C14.2458 10.9621 14.3564 11.2363 14.3564 11.5781C14.3564 11.8402 14.2783 12.0729 14.1221 12.2764C14.0195 12.4115 13.8511 12.562 13.6167 12.728L13.3384 12.9258C13.1642 13.0495 13.0446 13.139 12.9795 13.1943C12.916 13.2497 12.8623 13.314 12.8184 13.3872H14.3638V14H11.9395C11.946 13.7461 12.0005 13.5142 12.103 13.3042C12.2023 13.0682 12.4367 12.8184 12.8062 12.5547C13.1268 12.3252 13.3343 12.1608 13.4287 12.0615C13.5736 11.9069 13.646 11.7376 13.646 11.5537C13.646 11.404 13.6045 11.2795 13.5215 11.1802Z" fill="black"/>
<path d="M37.0845 10.4111H37.939L36.645 12.0493L37.939 14H37.0454L36.0151 12.4497H35.8711V14H35.146V12.4497H34.9946L33.9546 14H33.061L34.3745 12.0493L33.0903 10.4111H33.9253L34.9946 11.8491H35.146V10.4111H35.8711V11.8491H36.0151L37.0845 10.4111Z" fill="black"/>
<path d="M132.202 11.5977C132.017 11.8613 131.861 12.1331 131.736 12.4131C131.637 12.6328 131.547 12.9014 131.467 13.2188C131.388 13.5361 131.348 13.7965 131.348 14H130.625C130.646 13.3652 130.854 12.7052 131.25 12.02C131.506 11.5952 131.72 11.299 131.892 11.1313H130.127L130.137 10.5063H132.637V11.0508C132.533 11.1533 132.388 11.3356 132.202 11.5977ZM134.312 11.7026C134.626 11.7026 134.883 11.8092 135.083 12.0225C135.285 12.2357 135.386 12.5083 135.386 12.8403C135.386 13.1707 135.287 13.4621 135.09 13.7144C134.893 13.9666 134.587 14.0928 134.172 14.0928C133.726 14.0928 133.398 13.9064 133.186 13.5337C133.022 13.2424 132.939 12.8664 132.939 12.4058C132.939 12.1356 132.951 11.9159 132.974 11.7466C133.014 11.4455 133.093 11.1948 133.21 10.9946C133.311 10.8237 133.443 10.6862 133.606 10.582C133.77 10.4779 133.966 10.4258 134.194 10.4258C134.523 10.4258 134.785 10.5104 134.98 10.6797C135.176 10.8473 135.286 11.0711 135.31 11.3511H134.617C134.617 11.2941 134.595 11.2314 134.551 11.1631C134.476 11.0524 134.363 10.9971 134.211 10.9971C133.985 10.9971 133.824 11.124 133.728 11.3779C133.676 11.5179 133.64 11.7246 133.621 11.998C133.707 11.8955 133.807 11.8206 133.921 11.7734C134.035 11.7262 134.165 11.7026 134.312 11.7026ZM133.843 12.3667C133.706 12.4725 133.638 12.6434 133.638 12.8794C133.638 13.0698 133.689 13.2253 133.792 13.3457C133.894 13.4661 134.024 13.5264 134.182 13.5264C134.337 13.5264 134.458 13.4686 134.546 13.353C134.635 13.2358 134.68 13.0845 134.68 12.8989C134.68 12.6922 134.63 12.5343 134.529 12.4253C134.428 12.3146 134.304 12.2593 134.158 12.2593C134.039 12.2593 133.934 12.2951 133.843 12.3667Z" fill="black"/>
<path d="M82.4189 11.5977C82.2334 11.8613 82.078 12.1331 81.9526 12.4131C81.8534 12.6328 81.7638 12.9014 81.6841 13.2188C81.6043 13.5361 81.5645 13.7965 81.5645 14H80.8418C80.863 13.3652 81.0713 12.7052 81.4668 12.02C81.7223 11.5952 81.9364 11.299 82.1089 11.1313H80.3438L80.3535 10.5063H82.8535V11.0508C82.7493 11.1533 82.6045 11.3356 82.4189 11.5977ZM85.6147 12.6938V13.2383H85.2144V14H84.5332V13.2383H83.1318V12.6304L84.4331 10.4819H85.2144V12.6938H85.6147ZM83.647 12.6938H84.5332V11.1655L83.647 12.6938Z" fill="black"/>
<path d="M59.4189 11.5977C59.2334 11.8613 59.078 12.1331 58.9526 12.4131C58.8534 12.6328 58.7638 12.9014 58.6841 13.2188C58.6043 13.5361 58.5645 13.7965 58.5645 14H57.8418C57.863 13.3652 58.0713 12.7052 58.4668 12.02C58.7223 11.5952 58.9364 11.299 59.1089 11.1313H57.3438L57.3535 10.5063H59.8535V11.0508C59.7493 11.1533 59.6045 11.3356 59.4189 11.5977ZM60.957 11.1655C60.8789 11.2697 60.8415 11.4089 60.8447 11.583H60.1953C60.2018 11.4072 60.2319 11.2404 60.2856 11.0825C60.3426 10.9442 60.4321 10.8164 60.5542 10.6992C60.6453 10.6162 60.7536 10.5527 60.8789 10.5088C61.0042 10.4648 61.158 10.4429 61.3403 10.4429C61.6789 10.4429 61.9515 10.5308 62.1582 10.7065C62.3665 10.8807 62.4707 11.1151 62.4707 11.4097C62.4707 11.618 62.4089 11.7938 62.2852 11.937C62.207 12.0265 62.1257 12.0876 62.041 12.1201C62.1045 12.1201 62.1956 12.1746 62.3145 12.2837C62.4919 12.4481 62.5806 12.6727 62.5806 12.9575C62.5806 13.257 62.4764 13.5207 62.2681 13.7485C62.0614 13.9748 61.7546 14.0879 61.3477 14.0879C60.8464 14.0879 60.498 13.9243 60.3027 13.5972C60.2002 13.423 60.1432 13.1951 60.1318 12.9136H60.8154C60.8154 13.0552 60.8382 13.1724 60.8838 13.2651C60.9684 13.436 61.1222 13.5215 61.3452 13.5215C61.4819 13.5215 61.6007 13.4751 61.7017 13.3823C61.8042 13.2879 61.8555 13.1528 61.8555 12.9771C61.8555 12.7443 61.7611 12.5889 61.5723 12.5107C61.4648 12.4668 61.2956 12.4448 61.0645 12.4448V11.9468C61.2907 11.9435 61.4486 11.9215 61.5381 11.8809C61.6927 11.8125 61.77 11.6742 61.77 11.4658C61.77 11.3307 61.7301 11.2209 61.6504 11.1362C61.5723 11.0516 61.4616 11.0093 61.3184 11.0093C61.154 11.0093 61.0335 11.0614 60.957 11.1655Z" fill="black"/>
<path d="M107.636 11.5977C107.45 11.8613 107.295 12.1331 107.169 12.4131C107.07 12.6328 106.981 12.9014 106.901 13.2188C106.821 13.5361 106.781 13.7965 106.781 14H106.059C106.08 13.3652 106.288 12.7052 106.684 12.02C106.939 11.5952 107.153 11.299 107.326 11.1313H105.561L105.57 10.5063H108.07V11.0508C107.966 11.1533 107.821 11.3356 107.636 11.5977ZM109.55 12.2422C109.465 12.2422 109.392 12.2528 109.33 12.2739C109.221 12.313 109.139 12.3854 109.083 12.4912L108.458 12.4619L108.708 10.5063H110.658V11.0972H109.21L109.083 11.8711C109.191 11.8011 109.275 11.7547 109.335 11.7319C109.436 11.6945 109.559 11.6758 109.704 11.6758C109.997 11.6758 110.252 11.7743 110.47 11.9712C110.688 12.1681 110.797 12.4546 110.797 12.8306C110.797 13.1577 110.692 13.4499 110.482 13.707C110.272 13.9642 109.958 14.0928 109.54 14.0928C109.203 14.0928 108.926 14.0024 108.71 13.8218C108.493 13.6411 108.373 13.3848 108.349 13.0527H109.042C109.07 13.2041 109.123 13.3213 109.201 13.4043C109.279 13.4857 109.393 13.5264 109.542 13.5264C109.715 13.5264 109.846 13.4661 109.936 13.3457C110.027 13.2236 110.072 13.0706 110.072 12.8867C110.072 12.7061 110.03 12.5539 109.945 12.4302C109.861 12.3049 109.729 12.2422 109.55 12.2422Z" fill="black"/>
<path d="M145.202 28.5977C145.017 28.8613 144.861 29.1331 144.736 29.4131C144.637 29.6328 144.547 29.9014 144.467 30.2188C144.388 30.5361 144.348 30.7965 144.348 31H143.625C143.646 30.3652 143.854 29.7052 144.25 29.02C144.506 28.5952 144.72 28.299 144.892 28.1313H143.127L143.137 27.5063H145.637V28.0508C145.533 28.1533 145.388 28.3356 145.202 28.5977ZM147.985 28.5977C147.8 28.8613 147.644 29.1331 147.519 29.4131C147.42 29.6328 147.33 29.9014 147.25 30.2188C147.171 30.5361 147.131 30.7965 147.131 31H146.408C146.429 30.3652 146.638 29.7052 147.033 29.02C147.289 28.5952 147.503 28.299 147.675 28.1313H145.91L145.92 27.5063H148.42V28.0508C148.316 28.1533 148.171 28.3356 147.985 28.5977Z" fill="black"/>
</svg>
